<svg xmlns="http://www.w3.org/2000/svg" viewBox="0 0 2000 2000"><style>.st0,.st1,.st2,.st3{fill:#fff;stroke:#1d1d1b;stroke-width:.5;stroke-linecap:round;stroke-linejoin:round;stroke-miterlimit:10}.st1,.st2,.st3{stroke-width:.25}.st2,.st3{fill:none}.st3{stroke-dasharray:2}</style><g id="Camada_1"><path class="st0" d="M1136 655.7l-137.3-15.6-132 22.2 132.6 154.5z"/><path class="st0" d="M873.2 638s68.9-16.2 134.3-16.2c47.5 0 118.2 17 118.2 17l10.3 30.7s-76.8-19.7-131.8-19.7c-68.9 0-122.1 19.7-122.1 19.7l-8.9-31.5z"/><path class="st0" d="M1297.7 869.5c0-88 28-172 28-172l-170-47.8s-22.3 41.6-58.9 71.6c-20.2 16.6-52.7 24.2-72.4 27.7h-24s-57.7 0-95.1-30.7c-36.6-30.1-54.9-67.6-54.9-67.6l-174 43.8s28 84 28 172c0 62-43 275.5-43 275.5l-1 651.1 681.4-.1-2.7-654.9c0 .1-41.4-206.6-41.4-268.6z"/><path class="st0" d="M1125.7 638.7s-19.8 44.2-54.4 64.8c-21.4 12.7-38.3 16.5-57.3 18.5-3.8-.1-8.7.7-15.3 0-19.5-2.1-47.6-6.6-74.7-23.6-26-16.4-50.8-60.5-50.8-60.5l-24.6 12.7s22.3 41.4 54.9 67.6c19.5 15.7 48.2 28 95.1 30.7l13.6.8 10.4-.8c33.7-5.6 56.3-14.7 72.4-27.7 32.6-26.3 58.9-71.6 58.9-71.6l-28.2-10.9zM1775.9 1512.1c-4.8-20.5-13.3-49.1-29.3-80.4-115.9-227.3-316.1-582.3-340-623.7-45.3-78.4-84.3-112.4-84.3-112.4s-28.6 96.6-28 172c.6 79.9 43.1 270.6 43.1 270.6s167.2 277.9 244.5 406.3c5.7 9.5 19.2 26.4 26 35.8 13.3 18.7 54.7 45.9 54.7 45.9l120-73.1c0 .1-3.3-26.7-6.7-41z"/><path class="st1" d="M1749.8 1544.9c12.3 14.7 8.9 22.8 8.9 22.8s2.1-16.3-6.7-41M1704 1558.7l18 31.4M1662.6 1600.1c12.2 8.1 29.7 8.1 29.7 8.1s-19.3-5.3-27.5-18.1"/><path class="st2" d="M1722 1567.7v23.7l-29.7-17"/><path class="st0" d="M1027.8 207.4c-.4 0-55.9-1.7-67.1.8-48.6 10.9-185.8 128.1-175.3 258.2 8.4 103 58.8 184.3 58.8 184.3s41.2 119.2 150 118.4c1.8 0 4.2-.6 7-1.4 2.8.8 5.3 1.4 7 1.4 108.8.8 150-118.4 150-118.4s54.8-81.3 58.8-184.3c5.2-130.4-136.6-259.3-189.2-259z"/><path class="st0" d="M1002.3 405.4s-107.1-3.4-144 12c-27 11.3-70.6 25.9-68.3 55.1 7.9 102.8 162.7 229.9 162.7 229.9"/><path class="st0" d="M1049.5 702.4s156-106.4 164-229.9c1.9-29.2-41.3-43.8-68.3-55.1-36.9-15.4-144-12-144-12M927.8 708c-8.5 0-15.4 6.9-15.4 15.4s6.9 15.4 15.4 15.4 15.4-6.9 15.4-15.4-6.9-15.4-15.4-15.4zm0 23.1c-4.2 0-7.7-3.4-7.7-7.7 0-4.2 3.4-7.7 7.7-7.7 4.2 0 7.7 3.4 7.7 7.7 0 4.3-3.5 7.7-7.7 7.7z"/><path class="st0" d="M934.2 1024.5h-11.5c-1.1 0-1.9-.9-1.9-1.9v-305c0-1.1.9-1.9 1.9-1.9h11.5c1.1 0 1.9.9 1.9 1.9v304.9c0 1.1-.8 2-1.9 2zM924.8 1024.8h7v31.4h-7zM1070.1 708c-8.5 0-15.4 6.9-15.4 15.4s6.9 15.4 15.4 15.4 15.4-6.9 15.4-15.4-6.9-15.4-15.4-15.4zm0 23.1c-4.2 0-7.7-3.4-7.7-7.7 0-4.2 3.4-7.7 7.7-7.7 4.2 0 7.7 3.4 7.7 7.7 0 4.3-3.5 7.7-7.7 7.7z"/><path class="st0" d="M1076.5 1024.5H1065c-1.1 0-1.9-.9-1.9-1.9v-305c0-1.1.9-1.9 1.9-1.9h11.5c1.1 0 1.9.9 1.9 1.9v304.9c0 1.1-.8 2-1.9 2zM1067.1 1024.8h7v31.4h-7zM662.7 1158.5h674.8M1125.5 1237.4H876.6c-26.4 0-48-21.6-48-48v-32h344.9v32c0 26.4-21.6 48-48 48zM952.6 702.4h96.9v455h-96.9zM1060.6 217.5v187.6M938.1 217.5v189M1674.6 1635.1l114.5-67.4-6.5-14.5-120 73.1z"/><g><path class="st0" d="M224.1 1510.4c4.8-20.5 13.3-49.1 29.3-80.4 115.9-227.3 316.1-582.3 340-623.7 45.3-78.4 84.3-112.4 84.3-112.4s28.6 96.6 28 172c-.6 79.9-43.1 270.6-43.1 270.6s-167.2 277.9-244.5 406.3c-5.7 9.5-19.2 26.4-26 35.8-13.3 18.7-54.7 45.9-54.7 45.9l-120-73.1s3.3-26.8 6.7-41z"/><path class="st1" d="M250.2 1543.1c-12.3 14.7-8.9 22.8-8.9 22.8s-2.1-16.3 6.7-41M296 1557l-18 31.3M337.4 1598.3c-12.2 8.1-29.7 8.1-29.7 8.1s19.3-5.3 27.5-18.1"/><path class="st2" d="M278 1566v23.6l29.7-16.9"/><path class="st0" d="M325.4 1633.4L210.9 1566l6.5-14.6 120 73.1z"/></g><path class="st3" d="M660.4 1761.8h681.3"/><path class="st0" d="M694.4 1509.8h24v172h-24zM1290.3 1514.8h24v172h-24z"/></g></svg>