<svg xmlns="http://www.w3.org/2000/svg" viewBox="0 0 2000 2000"><style>.st0{fill:#fff;stroke:#1d1d1b;stroke-width:.5;stroke-linecap:round;stroke-linejoin:round;stroke-miterlimit:10}</style><path class="st0" d="M1290.8 1010c2.3-77.8 21.5-271.9 21.5-271.9s-52.1-68.9-55.4-129.8c-8.6-159.4-1.9-251.9-1.9-251.9l-56.7-14s1.8 17.9-11.8 108c-7.5 49.9-29.4 89.8-62.2 112.6-21.8 15.2-74.6 18.7-107.6 19.3l-4.9-.1s-4.4.2-11.7.2c-7.3 0-11.7-.2-11.7-.2l-4.9.1c-33-.6-85.8-4.1-107.6-19.3-32.8-22.8-54.6-62.7-62.2-112.6-13.6-90-11.8-108-11.8-108l-56.7 14s6.7 92.5-1.9 251.9c-3.3 60.9-55.4 129.8-55.4 129.8s19.2 194.1 21.5 271.9c2.1 70.2-7.1 260-7.1 260s104.5 38.8 189.5 164.2c42.5 62.6 63.3 223.5 63.3 223.5H1045.2s20.8-160.8 63.3-223.5C1193.6 1308.9 1298 1270 1298 1270s-9.3-189.8-7.2-260z" id="Camada_1"/></svg>