<svg xmlns="http://www.w3.org/2000/svg" viewBox="0 0 2000 2000"><style>.st0,.st1{stroke-miterlimit:10}.st0{fill:#fff;stroke:#1d1d1b;stroke-width:.5;stroke-linecap:round;stroke-linejoin:round}.st1{stroke-dasharray:1}.st1,.st2,.st3{fill:none;stroke:#1d1d1b;stroke-width:.25;stroke-linecap:round;stroke-linejoin:round}.st3{stroke-dasharray:1.0045,1.0045}.st4{stroke-dasharray:2}.st4,.st5,.st6{fill:none;stroke:#1d1d1b;stroke-width:.5;stroke-linecap:round;stroke-linejoin:round;stroke-miterlimit:10}.st6{stroke-width:.25;stroke-dasharray:1,2}</style><g id="Camada_1"><path class="st0" d="M666.2 1776.5H881v102.1H666.2z"/><path class="st1" d="M677.1 1776.5v102.1M687.4 1776.5v102.1M697.8 1776.5v102.1M708.1 1776.5v102.1M718.4 1776.5v102.1M728.7 1776.5v102.1M739 1776.5v102.1M749.3 1776.5v102.1M759.6 1776.5v102.1M769.9 1776.5v102.1M780.2 1776.5v102.1M790.6 1776.5v102.1M800.9 1776.5v102.1M811.2 1776.5v102.1M821.5 1776.5v102.1M831.8 1776.5v102.1M842.1 1776.5v102.1M852.4 1776.5v102.1M862.7 1776.5v102.1M873 1776.5v102.1M666.2 1797.8h214.9M666.2 1827.6H873M666.2 1855.1H873"/><path class="st0" d="M999.3 210.9v424.9l-60.9 983.6s-3 89.3-27.5 140.7c-24.4 51-42.6 35.4-42.6 35.4h-194s-44.1-14.1-50.1-141.3c-1.1-24-6.2-288-6.2-288L605.8 210.9h393.5z"/><g><path transform="rotate(-180 1225.606 1827.56)" class="st0" d="M1118.2 1776.5H1333v102.1h-214.8z"/><path class="st1" d="M1322.1 1776.5v102.1M1311.8 1776.5v102.1M1301.5 1776.5v102.1M1291.2 1776.5v102.1M1280.9 1776.5v102.1M1270.6 1776.5v102.1M1260.2 1776.5v102.1M1249.9 1776.5v102.1M1239.6 1776.5v102.1M1229.3 1776.5v102.1M1219 1776.5v102.1M1208.7 1776.5v102.1M1198.4 1776.5v102.1M1188.1 1776.5v102.1M1177.8 1776.5v102.1M1167.4 1776.5v102.1M1157.1 1776.5v102.1M1146.8 1776.5v102.1M1136.5 1776.5v102.1M1126.2 1776.5v102.1M1333 1797.8h-214.8M1333 1827.6h-206.8M1333 1855.1h-206.8"/></g><path class="st0" d="M999.9 210.9v424.9l60.9 983.6s3 89.3 27.5 140.7c24.4 51 42.6 35.4 42.6 35.4h194s44.1-14.1 50.1-141.3c1.1-24 6.2-288 6.2-288l12.2-1155.3H999.9zM606.1 121.4h788.1v89.5H606.1z"/><g><path class="st2" d="M630.2 121.4l.1.5"/><path class="st3" d="M630.4 122.9l6.1 43.3-6.1 43.7"/><path class="st2" d="M630.3 210.4l-.1.5M642.4 121.4l.1.5"/><path class="st3" d="M642.6 122.9l6.1 43.3-6.1 43.7"/><path class="st2" d="M642.5 210.4l-.1.5M654.6 121.4l.1.5"/><path class="st3" d="M654.8 122.9l6.1 43.3-6.1 43.7"/><path class="st2" d="M654.7 210.4l-.1.5M666.8 121.4l.1.5"/><path class="st3" d="M667.1 122.9l6 43.3-6.1 43.7"/><path class="st2" d="M666.9 210.4l-.1.5M679 121.4l.1.5"/><path class="st3" d="M679.3 122.9l6 43.3-6.1 43.7"/><path class="st2" d="M679.1 210.4l-.1.5M691.3 121.4v.5"/><path class="st3" d="M691.5 122.9l6 43.3-6.1 43.7"/><path class="st2" d="M691.3 210.4v.5M703.5 121.4v.5"/><path class="st3" d="M703.7 122.9l6 43.3-6.1 43.7"/><path class="st2" d="M703.5 210.4v.5M715.7 121.4v.5"/><path class="st3" d="M715.9 122.9l6 43.3-6.1 43.7"/><path class="st2" d="M715.7 210.4v.5M727.9 121.4v.5"/><path class="st3" d="M728.1 122.9l6 43.3-6.1 43.7"/><path class="st2" d="M727.9 210.4v.5M740.1 121.4v.5"/><path class="st3" d="M740.3 122.9l6 43.3-6.1 43.7"/><path class="st2" d="M740.1 210.4v.5M605.8 121.4l.1.5"/><path class="st3" d="M606 122.9l6.1 43.3-6.1 43.7"/><path class="st2" d="M605.9 210.4l-.1.5"/><g><path class="st2" d="M618 121.4l.1.5"/><path class="st3" d="M618.2 122.9l6.1 43.3-6.1 43.7"/><path class="st2" d="M618.1 210.4l-.1.5"/></g><g><path class="st2" d="M752.3 121.4v.5"/><path class="st3" d="M752.5 122.9l6 43.3-6.1 43.7"/><path class="st2" d="M752.3 210.4v.5"/></g><g><path class="st2" d="M764.5 121.4l.1.5"/><path class="st3" d="M764.7 122.9l6 43.3-6.1 43.7"/><path class="st2" d="M764.6 210.4l-.1.5"/></g><g><path class="st2" d="M776.7 121.4l.1.5"/><path class="st3" d="M776.9 122.9l6 43.3-6.1 43.7"/><path class="st2" d="M776.8 210.4l-.1.5"/></g><g><path class="st2" d="M788.9 121.4l.1.5"/><path class="st3" d="M789.1 122.9l6 43.3-6.1 43.7"/><path class="st2" d="M789 210.4l-.1.5"/></g><g><path class="st2" d="M801.1 121.4l.1.5"/><path class="st3" d="M801.3 122.9l6 43.3-6.1 43.7"/><path class="st2" d="M801.2 210.4l-.1.5"/></g><g><path class="st2" d="M813.3 121.4l.1.5"/><path class="st3" d="M813.5 122.9l6 43.3-6.1 43.7"/><path class="st2" d="M813.4 210.4l-.1.5"/></g><g><path class="st2" d="M825.5 121.4l.1.5"/><path class="st3" d="M825.7 122.9l6 43.3-6.1 43.7"/><path class="st2" d="M825.6 210.4l-.1.5"/></g><g><path class="st2" d="M837.7 121.4l.1.5"/><path class="st3" d="M837.9 122.9l6.1 43.3-6.2 43.7"/><path class="st2" d="M837.8 210.4l-.1.5"/></g><g><path class="st2" d="M849.9 121.4l.1.5"/><path class="st3" d="M850.1 122.9l6.1 43.3-6.1 43.7"/><path class="st2" d="M850 210.4l-.1.5"/></g><g><path class="st2" d="M862.1 121.4l.1.5"/><path class="st3" d="M862.3 122.9l6.1 43.3-6.1 43.7"/><path class="st2" d="M862.2 210.4l-.1.5"/></g><g><path class="st2" d="M874.3 121.4l.1.5"/><path class="st3" d="M874.5 122.9l6.1 43.3-6.1 43.7"/><path class="st2" d="M874.4 210.4l-.1.5"/></g><g><path class="st2" d="M886.5 121.4l.1.5"/><path class="st3" d="M886.7 122.9l6.1 43.3-6.1 43.7"/><path class="st2" d="M886.6 210.4l-.1.5"/></g><g><path class="st2" d="M898.7 121.4l.1.5"/><path class="st3" d="M898.9 122.9l6.1 43.3-6.1 43.7"/><path class="st2" d="M898.8 210.4l-.1.5"/></g><g><path class="st2" d="M910.9 121.4l.1.5"/><path class="st3" d="M911.1 122.9l6.1 43.3-6.1 43.7"/><path class="st2" d="M911 210.4l-.1.5"/></g><g><path class="st2" d="M923.1 121.4l.1.5"/><path class="st3" d="M923.3 122.9l6.1 43.3-6.1 43.7"/><path class="st2" d="M923.2 210.4l-.1.5"/></g><g><path class="st2" d="M935.3 121.4l.1.5"/><path class="st3" d="M935.6 122.9l6 43.3-6.1 43.7"/><path class="st2" d="M935.4 210.4l-.1.5"/></g><g><path class="st2" d="M947.5 121.4l.1.5"/><path class="st3" d="M947.8 122.9l6 43.3-6.1 43.7"/><path class="st2" d="M947.6 210.4l-.1.5"/></g><g><path class="st2" d="M959.8 121.4v.5"/><path class="st3" d="M960 122.9l6 43.3-6.1 43.7"/><path class="st2" d="M959.8 210.4v.5"/></g><g><path class="st2" d="M972 121.4v.5"/><path class="st3" d="M972.2 122.9l6 43.3-6.1 43.7"/><path class="st2" d="M972 210.4v.5"/></g><g><path class="st2" d="M984.2 121.4v.5"/><path class="st3" d="M984.4 122.9l6 43.3-6.1 43.7"/><path class="st2" d="M984.2 210.4v.5"/></g></g><g><path class="st2" d="M1363.5 121.4v.5"/><path class="st3" d="M1363.3 122.9l-6 43.3 6.1 43.7"/><path class="st2" d="M1363.5 210.4v.5M1351.3 121.4l-.1.5"/><path class="st3" d="M1351.1 122.9l-6 43.3 6.1 43.7"/><path class="st2" d="M1351.2 210.4l.1.5M1339.1 121.4l-.1.5"/><path class="st3" d="M1338.9 122.9l-6 43.3 6.1 43.7"/><path class="st2" d="M1339 210.4l.1.5M1326.9 121.4l-.1.5"/><path class="st3" d="M1326.7 122.9l-6 43.3 6.1 43.7"/><path class="st2" d="M1326.8 210.4l.1.5M1314.7 121.4l-.1.5"/><path class="st3" d="M1314.5 122.9l-6 43.3 6.1 43.7"/><path class="st2" d="M1314.6 210.4l.1.5M1302.5 121.4l-.1.5"/><path class="st3" d="M1302.3 122.9l-6 43.3 6.1 43.7"/><path class="st2" d="M1302.4 210.4l.1.5M1290.3 121.4l-.1.5"/><path class="st3" d="M1290.1 122.9l-6.1 43.3 6.2 43.7"/><path class="st2" d="M1290.2 210.4l.1.5M1278.1 121.4l-.1.5"/><path class="st3" d="M1277.9 122.9l-6.1 43.3 6.2 43.7"/><path class="st2" d="M1278 210.4l.1.5M1265.9 121.4l-.1.5"/><path class="st3" d="M1265.7 122.9l-6.1 43.3 6.1 43.7"/><path class="st2" d="M1265.8 210.4l.1.5M1253.7 121.4l-.1.5"/><path class="st3" d="M1253.5 122.9l-6.1 43.3 6.1 43.7"/><path class="st2" d="M1253.6 210.4l.1.5M1387.9 121.4v.5"/><path class="st3" d="M1387.7 122.9l-6 43.3 6.1 43.7"/><path class="st2" d="M1387.9 210.4v.5"/><g><path class="st2" d="M1375.7 121.4v.5"/><path class="st3" d="M1375.5 122.9l-6 43.3 6.1 43.7"/><path class="st2" d="M1375.7 210.4v.5"/></g><g><path class="st2" d="M1241.5 121.4l-.1.5"/><path class="st3" d="M1241.3 122.9l-6.1 43.3 6.1 43.7"/><path class="st2" d="M1241.4 210.4l.1.5"/></g><g><path class="st2" d="M1229.3 121.4l-.1.5"/><path class="st3" d="M1229.1 122.9l-6.1 43.3 6.1 43.7"/><path class="st2" d="M1229.2 210.4l.1.5"/></g><g><path class="st2" d="M1217.1 121.4l-.1.5"/><path class="st3" d="M1216.9 122.9l-6.1 43.3 6.1 43.7"/><path class="st2" d="M1217 210.4l.1.5"/></g><g><path class="st2" d="M1204.9 121.4l-.1.5"/><path class="st3" d="M1204.7 122.9l-6.1 43.3 6.1 43.7"/><path class="st2" d="M1204.8 210.4l.1.5"/></g><g><path class="st2" d="M1192.7 121.4l-.1.5"/><path class="st3" d="M1192.5 122.9l-6.1 43.3 6.1 43.7"/><path class="st2" d="M1192.6 210.4l.1.5"/></g><g><path class="st2" d="M1180.5 121.4l-.1.5"/><path class="st3" d="M1180.2 122.9l-6 43.3 6.1 43.7"/><path class="st2" d="M1180.4 210.4l.1.5"/></g><g><path class="st2" d="M1168.2 121.4v.5"/><path class="st3" d="M1168 122.9l-6 43.3 6.1 43.7"/><path class="st2" d="M1168.2 210.4v.5"/></g><g><path class="st2" d="M1156 121.4v.5"/><path class="st3" d="M1155.8 122.9l-6 43.3 6.1 43.7"/><path class="st2" d="M1156 210.4v.5"/></g><g><path class="st2" d="M1143.8 121.4v.5"/><path class="st3" d="M1143.6 122.9l-6 43.3 6.1 43.7"/><path class="st2" d="M1143.8 210.4v.5"/></g><g><path class="st2" d="M1131.6 121.4v.5"/><path class="st3" d="M1131.4 122.9l-6 43.3 6.1 43.7"/><path class="st2" d="M1131.6 210.4v.5"/></g><g><path class="st2" d="M1119.4 121.4v.5"/><path class="st3" d="M1119.2 122.9l-6 43.3 6.1 43.7"/><path class="st2" d="M1119.4 210.4v.5"/></g><g><path class="st2" d="M1107.2 121.4v.5"/><path class="st3" d="M1107 122.9l-6 43.3 6.1 43.7"/><path class="st2" d="M1107.2 210.4v.5"/></g><g><path class="st2" d="M1095 121.4v.5"/><path class="st3" d="M1094.8 122.9l-6 43.3 6.1 43.7"/><path class="st2" d="M1095 210.4v.5"/></g><g><path class="st2" d="M1082.8 121.4l-.1.5"/><path class="st3" d="M1082.6 122.9l-6 43.3 6.1 43.7"/><path class="st2" d="M1082.7 210.4l.1.5"/></g><g><path class="st2" d="M1070.6 121.4l-.1.5"/><path class="st3" d="M1070.4 122.9l-6 43.3 6.1 43.7"/><path class="st2" d="M1070.5 210.4l.1.5"/></g><g><path class="st2" d="M1058.4 210.9l-.1-.5"/><path class="st3" d="M1058.2 209.5l-6-43.3 6.1-43.8"/><path class="st2" d="M1058.3 121.9l.1-.5"/></g><g><path class="st2" d="M1046.2 121.4l-.1.5"/><path class="st3" d="M1046 122.9l-6 43.3 6.1 43.7"/><path class="st2" d="M1046.1 210.4l.1.5"/></g><g><path class="st2" d="M1034 121.4l-.1.5"/><path class="st3" d="M1033.8 122.9l-6 43.3 6.1 43.7"/><path class="st2" d="M1033.9 210.4l.1.5"/></g><g><path class="st2" d="M1021.8 121.4l-.1.5"/><path class="st3" d="M1021.6 122.9l-6.1 43.3 6.2 43.7"/><path class="st2" d="M1021.7 210.4l.1.5"/></g><g><path class="st2" d="M1009.6 121.4l-.1.5"/><path class="st3" d="M1009.4 122.9l-6.1 43.3 6.2 43.7"/><path class="st2" d="M1009.5 210.4l.1.5"/></g></g><path class="st1" d="M608.9 143.8h779M605.8 166.2h788.4M608.9 188.6h785.3"/><path class="st0" d="M1021.8 150.8c-8.5 0-15.4 6.9-15.4 15.4s6.9 15.4 15.4 15.4 15.4-6.9 15.4-15.4-6.9-15.4-15.4-15.4zm0 23.1c-4.2 0-7.7-3.4-7.7-7.7 0-4.2 3.4-7.7 7.7-7.7s7.7 3.4 7.7 7.7c0 4.2-3.5 7.7-7.7 7.7zM975.1 150.8c-8.5 0-15.4 6.9-15.4 15.4s6.9 15.4 15.4 15.4 15.4-6.9 15.4-15.4-6.9-15.4-15.4-15.4zm0 23.1c-4.2 0-7.7-3.4-7.7-7.7 0-4.2 3.4-7.7 7.7-7.7s7.7 3.4 7.7 7.7c0 4.2-3.5 7.7-7.7 7.7z"/><path class="st4" d="M1058.4 210.9s0 136-3.1 210c-.7 15.6-53.7 32-53.7 32"/><g><path class="st0" d="M981.5 467.2H970c-1.1 0-1.9-.9-1.9-1.9V160.4c0-1.1.9-1.9 1.9-1.9h11.5c1.1 0 1.9.9 1.9 1.9v304.9c0 1.1-.8 1.9-1.9 1.9zM972.1 467.6h7V499h-7z"/></g><g><path class="st0" d="M1029.5 467.2H1018c-1.1 0-1.9-.9-1.9-1.9V160.4c0-1.1.9-1.9 1.9-1.9h11.5c1.1 0 1.9.9 1.9 1.9v304.9c0 1.1-.8 1.9-1.9 1.9zM1020.1 467.6h7V499h-7z"/></g><path class="st1" d="M996.9 121.4v89.5"/><g><path class="st5" d="M1390.4 537.6H1370l.4-253.7 20.3.1"/><path class="st6" d="M1390.8 278.9h-24.4l-.4 264.2h24.2"/></g><g><path class="st5" d="M609.2 537.6h20.3l-.3-253.7-20.3.1"/><path class="st6" d="M608.7 278.9h24.5l.4 264.2h-24.2"/></g><path class="st0" d="M1033.9 662.2h-71.3"/></g></svg>