<svg xmlns="http://www.w3.org/2000/svg" viewBox="0 0 2000 2000"><style>.st0,.st1{fill:#fff;stroke:#1d1d1b;stroke-width:.5;stroke-linecap:round;stroke-linejoin:round;stroke-miterlimit:10}.st1{fill:none;stroke-width:.25;stroke-dasharray:2}</style><g id="Camada_1"><path class="st0" d="M1136.5 484.1l-137.4-15.6-131.9 22.2 132.6 154.6z"/><path class="st0" d="M883.5 452.5s50.3-13.1 115.7-13.1c47.5 0 117 16.1 117 16.1l11.5 43.5s-72.8-23.8-127.8-23.8c-68.9 0-126.1 23.8-126.1 23.8l9.7-46.5zM445 672.4s133.2-93.1 181.2-123.7c9.3-6 48.9-25.8 48.9-25.8s28.6 96.6 28 172c-.6 79.9-36 140-36 140l-85.3 58L445 672.4z"/><path class="st0" d="M1296.5 697.9c0-88 28-172 28-172l-186-47.8s-6.3 29.6-42.9 59.6c-20.2 16.6-46.2 24.2-65.9 27.7h-30.5s-57.7 0-95.1-30.7c-36.6-30.1-42.9-59.6-42.9-59.6l-186 47.8s28 84 28 172c0 62-36 140-36 140v722.7l665.3 3V837.9s-36-78-36-140z"/><path class="st0" d="M1116.1 455.6s-15 38-41 54.4c-21 13.3-41.7 18.6-60.7 20.6-3.8-.1-8.7.7-15.3 0-19.5-2.1-47.6-6.6-74.7-23.6-26-16.4-41-54.4-41-54.4l-22.3 22.6s10.3 37.4 42.9 63.6c19.5 15.7 48.2 28 95.1 30.7 13.6.8 24 0 24 0 33.7-5.6 56.3-14.7 72.4-27.7 32.6-26.3 42.9-63.6 42.9-63.6l-22.3-22.6z"/><path class="st1" d="M1332.5 1536.6H667.1M462.4 660.3l135.7 221.6"/><path class="st0" d="M1555 674.6s-133.2-93.1-181.2-123.7c-9.3-6-48.9-25.8-48.9-25.8s-28.6 96.6-28 172c.6 79.9 36 140 36 140l85.3 58L1555 674.6z"/><path class="st1" d="M1537.6 662.5l-135.7 221.6"/></g></svg>