<svg xmlns="http://www.w3.org/2000/svg" viewBox="0 0 2000 2000"><style>.st0{fill:#fff;stroke:#1d1d1b;stroke-width:.5;stroke-linecap:round;stroke-linejoin:round;stroke-miterlimit:10}.st1{stroke-dasharray:2}.st1,.st2{fill:#fff;stroke:#1d1d1b;stroke-width:.25;stroke-linecap:round;stroke-linejoin:round;stroke-miterlimit:10}</style><g id="Camada_1"><path class="st0" d="M1137.5 466.1l-137.3-15.6-131.9 22.2 132.5 154.6z"/><path class="st0" d="M884.5 450.5s50.3-13.1 115.7-13.1c47.5 0 117 16.1 117 16.1l11.5 31.5s-72.8-23.8-127.8-23.8c-68.9 0-126.1 23.8-126.1 23.8l9.7-34.5zM228.5 1334.6c4.8-20.5 13.3-49.1 29.3-80.4 115.9-227.3 310.1-595.5 334.1-637 45.3-78.4 84.3-112.4 84.3-112.4s28.6 96.6 28 172c-.6 79.9-36 176.4-36 176.4s-186.2 374-263.5 502.4c-5.7 9.5-19.2 26.4-26 35.8-13.3 18.7-50.8 39.1-50.8 39.1L225 1368s.2-19.2 3.5-33.4z"/><path class="st0" d="M1297.5 679.9c0-88 28-172 28-172l-186-47.8s-6.3 33.6-42.9 63.6c-20.2 16.6-46.2 24.2-65.9 27.7h-30.5s-57.7 0-95.1-30.7c-36.6-30.1-42.9-63.6-42.9-63.6l-186 47.8s28 84 28 172c0 62-36 176.4-36 176.4v706.3l665.3 3V854.7c0-.1-36-112.8-36-174.8z"/><path class="st0" d="M1117.2 453.6s-15 38-41 54.4c-21 13.3-41.7 18.6-60.7 20.6-3.8-.1-8.7.7-15.3 0-19.5-2.1-47.6-6.6-74.7-23.6-26-16.4-41-54.4-41-54.4l-22.3 6.6s10.3 37.4 42.9 63.6c19.5 15.7 48.2 28 95.1 30.7 13.6.8 24 0 24 0 33.7-5.6 56.3-14.7 72.4-27.7 32.6-26.3 42.9-63.6 42.9-63.6l-22.3-6.6z"/><path class="st1" d="M1333.5 1538.6H668.2"/><path class="st0" d="M225 1368l-23.9 51.1 97.8 58.7 29-47.2z"/><path class="st2" d="M248.7 1354.1c-12.3 14.7-8.9 22.8-8.9 22.8s-2.1-16.3 6.7-41M294.5 1368l-18 31.3M335.9 1409.3c-12.2 8.1-29.7 8.1-29.7 8.1s19.3-5.3 27.5-18.1M276.5 1376.9v23.7l29.7-17M231.1 1371.6l-26.9 49.4M210.1 1424.5l27.1-47.6M217.7 1429l26.3-49.5M251 1383.6l-26.9 49.3M230 1436.5l27.1-47.6M237.6 1441l26.3-49.5M269.7 1395.9l-26 47.3M249.5 1446.7l26.3-45.5M257.1 1451.3l25.6-47.5M289.6 1407.9l-26 47.3M269.4 1458.7l26.3-45.5M277 1463.3l25.6-47.5M283 1467.5l26.4-49.5M316.4 1422.1l-26.9 49.3M295.4 1475l27.1-47.6"/><path class="st0" d="M1771.5 1335.8c-4.8-20.5-13.3-49.1-29.3-80.4-115.9-227.3-310.1-595.5-334.1-637-45.3-78.4-84.3-112.4-84.3-112.4s-28.6 96.6-28 172c.6 79.9 36 176.4 36 176.4s186.2 373.9 263.5 502.4c5.7 9.5 19.2 26.4 26 35.8 13.3 18.7 50.8 39.1 50.8 39.1l102.8-62.7c.1.1-.1-19-3.4-33.2zM1775 1369.1l23.9 51.2-97.8 58.7-29-47.2z"/><path class="st2" d="M1751.3 1355.3c12.3 14.7 8.9 22.8 8.9 22.8s2.1-16.3-6.7-41M1705.5 1369.1l18 31.4M1664.1 1410.5c12.2 8.1 29.7 8.1 29.7 8.1s-19.3-5.3-27.5-18.1M1723.5 1378.1v23.7l-29.7-17M1768.9 1372.8l26.9 49.4M1789.9 1425.7l-27.1-47.6M1782.3 1430.2l-26.3-49.5M1749 1384.8l26.9 49.3M1770 1437.7l-27.1-47.6M1762.4 1442.2l-26.3-49.5M1730.3 1397.1l26 47.3M1750.5 1447.9l-26.3-45.5M1742.9 1452.5l-25.6-47.5M1710.4 1409.1l26 47.3M1730.6 1459.9l-26.3-45.5M1723 1464.4l-25.6-47.4M1717 1468.7l-26.4-49.5M1683.6 1423.3l26.9 49.3M1704.6 1476.2l-27.1-47.6"/></g></svg>