<svg xmlns="http://www.w3.org/2000/svg" viewBox="0 0 2000 2000"><style>.st0,.st1{fill:#fff;stroke:#1d1d1b;stroke-width:.5;stroke-linecap:round;stroke-linejoin:round;stroke-miterlimit:10}.st1{fill:none;stroke-width:.25;stroke-dasharray:2}</style><g id="Camada_1"><path class="st0" d="M1136.6 476.1l-137.3-15.6-131.9 22.2L1000 637.3z"/><path class="st0" d="M883.7 460.5s50.3-13.1 115.7-13.1c47.5 0 117 16.1 117 16.1l11.5 31.5s-72.8-23.8-127.8-23.8C931.2 471.2 874 495 874 495l9.7-34.5zM466.4 647.7s132.2-89.5 180.2-120.2c9.3-6 28.7-12.6 28.7-12.6s28.6 96.6 28 172c-.6 79.9-36 140-36 140l-72 37.3-128.9-216.5z"/><path class="st0" d="M1296.7 689.9c0-88 28-172 28-172l-186-47.8s-6.3 33.6-42.9 63.6c-20.2 16.6-46.2 24.2-65.9 27.7h-30.5s-57.7 0-95.1-30.7c-36.6-30.1-42.9-63.6-42.9-63.6l-186 47.8s28 84 28 172c0 62-36 140-36 140v722.7l665.3 3V829.9s-36-78-36-140z"/><path class="st0" d="M1533.6 650.7s-132.2-89.5-180.2-120.2c-9.3-6-28.7-12.6-28.7-12.6s-28.6 96.6-28 172c.6 79.9 36 140 36 140l72 37.3 128.9-216.5zM1116.3 463.6s-15 38-41 54.4c-21 13.3-41.7 18.6-60.7 20.6-3.8-.1-8.7.7-15.3 0-19.5-2.1-47.6-6.6-74.7-23.6-26-16.4-41-54.4-41-54.4l-22.3 6.6s10.3 37.4 42.9 63.6c19.5 15.7 48.2 28 95.1 30.7 13.6.8 24 0 24 0 33.7-5.6 56.3-14.7 72.4-27.7 32.6-26.3 42.9-63.6 42.9-63.6l-22.3-6.6z"/><path class="st1" d="M488.3 637.3l125.8 217.2M1513.6 637.3l-125.7 217.2M1332.7 1528.6H667.3M4728.3 1629.1h52.4"/></g></svg>