<svg xmlns="http://www.w3.org/2000/svg" xmlns:xlink="http://www.w3.org/1999/xlink" viewBox="0 0 2000 2000"><style>.st0{fill:#fff;stroke:#1d1d1b;stroke-width:.5;stroke-linecap:round;stroke-linejoin:round;stroke-miterlimit:10}.st1{clip-path:url(#SVGID_2_)}.st2{clip-path:url(#SVGID_4_)}.st3{clip-path:url(#SVGID_6_)}.st4,.st5{fill:none;stroke:#1d1d1b;stroke-width:.25;stroke-linecap:round;stroke-linejoin:round;stroke-miterlimit:10}.st5{stroke-dasharray:2}</style><g id="Camada_1"><path class="st0" d="M606.7 120.3h786.6v85.4H606.7z"/><defs><path id="SVGID_1_" d="M606.7 121.9h786.6v85.4H606.7z"/></defs><clipPath id="SVGID_2_"><use xlink:href="#SVGID_1_" overflow="visible"/></clipPath><g class="st1"><path d="M772.4 166.3c-.3.1-.8.2-1.3.4-6.7 1.9-12.9 3.4-19.5 4.9-2 .4-4 .6-5.6.7-.3 0-.8-.1-.9-.4 0-.2.1-.6.1-.8.5-1.7 1-3.5 1.6-5.2.1-.4.4-.7.8-.9 1.9-1.1 3.8-2.3 5.8-3.4 1.8-1 3.3-2.4 4.6-3.9.4-.4.7-.9 1-1.3.2-.4.4-.9.5-1.4.2-1.2-.3-2.1-1.3-2.7-1.3-.8-2.8-1.5-4.3-2-1-.3-2-.3-2.8.3-.6.4-1.1.9-1.6 1.4-.5.6-1 1.2-1.4 1.9-1.5 2.3-2.7 4.7-3.7 7.2-.6 1.6-1.8 2.3-3.3 2.8h-.4c.1-.5.3-1 .4-1.4.3-1.4.9-2.8 1.7-4 .5-.8 1-1.7 1.5-2.5.3-.5.5-1 .7-1.6.4-1 .1-1.8-.8-2.4-.8-.5-1.6-1-2.5-1.5l-.6-.3c-.4-.1-.6 0-.7.4-.2 1.2-.8 2.2-1.4 3.2-3 4.8-6.4 9.2-9.9 13.7-.4.5-.9 1-1.3 1.5-.2.2-.3.4-.7.3.2-.6.4-1.2.7-1.8 1.8-4.3 3.8-8.6 5.5-13 .3-.7.2-1.2-.2-1.8-.8-1.1-1.8-2-2.9-2.8-.5-.3-.6-.3-.9.3-.2.3-.4.6-.6.8-1.1.8-2.4 1.2-3.8 1.4-1.6.1-3.1-.3-4.6-1-.9-.5-1.7-1-2.5-1.4-.2-.1-.4-.2-.6-.2-.3-.1-.5.1-.4.4l.3.6c.5.7 1.1 1.3 1.6 1.9.6.7.8 1.4.6 2.2 0 .2-.1.5-.2.7-.9 3.1-2.3 6.1-3.9 8.9-1.2 2.1-2.8 3.9-4.7 5.4-.4.3-.7.5-1.2.7v-.4c.1-1.5.4-3 .8-4.4 1-3.6 2.5-6.9 4.5-10 .2-.3.4-.6.7-.9.3-.4.7-.5 1.2-.4.2.1.5.2.7.2.2 0 .5 0 .6-.2.2-.2 0-.4-.1-.6-.1-.1-.2-.3-.3-.4-1.1-1.2-2.3-2.3-3.7-3.3-.8-.5-1.3-.5-2 0-.2.2-.4.3-.5.5-.3.4-.7.9-1 1.3-.3.4-.7.9-1.1 1.2-1.2 1-2.4 1.9-3.6 2.9-3.6 3-6.9 6.3-9.7 10-.1.2-.3.3-.5.5-1-2.2-1.9-4.4-2.9-6.6l.6-.3c1.1-.5 2.2-1 3.2-1.5 1.4-.6 2.6-1.4 3.8-2.4.4-.4.9-.8 1.2-1.3.8-1.1.8-1.6-.4-2.4-1.3-.9-2.6-1.5-4.1-1.9-1.1-.3-2.2-.5-3.3-.8-.2-.1-.5-.1-.6-.2-.9-.9-2-1.4-3.1-2-.8-.5-1.2-.3-1.4.7 0 .1 0 .2-.1.4-.1.5-.3 1-.5 1.5-.7 1.6-1.3 3.2-2 4.8-.1.1-.2.3-.2.4-.1-1-.7-1.6-1.5-2.1-1-.7-2.1-1.3-3.3-1.6-1.1-.4-2.2-.6-3.3-1-.1-.4-.4-.7-.8-.9-.8-.5-1.6-1-2.4-1.4-.1-.1-.2-.1-.3-.1-.6-.3-.9-.2-1.1.5-.1.3-.1.5-.2.8-.2.7-.3 1.4-.6 2.1-1.6 3.7-3.2 7.5-5.1 11.1l-4.8 8.7c-.4.7-.7 1.4-.8 2.2 0 .4 0 .7.2 1 .6.9 1.5 1.7 2.3 2.5.5.4.8.4 1.2-.1.3-.4.6-.9.8-1.4 1.8-4 3.8-8 5.9-11.9.3-.6.8-1 1.5-1.2.6-.2 1.2-.4 1.7-.5 2.3-.7 4.6-1.6 6.7-2.8 1-.6 2-1.2 2.8-2.1.1-.1.1-.1.3-.2-.1.2-.1.3-.2.4-1.8 3.8-3.7 7.5-5.8 11.1-.6 1-1.1 1.9-1.6 2.9-.4.9-.4 1.7.2 2.5.6.8 1.4 1.4 2.3 1.9.5.3.7.2 1.1-.3.2-.4.4-.8.7-1.2l6-11.7c.1-.2.2-.4.4-.7.2.3.3.5.4.8l3.6 8.1c.5 1.1 1.1 2.1 1.6 3.1.2.3.5.6.8.8.5.4.9.3 1.3-.2.1-.2.3-.3.4-.5 1.2-1.9 2.4-3.7 3.6-5.6 1.8-2.8 4-5.4 6.5-7.7.2-.1.3-.3.6-.4 0 .2-.1.3-.1.4-.4 1.2-.8 2.4-1.1 3.6-.5 1.7-1 3.3-1 5.1 0 1.2.2 2.3 1.3 3 .9.6 1.9 1.2 2.8 1.8 1 .6 2.1.6 3.2.1 1-.4 1.9-.9 2.6-1.6 1.7-1.5 3.1-3.2 4.4-5.2 1.4-2.2 2.6-4.6 3.8-7 .6-1.2 1-2.5 1.1-3.8.1-.5.1-.9-.3-1.4h2.1c.7-.1 1.3-.2 2-.4v.2c-.6 1.6-1.2 3.1-1.7 4.7-1.4 3.8-2.9 7.6-4.1 11.5-.2.8-.2 1.5.3 2.1.9 1.1 1.9 2 3 2.8.8.5 1.6.6 2.5.2.8-.3 1.4-.8 2-1.4l2.7-3c1.4-1.6 2.7-3.2 4.1-4.8.2-.2.4-.4.6-.7l.5.5 1.8 1.8c.5.5 1 .6 1.6.3l.6-.3c.1-.1.2-.1.4-.1-.3 1.1-.6 2.2-.9 3.2-.2.7-.1 1.3.3 1.9.6 1 1.4 1.8 2.3 2.6.5.5 1.2.7 1.9.8 1 .1 2.4-.1 4.1-.3 3.7-.8 5-1.2 8.4-1.9 5-1.2 6.9-1.6 11.3-2.9.8-.3 2-.7 2.8-1.1.7-.4 1-.9 1.1-1.4.3-1 .3-1.2.4-2.4-.3-.3-.5-.6-1-.5zm-23-6.8c1-1.7 2-3.4 3.3-4.9l1.5-1.5c.1-.1.3-.2.4-.3.4-.2.7-.1.7.3 0 .3 0 .7-.1 1.1-.3 1-.8 1.8-1.5 2.5-1.2 1.2-2.6 2.2-4.1 3-.1 0-.2.1-.4.1.1-.1.1-.2.2-.3zm-68-4.6c-.1.2-.3.3-.5.4-2 1.4-4.3 2.3-6.6 3h-.2c.7-1.5 1.4-3 2.1-4.6 1.1 0 2.2-.1 3.3-.1.6 0 1.1.1 1.6.4.6.3.6.5.3.9zm8.2 2.4c.1-.3.2-.4.2-.6l1.5-3.3c.2-.5.5-.8 1.2-.8 1 .1 2.1 0 3.1.1.4 0 .8.1 1.1.2.6.3.7.6.2 1.1-.2.2-.5.4-.7.5-1.2.8-2.5 1.3-3.8 1.8-.9.4-1.8.7-2.8 1z"/><path d="M667.1 159c.9-.5 1.6-1.3 2.1-2.2.7-1.4.4-3-.7-4-.4-.4-.9-.7-1.3-.9-1.5-.8-3.1-1.3-4.8-1.5-.6-.1-1.1-.2-1.6-.7-.6-.7-1.3-1.2-2-1.8-.2-.2-.4-.3-.7-.4-.5-.2-.8 0-.9.5 0 .2 0 .4-.1.6-.1.6-.1 1.3-.4 1.9-.9 2.2-1.8 4.3-2.8 6.5-.1.3-.3.4-.6.4-2.1.5-4.1.9-6.2 1.4-.2 0-.4.1-.6.1.1-.4.1-.8.2-1.1l2.4-11.7c.4-1.8.8-3.6 1.3-5.3.3-1.1.5-2.2.8-3.2.1-.4.1-.7-.1-1.1-.6-1.5-1.7-2.6-3.1-3.4-.6-.3-1-.1-1 .5 0 .8-.3 1.4-.7 2-.2.2-.3.4-.4.6-4.4 6.6-8.8 13.1-13.2 19.7-1.3 2-2.7 4-4 6.1-.2.3-.3.4-.7.5-1.9.3-3.7.7-5.6 1-4.6.7-9.3 1.2-13.9 1.6-.5 0-1 .1-1.4.3-.7.2-.9.6-.5 1.2.3.6.8 1.1 1.2 1.6.4.5 1 .7 1.6.7 1.4.1 2.9 0 4.3-.2 3.6-.5 7.2-1.1 10.9-1.6.2 0 .5-.1.8-.1-.2.3-.3.5-.4.6-1.3 2-2.5 4-3.8 6-.5.8-.5 1.5.1 2.2.6.8 1.3 1.6 1.9 2.3.2.2.5.4.8.6.3.2.5.1.7-.1.2-.3.5-.7.7-1.1 2.1-3.6 4.2-7.3 6.4-10.9.2-.4.5-.6.9-.6l6.9-1.5c.2 0 .4-.1.6-.1-.2.8-.4 1.5-.5 2.2-.5 2.4-1 4.7-1.5 7.1-.7 3.2-1.3 6.4-2 9.6-.5 2.5-.9 5-1.4 7.5-.1.3-.1.6-.1.9-.1.5 0 1.1.3 1.5.6 1 1.3 1.9 2 2.8.3.4.7.6 1 .9.4.3.7.1.9-.3.1-.2.1-.4.1-.6.5-3.2 1-6.4 1.7-9.5.7-3.7 1.5-7.4 2.3-11.1l2.4-11.4c.1-.4.3-.6.7-.7 1.6-.4 3.3-.8 4.9-1.2h.4c-.6 1.3-1.2 2.6-1.9 3.8-1 1.9-1.9 3.8-2.9 5.7-.4.9-.4 1.8.2 2.5.6.7 1.3 1.3 2 1.9.3.3.6.3.9-.1.2-.3.4-.5.6-.8l6.3-12.6c.3-.5.6-.7 1.1-.8 2-.4 4.1-.8 6.1-1.2 1.2-.6 2.3-1 3.3-1.5zM645 146.1c-.6 2.6-1.3 5.2-2 7.8-.4 1.8-.9 3.5-1.3 5.3-.1.3-.2.4-.4.5-2.1.4-4.2.9-6.4 1.3v-.1-.1c3.4-5.3 6.7-10.6 10.1-15.9 0-.1.1-.1.2-.2h.1c-.1.5-.2.9-.3 1.4zm14.4 10.9h-.4c.4-1.1.8-2 1.1-3 .1-.3.3-.4.6-.4 1.4-.1 2.8-.1 4.2.2.2 0 .5.1.7.2.5.2.6.4.3.9-.3.3-.6.6-.9.8-.5.3-1 .4-1.5.6-1.5.2-2.8.4-4.1.7zM998.8 166.2c-.3.1-.8.2-1.3.4-6.7 1.9-12.9 3.4-19.5 4.9-2 .4-4 .6-5.6.7-.3 0-.8-.1-.9-.4 0-.2.1-.6.1-.8.5-1.7 1-3.5 1.6-5.2.1-.4.4-.7.8-.9 1.9-1.1 3.8-2.3 5.8-3.4 1.8-1 3.3-2.4 4.6-3.9.4-.4.7-.9 1-1.3.2-.4.4-.9.5-1.4.2-1.2-.3-2.1-1.3-2.7-1.3-.8-2.8-1.5-4.3-2-1-.3-2-.3-2.8.3-.6.4-1.1.9-1.6 1.4-.5.6-1 1.2-1.4 1.9-1.5 2.3-2.7 4.7-3.7 7.2-.6 1.6-1.8 2.3-3.3 2.8h-.4c.1-.5.3-1 .4-1.4.3-1.4.9-2.8 1.7-4 .5-.8 1-1.7 1.5-2.5.3-.5.5-1 .7-1.6.4-1 .1-1.8-.8-2.4-.8-.5-1.6-1-2.5-1.5l-.6-.3c-.4-.1-.6 0-.7.4-.2 1.2-.8 2.2-1.4 3.2-3 4.8-6.4 9.2-9.9 13.7-.4.5-.9 1-1.3 1.5-.2.2-.3.4-.7.3.2-.6.4-1.2.7-1.8 1.8-4.3 3.8-8.6 5.5-13 .3-.7.2-1.2-.2-1.8-.8-1.1-1.8-2-2.9-2.8-.5-.3-.6-.3-.9.3-.2.3-.4.6-.6.8-1.1.8-2.4 1.2-3.8 1.4-1.6.1-3.1-.3-4.6-1-.9-.5-1.7-1-2.5-1.4-.2-.1-.4-.2-.6-.2-.3-.1-.5.1-.4.4l.3.6c.5.7 1.1 1.3 1.6 1.9.6.7.8 1.4.6 2.2 0 .2-.1.5-.2.7-.9 3.1-2.3 6.1-3.9 8.9-1.2 2.1-2.8 3.9-4.7 5.4-.4.3-.7.5-1.2.7v-.4c.1-1.5.4-3 .8-4.4 1-3.6 2.5-6.9 4.5-10 .2-.3.4-.6.7-.9.3-.4.7-.5 1.2-.4.2.1.5.2.7.2.2 0 .5 0 .6-.2.2-.2 0-.4-.1-.6-.1-.1-.2-.3-.3-.4-1.1-1.2-2.3-2.3-3.7-3.3-.8-.5-1.3-.5-2 0-.2.2-.4.3-.5.5-.3.4-.7.9-1 1.3-.3.4-.7.9-1.1 1.2-1.2 1-2.4 1.9-3.6 2.9-3.6 3-6.9 6.3-9.7 10-.1.2-.3.3-.5.5-1-2.2-1.9-4.4-2.9-6.6l.6-.3c1.1-.5 2.2-1 3.2-1.5 1.4-.6 2.6-1.4 3.8-2.4.4-.4.9-.8 1.2-1.3.8-1.1.8-1.6-.4-2.4-1.3-.9-2.6-1.5-4.1-1.9-1.1-.3-2.2-.5-3.3-.8-.2-.1-.5-.1-.6-.2-.9-.9-2-1.4-3.1-2-.8-.5-1.2-.3-1.4.7 0 .1 0 .2-.1.4-.1.5-.3 1-.5 1.5-.7 1.6-1.3 3.2-2 4.8-.1.1-.2.3-.2.4-.1-1-.7-1.6-1.5-2.1-1-.7-2.1-1.3-3.3-1.6-1.1-.4-2.2-.6-3.3-1-.1-.4-.4-.7-.8-.9-.8-.5-1.6-1-2.4-1.4-.1-.1-.2-.1-.3-.1-.6-.3-.9-.2-1.1.5-.1.3-.1.5-.2.8-.2.7-.3 1.4-.6 2.1-1.6 3.7-3.2 7.5-5.1 11.1l-4.8 8.7c-.4.7-.7 1.4-.8 2.2 0 .4 0 .7.2 1 .6.9 1.5 1.7 2.3 2.5.5.4.8.4 1.2-.1.3-.4.6-.9.8-1.4 1.8-4 3.8-8 5.9-11.9.3-.6.8-1 1.5-1.2.6-.2 1.2-.4 1.7-.5 2.3-.7 4.6-1.6 6.7-2.8 1-.6 2-1.2 2.8-2.1.1-.1.1-.1.3-.2-.1.2-.1.3-.2.4-1.8 3.8-3.7 7.5-5.8 11.1-.6 1-1.1 1.9-1.6 2.9-.4.9-.4 1.7.2 2.5.6.8 1.4 1.4 2.3 1.9.5.3.7.2 1.1-.3.2-.4.4-.8.7-1.2l6-11.7c.1-.2.2-.4.4-.7.2.3.3.5.4.8l3.6 8.1c.5 1.1 1.1 2.1 1.6 3.1.2.3.5.6.8.8.5.4.9.3 1.3-.2.1-.2.3-.3.4-.5 1.2-1.9 2.4-3.7 3.6-5.6 1.8-2.8 4-5.4 6.5-7.7.2-.1.3-.3.6-.4 0 .2-.1.3-.1.4-.4 1.2-.8 2.4-1.1 3.6-.5 1.7-1 3.3-1 5.1 0 1.2.2 2.3 1.3 3 .9.6 1.9 1.2 2.8 1.8 1 .6 2.1.6 3.2.1 1-.4 1.9-.9 2.6-1.6 1.7-1.5 3.1-3.2 4.4-5.2 1.4-2.2 2.6-4.6 3.8-7 .6-1.2 1-2.5 1.1-3.8.1-.5.1-.9-.3-1.4h2.1c.7-.1 1.3-.2 2-.4v.2c-.6 1.6-1.2 3.1-1.7 4.7-1.4 3.8-2.9 7.6-4.1 11.5-.2.8-.2 1.5.3 2.1.9 1.1 1.9 2 3 2.8.8.5 1.6.6 2.5.2.8-.3 1.4-.8 2-1.4l2.7-3c1.4-1.6 2.7-3.2 4.1-4.8.2-.2.4-.4.6-.7l.5.5 1.8 1.8c.5.5 1 .6 1.6.3l.6-.3c.1-.1.2-.1.4-.1-.3 1.1-.6 2.2-.9 3.2-.2.7-.1 1.3.3 1.9.6 1 1.4 1.8 2.3 2.6.5.5 1.2.7 1.9.8 1 .1 2.4-.1 4.1-.3 3.7-.8 5-1.2 8.4-1.9 5-1.2 6.9-1.6 11.3-2.9.8-.3 2-.7 2.8-1.1.7-.4 1-.9 1.1-1.4.3-1 .3-1.2.4-2.4-.4-.3-.6-.5-1-.5zm-23.1-6.8c1-1.7 2-3.4 3.3-4.9l1.5-1.5c.1-.1.3-.2.4-.3.4-.2.7-.1.7.3 0 .3 0 .7-.1 1.1-.3 1-.8 1.8-1.5 2.5-1.2 1.2-2.6 2.2-4.1 3-.1 0-.2.1-.4.1.2-.1.2-.2.2-.3zm-68-4.6c-.1.2-.3.3-.5.4-2 1.4-4.3 2.3-6.6 3h-.2c.7-1.5 1.4-3 2.1-4.6 1.1 0 2.2-.1 3.3-.1.6 0 1.1.1 1.6.4.7.3.7.5.3.9zm8.2 2.5c.1-.3.2-.4.2-.6l1.5-3.3c.2-.5.5-.8 1.2-.8 1 .1 2.1 0 3.1.1.4 0 .8.1 1.1.2.6.3.7.6.2 1.1-.2.2-.5.4-.7.5-1.2.8-2.5 1.3-3.8 1.8-.9.3-1.7.6-2.8 1z"/><path d="M893.4 158.9c.9-.5 1.6-1.3 2.1-2.2.7-1.4.4-3-.7-4-.4-.4-.9-.7-1.3-.9-1.5-.8-3.1-1.3-4.8-1.5-.6-.1-1.1-.2-1.6-.7-.6-.7-1.3-1.2-2-1.8-.2-.2-.4-.3-.7-.4-.5-.2-.8 0-.9.5 0 .2 0 .4-.1.6-.1.6-.1 1.3-.4 1.9-.9 2.2-1.8 4.3-2.8 6.5-.1.3-.3.4-.6.4-2.1.5-4.1.9-6.2 1.4-.2 0-.4.1-.6.1.1-.4.1-.8.2-1.1l2.4-11.7c.4-1.8.8-3.6 1.3-5.3.3-1.1.5-2.2.8-3.2.1-.4.1-.7-.1-1.1-.6-1.5-1.7-2.6-3.1-3.4-.6-.3-1-.1-1 .5 0 .8-.3 1.4-.7 2-.2.2-.3.4-.4.6-4.4 6.6-8.8 13.1-13.2 19.7-1.3 2-2.7 4-4 6.1-.2.3-.3.4-.7.5-1.9.3-3.7.7-5.6 1-4.6.7-9.3 1.2-13.9 1.6-.5 0-1 .1-1.4.3-.7.2-.9.6-.5 1.2.3.6.8 1.1 1.2 1.6.4.5 1 .7 1.6.7 1.4.1 2.9 0 4.3-.2 3.6-.5 7.2-1.1 10.9-1.6.2 0 .5-.1.8-.1-.2.3-.3.5-.4.6-1.3 2-2.5 4-3.8 6-.5.8-.5 1.5.1 2.2.6.8 1.3 1.6 1.9 2.3.2.2.5.4.8.6.3.2.5.1.7-.1.2-.3.5-.7.7-1.1 2.1-3.6 4.2-7.3 6.4-10.9.2-.4.5-.6.9-.6l6.9-1.5c.2 0 .4-.1.6-.1-.2.8-.4 1.5-.5 2.2-.5 2.4-1 4.7-1.5 7.1-.7 3.2-1.3 6.4-2 9.6-.5 2.5-.9 5-1.4 7.5-.1.3-.1.6-.1.9-.1.5 0 1.1.3 1.5.6 1 1.3 1.9 2 2.8.3.4.7.6 1 .9.4.3.7.1.9-.3.1-.2.1-.4.1-.6.5-3.2 1-6.4 1.7-9.5.7-3.7 1.5-7.4 2.3-11.1l2.4-11.4c.1-.4.3-.6.7-.7 1.6-.4 3.3-.8 4.9-1.2h.4c-.6 1.3-1.2 2.6-1.9 3.8-1 1.9-1.9 3.8-2.9 5.7-.4.9-.4 1.8.2 2.5.6.7 1.3 1.3 2 1.9.3.3.6.3.9-.1.2-.3.4-.5.6-.8l6.3-12.6c.3-.5.6-.7 1.1-.8 2-.4 4.1-.8 6.1-1.2 1.3-.6 2.3-.9 3.3-1.5zm-22-12.9c-.6 2.6-1.3 5.2-2 7.8-.4 1.8-.9 3.5-1.3 5.3-.1.3-.2.4-.4.5-2.1.4-4.2.9-6.4 1.3v-.1-.1c3.4-5.3 6.7-10.6 10.1-15.9 0-.1.1-.1.2-.2h.1c-.1.5-.2.9-.3 1.4zm14.3 10.9h-.4c.4-1.1.8-2 1.1-3 .1-.3.3-.4.6-.4 1.4-.1 2.8-.1 4.2.2.2 0 .5.1.7.2.5.2.6.4.3.9-.3.3-.6.6-.9.8-.5.3-1 .4-1.5.6-1.4.2-2.7.5-4.1.7z"/><g><path d="M1225.1 166.1c-.3.1-.8.2-1.3.4-6.7 1.9-12.9 3.4-19.5 4.9-2 .4-4 .6-5.6.7-.3 0-.8-.1-.9-.4 0-.2.1-.6.1-.8.5-1.7 1-3.5 1.6-5.2.1-.4.4-.7.8-.9 1.9-1.1 3.8-2.3 5.8-3.4 1.8-1 3.3-2.4 4.6-3.9.4-.4.7-.9 1-1.3.2-.4.4-.9.5-1.4.2-1.2-.3-2.1-1.3-2.7-1.3-.8-2.8-1.5-4.3-2-1-.3-2-.3-2.8.3-.6.4-1.1.9-1.6 1.4-.5.6-1 1.2-1.4 1.9-1.5 2.3-2.7 4.7-3.7 7.2-.6 1.6-1.8 2.3-3.3 2.8h-.4c.1-.5.3-1 .4-1.4.3-1.4.9-2.8 1.7-4 .5-.8 1-1.7 1.5-2.5.3-.5.5-1 .7-1.6.4-1 .1-1.8-.8-2.4-.8-.5-1.6-1-2.5-1.5l-.6-.3c-.4-.1-.6 0-.7.4-.2 1.2-.8 2.2-1.4 3.2-3 4.8-6.4 9.2-9.9 13.7-.4.5-.9 1-1.3 1.5-.2.2-.3.4-.7.3.2-.6.4-1.2.7-1.8 1.8-4.3 3.8-8.6 5.5-13 .3-.7.2-1.2-.2-1.8-.8-1.1-1.8-2-2.9-2.8-.5-.3-.6-.3-.9.3-.2.3-.4.6-.6.8-1.1.8-2.4 1.2-3.8 1.4-1.6.1-3.1-.3-4.6-1-.9-.5-1.7-1-2.5-1.4-.2-.1-.4-.2-.6-.2-.3-.1-.5.1-.4.4l.3.6c.5.7 1.1 1.3 1.6 1.9.6.7.8 1.4.6 2.2 0 .2-.1.5-.2.7-.9 3.1-2.3 6.1-3.9 8.9-1.2 2.1-2.8 3.9-4.7 5.4-.4.3-.7.5-1.2.7v-.4c.1-1.5.4-3 .8-4.4 1-3.6 2.5-6.9 4.5-10 .2-.3.4-.6.7-.9.3-.4.7-.5 1.2-.4.2.1.5.2.7.2.2 0 .5 0 .6-.2.2-.2 0-.4-.1-.6-.1-.1-.2-.3-.3-.4-1.1-1.2-2.3-2.3-3.7-3.3-.8-.5-1.3-.5-2 0-.2.2-.4.3-.5.5-.3.4-.7.9-1 1.3-.3.4-.7.9-1.1 1.2-1.2 1-2.4 1.9-3.6 2.9-3.6 3-6.9 6.3-9.7 10-.1.2-.3.3-.5.5-1-2.2-1.9-4.4-2.9-6.6l.6-.3c1.1-.5 2.2-1 3.2-1.5 1.4-.6 2.6-1.4 3.8-2.4.4-.4.9-.8 1.2-1.3.8-1.1.8-1.6-.4-2.4-1.3-.9-2.6-1.5-4.1-1.9-1.1-.3-2.2-.5-3.3-.8-.2-.1-.5-.1-.6-.2-.9-.9-2-1.4-3.1-2-.8-.5-1.2-.3-1.4.7 0 .1 0 .2-.1.4-.1.5-.3 1-.5 1.5-.7 1.6-1.3 3.2-2 4.8-.1.1-.2.3-.2.4-.1-1-.7-1.6-1.5-2.1-1-.7-2.1-1.3-3.3-1.6-1.1-.4-2.2-.6-3.3-1-.1-.4-.4-.7-.8-.9-.8-.5-1.6-1-2.4-1.4-.1-.1-.2-.1-.3-.1-.6-.3-.9-.2-1.1.5-.1.3-.1.5-.2.8-.2.7-.3 1.4-.6 2.1-1.6 3.7-3.2 7.5-5.1 11.1l-4.8 8.7c-.4.7-.7 1.4-.8 2.2 0 .4 0 .7.2 1 .6.9 1.5 1.7 2.3 2.5.5.4.8.4 1.2-.1.3-.4.6-.9.8-1.4 1.8-4 3.8-8 5.9-11.9.3-.6.8-1 1.5-1.2.6-.2 1.2-.4 1.7-.5 2.3-.7 4.6-1.6 6.7-2.8 1-.6 2-1.2 2.8-2.1.1-.1.1-.1.3-.2-.1.2-.1.3-.2.4-1.8 3.8-3.7 7.5-5.8 11.1-.6 1-1.1 1.9-1.6 2.9-.4.9-.4 1.7.2 2.5.6.8 1.4 1.4 2.3 1.9.5.3.7.2 1.1-.3.2-.4.4-.8.7-1.2l6-11.7c.1-.2.2-.4.4-.7.2.3.3.5.4.8l3.6 8.1c.5 1.1 1.1 2.1 1.6 3.1.2.3.5.6.8.8.5.4.9.3 1.3-.2.1-.2.3-.3.4-.5 1.2-1.9 2.4-3.7 3.6-5.6 1.8-2.8 4-5.4 6.5-7.7.2-.1.3-.3.6-.4 0 .2-.1.3-.1.4-.4 1.2-.8 2.4-1.1 3.6-.5 1.7-1 3.3-1 5.1 0 1.2.2 2.3 1.3 3 .9.6 1.9 1.2 2.8 1.8 1 .6 2.1.6 3.2.1 1-.4 1.9-.9 2.6-1.6 1.7-1.5 3.1-3.2 4.4-5.2 1.4-2.2 2.6-4.6 3.8-7 .6-1.2 1-2.5 1.1-3.8.1-.5.1-.9-.3-1.4h2.1c.7-.1 1.3-.2 2-.4v.2c-.6 1.6-1.2 3.1-1.7 4.7-1.4 3.8-2.9 7.6-4.1 11.5-.2.8-.2 1.5.3 2.1.9 1.1 1.9 2 3 2.8.8.5 1.6.6 2.5.2.8-.3 1.4-.8 2-1.4l2.7-3c1.4-1.6 2.7-3.2 4.1-4.8.2-.2.4-.4.6-.7l.5.5 1.8 1.8c.5.5 1 .6 1.6.3l.6-.3c.1-.1.2-.1.4-.1-.3 1.1-.6 2.2-.9 3.2-.2.7-.1 1.3.3 1.9.6 1 1.4 1.8 2.3 2.6.5.5 1.2.7 1.9.8 1 .1 2.4-.1 4.1-.3 3.7-.8 5-1.2 8.4-1.9 5-1.2 6.9-1.6 11.3-2.9.8-.3 2-.7 2.8-1.1.7-.4 1-.9 1.1-1.4.3-1 .3-1.2.4-2.4-.3-.3-.5-.5-1-.5zm-23-6.8c1-1.7 2-3.4 3.3-4.9l1.5-1.5c.1-.1.3-.2.4-.3.4-.2.7-.1.7.3 0 .3 0 .7-.1 1.1-.3 1-.8 1.8-1.5 2.5-1.2 1.2-2.6 2.2-4.1 3-.1 0-.2.1-.4.1.1-.1.2-.2.2-.3zm-68-4.5c-.1.2-.3.3-.5.4-2 1.4-4.3 2.3-6.6 3h-.2c.7-1.5 1.4-3 2.1-4.6 1.1 0 2.2-.1 3.3-.1.6 0 1.1.1 1.6.4.6.2.7.4.3.9zm8.2 2.4c.1-.3.2-.4.2-.6l1.5-3.3c.2-.5.5-.8 1.2-.8 1 .1 2.1 0 3.1.1.4 0 .8.1 1.1.2.6.3.7.6.2 1.1-.2.2-.5.4-.7.5-1.2.8-2.5 1.3-3.8 1.8-.9.3-1.8.6-2.8 1z"/><path d="M1119.8 158.8c.9-.5 1.6-1.3 2.1-2.2.7-1.4.4-3-.7-4-.4-.4-.9-.7-1.3-.9-1.5-.8-3.1-1.3-4.8-1.5-.6-.1-1.1-.2-1.6-.7-.6-.7-1.3-1.2-2-1.8-.2-.2-.4-.3-.7-.4-.5-.2-.8 0-.9.5 0 .2 0 .4-.1.6-.1.6-.1 1.3-.4 1.9-.9 2.2-1.8 4.3-2.8 6.5-.1.3-.3.4-.6.4-2.1.5-4.1.9-6.2 1.4-.2 0-.4.1-.6.1.1-.4.1-.8.2-1.1l2.4-11.7c.4-1.8.8-3.6 1.3-5.3.3-1.1.5-2.2.8-3.2.1-.4.1-.7-.1-1.1-.6-1.5-1.7-2.6-3.1-3.4-.6-.3-1-.1-1 .5 0 .8-.3 1.4-.7 2-.2.2-.3.4-.4.6-4.4 6.6-8.8 13.1-13.2 19.7-1.3 2-2.7 4-4 6.1-.2.3-.3.4-.7.5-1.9.3-3.7.7-5.6 1-4.6.7-9.3 1.2-13.9 1.6-.5 0-1 .1-1.4.3-.7.2-.9.6-.5 1.2.3.6.8 1.1 1.2 1.6.4.5 1 .7 1.6.7 1.4.1 2.9 0 4.3-.2 3.6-.5 7.2-1.1 10.9-1.6.2 0 .5-.1.8-.1-.2.3-.3.5-.4.6-1.3 2-2.5 4-3.8 6-.5.8-.5 1.5.1 2.2.6.8 1.3 1.6 1.9 2.3.2.2.5.4.8.6.3.2.5.1.7-.1.2-.3.5-.7.7-1.1 2.1-3.6 4.2-7.3 6.4-10.9.2-.4.5-.6.9-.6l6.9-1.5c.2 0 .4-.1.6-.1-.2.8-.4 1.5-.5 2.2-.5 2.4-1 4.7-1.5 7.1-.7 3.2-1.3 6.4-2 9.6-.5 2.5-.9 5-1.4 7.5-.1.3-.1.6-.1.9-.1.5 0 1.1.3 1.5.6 1 1.3 1.9 2 2.8.3.4.7.6 1 .9.4.3.7.1.9-.3.1-.2.1-.4.1-.6.5-3.2 1-6.4 1.7-9.5.7-3.7 1.5-7.4 2.3-11.1l2.4-11.4c.1-.4.3-.6.7-.7 1.6-.4 3.3-.8 4.9-1.2h.4c-.6 1.3-1.2 2.6-1.9 3.8-1 1.9-1.9 3.8-2.9 5.7-.4.9-.4 1.8.2 2.5.6.7 1.3 1.3 2 1.9.3.3.6.3.9-.1.2-.3.4-.5.6-.8l6.3-12.6c.3-.5.6-.7 1.1-.8 2-.4 4.1-.8 6.1-1.2 1.2-.6 2.3-.9 3.3-1.5zm-22.1-12.9c-.6 2.6-1.3 5.2-2 7.8-.4 1.8-.9 3.5-1.3 5.3-.1.3-.2.4-.4.5-2.1.4-4.2.9-6.4 1.3v-.1-.1c3.4-5.3 6.7-10.6 10.1-15.9 0-.1.1-.1.2-.2h.1c-.1.5-.2 1-.3 1.4zm14.4 11h-.4c.4-1.1.8-2 1.1-3 .1-.3.3-.4.6-.4 1.4-.1 2.8-.1 4.2.2.2 0 .5.1.7.2.5.2.6.4.3.9-.3.3-.6.6-.9.8-.5.3-1 .4-1.5.6-1.4.1-2.8.4-4.1.7z"/></g><g><path d="M1451.5 166c-.3.1-.8.2-1.3.4-6.7 1.9-12.9 3.4-19.5 4.9-2 .4-4 .6-5.6.7-.3 0-.8-.1-.9-.4 0-.2.1-.6.1-.8.5-1.7 1-3.5 1.6-5.2.1-.4.4-.7.8-.9 1.9-1.1 3.8-2.3 5.8-3.4 1.8-1 3.3-2.4 4.6-3.9.4-.4.7-.9 1-1.3.2-.4.4-.9.5-1.4.2-1.2-.3-2.1-1.3-2.7-1.3-.8-2.8-1.5-4.3-2-1-.3-2-.3-2.8.3-.6.4-1.1.9-1.6 1.4-.5.6-1 1.2-1.4 1.9-1.5 2.3-2.7 4.7-3.7 7.2-.6 1.6-1.8 2.3-3.3 2.8h-.4c.1-.5.3-1 .4-1.4.3-1.4.9-2.8 1.7-4 .5-.8 1-1.7 1.5-2.5.3-.5.5-1 .7-1.6.4-1 .1-1.8-.8-2.4-.8-.5-1.6-1-2.5-1.5l-.6-.3c-.4-.1-.6 0-.7.4-.2 1.2-.8 2.2-1.4 3.2-3 4.8-6.4 9.2-9.9 13.7-.4.5-.9 1-1.3 1.5-.2.2-.3.4-.7.3.2-.6.4-1.2.7-1.8 1.8-4.3 3.8-8.6 5.5-13 .3-.7.2-1.2-.2-1.8-.8-1.1-1.8-2-2.9-2.8-.5-.3-.6-.3-.9.3-.2.3-.4.6-.6.8-1.1.8-2.4 1.2-3.8 1.4-1.6.1-3.1-.3-4.6-1-.9-.5-1.7-1-2.5-1.4-.2-.1-.4-.2-.6-.2-.3-.1-.5.1-.4.4l.3.6c.5.7 1.1 1.3 1.6 1.9.6.7.8 1.4.6 2.2 0 .2-.1.5-.2.7-.9 3.1-2.3 6.1-3.9 8.9-1.2 2.1-2.8 3.9-4.7 5.4-.4.3-.7.5-1.2.7v-.4c.1-1.5.4-3 .8-4.4 1-3.6 2.5-6.9 4.5-10 .2-.3.4-.6.7-.9.3-.4.7-.5 1.2-.4.2.1.5.2.7.2.2 0 .5 0 .6-.2.2-.2 0-.4-.1-.6-.1-.1-.2-.3-.3-.4-1.1-1.2-2.3-2.3-3.7-3.3-.8-.5-1.3-.5-2 0-.2.2-.4.3-.5.5-.3.4-.7.9-1 1.3-.3.4-.7.9-1.1 1.2-1.2 1-2.4 1.9-3.6 2.9-3.6 3-6.9 6.3-9.7 10-.1.2-.3.3-.5.5-1-2.2-1.9-4.4-2.9-6.6l.6-.3c1.1-.5 2.2-1 3.2-1.5 1.4-.6 2.6-1.4 3.8-2.4.4-.4.9-.8 1.2-1.3.8-1.1.8-1.6-.4-2.4-1.3-.9-2.6-1.5-4.1-1.9-1.1-.3-2.2-.5-3.3-.8-.2-.1-.5-.1-.6-.2-.9-.9-2-1.4-3.1-2-.8-.5-1.2-.3-1.4.7 0 .1 0 .2-.1.4-.1.5-.3 1-.5 1.5-.7 1.6-1.3 3.2-2 4.8-.1.1-.2.3-.2.4-.1-1-.7-1.6-1.5-2.1-1-.7-2.1-1.3-3.3-1.6-1.1-.4-2.2-.6-3.3-1-.1-.4-.4-.7-.8-.9-.8-.5-1.6-1-2.4-1.4-.1-.1-.2-.1-.3-.1-.6-.3-.9-.2-1.1.5-.1.3-.1.5-.2.8-.2.7-.3 1.4-.6 2.1-1.6 3.7-3.2 7.5-5.1 11.1l-4.8 8.7c-.4.7-.7 1.4-.8 2.2 0 .4 0 .7.2 1 .6.9 1.5 1.7 2.3 2.5.5.4.8.4 1.2-.1.3-.4.6-.9.8-1.4 1.8-4 3.8-8 5.9-11.9.3-.6.8-1 1.5-1.2.6-.2 1.2-.4 1.7-.5 2.3-.7 4.6-1.6 6.7-2.8 1-.6 2-1.2 2.8-2.1.1-.1.1-.1.3-.2-.1.2-.1.3-.2.4-1.8 3.8-3.7 7.5-5.8 11.1-.6 1-1.1 1.9-1.6 2.9-.4.9-.4 1.7.2 2.5.6.8 1.4 1.4 2.3 1.9.5.3.7.2 1.1-.3.2-.4.4-.8.7-1.2l6-11.7c.1-.2.2-.4.4-.7.2.3.3.5.4.8l3.6 8.1c.5 1.1 1.1 2.1 1.6 3.1.2.3.5.6.8.8.5.4.9.3 1.3-.2.1-.2.3-.3.4-.5 1.2-1.9 2.4-3.7 3.6-5.6 1.8-2.8 4-5.4 6.5-7.7.2-.1.3-.3.6-.4 0 .2-.1.3-.1.4-.4 1.2-.8 2.4-1.1 3.6-.5 1.7-1 3.3-1 5.1 0 1.2.2 2.3 1.3 3 .9.6 1.9 1.2 2.8 1.8 1 .6 2.1.6 3.2.1 1-.4 1.9-.9 2.6-1.6 1.7-1.5 3.1-3.2 4.4-5.2 1.4-2.2 2.6-4.6 3.8-7 .6-1.2 1-2.5 1.1-3.8.1-.5.1-.9-.3-1.4h2.1c.7-.1 1.3-.2 2-.4v.2c-.6 1.6-1.2 3.1-1.7 4.7-1.4 3.8-2.9 7.6-4.1 11.5-.2.8-.2 1.5.3 2.1.9 1.1 1.9 2 3 2.8.8.5 1.6.6 2.5.2.8-.3 1.4-.8 2-1.4l2.7-3c1.4-1.6 2.7-3.2 4.1-4.8.2-.2.4-.4.6-.7l.5.5 1.8 1.8c.5.5 1 .6 1.6.3l.6-.3c.1-.1.2-.1.4-.1-.3 1.1-.6 2.2-.9 3.2-.2.7-.1 1.3.3 1.9.6 1 1.4 1.8 2.3 2.6.5.5 1.2.7 1.9.8 1 .1 2.4-.1 4.1-.3 3.7-.8 5-1.2 8.4-1.9 5-1.2 6.9-1.6 11.3-2.9.8-.3 2-.7 2.8-1.1.7-.4 1-.9 1.1-1.4.3-1 .3-1.2.4-2.4-.4-.3-.6-.5-1-.5zm-23-6.7c1-1.7 2-3.4 3.3-4.9l1.5-1.5c.1-.1.3-.2.4-.3.4-.2.7-.1.7.3 0 .3 0 .7-.1 1.1-.3 1-.8 1.8-1.5 2.5-1.2 1.2-2.6 2.2-4.1 3-.1 0-.2.1-.4.1.1-.2.1-.3.2-.3zm-68.1-4.6c-.1.2-.3.3-.5.4-2 1.4-4.3 2.3-6.6 3h-.2c.7-1.5 1.4-3 2.1-4.6 1.1 0 2.2-.1 3.3-.1.6 0 1.1.1 1.6.4.7.2.7.5.3.9zm8.2 2.4c.1-.3.2-.4.2-.6l1.5-3.3c.2-.5.5-.8 1.2-.8 1 .1 2.1 0 3.1.1.4 0 .8.1 1.1.2.6.3.7.6.2 1.1-.2.2-.5.4-.7.5-1.2.8-2.5 1.3-3.8 1.8-.9.4-1.7.6-2.8 1z"/><path d="M1346.1 158.7c.9-.5 1.6-1.3 2.1-2.2.7-1.4.4-3-.7-4-.4-.4-.9-.7-1.3-.9-1.5-.8-3.1-1.3-4.8-1.5-.6-.1-1.1-.2-1.6-.7-.6-.7-1.3-1.2-2-1.8-.2-.2-.4-.3-.7-.4-.5-.2-.8 0-.9.5 0 .2 0 .4-.1.6-.1.6-.1 1.3-.4 1.9-.9 2.2-1.8 4.3-2.8 6.5-.1.3-.3.4-.6.4-2.1.5-4.1.9-6.2 1.4-.2 0-.4.1-.6.1.1-.4.1-.8.2-1.1l2.4-11.7c.4-1.8.8-3.6 1.3-5.3.3-1.1.5-2.2.8-3.2.1-.4.1-.7-.1-1.1-.6-1.5-1.7-2.6-3.1-3.4-.6-.3-1-.1-1 .5 0 .8-.3 1.4-.7 2-.2.2-.3.4-.4.6-4.4 6.6-8.8 13.1-13.2 19.7-1.3 2-2.7 4-4 6.1-.2.3-.3.4-.7.5-1.9.3-3.7.7-5.6 1-4.6.7-9.3 1.2-13.9 1.6-.5 0-1 .1-1.4.3-.7.2-.9.6-.5 1.2.3.6.8 1.1 1.2 1.6.4.5 1 .7 1.6.7 1.4.1 2.9 0 4.3-.2 3.6-.5 7.2-1.1 10.9-1.6.2 0 .5-.1.8-.1-.2.3-.3.5-.4.6-1.3 2-2.5 4-3.8 6-.5.8-.5 1.5.1 2.2.6.8 1.3 1.6 1.9 2.3.2.2.5.4.8.6.3.2.5.1.7-.1.2-.3.5-.7.7-1.1 2.1-3.6 4.2-7.3 6.4-10.9.2-.4.5-.6.9-.6l6.9-1.5c.2 0 .4-.1.6-.1-.2.8-.4 1.5-.5 2.2-.5 2.4-1 4.7-1.5 7.1-.7 3.2-1.3 6.4-2 9.6-.5 2.5-.9 5-1.4 7.5-.1.3-.1.6-.1.9-.1.5 0 1.1.3 1.5.6 1 1.3 1.9 2 2.8.3.4.7.6 1 .9.4.3.7.1.9-.3.1-.2.1-.4.1-.6.5-3.2 1-6.4 1.7-9.5.7-3.7 1.5-7.4 2.3-11.1l2.4-11.4c.1-.4.3-.6.7-.7 1.6-.4 3.3-.8 4.9-1.2h.4c-.6 1.3-1.2 2.6-1.9 3.8-1 1.9-1.9 3.8-2.9 5.7-.4.9-.4 1.8.2 2.5.6.7 1.3 1.3 2 1.9.3.3.6.3.9-.1.2-.3.4-.5.6-.8l6.3-12.6c.3-.5.6-.7 1.1-.8 2-.4 4.1-.8 6.1-1.2 1.3-.5 2.4-.9 3.3-1.5zm-22-12.9c-.6 2.6-1.3 5.2-2 7.8-.4 1.8-.9 3.5-1.3 5.3-.1.3-.2.4-.4.5-2.1.4-4.2.9-6.4 1.3v-.1-.1c3.4-5.3 6.7-10.6 10.1-15.9 0-.1.1-.1.2-.2h.1c-.1.5-.2 1-.3 1.4zm14.3 11h-.4c.4-1.1.8-2 1.1-3 .1-.3.3-.4.6-.4 1.4-.1 2.8-.1 4.2.2.2 0 .5.1.7.2.5.2.6.4.3.9-.3.3-.6.6-.9.8-.5.3-1 .4-1.5.6-1.4.1-2.7.4-4.1.7z"/></g></g><path class="st0" d="M607 204.8l72.2 1590.7 204.7-.1L1003.2 567l-.8-361.4z"/><path class="st0" d="M1392.6 204.5l-66.9 1590.8h-204.8L1003.2 567l-2-361.4zM679.2 1795.5h204.2v84.4H679.2z"/><defs><path id="SVGID_3_" d="M679.2 1795.5h204.2v84.4H679.2z"/></defs><clipPath id="SVGID_4_"><use xlink:href="#SVGID_3_" overflow="visible"/></clipPath><g class="st2"><path d="M813.6 1836.6c-.3 0-.6.1-1.1.3-5.4 1.6-10.4 2.8-15.8 3.9-1.6.3-3.2.5-4.5.6-.2 0-.6-.1-.7-.3 0-.2 0-.5.1-.7.4-1.4.9-2.8 1.3-4.2.1-.3.3-.6.6-.8 1.6-.9 3.1-1.8 4.7-2.8 1.4-.8 2.7-1.9 3.7-3.2.3-.3.6-.7.8-1.1.2-.3.3-.7.4-1.1.2-1-.3-1.7-1.1-2.2-1.1-.7-2.2-1.2-3.5-1.7-.8-.3-1.6-.2-2.3.3-.5.3-.9.7-1.3 1.1-.4.5-.8 1-1.1 1.5-1.2 1.8-2.2 3.8-3 5.8-.5 1.3-1.5 1.9-2.7 2.3h-.3l.3-1.2c.3-1.2.7-2.3 1.4-3.3.4-.6.8-1.3 1.2-2 .2-.4.4-.8.6-1.3.3-.8.1-1.4-.6-1.9-.7-.4-1.3-.8-2-1.2-.2-.1-.3-.2-.5-.2-.3-.1-.5 0-.6.3-.1 1-.6 1.8-1.1 2.6-2.4 3.9-5.2 7.5-8 11.1-.3.4-.7.8-1.1 1.2-.1.2-.3.3-.6.2.2-.5.3-1 .5-1.5 1.5-3.5 3.1-7 4.4-10.5.2-.6.2-1-.2-1.5-.6-.9-1.5-1.6-2.4-2.2-.4-.3-.5-.2-.7.2-.1.2-.3.5-.5.7-.9.6-1.9 1-3 1.1-1.3.1-2.5-.2-3.7-.8-.7-.4-1.4-.8-2-1.2-.1-.1-.3-.2-.5-.2-.2-.1-.4.1-.3.3.1.2.1.3.3.5.4.5.9 1 1.3 1.6.4.5.6 1.1.5 1.8 0 .2-.1.4-.1.6-.8 2.5-1.9 5-3.2 7.3-1 1.7-2.3 3.2-3.8 4.4-.3.2-.6.4-1 .5v-.3c.1-1.2.4-2.4.7-3.6.8-2.9 2-5.6 3.7-8.1.2-.3.4-.5.5-.7.2-.3.6-.4 1-.3.2.1.4.2.6.2.2 0 .4 0 .5-.1.2-.2 0-.3-.1-.5l-.3-.3c-.9-1-1.9-1.9-3-2.7-.6-.4-1-.4-1.6 0-.2.1-.3.3-.4.4-.3.3-.5.7-.8 1-.3.3-.6.7-.9 1-1 .8-2 1.5-2.9 2.3-2.9 2.4-5.6 5.1-7.8 8.1l-.4.4-2.4-5.4c.2-.1.4-.2.5-.2.9-.4 1.7-.8 2.6-1.2 1.1-.5 2.1-1.1 3.1-1.9.4-.3.7-.7 1-1 .7-.9.6-1.3-.3-1.9-1-.7-2.1-1.2-3.3-1.6-.9-.3-1.8-.4-2.7-.7-.2 0-.4-.1-.5-.2-.7-.7-1.7-1.1-2.5-1.6-.7-.4-.9-.2-1.1.5 0 .1 0 .2-.1.3-.1.4-.2.8-.4 1.2-.5 1.3-1.1 2.6-1.6 3.9 0 .1-.1.2-.2.3-.1-.8-.6-1.3-1.2-1.7-.8-.6-1.7-1-2.7-1.3-.9-.3-1.8-.5-2.7-.8-.1-.3-.3-.6-.6-.8-.6-.4-1.3-.8-1.9-1.2-.1 0-.1-.1-.2-.1-.5-.2-.7-.1-.9.4-.1.2-.1.4-.1.6-.2.6-.3 1.2-.5 1.7-1.3 3-2.6 6.1-4.1 9-1.3 2.4-2.6 4.7-3.9 7.1-.3.6-.6 1.2-.6 1.8 0 .3 0 .6.2.8.5.8 1.2 1.4 1.9 2 .4.3.7.3 1-.1.3-.4.5-.7.7-1.1 1.5-3.3 3.1-6.5 4.8-9.7.3-.5.6-.8 1.2-1 .5-.1.9-.3 1.4-.4 1.9-.6 3.7-1.3 5.4-2.2.8-.5 1.6-1 2.3-1.7 0 0 .1-.1.3-.2-.1.2-.1.3-.2.3-1.4 3.1-3 6.1-4.7 9-.5.8-.9 1.6-1.3 2.4-.3.7-.3 1.4.2 2 .5.6 1.2 1.1 1.8 1.5.4.2.6.2.9-.2.2-.3.4-.6.5-.9 1.6-3.2 3.3-6.3 4.9-9.5.1-.2.2-.3.3-.6.1.3.2.4.3.6 1 2.2 1.9 4.4 2.9 6.6.4.9.9 1.7 1.3 2.5.1.3.4.5.6.7.4.3.8.2 1.1-.2.1-.1.2-.3.3-.4 1-1.5 1.9-3 2.9-4.5 1.5-2.3 3.3-4.3 5.2-6.2.1-.1.2-.3.5-.3 0 .1 0 .2-.1.3-.3 1-.6 1.9-.9 2.9-.4 1.3-.8 2.7-.8 4.1 0 1 .2 1.9 1 2.4.7.5 1.5 1 2.3 1.4.8.5 1.7.5 2.6.1.8-.3 1.5-.7 2.1-1.3 1.4-1.2 2.5-2.6 3.5-4.2 1.2-1.8 2.1-3.7 3.1-5.7.5-1 .8-2 .9-3.1 0-.4.1-.7-.2-1.1h1.7c.5-.1 1.1-.2 1.6-.3v.2c-.5 1.3-.9 2.5-1.4 3.8-1.2 3.1-2.4 6.2-3.4 9.3-.2.6-.1 1.2.3 1.7.7.9 1.5 1.6 2.4 2.2.6.4 1.3.5 2 .2.6-.3 1.2-.7 1.6-1.2.7-.8 1.5-1.6 2.2-2.4l3.3-3.9c.2-.2.3-.4.5-.5l.4.4c.5.5.9 1 1.4 1.5.4.4.8.4 1.3.2.2-.1.3-.2.5-.3.1 0 .2-.1.3-.1-.2.9-.5 1.8-.7 2.6-.1.6-.1 1.1.3 1.6.5.8 1.1 1.5 1.9 2.1.4.4.9.6 1.5.6.8 0 1.9-.1 3.3-.2 3-.7 4.1-.9 6.8-1.6 4.1-1 5.6-1.3 9.1-2.3.6-.3 1.7-.6 2.2-.9.5-.3.8-.7.9-1.1.2-.8.3-1 .3-1.9-.3.4-.5.2-.8.2zm-18.7-5.4c.8-1.4 1.6-2.8 2.7-4l1.2-1.2c.1-.1.2-.2.3-.2.3-.2.5-.1.6.3 0 .3 0 .6-.1.9-.2.8-.6 1.5-1.2 2-1 1-2.1 1.8-3.3 2.4-.1 0-.1.1-.3.1 0-.2 0-.3.1-.3zm-55.2-3.8c-.1.1-.3.2-.4.3-1.6 1.1-3.4 1.9-5.3 2.4h-.1c.6-1.2 1.1-2.4 1.7-3.7.9 0 1.8-.1 2.7-.1.5 0 .9.1 1.3.3.4.3.4.5.1.8zm6.7 2c.1-.2.1-.3.2-.5l1.2-2.7c.2-.4.4-.7 1-.7.8.1 1.7 0 2.5.1.3 0 .6.1.9.2.5.2.6.5.2.9-.2.2-.4.3-.6.4-1 .6-2 1.1-3.1 1.5-.8.3-1.5.5-2.3.8z"/><path d="M728.1 1830.7c.7-.4 1.3-1 1.7-1.8.5-1.1.4-2.4-.5-3.3-.3-.3-.7-.5-1.1-.8-1.2-.7-2.5-1-3.9-1.2-.5-.1-.9-.2-1.3-.6-.5-.6-1.1-1-1.7-1.5-.2-.1-.4-.3-.6-.3-.4-.2-.7 0-.8.4 0 .2 0 .3-.1.5-.1.5-.1 1.1-.3 1.5-.7 1.8-1.5 3.5-2.2 5.3-.1.2-.3.3-.5.3-1.7.4-3.3.7-5 1.1-.1 0-.3 0-.5.1.1-.3.1-.6.1-.9.7-3.2 1.3-6.3 2-9.5.3-1.5.7-2.9 1-4.3.2-.9.4-1.8.7-2.6.1-.3 0-.6-.1-.9-.5-1.2-1.4-2.1-2.5-2.8-.5-.3-.8-.1-.8.4 0 .6-.2 1.1-.6 1.6-.1.2-.2.3-.4.5-3.6 5.3-7.1 10.6-10.7 16-1.1 1.6-2.2 3.3-3.2 4.9-.1.2-.3.4-.5.4-1.5.3-3 .6-4.5.8-3.7.6-7.5 1-11.3 1.3-.4 0-.8.1-1.2.2-.6.2-.7.5-.4 1 .3.5.6.9 1 1.3.3.4.8.5 1.3.6 1.2.1 2.3 0 3.5-.2 2.9-.4 5.9-.9 8.8-1.3.2 0 .4-.1.7-.1-.1.2-.2.4-.3.5-1 1.6-2 3.2-3.1 4.8-.4.6-.4 1.2.1 1.8.5.6 1 1.3 1.6 1.9.2.2.4.3.6.5.2.1.4.1.6-.1l.6-.9c1.7-2.9 3.4-5.9 5.2-8.8.2-.3.4-.4.7-.5 1.9-.4 3.7-.8 5.6-1.2.1 0 .3 0 .5-.1-.1.6-.3 1.2-.4 1.8-.4 1.9-.8 3.8-1.3 5.8-.5 2.6-1.1 5.2-1.6 7.8-.4 2-.7 4.1-1.1 6.1 0 .3-.1.5-.1.8-.1.4 0 .9.3 1.2.5.8 1.1 1.6 1.6 2.3.2.3.5.5.8.7.3.2.6.1.7-.3 0-.1.1-.3.1-.5.4-2.6.9-5.2 1.3-7.7.6-3 1.2-6 1.9-9 .7-3.1 1.3-6.1 2-9.2.1-.3.2-.5.6-.6 1.3-.3 2.7-.6 4-1h.3c-.5 1.1-1 2.1-1.5 3.1-.8 1.5-1.6 3.1-2.3 4.6-.4.7-.4 1.4.2 2.1.5.6 1.1 1.1 1.6 1.6.3.2.5.2.7-.1.2-.2.3-.4.4-.7l5.1-10.2c.2-.4.5-.6.9-.7 1.7-.3 3.3-.6 5-1 1-.1 1.8-.4 2.6-.9zm-17.8-10.4c-.5 2.1-1.1 4.2-1.6 6.3-.4 1.4-.7 2.8-1.1 4.3-.1.2-.1.3-.4.4-1.7.4-3.4.7-5.2 1.1 2.7-4.3 5.5-8.6 8.2-12.9 0-.1.1-.1.1-.1h.1c0 .1-.1.5-.1.9zm11.6 8.8h-.3c.3-.9.6-1.7.9-2.5.1-.2.2-.3.5-.4 1.1-.1 2.3-.1 3.4.1.2 0 .4.1.5.1.4.2.5.4.2.7-.2.3-.5.5-.8.6-.4.2-.8.4-1.2.5-1 .5-2.1.7-3.2.9z"/><g><path d="M969.2 1836.6c-.3 0-.6.1-1.1.3-5.4 1.6-10.4 2.8-15.8 3.9-1.6.3-3.2.5-4.5.6-.2 0-.6-.1-.7-.3 0-.2 0-.5.1-.7.4-1.4.9-2.8 1.3-4.2.1-.3.3-.6.6-.8 1.6-.9 3.1-1.8 4.7-2.8 1.4-.8 2.7-1.9 3.7-3.2.3-.3.6-.7.8-1.1.2-.3.3-.7.4-1.1.2-1-.3-1.7-1.1-2.2-1.1-.7-2.2-1.2-3.5-1.7-.8-.3-1.6-.2-2.3.3-.5.3-.9.7-1.3 1.1-.4.5-.8 1-1.1 1.5-1.2 1.8-2.2 3.8-3 5.8-.5 1.3-1.5 1.9-2.7 2.3h-.3l.3-1.2c.3-1.2.7-2.3 1.4-3.3.4-.6.8-1.3 1.2-2 .2-.4.4-.8.6-1.3.3-.8.1-1.4-.6-1.9-.7-.4-1.3-.8-2-1.2-.2-.1-.3-.2-.5-.2-.3-.1-.5 0-.6.3-.1 1-.6 1.8-1.1 2.6-2.4 3.9-5.2 7.5-8 11.1-.3.4-.7.8-1.1 1.2-.1.2-.3.3-.6.2.2-.5.3-1 .5-1.5 1.5-3.5 3.1-7 4.4-10.5.2-.6.2-1-.2-1.5-.6-.9-1.5-1.6-2.4-2.2-.4-.3-.5-.2-.7.2-.1.2-.3.5-.5.7-.9.6-1.9 1-3 1.1-1.3.1-2.5-.2-3.7-.8-.7-.4-1.4-.8-2-1.2-.1-.1-.3-.2-.5-.2-.2-.1-.4.1-.3.3.1.2.1.3.3.5.4.5.9 1 1.3 1.6.4.5.6 1.1.5 1.8 0 .2-.1.4-.1.6-.8 2.5-1.9 5-3.2 7.3-1 1.7-2.3 3.2-3.8 4.4-.3.2-.6.4-1 .5v-.3c.1-1.2.4-2.4.7-3.6.8-2.9 2-5.6 3.7-8.1.2-.3.4-.5.5-.7.2-.3.6-.4 1-.3.2.1.4.2.6.2.2 0 .4 0 .5-.1.2-.2 0-.3-.1-.5l-.3-.3c-.9-1-1.9-1.9-3-2.7-.6-.4-1-.4-1.6 0-.2.1-.3.3-.4.4-.3.3-.5.7-.8 1-.3.3-.6.7-.9 1-1 .8-2 1.5-2.9 2.3-2.9 2.4-5.6 5.1-7.8 8.1l-.4.4-2.4-5.4c.2-.1.4-.2.5-.2.9-.4 1.7-.8 2.6-1.2 1.1-.5 2.1-1.1 3.1-1.9.4-.3.7-.7 1-1 .7-.9.6-1.3-.3-1.9-1-.7-2.1-1.2-3.3-1.6-.9-.3-1.8-.4-2.7-.7-.2 0-.4-.1-.5-.2-.7-.7-1.7-1.1-2.5-1.6-.7-.4-.9-.2-1.1.5 0 .1 0 .2-.1.3-.1.4-.2.8-.4 1.2-.5 1.3-1.1 2.6-1.6 3.9 0 .1-.1.2-.2.3-.1-.8-.6-1.3-1.2-1.7-.8-.6-1.7-1-2.7-1.3-.9-.3-1.8-.5-2.7-.8-.1-.3-.3-.6-.6-.8-.6-.4-1.3-.8-1.9-1.2-.1 0-.1-.1-.2-.1-.5-.2-.7-.1-.9.4-.1.2-.1.4-.1.6-.2.6-.3 1.2-.5 1.7-1.3 3-2.6 6.1-4.1 9-1.3 2.4-2.6 4.7-3.9 7.1-.3.6-.6 1.2-.6 1.8 0 .3 0 .6.2.8.5.8 1.2 1.4 1.9 2 .4.3.7.3 1-.1.3-.4.5-.7.7-1.1 1.5-3.3 3.1-6.5 4.8-9.7.3-.5.6-.8 1.2-1 .5-.1.9-.3 1.4-.4 1.9-.6 3.7-1.3 5.4-2.2.8-.5 1.6-1 2.3-1.7 0 0 .1-.1.3-.2-.1.2-.1.3-.2.3-1.4 3.1-3 6.1-4.7 9-.5.8-.9 1.6-1.3 2.4-.3.7-.3 1.4.2 2 .5.6 1.2 1.1 1.8 1.5.4.2.6.2.9-.2.2-.3.4-.6.5-.9 1.6-3.2 3.3-6.3 4.9-9.5.1-.2.2-.3.3-.6.1.3.2.4.3.6 1 2.2 1.9 4.4 2.9 6.6.4.9.9 1.7 1.3 2.5.1.3.4.5.6.7.4.3.8.2 1.1-.2.1-.1.2-.3.3-.4 1-1.5 1.9-3 2.9-4.5 1.5-2.3 3.3-4.3 5.2-6.2.1-.1.2-.3.5-.3 0 .1 0 .2-.1.3-.3 1-.6 1.9-.9 2.9-.4 1.3-.8 2.7-.8 4.1 0 1 .2 1.9 1 2.4.7.5 1.5 1 2.3 1.4.8.5 1.7.5 2.6.1.8-.3 1.5-.7 2.1-1.3 1.4-1.2 2.5-2.6 3.5-4.2 1.2-1.8 2.1-3.7 3.1-5.7.5-1 .8-2 .9-3.1 0-.4.1-.7-.2-1.1h1.7c.5-.1 1.1-.2 1.6-.3v.2c-.5 1.3-.9 2.5-1.4 3.8-1.2 3.1-2.4 6.2-3.4 9.3-.2.6-.1 1.2.3 1.7.7.9 1.5 1.6 2.4 2.2.6.4 1.3.5 2 .2.6-.3 1.2-.7 1.6-1.2.7-.8 1.5-1.6 2.2-2.4l3.3-3.9c.2-.2.3-.4.5-.5l.4.4c.5.5.9 1 1.4 1.5.4.4.8.4 1.3.2.2-.1.3-.2.5-.3.1 0 .2-.1.3-.1-.2.9-.5 1.8-.7 2.6-.1.6-.1 1.1.3 1.6.5.8 1.1 1.5 1.9 2.1.4.4.9.6 1.5.6.8 0 1.9-.1 3.3-.2 3-.7 4.1-.9 6.8-1.6 4.1-1 5.6-1.3 9.1-2.3.6-.3 1.7-.6 2.2-.9.5-.3.8-.7.9-1.1.2-.8.3-1 .3-1.9-.3.3-.4.2-.8.2zm-18.7-5.5c.8-1.4 1.6-2.8 2.7-4l1.2-1.2c.1-.1.2-.2.3-.2.3-.2.5-.1.6.3 0 .3 0 .6-.1.9-.2.8-.6 1.5-1.2 2-1 1-2.1 1.8-3.3 2.4-.1 0-.1.1-.3.1.1-.1.1-.2.1-.3zm-55.1-3.7c-.1.1-.3.2-.4.3-1.6 1.1-3.4 1.9-5.3 2.4h-.1c.6-1.2 1.1-2.4 1.7-3.7.9 0 1.8-.1 2.7-.1.5 0 .9.1 1.3.3.4.3.4.5.1.8zm6.6 1.9c.1-.2.1-.3.2-.5l1.2-2.7c.2-.4.4-.7 1-.7.8.1 1.7 0 2.5.1.3 0 .6.1.9.2.5.2.6.5.2.9-.2.2-.4.3-.6.4-1 .6-2 1.1-3.1 1.5-.7.3-1.4.6-2.3.8z"/><path d="M883.8 1830.7c.7-.4 1.3-1 1.7-1.8.5-1.1.4-2.4-.5-3.3-.3-.3-.7-.5-1.1-.8-1.2-.7-2.5-1-3.9-1.2-.5-.1-.9-.2-1.3-.6-.5-.6-1.1-1-1.7-1.5-.2-.1-.4-.3-.6-.3-.4-.2-.7 0-.8.4 0 .2 0 .3-.1.5-.1.5-.1 1.1-.3 1.5-.7 1.8-1.5 3.5-2.2 5.3-.1.2-.3.3-.5.3-1.7.4-3.3.7-5 1.1-.1 0-.3 0-.5.1.1-.3.1-.6.1-.9.7-3.2 1.3-6.3 2-9.5.3-1.5.7-2.9 1-4.3.2-.9.4-1.8.7-2.6.1-.3 0-.6-.1-.9-.5-1.2-1.4-2.1-2.5-2.8-.5-.3-.8-.1-.8.4 0 .6-.2 1.1-.6 1.6-.1.2-.2.3-.4.5-3.6 5.3-7.1 10.6-10.7 16-1.1 1.6-2.2 3.3-3.2 4.9-.1.2-.3.4-.5.4-1.5.3-3 .6-4.5.8-3.7.6-7.5 1-11.3 1.3-.4 0-.8.1-1.2.2-.6.2-.7.5-.4 1 .3.5.6.9 1 1.3.3.4.8.5 1.3.6 1.2.1 2.3 0 3.5-.2 2.9-.4 5.9-.9 8.8-1.3.2 0 .4-.1.7-.1-.1.2-.2.4-.3.5-1 1.6-2 3.2-3.1 4.8-.4.6-.4 1.2.1 1.8.5.6 1 1.3 1.6 1.9.2.2.4.3.6.5.2.1.4.1.6-.1l.6-.9c1.7-2.9 3.4-5.9 5.2-8.8.2-.3.4-.4.7-.5 1.9-.4 3.7-.8 5.6-1.2.1 0 .3 0 .5-.1-.1.6-.3 1.2-.4 1.8-.4 1.9-.8 3.8-1.3 5.8-.5 2.6-1.1 5.2-1.6 7.8-.4 2-.7 4.1-1.1 6.1 0 .3-.1.5-.1.8-.1.4 0 .9.3 1.2.5.8 1.1 1.6 1.6 2.3.2.3.5.5.8.7.3.2.6.1.7-.3 0-.1.1-.3.1-.5.4-2.6.9-5.2 1.3-7.7.6-3 1.2-6 1.9-9 .7-3.1 1.3-6.1 2-9.2.1-.3.2-.5.6-.6 1.3-.3 2.7-.6 4-1h.3c-.5 1.1-1 2.1-1.5 3.1-.8 1.5-1.6 3.1-2.3 4.6-.4.7-.4 1.4.2 2.1.5.6 1.1 1.1 1.6 1.6.3.2.5.2.7-.1.2-.2.3-.4.4-.7l5.1-10.2c.2-.4.5-.6.9-.7 1.7-.3 3.3-.6 5-1 .9-.2 1.8-.5 2.6-.9zm-17.9-10.5c-.5 2.1-1.1 4.2-1.6 6.3-.4 1.4-.7 2.8-1.1 4.3-.1.2-.1.3-.4.4-1.7.4-3.4.7-5.2 1.1 2.7-4.3 5.5-8.6 8.2-12.9 0-.1.1-.1.1-.1h.1c.1.2 0 .6-.1.9zm11.6 8.9h-.3c.3-.9.6-1.7.9-2.5.1-.2.2-.3.5-.4 1.1-.1 2.3-.1 3.4.1.2 0 .4.1.5.1.4.2.5.4.2.7-.2.3-.5.5-.8.6-.4.2-.8.4-1.2.5-1 .5-2.1.7-3.2.9z"/></g></g><path class="st0" d="M1119.8 1791.3H1324v84.4h-204.2z"/><defs><path id="SVGID_5_" d="M1119.8 1791.3H1324v84.4h-204.2z"/></defs><clipPath id="SVGID_6_"><use xlink:href="#SVGID_5_" overflow="visible"/></clipPath><g class="st3"><path d="M1254.2 1832.5c-.3 0-.6.1-1.1.3-5.4 1.6-10.4 2.8-15.8 3.9-1.6.3-3.2.5-4.5.6-.2 0-.6-.1-.7-.3 0-.2 0-.5.1-.7.4-1.4.9-2.8 1.3-4.2.1-.3.3-.6.6-.8 1.6-.9 3.1-1.8 4.7-2.8 1.4-.8 2.7-1.9 3.7-3.2.3-.3.6-.7.8-1.1.2-.3.3-.7.4-1.1.2-1-.3-1.7-1.1-2.2-1.1-.7-2.2-1.2-3.5-1.7-.8-.3-1.6-.2-2.3.3-.5.3-.9.7-1.3 1.1-.4.5-.8 1-1.1 1.5-1.2 1.8-2.2 3.8-3 5.8-.5 1.3-1.5 1.9-2.7 2.3h-.3l.3-1.2c.3-1.2.7-2.3 1.4-3.3.4-.6.8-1.3 1.2-2 .2-.4.4-.8.6-1.3.3-.8.1-1.4-.6-1.9-.7-.4-1.3-.8-2-1.2-.2-.1-.3-.2-.5-.2-.3-.1-.5 0-.6.3-.1 1-.6 1.8-1.1 2.6-2.4 3.9-5.2 7.5-8 11.1-.3.4-.7.8-1.1 1.2-.1.2-.3.3-.6.2.2-.5.3-1 .5-1.5 1.5-3.5 3.1-7 4.4-10.5.2-.6.2-1-.2-1.5-.6-.9-1.5-1.6-2.4-2.2-.4-.3-.5-.2-.7.2-.1.2-.3.5-.5.7-.9.6-1.9 1-3 1.1-1.3.1-2.5-.2-3.7-.8-.7-.4-1.4-.8-2-1.2-.1-.1-.3-.2-.5-.2-.2-.1-.4.1-.3.3.1.2.1.3.3.5.4.5.9 1 1.3 1.6.4.5.6 1.1.5 1.8 0 .2-.1.4-.1.6-.8 2.5-1.9 5-3.2 7.3-1 1.7-2.3 3.2-3.8 4.4-.3.2-.6.4-1 .5v-.3c.1-1.2.4-2.4.7-3.6.8-2.9 2-5.6 3.7-8.1.2-.3.4-.5.5-.7.2-.3.6-.4 1-.3.2.1.4.2.6.2.2 0 .4 0 .5-.1.2-.2 0-.3-.1-.5l-.3-.3c-.9-1-1.9-1.9-3-2.7-.6-.4-1-.4-1.6 0-.2.1-.3.3-.4.4-.3.3-.5.7-.8 1-.3.3-.6.7-.9 1-1 .8-2 1.5-2.9 2.3-2.9 2.4-5.6 5.1-7.8 8.1l-.4.4-2.4-5.4c.2-.1.4-.2.5-.2.9-.4 1.7-.8 2.6-1.2 1.1-.5 2.1-1.1 3.1-1.9.4-.3.7-.7 1-1 .7-.9.6-1.3-.3-1.9-1-.7-2.1-1.2-3.3-1.6-.9-.3-1.8-.4-2.7-.7-.2 0-.4-.1-.5-.2-.7-.7-1.7-1.1-2.5-1.6-.7-.4-.9-.2-1.1.5 0 .1 0 .2-.1.3-.1.4-.2.8-.4 1.2-.5 1.3-1.1 2.6-1.6 3.9 0 .1-.1.2-.2.3-.1-.8-.6-1.3-1.2-1.7-.8-.6-1.7-1-2.7-1.3-.9-.3-1.8-.5-2.7-.8-.1-.3-.3-.6-.6-.8-.6-.4-1.3-.8-1.9-1.2-.1 0-.1-.1-.2-.1-.5-.2-.7-.1-.9.4-.1.2-.1.4-.1.6-.2.6-.3 1.2-.5 1.7-1.3 3-2.6 6.1-4.1 9-1.3 2.4-2.6 4.7-3.9 7.1-.3.6-.6 1.2-.6 1.8 0 .3 0 .6.2.8.5.8 1.2 1.4 1.9 2 .4.3.7.3 1-.1.3-.4.5-.7.7-1.1 1.5-3.3 3.1-6.5 4.8-9.7.3-.5.6-.8 1.2-1 .5-.1.9-.3 1.4-.4 1.9-.6 3.7-1.3 5.4-2.2.8-.5 1.6-1 2.3-1.7 0 0 .1-.1.3-.2-.1.2-.1.3-.2.3-1.4 3.1-3 6.1-4.7 9-.5.8-.9 1.6-1.3 2.4-.3.7-.3 1.4.2 2 .5.6 1.2 1.1 1.8 1.5.4.2.6.2.9-.2.2-.3.4-.6.5-.9 1.6-3.2 3.3-6.3 4.9-9.5.1-.2.2-.3.3-.6.1.3.2.4.3.6 1 2.2 1.9 4.4 2.9 6.6.4.9.9 1.7 1.3 2.5.1.3.4.5.6.7.4.3.8.2 1.1-.2.1-.1.2-.3.3-.4 1-1.5 1.9-3 2.9-4.5 1.5-2.3 3.3-4.3 5.2-6.2.1-.1.2-.3.5-.3 0 .1 0 .2-.1.3-.3 1-.6 1.9-.9 2.9-.4 1.3-.8 2.7-.8 4.1 0 1 .2 1.9 1 2.4.7.5 1.5 1 2.3 1.4.8.5 1.7.5 2.6.1.8-.3 1.5-.7 2.1-1.3 1.4-1.2 2.5-2.6 3.5-4.2 1.2-1.8 2.1-3.7 3.1-5.7.5-1 .8-2 .9-3.1 0-.4.1-.7-.2-1.1h1.7c.5-.1 1.1-.2 1.6-.3v.2c-.5 1.3-.9 2.5-1.4 3.8-1.2 3.1-2.4 6.2-3.4 9.3-.2.6-.1 1.2.3 1.7.7.9 1.5 1.6 2.4 2.2.6.4 1.3.5 2 .2.6-.3 1.2-.7 1.6-1.2.7-.8 1.5-1.6 2.2-2.4l3.3-3.9c.2-.2.3-.4.5-.5l.4.4c.5.5.9 1 1.4 1.5.4.4.8.4 1.3.2.2-.1.3-.2.5-.3.1 0 .2-.1.3-.1-.2.9-.5 1.8-.7 2.6-.1.6-.1 1.1.3 1.6.5.8 1.1 1.5 1.9 2.1.4.4.9.6 1.5.6.8 0 1.9-.1 3.3-.2 3-.7 4.1-.9 6.8-1.6 4.1-1 5.6-1.3 9.1-2.3.6-.3 1.7-.6 2.2-.9.5-.3.8-.7.9-1.1.2-.8.3-1 .3-1.9-.3.3-.5.2-.8.2zm-18.7-5.5c.8-1.4 1.6-2.8 2.7-4l1.2-1.2c.1-.1.2-.2.3-.2.3-.2.5-.1.6.3 0 .3 0 .6-.1.9-.2.8-.6 1.5-1.2 2-1 1-2.1 1.8-3.3 2.4-.1 0-.1.1-.3.1 0-.2.1-.2.1-.3zm-55.1-3.7c-.1.1-.3.2-.4.3-1.6 1.1-3.4 1.9-5.3 2.4h-.1c.6-1.2 1.1-2.4 1.7-3.7.9 0 1.8-.1 2.7-.1.5 0 .9.1 1.3.3.3.3.4.4.1.8zm6.6 1.9c.1-.2.1-.3.2-.5l1.2-2.7c.2-.4.4-.7 1-.7.8.1 1.7 0 2.5.1.3 0 .6.1.9.2.5.2.6.5.2.9-.2.2-.4.3-.6.4-1 .6-2 1.1-3.1 1.5-.7.3-1.5.6-2.3.8z"/><path d="M1168.8 1826.6c.7-.4 1.3-1 1.7-1.8.5-1.1.4-2.4-.5-3.3-.3-.3-.7-.5-1.1-.8-1.2-.7-2.5-1-3.9-1.2-.5-.1-.9-.2-1.3-.6-.5-.6-1.1-1-1.7-1.5-.2-.1-.4-.3-.6-.3-.4-.2-.7 0-.8.4 0 .2 0 .3-.1.5-.1.5-.1 1.1-.3 1.5-.7 1.8-1.5 3.5-2.2 5.3-.1.2-.3.3-.5.3-1.7.4-3.3.7-5 1.1-.1 0-.3 0-.5.1.1-.3.1-.6.1-.9.7-3.2 1.3-6.3 2-9.5.3-1.5.7-2.9 1-4.3.2-.9.4-1.8.7-2.6.1-.3 0-.6-.1-.9-.5-1.2-1.4-2.1-2.5-2.8-.5-.3-.8-.1-.8.4 0 .6-.2 1.1-.6 1.6-.1.2-.2.3-.4.5-3.6 5.3-7.1 10.6-10.7 16-1.1 1.6-2.2 3.3-3.2 4.9-.1.2-.3.4-.5.4-1.5.3-3 .6-4.5.8-3.7.6-7.5 1-11.3 1.3-.4 0-.8.1-1.2.2-.6.2-.7.5-.4 1 .3.5.6.9 1 1.3.3.4.8.5 1.3.6 1.2.1 2.3 0 3.5-.2 2.9-.4 5.9-.9 8.8-1.3.2 0 .4-.1.7-.1-.1.2-.2.4-.3.5-1 1.6-2 3.2-3.1 4.8-.4.6-.4 1.2.1 1.8.5.6 1 1.3 1.6 1.9.2.2.4.3.6.5.2.1.4.1.6-.1l.6-.9c1.7-2.9 3.4-5.9 5.2-8.8.2-.3.4-.4.7-.5 1.9-.4 3.7-.8 5.6-1.2.1 0 .3 0 .5-.1-.1.6-.3 1.2-.4 1.8-.4 1.9-.8 3.8-1.3 5.8-.5 2.6-1.1 5.2-1.6 7.8-.4 2-.7 4.1-1.1 6.1 0 .3-.1.5-.1.8-.1.4 0 .9.3 1.2.5.8 1.1 1.6 1.6 2.3.2.3.5.5.8.7.3.2.6.1.7-.3 0-.1.1-.3.1-.5.4-2.6.9-5.2 1.3-7.7.6-3 1.2-6 1.9-9 .7-3.1 1.3-6.1 2-9.2.1-.3.2-.5.6-.6 1.3-.3 2.7-.6 4-1h.3c-.5 1.1-1 2.1-1.5 3.1-.8 1.5-1.6 3.1-2.3 4.6-.4.7-.4 1.4.2 2.1.5.6 1.1 1.1 1.6 1.6.3.2.5.2.7-.1.2-.2.3-.4.4-.7l5.1-10.2c.2-.4.5-.6.9-.7 1.7-.3 3.3-.6 5-1 .9-.2 1.8-.5 2.6-.9zm-17.9-10.5c-.5 2.1-1.1 4.2-1.6 6.3-.4 1.4-.7 2.8-1.1 4.3-.1.2-.1.3-.4.4-1.7.4-3.4.7-5.2 1.1 2.7-4.3 5.5-8.6 8.2-12.9 0-.1.1-.1.1-.1h.1c0 .2 0 .5-.1.9zm11.6 8.9h-.3c.3-.9.6-1.7.9-2.5.1-.2.2-.3.5-.4 1.1-.1 2.3-.1 3.4.1.2 0 .4.1.5.1.4.2.5.4.2.7-.2.3-.5.5-.8.6-.4.2-.8.4-1.2.5-1 .4-2.1.7-3.2.9z"/><g><path d="M1409.8 1832.4c-.3 0-.6.1-1.1.3-5.4 1.6-10.4 2.8-15.8 3.9-1.6.3-3.2.5-4.5.6-.2 0-.6-.1-.7-.3 0-.2 0-.5.1-.7.4-1.4.9-2.8 1.3-4.2.1-.3.3-.6.6-.8 1.6-.9 3.1-1.8 4.7-2.8 1.4-.8 2.7-1.9 3.7-3.2.3-.3.6-.7.8-1.1.2-.3.3-.7.4-1.1.2-1-.3-1.7-1.1-2.2-1.1-.7-2.2-1.2-3.5-1.7-.8-.3-1.6-.2-2.3.3-.5.3-.9.7-1.3 1.1-.4.5-.8 1-1.1 1.5-1.2 1.8-2.2 3.8-3 5.8-.5 1.3-1.5 1.9-2.7 2.3h-.3l.3-1.2c.3-1.2.7-2.3 1.4-3.3.4-.6.8-1.3 1.2-2 .2-.4.4-.8.6-1.3.3-.8.1-1.4-.6-1.9-.7-.4-1.3-.8-2-1.2-.2-.1-.3-.2-.5-.2-.3-.1-.5 0-.6.3-.1 1-.6 1.8-1.1 2.6-2.4 3.9-5.2 7.5-8 11.1-.3.4-.7.8-1.1 1.2-.1.2-.3.3-.6.2.2-.5.3-1 .5-1.5 1.5-3.5 3.1-7 4.4-10.5.2-.6.2-1-.2-1.5-.6-.9-1.5-1.6-2.4-2.2-.4-.3-.5-.2-.7.2-.1.2-.3.5-.5.7-.9.6-1.9 1-3 1.1-1.3.1-2.5-.2-3.7-.8-.7-.4-1.4-.8-2-1.2-.1-.1-.3-.2-.5-.2-.2-.1-.4.1-.3.3.1.2.1.3.3.5.4.5.9 1 1.3 1.6.4.5.6 1.1.5 1.8 0 .2-.1.4-.1.6-.8 2.5-1.9 5-3.2 7.3-1 1.7-2.3 3.2-3.8 4.4-.3.2-.6.4-1 .5v-.3c.1-1.2.4-2.4.7-3.6.8-2.9 2-5.6 3.7-8.1.2-.3.4-.5.5-.7.2-.3.6-.4 1-.3.2.1.4.2.6.2.2 0 .4 0 .5-.1.2-.2 0-.3-.1-.5l-.3-.3c-.9-1-1.9-1.9-3-2.7-.6-.4-1-.4-1.6 0-.2.1-.3.3-.4.4-.3.3-.5.7-.8 1-.3.3-.6.7-.9 1-1 .8-2 1.5-2.9 2.3-2.9 2.4-5.6 5.1-7.8 8.1l-.4.4-2.4-5.4c.2-.1.4-.2.5-.2.9-.4 1.7-.8 2.6-1.2 1.1-.5 2.1-1.1 3.1-1.9.4-.3.7-.7 1-1 .7-.9.6-1.3-.3-1.9-1-.7-2.1-1.2-3.3-1.6-.9-.3-1.8-.4-2.7-.7-.2 0-.4-.1-.5-.2-.7-.7-1.7-1.1-2.5-1.6-.7-.4-.9-.2-1.1.5 0 .1 0 .2-.1.3-.1.4-.2.8-.4 1.2-.5 1.3-1.1 2.6-1.6 3.9 0 .1-.1.2-.2.3-.1-.8-.6-1.3-1.2-1.7-.8-.6-1.7-1-2.7-1.3-.9-.3-1.8-.5-2.7-.8-.1-.3-.3-.6-.6-.8-.6-.4-1.3-.8-1.9-1.2-.1 0-.1-.1-.2-.1-.5-.2-.7-.1-.9.4-.1.2-.1.4-.1.6-.2.6-.3 1.2-.5 1.7-1.3 3-2.6 6.1-4.1 9-1.3 2.4-2.6 4.7-3.9 7.1-.3.6-.6 1.2-.6 1.8 0 .3 0 .6.2.8.5.8 1.2 1.4 1.9 2 .4.3.7.3 1-.1.3-.4.5-.7.7-1.1 1.5-3.3 3.1-6.5 4.8-9.7.3-.5.6-.8 1.2-1 .5-.1.9-.3 1.4-.4 1.9-.6 3.7-1.3 5.4-2.2.8-.5 1.6-1 2.3-1.7 0 0 .1-.1.3-.2-.1.2-.1.3-.2.3-1.4 3.1-3 6.1-4.7 9-.5.8-.9 1.6-1.3 2.4-.3.7-.3 1.4.2 2 .5.6 1.2 1.1 1.8 1.5.4.2.6.2.9-.2.2-.3.4-.6.5-.9 1.6-3.2 3.3-6.3 4.9-9.5.1-.2.2-.3.3-.6.1.3.2.4.3.6 1 2.2 1.9 4.4 2.9 6.6.4.9.9 1.7 1.3 2.5.1.3.4.5.6.7.4.3.8.2 1.1-.2.1-.1.2-.3.3-.4 1-1.5 1.9-3 2.9-4.5 1.5-2.3 3.3-4.3 5.2-6.2.1-.1.2-.3.5-.3 0 .1 0 .2-.1.3-.3 1-.6 1.9-.9 2.9-.4 1.3-.8 2.7-.8 4.1 0 1 .2 1.9 1 2.4.7.5 1.5 1 2.3 1.4.8.5 1.7.5 2.6.1.8-.3 1.5-.7 2.1-1.3 1.4-1.2 2.5-2.6 3.5-4.2 1.2-1.8 2.1-3.7 3.1-5.7.5-1 .8-2 .9-3.1 0-.4.1-.7-.2-1.1h1.7c.5-.1 1.1-.2 1.6-.3v.2c-.5 1.3-.9 2.5-1.4 3.8-1.2 3.1-2.4 6.2-3.4 9.3-.2.6-.1 1.2.3 1.7.7.9 1.5 1.6 2.4 2.2.6.4 1.3.5 2 .2.6-.3 1.2-.7 1.6-1.2.7-.8 1.5-1.6 2.2-2.4l3.3-3.9c.2-.2.3-.4.5-.5l.4.4c.5.5.9 1 1.4 1.5.4.4.8.4 1.3.2.2-.1.3-.2.5-.3.1 0 .2-.1.3-.1-.2.9-.5 1.8-.7 2.6-.1.6-.1 1.1.3 1.6.5.8 1.1 1.5 1.9 2.1.4.4.9.6 1.5.6.8 0 1.9-.1 3.3-.2 3-.7 4.1-.9 6.8-1.6 4.1-1 5.6-1.3 9.1-2.3.6-.3 1.7-.6 2.2-.9.5-.3.8-.7.9-1.1.2-.8.3-1 .3-1.9-.2.4-.4.2-.8.2zm-18.6-5.5c.8-1.4 1.6-2.8 2.7-4l1.2-1.2c.1-.1.2-.2.3-.2.3-.2.5-.1.6.3 0 .3 0 .6-.1.9-.2.8-.6 1.5-1.2 2-1 1-2.1 1.8-3.3 2.4-.1 0-.1.1-.3.1 0-.1 0-.2.1-.3zm-55.2-3.7c-.1.1-.3.2-.4.3-1.6 1.1-3.4 1.9-5.3 2.4h-.1c.6-1.2 1.1-2.4 1.7-3.7.9 0 1.8-.1 2.7-.1.5 0 .9.1 1.3.3.4.3.4.5.1.8zm6.7 2c.1-.2.1-.3.2-.5l1.2-2.7c.2-.4.4-.7 1-.7.8.1 1.7 0 2.5.1.3 0 .6.1.9.2.5.2.6.5.2.9-.2.2-.4.3-.6.4-1 .6-2 1.1-3.1 1.5-.8.3-1.5.5-2.3.8z"/><path d="M1324.4 1826.5c.7-.4 1.3-1 1.7-1.8.5-1.1.4-2.4-.5-3.3-.3-.3-.7-.5-1.1-.8-1.2-.7-2.5-1-3.9-1.2-.5-.1-.9-.2-1.3-.6-.5-.6-1.1-1-1.7-1.5-.2-.1-.4-.3-.6-.3-.4-.2-.7 0-.8.4 0 .2 0 .3-.1.5-.1.5-.1 1.1-.3 1.5-.7 1.8-1.5 3.5-2.2 5.3-.1.2-.3.3-.5.3-1.7.4-3.3.7-5 1.1-.1 0-.3 0-.5.1.1-.3.1-.6.1-.9.7-3.2 1.3-6.3 2-9.5.3-1.5.7-2.9 1-4.3.2-.9.4-1.8.7-2.6.1-.3 0-.6-.1-.9-.5-1.2-1.4-2.1-2.5-2.8-.5-.3-.8-.1-.8.4 0 .6-.2 1.1-.6 1.6-.1.2-.2.3-.4.5-3.6 5.3-7.1 10.6-10.7 16-1.1 1.6-2.2 3.3-3.2 4.9-.1.2-.3.4-.5.4-1.5.3-3 .6-4.5.8-3.7.6-7.5 1-11.3 1.3-.4 0-.8.1-1.2.2-.6.2-.7.5-.4 1 .3.5.6.9 1 1.3.3.4.8.5 1.3.6 1.2.1 2.3 0 3.5-.2 2.9-.4 5.9-.9 8.8-1.3.2 0 .4-.1.7-.1-.1.2-.2.4-.3.5-1 1.6-2 3.2-3.1 4.8-.4.6-.4 1.2.1 1.8.5.6 1 1.3 1.6 1.9.2.2.4.3.6.5.2.1.4.1.6-.1l.6-.9c1.7-2.9 3.4-5.9 5.2-8.8.2-.3.4-.4.7-.5 1.9-.4 3.7-.8 5.6-1.2.1 0 .3 0 .5-.1-.1.6-.3 1.2-.4 1.8-.4 1.9-.8 3.8-1.3 5.8-.5 2.6-1.1 5.2-1.6 7.8-.4 2-.7 4.1-1.1 6.1 0 .3-.1.5-.1.8-.1.4 0 .9.3 1.2.5.8 1.1 1.6 1.6 2.3.2.3.5.5.8.7.3.2.6.1.7-.3 0-.1.1-.3.1-.5.4-2.6.9-5.2 1.3-7.7.6-3 1.2-6 1.9-9 .7-3.1 1.3-6.1 2-9.2.1-.3.2-.5.6-.6 1.3-.3 2.7-.6 4-1h.3c-.5 1.1-1 2.1-1.5 3.1-.8 1.5-1.6 3.1-2.3 4.6-.4.7-.4 1.4.2 2.1.5.6 1.1 1.1 1.6 1.6.3.2.5.2.7-.1.2-.2.3-.4.4-.7l5.1-10.2c.2-.4.5-.6.9-.7 1.7-.3 3.3-.6 5-1 1-.1 1.8-.4 2.6-.9zm-17.9-10.5c-.5 2.1-1.1 4.2-1.6 6.3-.4 1.4-.7 2.8-1.1 4.3-.1.2-.1.3-.4.4-1.7.4-3.4.7-5.2 1.1 2.7-4.3 5.5-8.6 8.2-12.9 0-.1.1-.1.1-.1h.1c.1.2 0 .6-.1.9zm11.7 8.9h-.3c.3-.9.6-1.7.9-2.5.1-.2.2-.3.5-.4 1.1-.1 2.3-.1 3.4.1.2 0 .4.1.5.1.4.2.5.4.2.7-.2.3-.5.5-.8.6-.4.2-.8.4-1.2.5-1.1.5-2.1.7-3.2.9z"/></g></g><path class="st4" d="M867.4 205.7s-5.7 148.3-.3 190C886.9 550 995 567 995 567"/><path class="st5" d="M884 205.8s-7.2 144.4-1.8 186.1c19.9 154.3 115.6 156.4 115.6 156.4M1114.9 205.7s7 145.5.1 186.9c-25.5 151.6-117.2 155.6-117.2 155.6"/><path class="st4" d="M1132.8 205.6s4 149.6-1.3 191.3C1111.7 551.3 997.8 567 997.8 567"/></g></svg>