<svg id="Camada_1" xmlns="http://www.w3.org/2000/svg" viewBox="0 0 2000 2000"><style>.st0,.st1,.st2,.st3{stroke:#1e1e1c;stroke-linecap:round;stroke-linejoin:round;stroke-miterlimit:10}.st0{fill:#fff;stroke-width:.5}.st1,.st2,.st3{stroke-width:.25}.st1{stroke-dasharray:2;fill:none}.st2,.st3{fill:#fff}.st3{fill:none}</style><path class="st0" d="M1109.1 416.6s-84.5-17.8-112.3-17.9c-28.5-.1-107.1 17.9-107.1 17.9l47.6 140.1 101.4 8 90.1-116.7-19.7-31.4z"/><path class="st0" d="M1298 677.7c0-88 24-172 24-172l-170-47.8s-22.3 41.6-58.9 71.6c-20.2 16.6-52.7 24.2-72.4 27.7h-24s-57.7 0-95.1-30.7c-36.6-30.1-54.9-67.6-54.9-67.6l-174 43.8s28 84 28 172c0 62-43 275.5-43 275.5l-1 651.1 689.4-.1-2.7-654.9c-.1.1-45.4-206.6-45.4-268.6z"/><path class="st1" d="M656.6 1570h681.3"/><path class="st0" d="M690.7 1318h24v172h-24zM1286.6 1323h24v172h-24zM1017.6 577.3l.9 1024M847.1 456.6l-172.7 43.2s-39 34-84.3 112.4c-24 41.4-224.2 396.4-340 623.7-15.9 31.3-24.5 59.9-29.3 80.4-3.3 14.2-6.7 41-6.7 41l120 73.1s41.4-27.3 54.7-45.9c6.7-9.4 20.3-26.4 26-35.8 73.1-121.5 226.6-376.5 243.1-403.9l.2 3.1s.3-1.7.9-4.9c.2-.4.4-.6.4-.6s19.6-88.3 32.4-169.8c11.8-56 24.6-110.2 34.6-136.5 21.7-56.6 120.7-179.5 120.7-179.5z"/><path class="st2" d="M246.9 1349c-12.3 14.7-8.9 22.8-8.9 22.8s-2.1-16.3 6.7-41M292.7 1362.9l-18 31.3M334.1 1404.2c-12.2 8.1-29.7 8.1-29.7 8.1s19.3-5.3 27.5-18.1"/><path class="st3" d="M274.7 1371.8v23.7l29.7-17"/><path class="st0" d="M322.1 1439.2l-114.5-67.4 6.5-14.5 120 73.1zM1152.9 457.9l172.7 43.2s39 34 84.3 112.4c24 41.4 224.2 396.4 340 623.7 15.9 31.3 24.5 59.9 29.3 80.4 3.3 14.2 6.7 41 6.7 41l-120 73.1s-41.4-27.3-54.7-45.9c-6.7-9.4-20.3-26.4-26-35.8-73.1-121.5-226.6-376.5-243.1-403.9l-.2 3.1s-.3-1.7-.9-4.9c-.2-.4-.4-.6-.4-.6s-19.6-88.3-32.4-169.8c-11.8-56-24.6-110.2-34.6-136.5-21.7-56.6-120.7-179.5-120.7-179.5z"/><path class="st2" d="M1753.1 1350.4c12.3 14.7 8.9 22.8 8.9 22.8s2.1-16.3-6.7-41M1707.3 1364.2l18 31.3M1665.9 1405.5c12.2 8.1 29.7 8.1 29.7 8.1s-19.3-5.3-27.5-18.1"/><path class="st3" d="M1725.3 1373.2v23.7l-29.7-17"/><path class="st0" d="M1677.9 1440.6l114.5-67.4-6.5-14.6-120 73.1z"/><circle class="st0" cx="999.4" cy="583.7" r="14.1"/><circle class="st0" cx="999.4" cy="1543.8" r="14.1"/><circle class="st0" cx="999.4" cy="1351.8" r="14.1"/><circle class="st0" cx="999.4" cy="1159.8" r="14.1"/><circle class="st0" cx="999.4" cy="967.8" r="14.1"/><circle class="st0" cx="999.4" cy="775.7" r="14.1"/><path class="st0" d="M999.1 553.6l49.5 70.2s50.9-58.2 70.7-94.7c19-35 34.8-70.7 34.8-70.7l-45-42.7s-25.6 42.4-38.4 61.9c-28.4 43.2-64.9 79.7-71.6 76z"/><path class="st0" d="M999.7 553.6l-49.5 70.2s-50.9-58.2-70.7-94.7c-19-35-34.8-70.7-34.8-70.7l45-42.7s25.6 42.4 38.4 61.9c28.4 43.2 64.9 79.7 71.6 76z"/></svg>