<svg id="Camada_1" xmlns="http://www.w3.org/2000/svg" viewBox="0 0 2000 2000"><style>.st0{fill:#fff;stroke-width:.5;stroke-linecap:round;stroke-linejoin:round;stroke-miterlimit:10}.st0,.st1,.st2{stroke:#1e1e1c}.st1{stroke-linecap:round;stroke-linejoin:round;stroke-miterlimit:10;stroke-dasharray:2;fill:none;stroke-width:.25}.st2{fill:#fff;stroke-width:.5}.st3,.st4,.st5{fill:#fff;stroke:#000;stroke-width:.2095;stroke-linecap:round;stroke-linejoin:round}.st4,.st5{stroke:#1e1e1c;stroke-width:.25;stroke-miterlimit:10}.st5{fill:none}</style><path class="st0" d="M1293.7 685.8c-16.5-86.4 28-172 28-172l-170-47.8s-22.3 41.6-58.9 71.6c-20.2 16.6-52.7 24.2-72.4 27.7h-24s-57.7 0-95.1-30.7c-36.6-30.1-54.9-67.6-54.9-67.6l-174 43.8s28 84 28 172c0 62-43 275.5-43 275.5l-1 651.1 681.4-.1-2.7-654.9c0 .1-24.7-181.3-41.4-268.6zM658.7 974.8h674.8"/><path class="st1" d="M656.4 1578.1h681.3"/><path class="st0" d="M690.5 1326.1h24v172h-24zM1286.3 1331.1h24v172h-24z"/><path class="st2" d="M879.6 408.8s59-18.2 121.8-18.2c46.2 0 121.8 18.2 121.8 18.2l15 64.3-132.7 94.2-121.8-99.7-4.1-58.8z"/><path class="st0" d="M1004.3 498l1.2 72.2s-42.4 1.8-79.4-18.2c-59.8-32.2-79.4-83.6-79.4-83.6l32.8-59.8s22.4 48 46.5 66.3c24.9 19 78.3 23.1 78.3 23.1z"/><path class="st0" d="M998.4 498l-1.2 72.2s42.4 1.8 79.4-18.2c59.8-32.2 79.4-83.6 79.4-83.6l-32.8-59.8s-22.4 48-46.5 66.3c-24.9 19-78.3 23.1-78.3 23.1z"/><path class="st3" d="M995 499.3c.1-1.1.6-.2.6-.2.2.1.5-.5.5-.5h.7v1.4h-.7s-.3-.5-.5-.5c0 .1-.5 1-.6-.2zM995 501.2c.1-1.1.6-.2.6-.2.2.1.5-.5.5-.5h.7v1.4h-.7s-.3-.5-.5-.5c0 .1-.5 1-.6-.2z"/><path class="st3" d="M995.8 500.2c-.1-1.1-.6-.2-.6-.2-.2.1-.5-.5-.5-.5h-.7v1.4h.7s.3-.5.5-.5c.1.1.6 1 .6-.2z"/><path class="st3" d="M995 501.3c.1-1.1.6-.2.6-.2.2.1.5-.5.5-.5h.7v1.4h-.7s-.3-.5-.5-.5c0 .1-.5.9-.6-.2zM995 503.2c.1-1.1.6-.2.6-.2.2.1.5-.5.5-.5h.7v1.4h-.7s-.3-.5-.5-.5c0 0-.5.9-.6-.2z"/><path class="st3" d="M995.9 502.2c-.1-1.1-.6-.2-.6-.2-.2.1-.5-.5-.5-.5h-.7v1.4h.7s.3-.5.5-.5c0 .1.5 1 .6-.2z"/><path class="st3" d="M995 503.2c.1-1.1.6-.2.6-.2.2.1.5-.5.5-.5h.7v1.4h-.7s-.3-.5-.5-.5c0 .1-.5 1-.6-.2zM995 505.1c.1-1.1.6-.2.6-.2.2.1.5-.5.5-.5h.7v1.4h-.7s-.3-.5-.5-.5c0 .1-.5 1-.6-.2z"/><path class="st3" d="M995.9 504.2c-.1-1.1-.6-.2-.6-.2-.2.1-.5-.5-.5-.5h-.7v1.4h.7s.3-.5.5-.5c0 .1.5.9.6-.2z"/><path class="st3" d="M995 505.2c.1-1.1.6-.2.6-.2.2.1.5-.5.5-.5h.7v1.4h-.7s-.3-.5-.5-.5c0 .1-.5 1-.6-.2zM995.1 507.1c.1-1.1.6-.2.6-.2.2.1.5-.5.5-.5h.7v1.4h-.7s-.3-.5-.5-.5c-.1.1-.6 1-.6-.2z"/><path class="st3" d="M995.9 506.1c-.1-1.1-.6-.2-.6-.2-.2.1-.5-.5-.5-.5h-.7v1.4h.7s.3-.5.5-.5c0 .1.5 1 .6-.2z"/><path class="st3" d="M995.1 507.2c.1-1.1.6-.2.6-.2.2.1.5-.5.5-.5h.7v1.4h-.7s-.3-.5-.5-.5c-.1.1-.6.9-.6-.2zM995.1 509.1c.1-1.1.6-.2.6-.2.2.1.5-.5.5-.5h.7v1.4h-.7s-.3-.5-.5-.5c-.1 0-.6.9-.6-.2z"/><path class="st3" d="M995.9 508.1c-.1-1.1-.6-.2-.6-.2-.2.1-.5-.5-.5-.5h-.7v1.4h.7s.3-.5.5-.5c0 .1.5 1 .6-.2z"/><path class="st3" d="M995.1 509.1c.1-1.1.6-.2.6-.2.2.1.5-.5.5-.5h.7v1.4h-.7s-.3-.5-.5-.5c-.1.1-.6 1-.6-.2zM995.1 511c.1-1.1.6-.2.6-.2.2.1.5-.5.5-.5h.7v1.4h-.7s-.3-.5-.5-.5c0 .1-.5 1-.6-.2z"/><path class="st3" d="M995.9 510.1c-.1-1.1-.6-.2-.6-.2-.2.1-.5-.5-.5-.5h-.7v1.4h.7s.3-.5.5-.5c0 .1.5.9.6-.2z"/><path class="st3" d="M995.1 511.1c.1-1.1.6-.2.6-.2.2.1.5-.5.5-.5h.7v1.4h-.7s-.3-.5-.5-.5c0 .1-.5 1-.6-.2zM995.1 513c.1-1.1.6-.2.6-.2.2.1.5-.5.5-.5h.7v1.4h-.7s-.3-.5-.5-.5c0 .1-.5 1-.6-.2z"/><path class="st3" d="M995.9 512c-.1-1.1-.6-.2-.6-.2-.2.1-.5-.5-.5-.5h-.7v1.4h.7s.3-.5.5-.5c0 .1.6 1 .6-.2z"/><path class="st3" d="M995.1 513.1c.1-1.1.6-.2.6-.2.2.1.5-.5.5-.5h.7v1.4h-.7s-.3-.5-.5-.5c0 .1-.5.9-.6-.2zM995.1 515c.1-1.1.6-.2.6-.2.2.1.5-.5.5-.5h.7v1.4h-.7s-.3-.5-.5-.5c0 0-.5.9-.6-.2z"/><path class="st3" d="M995.9 514c-.1-1.1-.6-.2-.6-.2-.2.1-.5-.5-.5-.5h-.7v1.4h.7s.3-.5.5-.5c.1.1.6 1 .6-.2z"/><path class="st3" d="M995.1 515c.1-1.1.6-.2.6-.2.2.1.5-.5.5-.5h.7v1.4h-.7s-.3-.5-.5-.5c0 .1-.5 1-.6-.2zM995.1 516.9c.1-1.1.6-.2.6-.2.2.1.5-.5.5-.5h.7v1.4h-.7s-.3-.5-.5-.5c0 .1-.5 1-.6-.2z"/><path class="st3" d="M995.9 516c-.1-1.1-.6-.2-.6-.2-.2.1-.5-.5-.5-.5h-.7v1.4h.7s.3-.5.5-.5c.1.1.6.9.6-.2z"/><path class="st3" d="M995.1 517c.1-1.1.6-.2.6-.2.2.1.5-.5.5-.5h.7v1.4h-.7s-.3-.5-.5-.5c0 .1-.5 1-.6-.2zM995.1 518.9c.1-1.1.6-.2.6-.2.2.1.5-.5.5-.5h.7v1.4h-.7s-.3-.5-.5-.5c0 .1-.5 1-.6-.2z"/><path class="st3" d="M996 517.9c-.1-1.1-.6-.2-.6-.2-.2.1-.5-.5-.5-.5h-.7v1.4h.7s.3-.5.5-.5c0 .1.5 1 .6-.2z"/><path class="st3" d="M995.1 519c.1-1.1.6-.2.6-.2.2.1.5-.5.5-.5h.7v1.4h-.7s-.3-.5-.5-.5c0 .1-.5.9-.6-.2zM995.1 520.9c.1-1.1.6-.2.6-.2.2.1.5-.5.5-.5h.7v1.4h-.7s-.3-.5-.5-.5c0 0-.5.9-.6-.2z"/><path class="st3" d="M996 519.9c-.1-1.1-.6-.2-.6-.2-.2.1-.5-.5-.5-.5h-.7v1.4h.7s.3-.5.5-.5c0 .1.5 1 .6-.2z"/><path class="st3" d="M995.1 520.9c.1-1.1.6-.2.6-.2.2.1.5-.5.5-.5h.7v1.4h-.7s-.3-.5-.5-.5c0 .1-.5 1-.6-.2zM995.1 522.8c.1-1.1.6-.2.6-.2.2.1.5-.5.5-.5h.7v1.4h-.7s-.3-.5-.5-.5c0 .1-.5 1-.6-.2z"/><path class="st3" d="M996 521.9c-.1-1.1-.6-.2-.6-.2-.2.1-.5-.5-.5-.5h-.7v1.4h.7s.3-.5.5-.5c0 .1.5.9.6-.2z"/><path class="st3" d="M995.1 522.9c.1-1.1.6-.2.6-.2.2.1.5-.5.5-.5h.7v1.4h-.7s-.3-.5-.5-.5c0 .1-.5 1-.6-.2zM995.2 524.8c.1-1.1.6-.2.6-.2.2.1.5-.5.5-.5h.7v1.4h-.7s-.3-.5-.5-.5c-.1.1-.6 1-.6-.2z"/><path class="st3" d="M996 523.8c-.1-1.1-.6-.2-.6-.2-.2.1-.5-.5-.5-.5h-.7v1.4h.7s.3-.5.5-.5c0 .1.5 1 .6-.2z"/><path class="st3" d="M995.2 524.9c.1-1.1.6-.2.6-.2.2.1.5-.5.5-.5h.7v1.4h-.7s-.3-.5-.5-.5c-.1.1-.6.9-.6-.2zM995.2 526.8c.1-1.1.6-.2.6-.2.2.1.5-.5.5-.5h.7v1.4h-.7s-.3-.5-.5-.5c-.1 0-.6.9-.6-.2z"/><path class="st3" d="M996 525.8c-.1-1.1-.6-.2-.6-.2-.2.1-.5-.5-.5-.5h-.7v1.4h.7s.3-.5.5-.5c0 .1.5 1 .6-.2z"/><path class="st3" d="M995.2 526.8c.1-1.1.6-.2.6-.2.2.1.5-.5.5-.5h.7v1.4h-.7s-.3-.5-.5-.5c-.1.1-.6 1-.6-.2zM995.2 528.7c.1-1.1.6-.2.6-.2.2.1.5-.5.5-.5h.7v1.4h-.7s-.3-.5-.5-.5c0 .1-.5 1-.6-.2z"/><path class="st3" d="M996 527.8c-.1-1.1-.6-.2-.6-.2-.2.1-.5-.5-.5-.5h-.7v1.4h.7s.3-.5.5-.5c0 .1.6.9.6-.2z"/><path class="st3" d="M995.2 528.8c.1-1.1.6-.2.6-.2.2.1.5-.5.5-.5h.7v1.4h-.7s-.3-.5-.5-.5c0 .1-.5 1-.6-.2zM995.2 530.7c.1-1.1.6-.2.6-.2.2.1.5-.5.5-.5h.7v1.4h-.7s-.3-.5-.5-.5c0 .1-.5 1-.6-.2z"/><path class="st3" d="M996 529.7c-.1-1.1-.6-.2-.6-.2-.2.1-.5-.5-.5-.5h-.7v1.4h.7s.3-.5.5-.5c.1.1.6 1 .6-.2z"/><path class="st3" d="M995.2 530.8c.1-1.1.6-.2.6-.2.2.1.5-.5.5-.5h.7v1.4h-.7s-.3-.5-.5-.5c0 .1-.5.9-.6-.2zM995.2 532.7c.1-1.1.6-.2.6-.2.2.1.5-.5.5-.5h.7v1.4h-.7s-.3-.5-.5-.5c0 0-.5.9-.6-.2z"/><path class="st3" d="M996 531.7c-.1-1.1-.6-.2-.6-.2-.2.1-.5-.5-.5-.5h-.7v1.4h.7s.3-.5.5-.5c.1.1.6 1 .6-.2z"/><path class="st3" d="M995.2 532.7c.1-1.1.6-.2.6-.2.2.1.5-.5.5-.5h.7v1.4h-.7s-.3-.5-.5-.5c0 .1-.5 1-.6-.2zM995.2 534.6c.1-1.1.6-.2.6-.2.2.1.5-.5.5-.5h.7v1.4h-.7s-.3-.5-.5-.5c0 .1-.5 1-.6-.2z"/><path class="st3" d="M996 533.7c-.1-1.1-.6-.2-.6-.2-.2.1-.5-.5-.5-.5h-.7v1.4h.7s.3-.5.5-.5c.1.1.6.9.6-.2z"/><path class="st3" d="M995.2 534.7c.1-1.1.6-.2.6-.2.2.1.5-.5.5-.5h.7v1.4h-.7s-.3-.5-.5-.5c0 .1-.5 1-.6-.2zM995.2 536.6c.1-1.1.6-.2.6-.2.2.1.5-.5.5-.5h.7v1.4h-.7s-.3-.5-.5-.5c0 .1-.5 1-.6-.2z"/><path class="st3" d="M996.1 535.6c-.1-1.1-.6-.2-.6-.2-.2.1-.5-.5-.5-.5h-.7v1.4h.7s.3-.5.5-.5c0 .1.5 1 .6-.2z"/><path class="st3" d="M995.2 536.7c.1-1.1.6-.2.6-.2.2.1.5-.5.5-.5h.7v1.4h-.7s-.3-.5-.5-.5c0 .1-.5.9-.6-.2zM995.2 538.6c.1-1.1.6-.2.6-.2.2.1.5-.5.5-.5h.7v1.4h-.7s-.3-.5-.5-.5c0 0-.5.9-.6-.2z"/><path class="st3" d="M996.1 537.6c-.1-1.1-.6-.2-.6-.2-.2.1-.5-.5-.5-.5h-.7v1.4h.7s.3-.5.5-.5c0 .1.5 1 .6-.2z"/><path class="st3" d="M995.2 538.6c.1-1.1.6-.2.6-.2.2.1.5-.5.5-.5h.7v1.4h-.7s-.3-.5-.5-.5c0 .1-.5 1-.6-.2zM995.3 540.5c.1-1.1.6-.2.6-.2.2.1.5-.5.5-.5h.7v1.4h-.7s-.3-.5-.5-.5c-.1.1-.6 1-.6-.2z"/><path class="st3" d="M996.1 539.6c-.1-1.1-.6-.2-.6-.2-.2.1-.5-.5-.5-.5h-.7v1.4h.7s.3-.5.5-.5c0 .1.5.9.6-.2z"/><path class="st3" d="M995.3 540.6c.1-1.1.6-.2.6-.2.2.1.5-.5.5-.5h.7v1.4h-.7s-.3-.5-.5-.5c-.1.1-.6 1-.6-.2zM995.3 542.5c.1-1.1.6-.2.6-.2.2.1.5-.5.5-.5h.7v1.4h-.7s-.3-.5-.5-.5c-.1.1-.6 1-.6-.2z"/><path class="st3" d="M996.1 541.5c-.1-1.1-.6-.2-.6-.2-.2.1-.5-.5-.5-.5h-.7v1.4h.7s.3-.5.5-.5c0 .1.5 1 .6-.2z"/><path class="st3" d="M995.3 542.6c.1-1.1.6-.2.6-.2.2.1.5-.5.5-.5h.7v1.4h-.7s-.3-.5-.5-.5c-.1.1-.6 1-.6-.2zM995.3 544.5c.1-1.1.6-.2.6-.2.2.1.5-.5.5-.5h.7v1.4h-.7s-.3-.5-.5-.5c0 0-.5.9-.6-.2z"/><path class="st3" d="M996.1 543.5c-.1-1.1-.6-.2-.6-.2-.2.1-.5-.5-.5-.5h-.7v1.4h.7s.3-.5.5-.5c0 .1.5 1 .6-.2z"/><path class="st3" d="M995.3 544.5c.1-1.1.6-.2.6-.2.2.1.5-.5.5-.5h.7v1.4h-.7s-.3-.5-.5-.5c0 .1-.5 1-.6-.2zM995.3 546.4c.1-1.1.6-.2.6-.2.2.1.5-.5.5-.5h.7v1.4h-.7s-.3-.5-.5-.5c0 .1-.5 1-.6-.2z"/><path class="st3" d="M996.1 545.5c-.1-1.1-.6-.2-.6-.2-.2.1-.5-.5-.5-.5h-.7v1.4h.7s.3-.5.5-.5c0 .1.6 1 .6-.2z"/><path class="st3" d="M995.3 546.5c.1-1.1.6-.2.6-.2.2.1.5-.5.5-.5h.7v1.4h-.7s-.3-.5-.5-.5c0 .1-.5 1-.6-.2zM995.3 548.4c.1-1.1.6-.2.6-.2.2.1.5-.5.5-.5h.7v1.4h-.7s-.3-.5-.5-.5c0 .1-.5 1-.6-.2z"/><path class="st3" d="M996.1 547.4c-.1-1.1-.6-.2-.6-.2-.2.1-.5-.5-.5-.5h-.7v1.4h.7s.3-.5.5-.5c.1.1.6 1 .6-.2z"/><path class="st3" d="M995.3 548.5c.1-1.1.6-.2.6-.2.2.1.5-.5.5-.5h.7v1.4h-.7s-.3-.5-.5-.5c0 .1-.5 1-.6-.2zM995.3 550.4c.1-1.1.6-.2.6-.2.2.1.5-.5.5-.5h.7v1.4h-.7s-.3-.5-.5-.5c0 0-.5.9-.6-.2z"/><path class="st3" d="M996.1 549.4c-.1-1.1-.6-.2-.6-.2-.2.1-.5-.5-.5-.5h-.7v1.4h.7s.3-.5.5-.5c.1.1.6 1 .6-.2z"/><path class="st3" d="M995.3 550.4c.1-1.1.6-.2.6-.2.2.1.5-.5.5-.5h.7v1.4h-.7s-.3-.5-.5-.5c0 .1-.5 1-.6-.2zM995.3 552.3c.1-1.1.6-.2.6-.2.2.1.5-.5.5-.5h.7v1.4h-.7s-.3-.5-.5-.5c0 .1-.5 1-.6-.2z"/><path class="st3" d="M996.2 551.4c-.1-1.1-.6-.2-.6-.2-.2.1-.5-.5-.5-.5h-.7v1.4h.7s.3-.5.5-.5c0 .1.5 1 .6-.2z"/><path class="st3" d="M995.3 552.4c.1-1.1.6-.2.6-.2.2.1.5-.5.5-.5h.7v1.4h-.7s-.3-.5-.5-.5c0 .1-.5 1-.6-.2zM995.3 554.3c.1-1.1.6-.2.6-.2.2.1.5-.5.5-.5h.7v1.4h-.7s-.3-.5-.5-.5c0 .1-.5 1-.6-.2z"/><path class="st3" d="M996.2 553.3c-.1-1.1-.6-.2-.6-.2-.2.1-.5-.5-.5-.5h-.7v1.4h.7s.3-.5.5-.5c0 .1.5 1 .6-.2z"/><path class="st3" d="M995.3 554.4c.1-1.1.6-.2.6-.2.2.1.5-.5.5-.5h.7v1.4h-.7s-.3-.5-.5-.5c0 .1-.5 1-.6-.2zM995.3 556.3c.1-1.1.6-.2.6-.2.2.1.5-.5.5-.5h.7v1.4h-.7s-.3-.5-.5-.5c0 0-.5.9-.6-.2z"/><path class="st3" d="M996.2 555.3c-.1-1.1-.6-.2-.6-.2-.2.1-.5-.5-.5-.5h-.7v1.4h.7s.3-.5.5-.5c0 .1.5 1 .6-.2z"/><path class="st3" d="M995.3 556.3c.1-1.1.6-.2.6-.2.2.1.5-.5.5-.5h.7v1.4h-.7s-.3-.5-.5-.5c0 .1-.5 1-.6-.2zM995.4 558.2c.1-1.1.6-.2.6-.2.2.1.5-.5.5-.5h.7v1.4h-.7s-.3-.5-.5-.5c-.1.1-.6 1-.6-.2z"/><path class="st3" d="M996.2 557.3c-.1-1.1-.6-.2-.6-.2-.2.1-.5-.5-.5-.5h-.7v1.4h.7s.3-.5.5-.5c0 .1.5 1 .6-.2z"/><path class="st3" d="M995.4 558.3c.1-1.1.6-.2.6-.2.2.1.5-.5.5-.5h.7v1.4h-.7s-.3-.5-.5-.5c-.1.1-.6 1-.6-.2zM995.4 560.2c.1-1.1.6-.2.6-.2.2.1.5-.5.5-.5h.7v1.4h-.7s-.3-.5-.5-.5c-.1.1-.6 1-.6-.2z"/><path class="st3" d="M996.2 559.2c-.1-1.1-.6-.2-.6-.2-.2.1-.5-.5-.5-.5h-.7v1.4h.7s.3-.5.5-.5c0 .1.5 1 .6-.2z"/><path class="st3" d="M995.4 560.3c.1-1.1.6-.2.6-.2.2.1.5-.5.5-.5h.7v1.4h-.7s-.3-.5-.5-.5c-.1.1-.6 1-.6-.2zM995.4 562.2c.1-1.1.6-.2.6-.2.2.1.5-.5.5-.5h.7v1.4h-.7s-.3-.5-.5-.5c0 0-.5.9-.6-.2z"/><path class="st3" d="M996.2 561.2c-.1-1.1-.6-.2-.6-.2-.2.1-.5-.5-.5-.5h-.7v1.4h.7s.3-.5.5-.5c0 .1.6 1 .6-.2z"/><path class="st3" d="M995.4 562.2c.1-1.1.6-.2.6-.2.2.1.5-.5.5-.5h.7v1.4h-.7s-.3-.5-.5-.5c0 .1-.5 1-.6-.2zM995.4 564.1c.1-1.1.6-.2.6-.2.2.1.5-.5.5-.5h.7v1.4h-.7s-.3-.5-.5-.5c0 .1-.5 1-.6-.2z"/><path class="st3" d="M996.2 563.2c-.1-1.1-.6-.2-.6-.2-.2.1-.5-.5-.5-.5h-.7v1.4h.7s.3-.5.5-.5c.1.1.6 1 .6-.2z"/><path class="st3" d="M995.4 564.2c.1-1.1.6-.2.6-.2.2.1.5-.5.5-.5h.7v1.4h-.7s-.3-.5-.5-.5c0 .1-.5 1-.6-.2zM995.4 566.1c.1-1.1.6-.2.6-.2.2.1.5-.5.5-.5h.7v1.4h-.7s-.3-.5-.5-.5c0 .1-.5 1-.6-.2z"/><path class="st3" d="M996.2 565.1c-.1-1.1-.6-.2-.6-.2-.2.1-.5-.5-.5-.5h-.7v1.4h.7s.3-.5.5-.5c.1.1.6 1 .6-.2z"/><path class="st3" d="M995.4 566.2c.1-1.1.6-.2.6-.2.2.1.5-.5.5-.5h.7v1.4h-.7s-.3-.5-.5-.5c0 .1-.5 1-.6-.2zM995.4 568.1c.1-1.1.6-.2.6-.2.2.1.5-.5.5-.5h.7v1.4h-.7s-.3-.5-.5-.5c0 0-.5.9-.6-.2z"/><path class="st3" d="M996.2 567.1c-.1-1.1-.6-.2-.6-.2-.2.1-.5-.5-.5-.5h-.7v1.4h.7s.3-.5.5-.5c.1.1.6 1 .6-.2z"/><path class="st3" d="M995.4 568.1c.1-1.1.6-.2.6-.2.2.1.5-.5.5-.5h.7v1.4h-.7s-.3-.5-.5-.5c0 .1-.5 1-.6-.2zM995.4 570c.1-1.1.6-.2.6-.2.2.1.5-.5.5-.5h.7v1.4h-.7s-.3-.5-.5-.5c0 .1-.5 1-.6-.2z"/><path class="st3" d="M996.3 569.1c-.1-1.1-.6-.2-.6-.2-.2.1-.5-.5-.5-.5h-.7v1.4h.7s.3-.5.5-.5c0 .1.5 1 .6-.2z"/><path class="st3" d="M995.4 570.1c.1-1.1.6-.2.6-.2.2.1.5-.5.5-.5h.7v1.4h-.7s-.3-.5-.5-.5c0 .1-.5 1-.6-.2zM995.4 572c.1-1.1.6-.2.6-.2.2.1.5-.5.5-.5h.7v1.4h-.7s-.3-.5-.5-.5c0 .1-.5 1-.6-.2z"/><path class="st3" d="M996.3 571c-.1-1.1-.6-.2-.6-.2-.2.1-.5-.5-.5-.5h-.7v1.4h.7s.3-.5.5-.5c0 .1.5 1 .6-.2z"/><path class="st3" d="M995.4 572.1c.1-1.1.6-.2.6-.2.2.1.5-.5.5-.5h.7v1.4h-.7s-.3-.5-.5-.5c0 .1-.5 1-.6-.2zM995.5 574c.1-1.1.6-.2.6-.2.2.1.5-.5.5-.5h.7v1.4h-.7s-.3-.5-.5-.5c-.1 0-.6.9-.6-.2z"/><path class="st3" d="M996.3 573c-.1-1.1-.6-.2-.6-.2-.2.1-.5-.5-.5-.5h-.7v1.4h.7s.3-.5.5-.5c0 .1.5 1 .6-.2z"/><path class="st3" d="M995.5 574c.1-1.1.6-.2.6-.2.2.1.5-.5.5-.5h.7v1.4h-.7s-.3-.5-.5-.5c-.1.1-.6 1-.6-.2zM995.5 575.9c.1-1.1.6-.2.6-.2.2.1.5-.5.5-.5h.7v1.4h-.7s-.3-.5-.5-.5c-.1.1-.6 1-.6-.2z"/><path class="st3" d="M996.3 575c-.1-1.1-.6-.2-.6-.2-.2.1-.5-.5-.5-.5h-.7v1.4h.7s.3-.5.5-.5c0 .1.5 1 .6-.2z"/><path class="st3" d="M995.5 576c.1-1.1.6-.2.6-.2.2.1.5-.5.5-.5h.7v1.4h-.7s-.3-.5-.5-.5c-.1.1-.6 1-.6-.2zM995.5 577.9c.1-1.1.6-.2.6-.2.2.1.5-.5.5-.5h.7v1.4h-.7s-.3-.5-.5-.5c0 .1-.5 1-.6-.2z"/><path class="st3" d="M996.3 576.9c-.1-1.1-.6-.2-.6-.2-.2.1-.5-.5-.5-.5h-.7v1.4h.7s.3-.5.5-.5c0 .1.5 1 .6-.2z"/><path class="st3" d="M995.5 578c.1-1.1.6-.2.6-.2.2.1.5-.5.5-.5h.7v1.4h-.7s-.3-.5-.5-.5c0 .1-.5 1-.6-.2zM995.5 579.9c.1-1.1.6-.2.6-.2.2.1.5-.5.5-.5h.7v1.4h-.7s-.3-.5-.5-.5c0 .1-.5.9-.6-.2z"/><path class="st3" d="M996.3 578.9c-.1-1.1-.6-.2-.6-.2-.2.1-.5-.5-.5-.5h-.7v1.4h.7s.3-.5.5-.5c0 .1.6 1 .6-.2z"/><path class="st3" d="M995.5 579.9c.1-1.1.6-.2.6-.2.2.1.5-.5.5-.5h.7v1.4h-.7s-.3-.5-.5-.5c0 .1-.5 1-.6-.2zM995.5 581.8c.1-1.1.6-.2.6-.2.2.1.5-.5.5-.5h.7v1.4h-.7s-.3-.5-.5-.5c0 .1-.5 1-.6-.2z"/><path class="st3" d="M996.3 580.9c-.1-1.1-.6-.2-.6-.2-.2.1-.5-.5-.5-.5h-.7v1.4h.7s.3-.5.5-.5c.1.1.6 1 .6-.2z"/><path class="st3" d="M995.5 581.9c.1-1.1.6-.2.6-.2.2.1.5-.5.5-.5h.7v1.4h-.7s-.3-.5-.5-.5c0 .1-.5 1-.6-.2zM995.5 583.8c.1-1.1.6-.2.6-.2.2.1.5-.5.5-.5h.7v1.4h-.7s-.3-.5-.5-.5c0 .1-.5 1-.6-.2z"/><path class="st3" d="M996.3 582.8c-.1-1.1-.6-.2-.6-.2-.2.1-.5-.5-.5-.5h-.7v1.4h.7s.3-.5.5-.5c.1.1.6 1 .6-.2z"/><path class="st3" d="M995.5 583.9c.1-1.1.6-.2.6-.2.2.1.5-.5.5-.5h.7v1.4h-.7s-.3-.5-.5-.5c0 .1-.5 1-.6-.2zM995.5 585.8c.1-1.1.6-.2.6-.2.2.1.5-.5.5-.5h.7v1.4h-.7s-.3-.5-.5-.5c0 .1-.5.9-.6-.2z"/><path class="st3" d="M996.4 584.8c-.1-1.1-.6-.2-.6-.2-.2.1-.5-.5-.5-.5h-.7v1.4h.7s.3-.5.5-.5c0 .1.5 1 .6-.2z"/><path class="st3" d="M995.5 585.8c.1-1.1.6-.2.6-.2.2.1.5-.5.5-.5h.7v1.4h-.7s-.3-.5-.5-.5c0 .1-.5 1-.6-.2zM995.5 587.7c.1-1.1.6-.2.6-.2.2.1.5-.5.5-.5h.7v1.4h-.7s-.3-.5-.5-.5c0 .1-.5 1-.6-.2z"/><path class="st3" d="M996.4 586.8c-.1-1.1-.6-.2-.6-.2-.2.1-.5-.5-.5-.5h-.7v1.4h.7s.3-.5.5-.5c0 .1.5 1 .6-.2z"/><path class="st3" d="M995.5 587.8c.1-1.1.6-.2.6-.2.2.1.5-.5.5-.5h.7v1.4h-.7s-.3-.5-.5-.5c0 .1-.5 1-.6-.2zM995.5 589.7c.1-1.1.6-.2.6-.2.2.1.5-.5.5-.5h.7v1.4h-.7s-.3-.5-.5-.5c0 .1-.5 1-.6-.2z"/><path class="st3" d="M996.4 588.7c-.1-1.1-.6-.2-.6-.2-.2.1-.5-.5-.5-.5h-.7v1.4h.7s.3-.5.5-.5c0 .1.5 1 .6-.2z"/><path class="st3" d="M995.5 589.8c.1-1.1.6-.2.6-.2.2.1.5-.5.5-.5h.7v1.4h-.7s-.3-.5-.5-.5c0 .1-.5 1-.6-.2zM995.6 591.7c.1-1.1.6-.2.6-.2.2.1.5-.5.5-.5h.7v1.4h-.7s-.3-.5-.5-.5c-.1.1-.6.9-.6-.2z"/><path class="st3" d="M996.4 590.7c-.1-1.1-.6-.2-.6-.2-.2.1-.5-.5-.5-.5h-.7v1.4h.7s.3-.5.5-.5c0 .1.5 1 .6-.2z"/><path class="st3" d="M995.6 591.7c.1-1.1.6-.2.6-.2.2.1.5-.5.5-.5h.7v1.4h-.7s-.3-.5-.5-.5c-.1.1-.6 1-.6-.2zM995.6 593.6c.1-1.1.6-.2.6-.2.2.1.5-.5.5-.5h.7v1.4h-.7s-.3-.5-.5-.5c-.1.1-.6 1-.6-.2z"/><path class="st3" d="M996.4 592.7c-.1-1.1-.6-.2-.6-.2-.2.1-.5-.5-.5-.5h-.7v1.4h.7s.3-.5.5-.5c0 .1.5 1 .6-.2z"/><path class="st3" d="M995.6 593.7c.1-1.1.6-.2.6-.2.2.1.5-.5.5-.5h.7v1.4h-.7s-.3-.5-.5-.5c-.1.1-.6 1-.6-.2zM995.6 595.6c.1-1.1.6-.2.6-.2.2.1.5-.5.5-.5h.7v1.4h-.7s-.3-.5-.5-.5c0 .1-.5 1-.6-.2z"/><path class="st3" d="M996.4 594.6c-.1-1.1-.6-.2-.6-.2-.2.1-.5-.5-.5-.5h-.7v1.4h.7s.3-.5.5-.5c0 .1.6 1 .6-.2z"/><path class="st3" d="M995.6 595.7c.1-1.1.6-.2.6-.2.2.1.5-.5.5-.5h.7v1.4h-.7s-.3-.5-.5-.5c0 .1-.5 1-.6-.2zM995.6 597.6c.1-1.1.6-.2.6-.2.2.1.5-.5.5-.5h.7v1.4h-.7s-.3-.5-.5-.5c0 .1-.5.9-.6-.2z"/><path class="st3" d="M996.4 596.6c-.1-1.1-.6-.2-.6-.2-.2.1-.5-.5-.5-.5h-.7v1.4h.7s.3-.5.5-.5c.1.1.6 1 .6-.2z"/><path class="st3" d="M995.6 597.6c.1-1.1.6-.2.6-.2.2.1.5-.5.5-.5h.7v1.4h-.7s-.3-.5-.5-.5c0 .1-.5 1-.6-.2zM995.6 599.5c.1-1.1.6-.2.6-.2.2.1.5-.5.5-.5h.7v1.4h-.7s-.3-.5-.5-.5c0 .1-.5 1-.6-.2z"/><path class="st3" d="M996.4 598.6c-.1-1.1-.6-.2-.6-.2-.2.1-.5-.5-.5-.5h-.7v1.4h.7s.3-.5.5-.5c.1.1.6 1 .6-.2z"/><path class="st3" d="M995.6 599.6c.1-1.1.6-.2.6-.2.2.1.5-.5.5-.5h.7v1.4h-.7s-.3-.5-.5-.5c0 .1-.5 1-.6-.2zM995.6 601.5c.1-1.1.6-.2.6-.2.2.1.5-.5.5-.5h.7v1.4h-.7s-.3-.5-.5-.5c0 .1-.5 1-.6-.2z"/><path class="st3" d="M996.4 600.5c-.1-1.1-.6-.2-.6-.2-.2.1-.5-.5-.5-.5h-.7v1.4h.7s.3-.5.5-.5c.1.1.6 1 .6-.2z"/><path class="st3" d="M995.6 601.6c.1-1.1.6-.2.6-.2.2.1.5-.5.5-.5h.7v1.4h-.7s-.3-.5-.5-.5c0 .1-.5 1-.6-.2zM995.6 603.5c.1-1.1.6-.2.6-.2.2.1.5-.5.5-.5h.7v1.4h-.7s-.3-.5-.5-.5c0 .1-.5.9-.6-.2z"/><path class="st3" d="M996.5 602.5c-.1-1.1-.6-.2-.6-.2-.2.1-.5-.5-.5-.5h-.7v1.4h.7s.3-.5.5-.5c0 .1.5 1 .6-.2z"/><path class="st3" d="M995.6 603.6c.1-1.1.6-.2.6-.2.2.1.5-.5.5-.5h.7v1.4h-.7s-.3-.5-.5-.5c0 0-.5.9-.6-.2zM995.6 605.4c.1-1.1.6-.2.6-.2.2.1.5-.5.5-.5h.7v1.4h-.7s-.3-.5-.5-.5c0 .1-.5 1-.6-.2z"/><path class="st3" d="M996.5 604.5c-.1-1.1-.6-.2-.6-.2-.2.1-.5-.5-.5-.5h-.7v1.4h.7s.3-.5.5-.5c0 .1.5 1 .6-.2z"/><path class="st3" d="M995.6 605.5c.1-1.1.6-.2.6-.2.2.1.5-.5.5-.5h.7v1.4h-.7s-.3-.5-.5-.5c0 .1-.5 1-.6-.2zM995.7 607.4c.1-1.1.6-.2.6-.2.2.1.5-.5.5-.5h.7v1.4h-.7s-.3-.5-.5-.5c-.1.1-.6 1-.6-.2z"/><path class="st3" d="M996.5 606.5c-.1-1.1-.6-.2-.6-.2-.2.1-.5-.5-.5-.5h-.7v1.4h.7s.3-.5.5-.5c0 0 .5.9.6-.2z"/><path class="st3" d="M995.7 607.5c.1-1.1.6-.2.6-.2.2.1.5-.5.5-.5h.7v1.4h-.7s-.3-.5-.5-.5c-.1.1-.6 1-.6-.2zM995.7 609.4c.1-1.1.6-.2.6-.2.2.1.5-.5.5-.5h.7v1.4h-.7s-.3-.5-.5-.5c-.1.1-.6.9-.6-.2z"/><path class="st3" d="M996.5 608.4c-.1-1.1-.6-.2-.6-.2-.2.1-.5-.5-.5-.5h-.7v1.4h.7s.3-.5.5-.5c0 .1.5 1 .6-.2z"/><path class="st3" d="M995.7 609.5c.1-1.1.6-.2.6-.2.2.1.5-.5.5-.5h.7v1.4h-.7s-.3-.5-.5-.5c-.1 0-.6.9-.6-.2zM995.7 611.3c.1-1.1.6-.2.6-.2.2.1.5-.5.5-.5h.7v1.4h-.7s-.3-.5-.5-.5c0 .1-.5 1-.6-.2z"/><path class="st3" d="M996.5 610.4c-.1-1.1-.6-.2-.6-.2-.2.1-.5-.5-.5-.5h-.7v1.4h.7s.3-.5.5-.5c0 .1.5 1 .6-.2z"/><path class="st3" d="M995.7 611.4c.1-1.1.6-.2.6-.2.2.1.5-.5.5-.5h.7v1.4h-.7s-.3-.5-.5-.5c0 .1-.5 1-.6-.2zM995.7 613.3c.1-1.1.6-.2.6-.2.2.1.5-.5.5-.5h.7v1.4h-.7s-.3-.5-.5-.5c0 .1-.5 1-.6-.2z"/><path class="st3" d="M996.5 612.4c-.1-1.1-.6-.2-.6-.2-.2.1-.5-.5-.5-.5h-.7v1.4h.7s.3-.5.5-.5c0 0 .6.9.6-.2z"/><path class="st3" d="M995.7 613.4c.1-1.1.6-.2.6-.2.2.1.5-.5.5-.5h.7v1.4h-.7s-.3-.5-.5-.5c0 .1-.5 1-.6-.2zM995.7 615.3c.1-1.1.6-.2.6-.2.2.1.5-.5.5-.5h.7v1.4h-.7s-.3-.5-.5-.5c0 .1-.5.9-.6-.2z"/><path class="st3" d="M996.5 614.3c-.1-1.1-.6-.2-.6-.2-.2.1-.5-.5-.5-.5h-.7v1.4h.7s.3-.5.5-.5c.1.1.6 1 .6-.2z"/><path class="st3" d="M995.7 615.4c.1-1.1.6-.2.6-.2.2.1.5-.5.5-.5h.7v1.4h-.7s-.3-.5-.5-.5c0 0-.5.9-.6-.2zM995.7 617.2c.1-1.1.6-.2.6-.2.2.1.5-.5.5-.5h.7v1.4h-.7s-.3-.5-.5-.5c0 .1-.5 1-.6-.2z"/><path class="st3" d="M996.5 616.3c-.1-1.1-.6-.2-.6-.2-.2.1-.5-.5-.5-.5h-.7v1.4h.7s.3-.5.5-.5c.1.1.6 1 .6-.2z"/><path class="st3" d="M995.7 617.3c.1-1.1.6-.2.6-.2.2.1.5-.5.5-.5h.7v1.4h-.7s-.3-.5-.5-.5c0 .1-.5 1-.6-.2zM995.7 619.2c.1-1.1.6-.2.6-.2.2.1.5-.5.5-.5h.7v1.4h-.7s-.3-.5-.5-.5c0 .1-.5 1-.6-.2z"/><path class="st3" d="M996.6 618.3c-.1-1.1-.6-.2-.6-.2-.2.1-.5-.5-.5-.5h-.7v1.4h.7s.3-.5.5-.5c0 0 .5.9.6-.2z"/><path class="st3" d="M995.7 619.3c.1-1.1.6-.2.6-.2.2.1.5-.5.5-.5h.7v1.4h-.7s-.3-.5-.5-.5c0 .1-.5 1-.6-.2zM995.7 621.2c.1-1.1.6-.2.6-.2.2.1.5-.5.5-.5h.7v1.4h-.7s-.3-.5-.5-.5c0 .1-.5.9-.6-.2z"/><path class="st3" d="M996.6 620.2c-.1-1.1-.6-.2-.6-.2-.2.1-.5-.5-.5-.5h-.7v1.4h.7s.3-.5.5-.5c0 .1.5 1 .6-.2z"/><path class="st3" d="M995.7 621.3c.1-1.1.6-.2.6-.2.2.1.5-.5.5-.5h.7v1.4h-.7s-.3-.5-.5-.5c0 0-.5.9-.6-.2zM995.7 623.1c.1-1.1.6-.2.6-.2.2.1.5-.5.5-.5h.7v1.4h-.7s-.3-.5-.5-.5c0 .1-.5 1-.6-.2z"/><path class="st3" d="M996.6 622.2c-.1-1.1-.6-.2-.6-.2-.2.1-.5-.5-.5-.5h-.7v1.4h.7s.3-.5.5-.5c0 .1.5 1 .6-.2z"/><path class="st3" d="M995.7 623.2c.1-1.1.6-.2.6-.2.2.1.5-.5.5-.5h.7v1.4h-.7s-.3-.5-.5-.5c0 .1-.5 1-.6-.2zM995.8 625.1c.1-1.1.6-.2.6-.2.2.1.5-.5.5-.5h.7v1.4h-.7s-.3-.5-.5-.5c-.1.1-.6 1-.6-.2z"/><path class="st3" d="M996.6 624.2c-.1-1.1-.6-.2-.6-.2-.2.1-.5-.5-.5-.5h-.7v1.4h.7s.3-.5.5-.5c0 0 .5.9.6-.2z"/><path class="st3" d="M995.8 625.2c.1-1.1.6-.2.6-.2.2.1.5-.5.5-.5h.7v1.4h-.7s-.3-.5-.5-.5c-.1.1-.6 1-.6-.2zM995.8 627.1c.1-1.1.6-.2.6-.2.2.1.5-.5.5-.5h.7v1.4h-.7s-.3-.5-.5-.5c-.1.1-.6.9-.6-.2z"/><path class="st3" d="M996.6 626.1c-.1-1.1-.6-.2-.6-.2-.2.1-.5-.5-.5-.5h-.7v1.4h.7s.3-.5.5-.5c0 .1.5 1 .6-.2z"/><path class="st3" d="M995.8 627.2c.1-1.1.6-.2.6-.2.2.1.5-.5.5-.5h.7v1.4h-.7s-.3-.5-.5-.5c-.1 0-.6.9-.6-.2zM995.8 629c.1-1.1.6-.2.6-.2.2.1.5-.5.5-.5h.7v1.4h-.7s-.3-.5-.5-.5c0 .1-.5 1-.6-.2z"/><path class="st3" d="M996.6 628.1c-.1-1.1-.6-.2-.6-.2-.2.1-.5-.5-.5-.5h-.7v1.4h.7s.3-.5.5-.5c0 .1.6 1 .6-.2z"/><path class="st3" d="M995.8 629.1c.1-1.1.6-.2.6-.2.2.1.5-.5.5-.5h.7v1.4h-.7s-.3-.5-.5-.5c0 .1-.5 1-.6-.2zM995.8 631c.1-1.1.6-.2.6-.2.2.1.5-.5.5-.5h.7v1.4h-.7s-.3-.5-.5-.5c0 .1-.5 1-.6-.2z"/><path class="st3" d="M996.6 630.1c-.1-1.1-.6-.2-.6-.2-.2.1-.5-.5-.5-.5h-.7v1.4h.7s.3-.5.5-.5c.1 0 .6.9.6-.2z"/><path class="st3" d="M995.8 631.1c.1-1.1.6-.2.6-.2.2.1.5-.5.5-.5h.7v1.4h-.7s-.3-.5-.5-.5c0 .1-.5 1-.6-.2zM995.8 633c.1-1.1.6-.2.6-.2.2.1.5-.5.5-.5h.7v1.4h-.7s-.3-.5-.5-.5c0 .1-.5.9-.6-.2z"/><path class="st3" d="M996.6 632c-.1-1.1-.6-.2-.6-.2-.2.1-.5-.5-.5-.5h-.7v1.4h.7s.3-.5.5-.5c.1.1.6 1 .6-.2z"/><path class="st3" d="M995.8 633.1c.1-1.1.6-.2.6-.2.2.1.5-.5.5-.5h.7v1.4h-.7s-.3-.5-.5-.5c0 0-.5.9-.6-.2zM995.8 634.9c.1-1.1.6-.2.6-.2.2.1.5-.5.5-.5h.7v1.4h-.7s-.3-.5-.5-.5c0 .1-.5 1-.6-.2z"/><path class="st3" d="M996.6 634c-.1-1.1-.6-.2-.6-.2-.2.1-.5-.5-.5-.5h-.7v1.4h.7s.3-.5.5-.5c.1.1.6 1 .6-.2z"/><path class="st3" d="M995.8 635c.1-1.1.6-.2.6-.2.2.1.5-.5.5-.5h.7v1.4h-.7s-.3-.5-.5-.5c0 .1-.5 1-.6-.2zM995.8 636.9c.1-1.1.6-.2.6-.2.2.1.5-.5.5-.5h.7v1.4h-.7s-.3-.5-.5-.5c0 .1-.5 1-.6-.2z"/><path class="st3" d="M996.7 636c-.1-1.1-.6-.2-.6-.2-.2.1-.5-.5-.5-.5h-.7v1.4h.7s.3-.5.5-.5c0 0 .5.9.6-.2z"/><path class="st3" d="M995.8 637c.1-1.1.6-.2.6-.2.2.1.5-.5.5-.5h.7v1.4h-.7s-.3-.5-.5-.5c0 .1-.5 1-.6-.2zM995.8 638.9c.1-1.1.6-.2.6-.2.2.1.5-.5.5-.5h.7v1.4h-.7s-.3-.5-.5-.5c0 .1-.5.9-.6-.2z"/><path class="st3" d="M996.7 637.9c-.1-1.1-.6-.2-.6-.2-.2.1-.5-.5-.5-.5h-.7v1.4h.7s.3-.5.5-.5c0 .1.5 1 .6-.2z"/><path class="st3" d="M995.8 639c.1-1.1.6-.2.6-.2.2.1.5-.5.5-.5h.7v1.4h-.7s-.3-.5-.5-.5c0 0-.5.9-.6-.2zM995.9 640.8c.1-1.1.6-.2.6-.2.2.1.5-.5.5-.5h.7v1.4h-.7s-.3-.5-.5-.5c-.1.1-.6 1-.6-.2z"/><path class="st3" d="M996.7 639.9c-.1-1.1-.6-.2-.6-.2-.2.1-.5-.5-.5-.5h-.7v1.4h.7s.3-.5.5-.5c0 .1.5 1 .6-.2z"/><path class="st3" d="M995.9 640.9c.1-1.1.6-.2.6-.2.2.1.5-.5.5-.5h.7v1.4h-.7s-.3-.5-.5-.5c-.1.1-.6 1-.6-.2zM995.9 642.8c.1-1.1.6-.2.6-.2.2.1.5-.5.5-.5h.7v1.4h-.7s-.3-.5-.5-.5c-.1.1-.6 1-.6-.2z"/><path class="st3" d="M996.7 641.9c-.1-1.1-.6-.2-.6-.2-.2.1-.5-.5-.5-.5h-.7v1.4h.7s.3-.5.5-.5c0 0 .5.9.6-.2z"/><path class="st3" d="M995.9 642.9c.1-1.1.6-.2.6-.2.2.1.5-.5.5-.5h.7v1.4h-.7s-.3-.5-.5-.5c-.1.1-.6 1-.6-.2zM995.9 644.8c.1-1.1.6-.2.6-.2.2.1.5-.5.5-.5h.7v1.4h-.7s-.3-.5-.5-.5c0 .1-.5.9-.6-.2z"/><path class="st3" d="M996.7 643.8c-.1-1.1-.6-.2-.6-.2-.2.1-.5-.5-.5-.5h-.7v1.4h.7s.3-.5.5-.5c0 .1.5 1 .6-.2z"/><path class="st3" d="M995.9 644.9c.1-1.1.6-.2.6-.2.2.1.5-.5.5-.5h.7v1.4h-.7s-.3-.5-.5-.5c0 0-.5.9-.6-.2zM995.9 646.7c.1-1.1.6-.2.6-.2.2.1.5-.5.5-.5h.7v1.4h-.7s-.3-.5-.5-.5c0 .1-.5 1-.6-.2z"/><path class="st3" d="M996.7 645.8c-.1-1.1-.6-.2-.6-.2-.2.1-.5-.5-.5-.5h-.7v1.4h.7s.3-.5.5-.5c0 .1.6 1 .6-.2z"/><path class="st3" d="M995.9 646.8c.1-1.1.6-.2.6-.2.2.1.5-.5.5-.5h.7v1.4h-.7s-.3-.5-.5-.5c0 .1-.5 1-.6-.2zM995.9 648.7c.1-1.1.6-.2.6-.2.2.1.5-.5.5-.5h.7v1.4h-.7s-.3-.5-.5-.5c0 .1-.5 1-.6-.2z"/><path class="st3" d="M996.7 647.8c-.1-1.1-.6-.2-.6-.2-.2.1-.5-.5-.5-.5h-.7v1.4h.7s.3-.5.5-.5c.1 0 .6.9.6-.2z"/><path class="st3" d="M995.9 648.8c.1-1.1.6-.2.6-.2.2.1.5-.5.5-.5h.7v1.4h-.7s-.3-.5-.5-.5c0 .1-.5 1-.6-.2zM995.9 650.7c.1-1.1.6-.2.6-.2.2.1.5-.5.5-.5h.7v1.4h-.7s-.3-.5-.5-.5c0 .1-.5.9-.6-.2z"/><path class="st3" d="M996.7 649.7c-.1-1.1-.6-.2-.6-.2-.2.1-.5-.5-.5-.5h-.7v1.4h.7s.3-.5.5-.5c.1.1.6 1 .6-.2z"/><path class="st3" d="M995.9 650.8c.1-1.1.6-.2.6-.2.2.1.5-.5.5-.5h.7v1.4h-.7s-.3-.5-.5-.5c0 0-.5.9-.6-.2zM995.9 652.6c.1-1.1.6-.2.6-.2.2.1.5-.5.5-.5h.7v1.4h-.7s-.3-.5-.5-.5c0 .1-.5 1-.6-.2z"/><path class="st3" d="M996.8 651.7c-.1-1.1-.6-.2-.6-.2-.2.1-.5-.5-.5-.5h-.7v1.4h.7s.3-.5.5-.5c0 .1.5 1 .6-.2z"/><path class="st3" d="M995.9 652.7c.1-1.1.6-.2.6-.2.2.1.5-.5.5-.5h.7v1.4h-.7s-.3-.5-.5-.5c0 .1-.5 1-.6-.2zM995.9 654.6c.1-1.1.6-.2.6-.2.2.1.5-.5.5-.5h.7v1.4h-.7s-.3-.5-.5-.5c0 .1-.5 1-.6-.2z"/><path class="st3" d="M996.8 653.7c-.1-1.1-.6-.2-.6-.2-.2.1-.5-.5-.5-.5h-.7v1.4h.7s.3-.5.5-.5c0 0 .5.9.6-.2z"/><path class="st3" d="M995.9 654.7c.1-1.1.6-.2.6-.2.2.1.5-.5.5-.5h.7v1.4h-.7s-.3-.5-.5-.5c0 .1-.5 1-.6-.2zM995.9 656.6c.1-1.1.6-.2.6-.2.2.1.5-.5.5-.5h.7v1.4h-.7s-.3-.5-.5-.5c0 .1-.5.9-.6-.2z"/><path class="st3" d="M996.8 655.6c-.1-1.1-.6-.2-.6-.2-.2.1-.5-.5-.5-.5h-.7v1.4h.7s.3-.5.5-.5c0 .1.5 1 .6-.2z"/><path class="st3" d="M995.9 656.7c.1-1.1.6-.2.6-.2.2.1.5-.5.5-.5h.7v1.4h-.7s-.3-.5-.5-.5c0 0-.5.9-.6-.2zM996 658.5c.1-1.1.6-.2.6-.2.2.1.5-.5.5-.5h.7v1.4h-.7s-.3-.5-.5-.5c-.1.1-.6 1-.6-.2z"/><path class="st3" d="M996.8 657.6c-.1-1.1-.6-.2-.6-.2-.2.1-.5-.5-.5-.5h-.7v1.4h.7s.3-.5.5-.5c0 .1.5 1 .6-.2z"/><g><path class="st3" d="M996 658.6c.1-1.1.6-.2.6-.2.2.1.5-.5.5-.5h.7v1.4h-.7s-.3-.5-.5-.5c-.1.1-.6 1-.6-.2zM996 660.5c.1-1.1.6-.2.6-.2.2.1.5-.5.5-.5h.7v1.4h-.7s-.3-.5-.5-.5c-.1.1-.6 1-.6-.2z"/><path class="st3" d="M996.8 659.6c-.1-1.1-.6-.2-.6-.2-.2.1-.5-.5-.5-.5h-.7v1.4h.7s.3-.5.5-.5c0 0 .5.9.6-.2z"/></g><g><path class="st3" d="M996 660.6c.1-1.1.6-.2.6-.2.2.1.5-.5.5-.5h.7v1.4h-.7s-.3-.5-.5-.5c-.1.1-.6 1-.6-.2zM996 662.5c.1-1.1.6-.2.6-.2.2.1.5-.5.5-.5h.7v1.4h-.7s-.3-.5-.5-.5c0 .1-.5.9-.6-.2z"/><path class="st3" d="M996.8 661.5c-.1-1.1-.6-.2-.6-.2-.2.1-.5-.5-.5-.5h-.7v1.4h.7s.3-.5.5-.5c0 .1.6 1 .6-.2z"/></g><g><path class="st3" d="M996 662.6c.1-1.1.6-.2.6-.2.2.1.5-.5.5-.5h.7v1.4h-.7s-.3-.5-.5-.5c0 0-.5.9-.6-.2zM996 664.4c.1-1.1.6-.2.6-.2.2.1.5-.5.5-.5h.7v1.4h-.7s-.3-.5-.5-.5c0 .1-.5 1-.6-.2z"/><path class="st3" d="M996.8 663.5c-.1-1.1-.6-.2-.6-.2-.2.1-.5-.5-.5-.5h-.7v1.4h.7s.3-.5.5-.5c.1.1.6 1 .6-.2z"/></g><g><path class="st3" d="M996 664.5c.1-1.1.6-.2.6-.2.2.1.5-.5.5-.5h.7v1.4h-.7s-.3-.5-.5-.5c0 .1-.5 1-.6-.2zM996 666.4c.1-1.1.6-.2.6-.2.2.1.5-.5.5-.5h.7v1.4h-.7s-.3-.5-.5-.5c0 .1-.5 1-.6-.2z"/><path class="st3" d="M996.8 665.5c-.1-1.1-.6-.2-.6-.2-.2.1-.5-.5-.5-.5h-.7v1.4h.7s.3-.5.5-.5c.1 0 .6.9.6-.2z"/></g><g><path class="st3" d="M996 666.5c.1-1.1.6-.2.6-.2.2.1.5-.5.5-.5h.7v1.4h-.7s-.3-.5-.5-.5c0 .1-.5 1-.6-.2zM996 668.4c.1-1.1.6-.2.6-.2.2.1.5-.5.5-.5h.7v1.4h-.7s-.3-.5-.5-.5c0 .1-.5.9-.6-.2z"/><path class="st3" d="M996.8 667.4c-.1-1.1-.6-.2-.6-.2-.2.1-.5-.5-.5-.5h-.7v1.4h.7s.3-.5.5-.5c.1.1.6 1 .6-.2z"/></g><g><path class="st3" d="M996 668.5c.1-1.1.6-.2.6-.2.2.1.5-.5.5-.5h.7v1.4h-.7s-.3-.5-.5-.5c0 0-.5.9-.6-.2zM996 670.3c.1-1.1.6-.2.6-.2.2.1.5-.5.5-.5h.7v1.4h-.7s-.3-.5-.5-.5c0 .1-.5 1-.6-.2z"/><path class="st3" d="M996.9 669.4c-.1-1.1-.6-.2-.6-.2-.2.1-.5-.5-.5-.5h-.7v1.4h.7s.3-.5.5-.5c0 .1.5 1 .6-.2z"/></g><g><path class="st3" d="M996 670.4c.1-1.1.6-.2.6-.2.2.1.5-.5.5-.5h.7v1.4h-.7s-.3-.5-.5-.5c0 .1-.5 1-.6-.2zM996 672.3c.1-1.1.6-.2.6-.2.2.1.5-.5.5-.5h.7v1.4h-.7s-.3-.5-.5-.5c0 .1-.5 1-.6-.2z"/><path class="st3" d="M996.9 671.4c-.1-1.1-.6-.2-.6-.2-.2.1-.5-.5-.5-.5h-.7v1.4h.7s.3-.5.5-.5c0 0 .5.9.6-.2z"/></g><g><path class="st3" d="M996 672.4c.1-1.1.6-.2.6-.2.2.1.5-.5.5-.5h.7v1.4h-.7s-.3-.5-.5-.5c0 .1-.5 1-.6-.2zM996.1 674.3c.1-1.1.6-.2.6-.2.2.1.5-.5.5-.5h.7v1.4h-.7s-.3-.5-.5-.5c-.1.1-.6.9-.6-.2z"/><path class="st3" d="M996.9 673.3c-.1-1.1-.6-.2-.6-.2-.2.1-.5-.5-.5-.5h-.7v1.4h.7s.3-.5.5-.5c0 .1.5 1 .6-.2z"/></g><g><path class="st3" d="M996.1 674.4c.1-1.1.6-.2.6-.2.2.1.5-.5.5-.5h.7v1.4h-.7s-.3-.5-.5-.5c-.1 0-.6.9-.6-.2zM996.1 676.2c.1-1.1.6-.2.6-.2.2.1.5-.5.5-.5h.7v1.4h-.7s-.3-.5-.5-.5c-.1.1-.6 1-.6-.2z"/><path class="st3" d="M996.9 675.3c-.1-1.1-.6-.2-.6-.2-.2.1-.5-.5-.5-.5h-.7v1.4h.7s.3-.5.5-.5c0 .1.5 1 .6-.2z"/></g><g><path class="st3" d="M996.1 676.3c.1-1.1.6-.2.6-.2.2.1.5-.5.5-.5h.7v1.4h-.7s-.3-.5-.5-.5c-.1.1-.6 1-.6-.2zM996.1 678.2c.1-1.1.6-.2.6-.2.2.1.5-.5.5-.5h.7v1.4h-.7s-.3-.5-.5-.5c0 .1-.5 1-.6-.2z"/><path class="st3" d="M996.9 677.3c-.1-1.1-.6-.2-.6-.2-.2.1-.5-.5-.5-.5h-.7v1.4h.7s.3-.5.5-.5c0 0 .5.9.6-.2z"/></g><g><path class="st3" d="M996.1 678.3c.1-1.1.6-.2.6-.2.2.1.5-.5.5-.5h.7v1.4h-.7s-.3-.5-.5-.5c0 .1-.5 1-.6-.2zM996.1 680.2c.1-1.1.6-.2.6-.2.2.1.5-.5.5-.5h.7v1.4h-.7s-.3-.5-.5-.5c0 .1-.5.9-.6-.2z"/><path class="st3" d="M996.9 679.2c-.1-1.1-.6-.2-.6-.2-.2.1-.5-.5-.5-.5h-.7v1.4h.7s.3-.5.5-.5c0 .1.6 1 .6-.2z"/></g><g><path class="st3" d="M996.1 680.3c.1-1.1.6-.2.6-.2.2.1.5-.5.5-.5h.7v1.4h-.7s-.3-.5-.5-.5c0 0-.5.9-.6-.2zM996.1 682.1c.1-1.1.6-.2.6-.2.2.1.5-.5.5-.5h.7v1.4h-.7s-.3-.5-.5-.5c0 .1-.5 1-.6-.2z"/><path class="st3" d="M996.9 681.2c-.1-1.1-.6-.2-.6-.2-.2.1-.5-.5-.5-.5h-.7v1.4h.7s.3-.5.5-.5c.1.1.6 1 .6-.2z"/></g><g><path class="st3" d="M996.1 682.2c.1-1.1.6-.2.6-.2.2.1.5-.5.5-.5h.7v1.4h-.7s-.3-.5-.5-.5c0 .1-.5 1-.6-.2zM996.1 684.1c.1-1.1.6-.2.6-.2.2.1.5-.5.5-.5h.7v1.4h-.7s-.3-.5-.5-.5c0 .1-.5 1-.6-.2z"/><path class="st3" d="M996.9 683.2c-.1-1.1-.6-.2-.6-.2-.2.1-.5-.5-.5-.5h-.7v1.4h.7s.3-.5.5-.5c.1 0 .6.9.6-.2z"/></g><g><path class="st3" d="M996.1 684.2c.1-1.1.6-.2.6-.2.2.1.5-.5.5-.5h.7v1.4h-.7s-.3-.5-.5-.5c0 .1-.5 1-.6-.2zM996.1 686.1c.1-1.1.6-.2.6-.2.2.1.5-.5.5-.5h.7v1.4h-.7s-.3-.5-.5-.5c0 .1-.5.9-.6-.2z"/><path class="st3" d="M997 685.1c-.1-1.1-.6-.2-.6-.2-.2.1-.5-.5-.5-.5h-.7v1.4h.7s.3-.5.5-.5c0 .1.5 1 .6-.2z"/></g><g><path class="st3" d="M996.1 686.2c.1-1.1.6-.2.6-.2.2.1.5-.5.5-.5h.7v1.4h-.7s-.3-.5-.5-.5c0 0-.5.9-.6-.2zM996.1 688c.1-1.1.6-.2.6-.2.2.1.5-.5.5-.5h.7v1.4h-.7s-.3-.5-.5-.5c0 .1-.5 1-.6-.2z"/><path class="st3" d="M997 687.1c-.1-1.1-.6-.2-.6-.2-.2.1-.5-.5-.5-.5h-.7v1.4h.7s.3-.5.5-.5c0 .1.5 1 .6-.2z"/></g><g><path class="st3" d="M996.1 688.1c.1-1.1.6-.2.6-.2.2.1.5-.5.5-.5h.7v1.4h-.7s-.3-.5-.5-.5c0 .1-.5 1-.6-.2zM996.1 690c.1-1.1.6-.2.6-.2.2.1.5-.5.5-.5h.7v1.4h-.7s-.3-.5-.5-.5c0 .1-.5 1-.6-.2z"/><path class="st3" d="M997 689.1c-.1-1.1-.6-.2-.6-.2-.2.1-.5-.5-.5-.5h-.7v1.4h.7s.3-.5.5-.5c0 0 .5.9.6-.2z"/></g><g><path class="st3" d="M996.1 690.1c.1-1.1.6-.2.6-.2.2.1.5-.5.5-.5h.7v1.4h-.7s-.3-.5-.5-.5c0 .1-.5 1-.6-.2zM996.2 692c.1-1.1.6-.2.6-.2.2.1.5-.5.5-.5h.7v1.4h-.7s-.3-.5-.5-.5c-.1.1-.6.9-.6-.2z"/><path class="st3" d="M997 691c-.1-1.1-.6-.2-.6-.2-.2.1-.5-.5-.5-.5h-.7v1.4h.7s.3-.5.5-.5c0 .1.5 1 .6-.2z"/></g><g><path class="st3" d="M996.2 692.1c.1-1.1.6-.2.6-.2.2.1.5-.5.5-.5h.7v1.4h-.7s-.3-.5-.5-.5c-.1 0-.6.9-.6-.2zM996.2 693.9c.1-1.1.6-.2.6-.2.2.1.5-.5.5-.5h.7v1.4h-.7s-.3-.5-.5-.5c-.1.1-.6 1-.6-.2z"/><path class="st3" d="M997 693c-.1-1.1-.6-.2-.6-.2-.2.1-.5-.5-.5-.5h-.7v1.4h.7s.3-.5.5-.5c0 .1.5 1 .6-.2z"/></g><g><path class="st3" d="M996.2 694c.1-1.1.6-.2.6-.2.2.1.5-.5.5-.5h.7v1.4h-.7s-.3-.5-.5-.5c-.1.1-.6 1-.6-.2zM996.2 695.9c.1-1.1.6-.2.6-.2.2.1.5-.5.5-.5h.7v1.4h-.7s-.3-.5-.5-.5c0 .1-.5 1-.6-.2z"/><path class="st3" d="M997 695c-.1-1.1-.6-.2-.6-.2-.2.1-.5-.5-.5-.5h-.7v1.4h.7s.3-.5.5-.5c0 0 .6.9.6-.2z"/></g><g><path class="st3" d="M996.2 696c.1-1.1.6-.2.6-.2.2.1.5-.5.5-.5h.7v1.4h-.7s-.3-.5-.5-.5c0 .1-.5 1-.6-.2zM996.2 697.9c.1-1.1.6-.2.6-.2.2.1.5-.5.5-.5h.7v1.4h-.7s-.3-.5-.5-.5c0 .1-.5.9-.6-.2z"/><path class="st3" d="M997 696.9c-.1-1.1-.6-.2-.6-.2-.2.1-.5-.5-.5-.5h-.7v1.4h.7s.3-.5.5-.5c.1.1.6 1 .6-.2z"/></g><g><path class="st3" d="M996.2 698c.1-1.1.6-.2.6-.2.2.1.5-.5.5-.5h.7v1.4h-.7s-.3-.5-.5-.5c0 0-.5.9-.6-.2zM996.2 699.8c.1-1.1.6-.2.6-.2.2.1.5-.5.5-.5h.7v1.4h-.7s-.3-.5-.5-.5c0 .1-.5 1-.6-.2z"/><path class="st3" d="M997 698.9c-.1-1.1-.6-.2-.6-.2-.2.1-.5-.5-.5-.5h-.7v1.4h.7s.3-.5.5-.5c.1.1.6 1 .6-.2z"/></g><g><path class="st3" d="M996.2 699.9c.1-1.1.6-.2.6-.2.2.1.5-.5.5-.5h.7v1.4h-.7s-.3-.5-.5-.5c0 .1-.5 1-.6-.2zM996.2 701.8c.1-1.1.6-.2.6-.2.2.1.5-.5.5-.5h.7v1.4h-.7s-.3-.5-.5-.5c0 .1-.5 1-.6-.2z"/><path class="st3" d="M997 700.9c-.1-1.1-.6-.2-.6-.2-.2.1-.5-.5-.5-.5h-.7v1.4h.7s.3-.5.5-.5c.1 0 .6.9.6-.2z"/></g><g><path class="st3" d="M996.2 701.9c.1-1.1.6-.2.6-.2.2.1.5-.5.5-.5h.7v1.4h-.7s-.3-.5-.5-.5c0 .1-.5 1-.6-.2zM996.2 703.8c.1-1.1.6-.2.6-.2.2.1.5-.5.5-.5h.7v1.4h-.7s-.3-.5-.5-.5c0 .1-.5.9-.6-.2z"/><path class="st3" d="M997.1 702.8c-.1-1.1-.6-.2-.6-.2-.2.1-.5-.5-.5-.5h-.7v1.4h.7s.3-.5.5-.5c0 .1.5 1 .6-.2z"/></g><g><path class="st3" d="M996.2 703.9c.1-1.1.6-.2.6-.2.2.1.5-.5.5-.5h.7v1.4h-.7s-.3-.5-.5-.5c0 0-.5.9-.6-.2zM996.2 705.7c.1-1.1.6-.2.6-.2.2.1.5-.5.5-.5h.7v1.4h-.7s-.3-.5-.5-.5c0 .1-.5 1-.6-.2z"/><path class="st3" d="M997.1 704.8c-.1-1.1-.6-.2-.6-.2-.2.1-.5-.5-.5-.5h-.7v1.4h.7s.3-.5.5-.5c0 .1.5 1 .6-.2z"/></g><g><path class="st3" d="M996.2 705.8c.1-1.1.6-.2.6-.2.2.1.5-.5.5-.5h.7v1.4h-.7s-.3-.5-.5-.5c0 .1-.5 1-.6-.2zM996.3 707.7c.1-1.1.6-.2.6-.2.2.1.5-.5.5-.5h.7v1.4h-.7s-.3-.5-.5-.5c-.1.1-.6 1-.6-.2z"/><path class="st3" d="M997.1 706.8c-.1-1.1-.6-.2-.6-.2-.2.1-.5-.5-.5-.5h-.7v1.4h.7s.3-.5.5-.5c0 0 .5.9.6-.2z"/></g><g><path class="st3" d="M996.3 707.8c.1-1.1.6-.2.6-.2.2.1.5-.5.5-.5h.7v1.4h-.7s-.3-.5-.5-.5c-.1.1-.6 1-.6-.2zM996.3 709.7c.1-1.1.6-.2.6-.2.2.1.5-.5.5-.5h.7v1.4h-.7s-.3-.5-.5-.5c-.1.1-.6.9-.6-.2z"/><path class="st3" d="M997.1 708.7c-.1-1.1-.6-.2-.6-.2-.2.1-.5-.5-.5-.5h-.7v1.4h.7s.3-.5.5-.5c0 .1.5 1 .6-.2z"/></g><g><path class="st3" d="M996.3 709.8c.1-1.1.6-.2.6-.2.2.1.5-.5.5-.5h.7v1.4h-.7s-.3-.5-.5-.5c-.1 0-.6.9-.6-.2zM996.3 711.6c.1-1.1.6-.2.6-.2.2.1.5-.5.5-.5h.7v1.4h-.7s-.3-.5-.5-.5c0 .1-.5 1-.6-.2z"/><path class="st3" d="M997.1 710.7c-.1-1.1-.6-.2-.6-.2-.2.1-.5-.5-.5-.5h-.7v1.4h.7s.3-.5.5-.5c0 .1.5 1 .6-.2z"/></g><g><path class="st3" d="M996.3 711.7c.1-1.1.6-.2.6-.2.2.1.5-.5.5-.5h.7v1.4h-.7s-.3-.5-.5-.5c0 .1-.5 1-.6-.2zM996.3 713.6c.1-1.1.6-.2.6-.2.2.1.5-.5.5-.5h.7v1.4h-.7s-.3-.5-.5-.5c0 .1-.5 1-.6-.2z"/><path class="st3" d="M997.1 712.7c-.1-1.1-.6-.2-.6-.2-.2.1-.5-.5-.5-.5h-.7v1.4h.7s.3-.5.5-.5c0 0 .6.9.6-.2z"/></g><g><path class="st3" d="M996.3 713.7c.1-1.1.6-.2.6-.2.2.1.5-.5.5-.5h.7v1.4h-.7s-.3-.5-.5-.5c0 .1-.5 1-.6-.2zM996.3 715.6c.1-1.1.6-.2.6-.2.2.1.5-.5.5-.5h.7v1.4h-.7s-.3-.5-.5-.5c0 .1-.5.9-.6-.2z"/><path class="st3" d="M997.1 714.6c-.1-1.1-.6-.2-.6-.2-.2.1-.5-.5-.5-.5h-.7v1.4h.7s.3-.5.5-.5c.1.1.6 1 .6-.2z"/></g><g><path class="st3" d="M996.3 715.7c.1-1.1.6-.2.6-.2.2.1.5-.5.5-.5h.7v1.4h-.7s-.3-.5-.5-.5c0 0-.5.9-.6-.2zM996.3 717.5c.1-1.1.6-.2.6-.2.2.1.5-.5.5-.5h.7v1.4h-.7s-.3-.5-.5-.5c0 .1-.5 1-.6-.2z"/><path class="st3" d="M997.1 716.6c-.1-1.1-.6-.2-.6-.2-.2.1-.5-.5-.5-.5h-.7v1.4h.7s.3-.5.5-.5c.1.1.6 1 .6-.2z"/></g><g><path class="st3" d="M996.3 717.6c.1-1.1.6-.2.6-.2.2.1.5-.5.5-.5h.7v1.4h-.7s-.3-.5-.5-.5c0 .1-.5 1-.6-.2zM996.3 719.5c.1-1.1.6-.2.6-.2.2.1.5-.5.5-.5h.7v1.4h-.7s-.3-.5-.5-.5c0 .1-.5 1-.6-.2z"/><path class="st3" d="M997.2 718.6c-.1-1.1-.6-.2-.6-.2-.2.1-.5-.5-.5-.5h-.7v1.4h.7s.3-.5.5-.5c0 0 .5.9.6-.2z"/></g><g><path class="st3" d="M996.3 719.6c.1-1.1.6-.2.6-.2.2.1.5-.5.5-.5h.7v1.4h-.7s-.3-.5-.5-.5c0 .1-.5 1-.6-.2zM996.3 721.5c.1-1.1.6-.2.6-.2.2.1.5-.5.5-.5h.7v1.4h-.7s-.3-.5-.5-.5c0 .1-.5.9-.6-.2z"/><path class="st3" d="M997.2 720.5c-.1-1.1-.6-.2-.6-.2-.2.1-.5-.5-.5-.5h-.7v1.4h.7s.3-.5.5-.5c0 .1.5 1 .6-.2z"/></g><g><path class="st3" d="M996.3 721.6c.1-1.1.6-.2.6-.2.2.1.5-.5.5-.5h.7v1.4h-.7s-.3-.5-.5-.5c0 0-.5.9-.6-.2zM996.3 723.4c.1-1.1.6-.2.6-.2.2.1.5-.5.5-.5h.7v1.4h-.7s-.3-.5-.5-.5c0 .1-.5 1-.6-.2z"/><path class="st3" d="M997.2 722.5c-.1-1.1-.6-.2-.6-.2-.2.1-.5-.5-.5-.5h-.7v1.4h.7s.3-.5.5-.5c0 .1.5 1 .6-.2z"/></g><g><path class="st3" d="M996.3 723.5c.1-1.1.6-.2.6-.2.2.1.5-.5.5-.5h.7v1.4h-.7s-.3-.5-.5-.5c0 .1-.5 1-.6-.2zM996.4 725.4c.1-1.1.6-.2.6-.2.2.1.5-.5.5-.5h.7v1.4h-.7s-.3-.5-.5-.5c-.1.1-.6 1-.6-.2z"/><path class="st3" d="M997.2 724.5c-.1-1.1-.6-.2-.6-.2-.2.1-.5-.5-.5-.5h-.7v1.4h.7s.3-.5.5-.5c0 0 .5.9.6-.2z"/></g><g><path class="st3" d="M996.4 725.5c.1-1.1.6-.2.6-.2.2.1.5-.5.5-.5h.7v1.4h-.7s-.3-.5-.5-.5c-.1.1-.6 1-.6-.2zM996.4 727.4c.1-1.1.6-.2.6-.2.2.1.5-.5.5-.5h.7v1.4h-.7s-.3-.5-.5-.5c-.1.1-.6.9-.6-.2z"/><path class="st3" d="M997.2 726.4c-.1-1.1-.6-.2-.6-.2-.2.1-.5-.5-.5-.5h-.7v1.4h.7s.3-.5.5-.5c0 .1.5 1 .6-.2z"/></g><g><path class="st3" d="M996.4 727.5c.1-1.1.6-.2.6-.2.2.1.5-.5.5-.5h.7v1.4h-.7s-.3-.5-.5-.5c-.1 0-.6.9-.6-.2zM996.4 729.3c.1-1.1.6-.2.6-.2.2.1.5-.5.5-.5h.7v1.4h-.7s-.3-.5-.5-.5c0 .1-.5 1-.6-.2z"/><path class="st3" d="M997.2 728.4c-.1-1.1-.6-.2-.6-.2-.2.1-.5-.5-.5-.5h-.7v1.4h.7s.3-.5.5-.5c0 .1.6 1 .6-.2z"/></g><g><path class="st3" d="M996.4 729.4c.1-1.1.6-.2.6-.2.2.1.5-.5.5-.5h.7v1.4h-.7s-.3-.5-.5-.5c0 .1-.5 1-.6-.2zM996.4 731.3c.1-1.1.6-.2.6-.2.2.1.5-.5.5-.5h.7v1.4h-.7s-.3-.5-.5-.5c0 .1-.5 1-.6-.2z"/><path class="st3" d="M997.2 730.4c-.1-1.1-.6-.2-.6-.2-.2.1-.5-.5-.5-.5h-.7v1.4h.7s.3-.5.5-.5c.1 0 .6.9.6-.2z"/></g><g><path class="st3" d="M996.4 731.4c.1-1.1.6-.2.6-.2.2.1.5-.5.5-.5h.7v1.4h-.7s-.3-.5-.5-.5c0 .1-.5 1-.6-.2zM996.4 733.3c.1-1.1.6-.2.6-.2.2.1.5-.5.5-.5h.7v1.4h-.7s-.3-.5-.5-.5c0 .1-.5.9-.6-.2z"/><path class="st3" d="M997.2 732.3c-.1-1.1-.6-.2-.6-.2-.2.1-.5-.5-.5-.5h-.7v1.4h.7s.3-.5.5-.5c.1.1.6 1 .6-.2z"/></g><g><path class="st3" d="M996.4 733.4c.1-1.1.6-.2.6-.2.2.1.5-.5.5-.5h.7v1.4h-.7s-.3-.5-.5-.5c0 0-.5.9-.6-.2zM996.4 735.2c.1-1.1.6-.2.6-.2.2.1.5-.5.5-.5h.7v1.4h-.7s-.3-.5-.5-.5c0 .1-.5 1-.6-.2z"/><path class="st3" d="M997.2 734.3c-.1-1.1-.6-.2-.6-.2-.2.1-.5-.5-.5-.5h-.7v1.4h.7s.3-.5.5-.5c.1.1.6 1 .6-.2z"/></g><g><path class="st3" d="M996.4 735.3c.1-1.1.6-.2.6-.2.2.1.5-.5.5-.5h.7v1.4h-.7s-.3-.5-.5-.5c0 .1-.5 1-.6-.2zM996.4 737.2c.1-1.1.6-.2.6-.2.2.1.5-.5.5-.5h.7v1.4h-.7s-.3-.5-.5-.5c0 .1-.5 1-.6-.2z"/><path class="st3" d="M997.3 736.3c-.1-1.1-.6-.2-.6-.2-.2.1-.5-.5-.5-.5h-.7v1.4h.7s.3-.5.5-.5c0 0 .5.9.6-.2z"/></g><g><path class="st3" d="M996.4 737.3c.1-1.1.6-.2.6-.2.2.1.5-.5.5-.5h.7v1.4h-.7s-.3-.5-.5-.5c0 .1-.5 1-.6-.2zM996.4 739.2c.1-1.1.6-.2.6-.2.2.1.5-.5.5-.5h.7v1.4h-.7s-.3-.5-.5-.5c0 .1-.5.9-.6-.2z"/><path class="st3" d="M997.3 738.2c-.1-1.1-.6-.2-.6-.2-.2.1-.5-.5-.5-.5h-.7v1.4h.7s.3-.5.5-.5c0 .1.5 1 .6-.2z"/></g><g><path class="st3" d="M996.4 739.3c.1-1.1.6-.2.6-.2.2.1.5-.5.5-.5h.7v1.4h-.7s-.3-.5-.5-.5c0 0-.5.9-.6-.2zM996.5 741.1c.1-1.1.6-.2.6-.2.2.1.5-.5.5-.5h.7v1.4h-.7s-.3-.5-.5-.5c-.1.1-.6 1-.6-.2z"/><path class="st3" d="M997.3 740.2c-.1-1.1-.6-.2-.6-.2-.2.1-.5-.5-.5-.5h-.7v1.4h.7s.3-.5.5-.5c0 .1.5 1 .6-.2z"/></g><g><path class="st3" d="M996.5 741.2c.1-1.1.6-.2.6-.2.2.1.5-.5.5-.5h.7v1.4h-.7s-.3-.5-.5-.5c-.1.1-.6 1-.6-.2zM996.5 743.1c.1-1.1.6-.2.6-.2.2.1.5-.5.5-.5h.7v1.4h-.7s-.3-.5-.5-.5c-.1.1-.6 1-.6-.2z"/><path class="st3" d="M997.3 742.2c-.1-1.1-.6-.2-.6-.2-.2.1-.5-.5-.5-.5h-.7v1.4h.7s.3-.5.5-.5c0 0 .5.9.6-.2z"/></g><g><path class="st3" d="M996.5 743.2c.1-1.1.6-.2.6-.2.2.1.5-.5.5-.5h.7v1.4h-.7s-.3-.5-.5-.5c-.1.1-.6 1-.6-.2zM996.5 745.1c.1-1.1.6-.2.6-.2.2.1.5-.5.5-.5h.7v1.4h-.7s-.3-.5-.5-.5c0 .1-.5.9-.6-.2z"/><path class="st3" d="M997.3 744.1c-.1-1.1-.6-.2-.6-.2-.2.1-.5-.5-.5-.5h-.7v1.4h.7s.3-.5.5-.5c0 .1.5 1 .6-.2z"/></g><g><path class="st3" d="M996.5 745.2c.1-1.1.6-.2.6-.2.2.1.5-.5.5-.5h.7v1.4h-.7s-.3-.5-.5-.5c0 0-.5.9-.6-.2zM996.5 747c.1-1.1.6-.2.6-.2.2.1.5-.5.5-.5h.7v1.4h-.7s-.3-.5-.5-.5c0 .1-.5 1-.6-.2z"/><path class="st3" d="M997.3 746.1c-.1-1.1-.6-.2-.6-.2-.2.1-.5-.5-.5-.5h-.7v1.4h.7s.3-.5.5-.5c0 .1.6 1 .6-.2z"/></g><g><path class="st3" d="M996.5 747.1c.1-1.1.6-.2.6-.2.2.1.5-.5.5-.5h.7v1.4h-.7s-.3-.5-.5-.5c0 .1-.5 1-.6-.2zM996.5 749c.1-1.1.6-.2.6-.2.2.1.5-.5.5-.5h.7v1.4h-.7s-.3-.5-.5-.5c0 .1-.5 1-.6-.2z"/><path class="st3" d="M997.3 748.1c-.1-1.1-.6-.2-.6-.2-.2.1-.5-.5-.5-.5h-.7v1.4h.7s.3-.5.5-.5c.1 0 .6.9.6-.2z"/></g><g><path class="st3" d="M996.5 749.1c.1-1.1.6-.2.6-.2.2.1.5-.5.5-.5h.7v1.4h-.7s-.3-.5-.5-.5c0 .1-.5 1-.6-.2zM996.5 751c.1-1.1.6-.2.6-.2.2.1.5-.5.5-.5h.7v1.4h-.7s-.3-.5-.5-.5c0 .1-.5.9-.6-.2z"/><path class="st3" d="M997.3 750c-.1-1.1-.6-.2-.6-.2-.2.1-.5-.5-.5-.5h-.7v1.4h.7s.3-.5.5-.5c.1.1.6 1 .6-.2z"/></g><g><path class="st3" d="M996.5 751.1c.1-1.1.6-.2.6-.2.2.1.5-.5.5-.5h.7v1.4h-.7s-.3-.5-.5-.5c0 0-.5.9-.6-.2zM996.5 752.9c.1-1.1.6-.2.6-.2.2.1.5-.5.5-.5h.7v1.4h-.7s-.3-.5-.5-.5c0 .1-.5 1-.6-.2z"/><path class="st3" d="M997.4 752c-.1-1.1-.6-.2-.6-.2-.2.1-.5-.5-.5-.5h-.7v1.4h.7s.3-.5.5-.5c0 .1.5 1 .6-.2z"/></g><g><path class="st3" d="M996.5 753c.1-1.1.6-.2.6-.2.2.1.5-.5.5-.5h.7v1.4h-.7s-.3-.5-.5-.5c0 .1-.5 1-.6-.2zM996.5 754.9c.1-1.1.6-.2.6-.2.2.1.5-.5.5-.5h.7v1.4h-.7s-.3-.5-.5-.5c0 .1-.5 1-.6-.2z"/><path class="st3" d="M997.4 754c-.1-1.1-.6-.2-.6-.2-.2.1-.5-.5-.5-.5h-.7v1.4h.7s.3-.5.5-.5c0 0 .5.9.6-.2z"/></g><g><path class="st3" d="M996.5 755c.1-1.1.6-.2.6-.2.2.1.5-.5.5-.5h.7v1.4h-.7s-.3-.5-.5-.5c0 .1-.5 1-.6-.2zM996.5 756.9c.1-1.1.6-.2.6-.2.2.1.5-.5.5-.5h.7v1.4h-.7s-.3-.5-.5-.5c0 .1-.5 1-.6-.2z"/><path class="st3" d="M997.4 755.9c-.1-1.1-.6-.2-.6-.2-.2.1-.5-.5-.5-.5h-.7v1.4h.7s.3-.5.5-.5c0 .1.5 1 .6-.2z"/></g><g><path class="st3" d="M996.5 757c.1-1.1.6-.2.6-.2.2.1.5-.5.5-.5h.7v1.4h-.7s-.3-.5-.5-.5c0 0-.5.9-.6-.2zM996.6 758.8c.1-1.1.6-.2.6-.2.2.1.5-.5.5-.5h.7v1.4h-.7s-.3-.5-.5-.5c-.1.1-.6 1-.6-.2z"/><path class="st3" d="M997.4 757.9c-.1-1.1-.6-.2-.6-.2-.2.1-.5-.5-.5-.5h-.7v1.4h.7s.3-.5.5-.5c0 .1.5 1 .6-.2z"/></g><g><path class="st3" d="M996.6 758.9c.1-1.1.6-.2.6-.2.2.1.5-.5.5-.5h.7v1.4h-.7s-.3-.5-.5-.5c-.1.1-.6 1-.6-.2zM996.6 760.8c.1-1.1.6-.2.6-.2.2.1.5-.5.5-.5h.7v1.4h-.7s-.3-.5-.5-.5c-.1.1-.6 1-.6-.2z"/><path class="st3" d="M997.4 759.9c-.1-1.1-.6-.2-.6-.2-.2.1-.5-.5-.5-.5h-.7v1.4h.7s.3-.5.5-.5c0 0 .5.9.6-.2z"/></g><g><path class="st3" d="M996.6 760.9c.1-1.1.6-.2.6-.2.2.1.5-.5.5-.5h.7v1.4h-.7s-.3-.5-.5-.5c-.1.1-.6 1-.6-.2zM996.6 762.8c.1-1.1.6-.2.6-.2.2.1.5-.5.5-.5h.7v1.4h-.7s-.3-.5-.5-.5c0 .1-.5 1-.6-.2z"/><path class="st3" d="M997.4 761.8c-.1-1.1-.6-.2-.6-.2-.2.1-.5-.5-.5-.5h-.7v1.4h.7s.3-.5.5-.5c0 .1.6 1 .6-.2z"/></g><g><path class="st3" d="M996.6 762.9c.1-1.1.6-.2.6-.2.2.1.5-.5.5-.5h.7v1.4h-.7s-.3-.5-.5-.5c0 0-.5.9-.6-.2zM996.6 764.7c.1-1.1.6-.2.6-.2.2.1.5-.5.5-.5h.7v1.4h-.7s-.3-.5-.5-.5c0 .1-.5 1-.6-.2z"/><path class="st3" d="M997.4 763.8c-.1-1.1-.6-.2-.6-.2-.2.1-.5-.5-.5-.5h-.7v1.4h.7s.3-.5.5-.5c.1.1.6 1 .6-.2z"/></g><g><path class="st3" d="M996.6 764.8c.1-1.1.6-.2.6-.2.2.1.5-.5.5-.5h.7v1.4h-.7s-.3-.5-.5-.5c0 .1-.5 1-.6-.2zM996.6 766.7c.1-1.1.6-.2.6-.2.2.1.5-.5.5-.5h.7v1.4h-.7s-.3-.5-.5-.5c0 .1-.5 1-.6-.2z"/><path class="st3" d="M997.4 765.8c-.1-1.1-.6-.2-.6-.2-.2.1-.5-.5-.5-.5h-.7v1.4h.7s.3-.5.5-.5c.1 0 .6.9.6-.2z"/></g><g><path class="st3" d="M996.6 766.8c.1-1.1.6-.2.6-.2.2.1.5-.5.5-.5h.7v1.4h-.7s-.3-.5-.5-.5c0 .1-.5 1-.6-.2zM996.6 768.7c.1-1.1.6-.2.6-.2.2.1.5-.5.5-.5h.7v1.4h-.7s-.3-.5-.5-.5c0 .1-.5 1-.6-.2z"/><path class="st3" d="M997.4 767.7c-.1-1.1-.6-.2-.6-.2-.2.1-.5-.5-.5-.5h-.7v1.4h.7s.3-.5.5-.5c.1.1.6 1 .6-.2z"/></g><g><path class="st3" d="M996.6 768.8c.1-1.1.6-.2.6-.2.2.1.5-.5.5-.5h.7v1.4h-.7s-.3-.5-.5-.5c0 0-.5.9-.6-.2zM996.6 770.6c.1-1.1.6-.2.6-.2.2.1.5-.5.5-.5h.7v1.4h-.7s-.3-.5-.5-.5c0 .1-.5 1-.6-.2z"/><path class="st3" d="M997.5 769.7c-.1-1.1-.6-.2-.6-.2-.2.1-.5-.5-.5-.5h-.7v1.4h.7s.3-.5.5-.5c0 .1.5 1 .6-.2z"/></g><g><path class="st3" d="M996.6 770.7c.1-1.1.6-.2.6-.2.2.1.5-.5.5-.5h.7v1.4h-.7s-.3-.5-.5-.5c0 .1-.5 1-.6-.2zM996.6 772.6c.1-1.1.6-.2.6-.2.2.1.5-.5.5-.5h.7v1.4h-.7s-.3-.5-.5-.5c0 .1-.5 1-.6-.2z"/><path class="st3" d="M997.5 771.7c-.1-1.1-.6-.2-.6-.2-.2.1-.5-.5-.5-.5h-.7v1.4h.7s.3-.5.5-.5c0 0 .5.9.6-.2z"/></g><g><path class="st3" d="M996.6 772.7c.1-1.1.6-.2.6-.2.2.1.5-.5.5-.5h.7v1.4h-.7s-.3-.5-.5-.5c0 .1-.5 1-.6-.2zM996.7 774.6c.1-1.1.6-.2.6-.2.2.1.5-.5.5-.5h.7v1.4h-.7s-.3-.5-.5-.5c-.1.1-.6 1-.6-.2z"/><path class="st3" d="M997.5 773.6c-.1-1.1-.6-.2-.6-.2-.2.1-.5-.5-.5-.5h-.7v1.4h.7s.3-.5.5-.5c0 .1.5 1 .6-.2z"/></g><g><path class="st3" d="M996.7 774.7c.1-1.1.6-.2.6-.2.2.1.5-.5.5-.5h.7v1.4h-.7s-.3-.5-.5-.5c-.1 0-.6.9-.6-.2zM996.7 776.5c.1-1.1.6-.2.6-.2.2.1.5-.5.5-.5h.7v1.4h-.7s-.3-.5-.5-.5c-.1.1-.6 1-.6-.2z"/><path class="st3" d="M997.5 775.6c-.1-1.1-.6-.2-.6-.2-.2.1-.5-.5-.5-.5h-.7v1.4h.7s.3-.5.5-.5c0 .1.5 1 .6-.2z"/></g><g><path class="st3" d="M996.7 776.6c.1-1.1.6-.2.6-.2.2.1.5-.5.5-.5h.7v1.4h-.7s-.3-.5-.5-.5c-.1.1-.6 1-.6-.2zM996.7 778.5c.1-1.1.6-.2.6-.2.2.1.5-.5.5-.5h.7v1.4h-.7s-.3-.5-.5-.5c0 .1-.5 1-.6-.2z"/><path class="st3" d="M997.5 777.6c-.1-1.1-.6-.2-.6-.2-.2.1-.5-.5-.5-.5h-.7v1.4h.7s.3-.5.5-.5c0 0 .5.9.6-.2z"/></g><g><path class="st3" d="M996.7 778.6c.1-1.1.6-.2.6-.2.2.1.5-.5.5-.5h.7v1.4h-.7s-.3-.5-.5-.5c0 .1-.5 1-.6-.2zM996.7 780.5c.1-1.1.6-.2.6-.2.2.1.5-.5.5-.5h.7v1.4h-.7s-.3-.5-.5-.5c0 .1-.5 1-.6-.2z"/><path class="st3" d="M997.5 779.5c-.1-1.1-.6-.2-.6-.2-.2.1-.5-.5-.5-.5h-.7v1.4h.7s.3-.5.5-.5c0 .1.6 1 .6-.2z"/></g><g><path class="st3" d="M996.7 780.6c.1-1.1.6-.2.6-.2.2.1.5-.5.5-.5h.7v1.4h-.7s-.3-.5-.5-.5c0 0-.5.9-.6-.2zM996.7 782.4c.1-1.1.6-.2.6-.2.2.1.5-.5.5-.5h.7v1.4h-.7s-.3-.5-.5-.5c0 .1-.5 1-.6-.2z"/><path class="st3" d="M997.5 781.5c-.1-1.1-.6-.2-.6-.2-.2.1-.5-.5-.5-.5h-.7v1.4h.7s.3-.5.5-.5c.1.1.6 1 .6-.2z"/></g><g><path class="st3" d="M996.7 782.5c.1-1.1.6-.2.6-.2.2.1.5-.5.5-.5h.7v1.4h-.7s-.3-.5-.5-.5c0 .1-.5 1-.6-.2zM996.7 784.4c.1-1.1.6-.2.6-.2.2.1.5-.5.5-.5h.7v1.4h-.7s-.3-.5-.5-.5c0 .1-.5 1-.6-.2z"/><path class="st3" d="M997.5 783.5c-.1-1.1-.6-.2-.6-.2-.2.1-.5-.5-.5-.5h-.7v1.4h.7s.3-.5.5-.5c.1 0 .6.9.6-.2z"/></g><g><path class="st3" d="M996.7 784.5c.1-1.1.6-.2.6-.2.2.1.5-.5.5-.5h.7v1.4h-.7s-.3-.5-.5-.5c0 .1-.5 1-.6-.2zM996.7 786.4c.1-1.1.6-.2.6-.2.2.1.5-.5.5-.5h.7v1.4h-.7s-.3-.5-.5-.5c0 .1-.5 1-.6-.2z"/><path class="st3" d="M997.6 785.4c-.1-1.1-.6-.2-.6-.2-.2.1-.5-.5-.5-.5h-.7v1.4h.7s.3-.5.5-.5c0 .1.5 1 .6-.2z"/></g><g><path class="st3" d="M996.7 786.5c.1-1.1.6-.2.6-.2.2.1.5-.5.5-.5h.7v1.4h-.7s-.3-.5-.5-.5c0 0-.5.9-.6-.2zM996.7 788.3c.1-1.1.6-.2.6-.2.2.1.5-.5.5-.5h.7v1.4h-.7s-.3-.5-.5-.5c0 .1-.5 1-.6-.2z"/><path class="st3" d="M997.6 787.4c-.1-1.1-.6-.2-.6-.2-.2.1-.5-.5-.5-.5h-.7v1.4h.7s.3-.5.5-.5c0 .1.5 1 .6-.2z"/></g><g><path class="st3" d="M996.7 788.4c.1-1.1.6-.2.6-.2.2.1.5-.5.5-.5h.7v1.4h-.7s-.3-.5-.5-.5c0 .1-.5 1-.6-.2zM996.7 790.3c.1-1.1.6-.2.6-.2.2.1.5-.5.5-.5h.7v1.4h-.7s-.3-.5-.5-.5c0 .1-.5 1-.6-.2z"/><path class="st3" d="M997.6 789.4c-.1-1.1-.6-.2-.6-.2-.2.1-.5-.5-.5-.5h-.7v1.4h.7s.3-.5.5-.5c0 0 .5.9.6-.2z"/></g><g><path class="st3" d="M996.7 790.4c.1-1.1.6-.2.6-.2.2.1.5-.5.5-.5h.7v1.4h-.7s-.3-.5-.5-.5c0 .1-.5 1-.6-.2zM996.8 792.3c.1-1.1.6-.2.6-.2.2.1.5-.5.5-.5h.7v1.4h-.7s-.3-.5-.5-.5c-.1.1-.6 1-.6-.2z"/><path class="st3" d="M997.6 791.3c-.1-1.1-.6-.2-.6-.2-.2.1-.5-.5-.5-.5h-.7v1.4h.7s.3-.5.5-.5c0 .1.5 1 .6-.2z"/></g><g><path class="st3" d="M996.8 792.4c.1-1.1.6-.2.6-.2.2.1.5-.5.5-.5h.7v1.4h-.7s-.3-.5-.5-.5c-.1 0-.6.9-.6-.2zM996.8 794.2c.1-1.1.6-.2.6-.2.2.1.5-.5.5-.5h.7v1.4h-.7s-.3-.5-.5-.5c-.1.1-.6 1-.6-.2z"/><path class="st3" d="M997.6 793.3c-.1-1.1-.6-.2-.6-.2-.2.1-.5-.5-.5-.5h-.7v1.4h.7s.3-.5.5-.5c0 .1.5 1 .6-.2z"/></g><g><path class="st3" d="M996.8 794.3c.1-1.1.6-.2.6-.2.2.1.5-.5.5-.5h.7v1.4h-.7s-.3-.5-.5-.5c-.1.1-.6 1-.6-.2zM996.8 796.2c.1-1.1.6-.2.6-.2.2.1.5-.5.5-.5h.7v1.4h-.7s-.3-.5-.5-.5c0 .1-.5 1-.6-.2z"/><path class="st3" d="M997.6 795.3c-.1-1.1-.6-.2-.6-.2-.2.1-.5-.5-.5-.5h-.7v1.4h.7s.3-.5.5-.5c0 .1.6.9.6-.2z"/></g><g><path class="st3" d="M996.8 796.3c.1-1.1.6-.2.6-.2.2.1.5-.5.5-.5h.7v1.4h-.7s-.3-.5-.5-.5c0 .1-.5 1-.6-.2zM996.8 798.2c.1-1.1.6-.2.6-.2.2.1.5-.5.5-.5h.7v1.4h-.7s-.3-.5-.5-.5c0 .1-.5 1-.6-.2z"/><path class="st3" d="M997.6 797.2c-.1-1.1-.6-.2-.6-.2-.2.1-.5-.5-.5-.5h-.7v1.4h.7s.3-.5.5-.5c.1.1.6 1 .6-.2z"/></g><g><path class="st3" d="M996.8 798.3c.1-1.1.6-.2.6-.2.2.1.5-.5.5-.5h.7v1.4h-.7s-.3-.5-.5-.5c0 0-.5.9-.6-.2zM996.8 800.2c.1-1.1.6-.2.6-.2.2.1.5-.5.5-.5h.7v1.4h-.7s-.3-.5-.5-.5c0 0-.5.9-.6-.2z"/><path class="st3" d="M997.6 799.2c-.1-1.1-.6-.2-.6-.2-.2.1-.5-.5-.5-.5h-.7v1.4h.7s.3-.5.5-.5c.1.1.6 1 .6-.2z"/></g><g><path class="st3" d="M996.8 800.2c.1-1.1.6-.2.6-.2.2.1.5-.5.5-.5h.7v1.4h-.7s-.3-.5-.5-.5c0 .1-.5 1-.6-.2zM996.8 802.1c.1-1.1.6-.2.6-.2.2.1.5-.5.5-.5h.7v1.4h-.7s-.3-.5-.5-.5c0 .1-.5 1-.6-.2z"/><path class="st3" d="M997.6 801.2c-.1-1.1-.6-.2-.6-.2-.2.1-.5-.5-.5-.5h-.7v1.4h.7s.3-.5.5-.5c.1.1.6.9.6-.2z"/></g><g><path class="st3" d="M996.8 802.2c.1-1.1.6-.2.6-.2.2.1.5-.5.5-.5h.7v1.4h-.7s-.3-.5-.5-.5c0 .1-.5 1-.6-.2zM996.8 804.1c.1-1.1.6-.2.6-.2.2.1.5-.5.5-.5h.7v1.4h-.7s-.3-.5-.5-.5c0 .1-.5 1-.6-.2z"/><path class="st3" d="M997.7 803.1c-.1-1.1-.6-.2-.6-.2-.2.1-.5-.5-.5-.5h-.7v1.4h.7s.3-.5.5-.5c0 .1.5 1 .6-.2z"/></g><g><path class="st3" d="M996.8 804.2c.1-1.1.6-.2.6-.2.2.1.5-.5.5-.5h.7v1.4h-.7s-.3-.5-.5-.5c0 0-.5.9-.6-.2zM996.8 806.1c.1-1.1.6-.2.6-.2.2.1.5-.5.5-.5h.7v1.4h-.7s-.3-.5-.5-.5c0 0-.5.9-.6-.2z"/><path class="st3" d="M997.7 805.1c-.1-1.1-.6-.2-.6-.2-.2.1-.5-.5-.5-.5h-.7v1.4h.7s.3-.5.5-.5c0 .1.5 1 .6-.2z"/></g><g><path class="st3" d="M996.8 806.1c.1-1.1.6-.2.6-.2.2.1.5-.5.5-.5h.7v1.4h-.7s-.3-.5-.5-.5c0 .1-.5 1-.6-.2zM996.9 808c.1-1.1.6-.2.6-.2.2.1.5-.5.5-.5h.7v1.4h-.7s-.3-.5-.5-.5c-.1.1-.6 1-.6-.2z"/><path class="st3" d="M997.7 807.1c-.1-1.1-.6-.2-.6-.2-.2.1-.5-.5-.5-.5h-.7v1.4h.7s.3-.5.5-.5c0 .1.5.9.6-.2z"/></g><g><path class="st3" d="M996.9 808.1c.1-1.1.6-.2.6-.2.2.1.5-.5.5-.5h.7v1.4h-.7s-.3-.5-.5-.5c-.1.1-.6 1-.6-.2zM996.9 810c.1-1.1.6-.2.6-.2.2.1.5-.5.5-.5h.7v1.4h-.7s-.3-.5-.5-.5c-.1.1-.6 1-.6-.2z"/><path class="st3" d="M997.7 809c-.1-1.1-.6-.2-.6-.2-.2.1-.5-.5-.5-.5h-.7v1.4h.7s.3-.5.5-.5c0 .1.5 1 .6-.2z"/></g><g><path class="st3" d="M996.9 810.1c.1-1.1.6-.2.6-.2.2.1.5-.5.5-.5h.7v1.4h-.7s-.3-.5-.5-.5c-.1 0-.6.9-.6-.2zM996.9 812c.1-1.1.6-.2.6-.2.2.1.5-.5.5-.5h.7v1.4h-.7s-.3-.5-.5-.5c0 0-.5.9-.6-.2z"/><path class="st3" d="M997.7 811c-.1-1.1-.6-.2-.6-.2-.2.1-.5-.5-.5-.5h-.7v1.4h.7s.3-.5.5-.5c0 .1.5 1 .6-.2z"/></g><g><path class="st3" d="M996.9 812c.1-1.1.6-.2.6-.2.2.1.5-.5.5-.5h.7v1.4h-.7s-.3-.5-.5-.5c0 .1-.5 1-.6-.2zM996.9 813.9c.1-1.1.6-.2.6-.2.2.1.5-.5.5-.5h.7v1.4h-.7s-.3-.5-.5-.5c0 .1-.5 1-.6-.2z"/><path class="st3" d="M997.7 813c-.1-1.1-.6-.2-.6-.2-.2.1-.5-.5-.5-.5h-.7v1.4h.7s.3-.5.5-.5c0 .1.6.9.6-.2z"/></g><g><path class="st3" d="M996.9 814c.1-1.1.6-.2.6-.2.2.1.5-.5.5-.5h.7v1.4h-.7s-.3-.5-.5-.5c0 .1-.5 1-.6-.2zM996.9 815.9c.1-1.1.6-.2.6-.2.2.1.5-.5.5-.5h.7v1.4h-.7s-.3-.5-.5-.5c0 .1-.5 1-.6-.2z"/><path class="st3" d="M997.7 814.9c-.1-1.1-.6-.2-.6-.2-.2.1-.5-.5-.5-.5h-.7v1.4h.7s.3-.5.5-.5c.1.1.6 1 .6-.2z"/></g><g><path class="st3" d="M996.9 816c.1-1.1.6-.2.6-.2.2.1.5-.5.5-.5h.7v1.4h-.7s-.3-.5-.5-.5c0 0-.5.9-.6-.2zM996.9 817.9c.1-1.1.6-.2.6-.2.2.1.5-.5.5-.5h.7v1.4h-.7s-.3-.5-.5-.5c0 0-.5.9-.6-.2z"/><path class="st3" d="M997.7 816.9c-.1-1.1-.6-.2-.6-.2-.2.1-.5-.5-.5-.5h-.7v1.4h.7s.3-.5.5-.5c.1.1.6 1 .6-.2z"/></g><g><path class="st3" d="M996.9 817.9c.1-1.1.6-.2.6-.2.2.1.5-.5.5-.5h.7v1.4h-.7s-.3-.5-.5-.5c0 .1-.5 1-.6-.2zM996.9 819.8c.1-1.1.6-.2.6-.2.2.1.5-.5.5-.5h.7v1.4h-.7s-.3-.5-.5-.5c0 .1-.5 1-.6-.2z"/><path class="st3" d="M997.8 818.9c-.1-1.1-.6-.2-.6-.2-.2.1-.5-.5-.5-.5h-.7v1.4h.7s.3-.5.5-.5c0 .1.5.9.6-.2z"/></g><g><path class="st3" d="M996.9 819.9c.1-1.1.6-.2.6-.2.2.1.5-.5.5-.5h.7v1.4h-.7s-.3-.5-.5-.5c0 .1-.5 1-.6-.2zM996.9 821.8c.1-1.1.6-.2.6-.2.2.1.5-.5.5-.5h.7v1.4h-.7s-.3-.5-.5-.5c0 .1-.5 1-.6-.2z"/><path class="st3" d="M997.8 820.8c-.1-1.1-.6-.2-.6-.2-.2.1-.5-.5-.5-.5h-.7v1.4h.7s.3-.5.5-.5c0 .1.5 1 .6-.2z"/></g><g><path class="st3" d="M996.9 821.9c.1-1.1.6-.2.6-.2.2.1.5-.5.5-.5h.7v1.4h-.7s-.3-.5-.5-.5c0 0-.5.9-.6-.2zM996.9 823.8c.1-1.1.6-.2.6-.2.2.1.5-.5.5-.5h.7v1.4h-.7s-.3-.5-.5-.5c0 0-.5.9-.6-.2z"/><path class="st3" d="M997.8 822.8c-.1-1.1-.6-.2-.6-.2-.2.1-.5-.5-.5-.5h-.7v1.4h.7s.3-.5.5-.5c0 .1.5 1 .6-.2z"/></g><g><path class="st3" d="M996.9 823.8c.1-1.1.6-.2.6-.2.2.1.5-.5.5-.5h.7v1.4h-.7s-.3-.5-.5-.5c0 .1-.5 1-.6-.2zM997 825.7c.1-1.1.6-.2.6-.2.2.1.5-.5.5-.5h.7v1.4h-.7s-.3-.5-.5-.5c-.1.1-.6 1-.6-.2z"/><path class="st3" d="M997.8 824.8c-.1-1.1-.6-.2-.6-.2-.2.1-.5-.5-.5-.5h-.7v1.4h.7s.3-.5.5-.5c0 .1.5.9.6-.2z"/></g><g><path class="st3" d="M997 825.8c.1-1.1.6-.2.6-.2.2.1.5-.5.5-.5h.7v1.4h-.7s-.3-.5-.5-.5c-.1.1-.6 1-.6-.2zM997 827.7c.1-1.1.6-.2.6-.2.2.1.5-.5.5-.5h.7v1.4h-.7s-.3-.5-.5-.5c-.1.1-.6 1-.6-.2z"/><path class="st3" d="M997.8 826.7c-.1-1.1-.6-.2-.6-.2-.2.1-.5-.5-.5-.5h-.7v1.4h.7s.3-.5.5-.5c0 .1.5 1 .6-.2z"/></g><g><path class="st3" d="M997 827.8c.1-1.1.6-.2.6-.2.2.1.5-.5.5-.5h.7v1.4h-.7s-.3-.5-.5-.5c-.1 0-.6.9-.6-.2zM997 829.7c.1-1.1.6-.2.6-.2.2.1.5-.5.5-.5h.7v1.4h-.7s-.3-.5-.5-.5c0 0-.5.9-.6-.2z"/><path class="st3" d="M997.8 828.7c-.1-1.1-.6-.2-.6-.2-.2.1-.5-.5-.5-.5h-.7v1.4h.7s.3-.5.5-.5c0 .1.6 1 .6-.2z"/></g><g><path class="st3" d="M997 829.7c.1-1.1.6-.2.6-.2.2.1.5-.5.5-.5h.7v1.4h-.7s-.3-.5-.5-.5c0 .1-.5 1-.6-.2zM997 831.6c.1-1.1.6-.2.6-.2.2.1.5-.5.5-.5h.7v1.4h-.7s-.3-.5-.5-.5c0 .1-.5 1-.6-.2z"/><path class="st3" d="M997.8 830.7c-.1-1.1-.6-.2-.6-.2-.2.1-.5-.5-.5-.5h-.7v1.4h.7s.3-.5.5-.5c.1.1.6.9.6-.2z"/></g><g><path class="st3" d="M997 831.7c.1-1.1.6-.2.6-.2.2.1.5-.5.5-.5h.7v1.4h-.7s-.3-.5-.5-.5c0 .1-.5 1-.6-.2zM997 833.6c.1-1.1.6-.2.6-.2.2.1.5-.5.5-.5h.7v1.4h-.7s-.3-.5-.5-.5c0 .1-.5 1-.6-.2z"/><path class="st3" d="M997.8 832.6c-.1-1.1-.6-.2-.6-.2-.2.1-.5-.5-.5-.5h-.7v1.4h.7s.3-.5.5-.5c.1.1.6 1 .6-.2z"/></g><g><path class="st3" d="M997 833.7c.1-1.1.6-.2.6-.2.2.1.5-.5.5-.5h.7v1.4h-.7s-.3-.5-.5-.5c0 0-.5.9-.6-.2zM997 835.6c.1-1.1.6-.2.6-.2.2.1.5-.5.5-.5h.7v1.4h-.7s-.3-.5-.5-.5c0 0-.5.9-.6-.2z"/><path class="st3" d="M997.8 834.6c-.1-1.1-.6-.2-.6-.2-.2.1-.5-.5-.5-.5h-.7v1.4h.7s.3-.5.5-.5c.1.1.6 1 .6-.2z"/></g><g><path class="st3" d="M997 835.6c.1-1.1.6-.2.6-.2.2.1.5-.5.5-.5h.7v1.4h-.7s-.3-.5-.5-.5c0 .1-.5 1-.6-.2zM997 837.5c.1-1.1.6-.2.6-.2.2.1.5-.5.5-.5h.7v1.4h-.7s-.3-.5-.5-.5c0 .1-.5 1-.6-.2z"/><path class="st3" d="M997.9 836.6c-.1-1.1-.6-.2-.6-.2-.2.1-.5-.5-.5-.5h-.7v1.4h.7s.3-.5.5-.5c0 .1.5.9.6-.2z"/></g><g><path class="st3" d="M997 837.6c.1-1.1.6-.2.6-.2.2.1.5-.5.5-.5h.7v1.4h-.7s-.3-.5-.5-.5c0 .1-.5 1-.6-.2zM997 839.5c.1-1.1.6-.2.6-.2.2.1.5-.5.5-.5h.7v1.4h-.7s-.3-.5-.5-.5c0 .1-.5 1-.6-.2z"/><path class="st3" d="M997.9 838.5c-.1-1.1-.6-.2-.6-.2-.2.1-.5-.5-.5-.5h-.7v1.4h.7s.3-.5.5-.5c0 .1.5 1 .6-.2z"/></g><g><path class="st3" d="M997 839.6c.1-1.1.6-.2.6-.2.2.1.5-.5.5-.5h.7v1.4h-.7s-.3-.5-.5-.5c0 0-.5.9-.6-.2zM997.1 841.5c.1-1.1.6-.2.6-.2.2.1.5-.5.5-.5h.7v1.4h-.7s-.3-.5-.5-.5c-.1 0-.6.9-.6-.2z"/><path class="st3" d="M997.9 840.5c-.1-1.1-.6-.2-.6-.2-.2.1-.5-.5-.5-.5h-.7v1.4h.7s.3-.5.5-.5c0 .1.5 1 .6-.2z"/></g><g><path class="st3" d="M997.1 841.5c.1-1.1.6-.2.6-.2.2.1.5-.5.5-.5h.7v1.4h-.7s-.3-.5-.5-.5c-.1.1-.6 1-.6-.2zM997.1 843.4c.1-1.1.6-.2.6-.2.2.1.5-.5.5-.5h.7v1.4h-.7s-.3-.5-.5-.5c-.1.1-.6 1-.6-.2z"/><path class="st3" d="M997.9 842.5c-.1-1.1-.6-.2-.6-.2-.2.1-.5-.5-.5-.5h-.7v1.4h.7s.3-.5.5-.5c0 .1.5.9.6-.2z"/></g><g><path class="st3" d="M997.1 843.5c.1-1.1.6-.2.6-.2.2.1.5-.5.5-.5h.7v1.4h-.7s-.3-.5-.5-.5c-.1.1-.6 1-.6-.2zM997.1 845.4c.1-1.1.6-.2.6-.2.2.1.5-.5.5-.5h.7v1.4h-.7s-.3-.5-.5-.5c0 .1-.5 1-.6-.2z"/><path class="st3" d="M997.9 844.4c-.1-1.1-.6-.2-.6-.2-.2.1-.5-.5-.5-.5h-.7v1.4h.7s.3-.5.5-.5c0 .1.5 1 .6-.2z"/></g><g><path class="st3" d="M997.1 845.5c.1-1.1.6-.2.6-.2.2.1.5-.5.5-.5h.7v1.4h-.7s-.3-.5-.5-.5c0 0-.5.9-.6-.2zM997.1 847.4c.1-1.1.6-.2.6-.2.2.1.5-.5.5-.5h.7v1.4h-.7s-.3-.5-.5-.5c0 0-.5.9-.6-.2z"/><path class="st3" d="M997.9 846.4c-.1-1.1-.6-.2-.6-.2-.2.1-.5-.5-.5-.5h-.7v1.4h.7s.3-.5.5-.5c0 .1.6 1 .6-.2z"/></g><g><path class="st3" d="M997.1 847.4c.1-1.1.6-.2.6-.2.2.1.5-.5.5-.5h.7v1.4h-.7s-.3-.5-.5-.5c0 .1-.5 1-.6-.2zM997.1 849.3c.1-1.1.6-.2.6-.2.2.1.5-.5.5-.5h.7v1.4h-.7s-.3-.5-.5-.5c0 .1-.5 1-.6-.2z"/><path class="st3" d="M997.9 848.4c-.1-1.1-.6-.2-.6-.2-.2.1-.5-.5-.5-.5h-.7v1.4h.7s.3-.5.5-.5c.1.1.6.9.6-.2z"/></g><g><path class="st3" d="M997.1 849.4c.1-1.1.6-.2.6-.2.2.1.5-.5.5-.5h.7v1.4h-.7s-.3-.5-.5-.5c0 .1-.5 1-.6-.2zM997.1 851.3c.1-1.1.6-.2.6-.2.2.1.5-.5.5-.5h.7v1.4h-.7s-.3-.5-.5-.5c0 .1-.5 1-.6-.2z"/><path class="st3" d="M997.9 850.3c-.1-1.1-.6-.2-.6-.2-.2.1-.5-.5-.5-.5h-.7v1.4h.7s.3-.5.5-.5c.1.1.6 1 .6-.2z"/></g><g><path class="st3" d="M997.1 851.4c.1-1.1.6-.2.6-.2.2.1.5-.5.5-.5h.7v1.4h-.7s-.3-.5-.5-.5c0 0-.5.9-.6-.2zM997.1 853.3c.1-1.1.6-.2.6-.2.2.1.5-.5.5-.5h.7v1.4h-.7s-.3-.5-.5-.5c0 0-.5.9-.6-.2z"/><path class="st3" d="M998 852.3c-.1-1.1-.6-.2-.6-.2-.2.1-.5-.5-.5-.5h-.7v1.4h.7s.3-.5.5-.5c0 .1.5 1 .6-.2z"/></g><g><path class="st3" d="M997.1 853.3c.1-1.1.6-.2.6-.2.2.1.5-.5.5-.5h.7v1.4h-.7s-.3-.5-.5-.5c0 .1-.5 1-.6-.2zM997.1 855.2c.1-1.1.6-.2.6-.2.2.1.5-.5.5-.5h.7v1.4h-.7s-.3-.5-.5-.5c0 .1-.5 1-.6-.2z"/><path class="st3" d="M998 854.3c-.1-1.1-.6-.2-.6-.2-.2.1-.5-.5-.5-.5h-.7v1.4h.7s.3-.5.5-.5c0 .1.5.9.6-.2z"/></g><g><path class="st3" d="M997.1 855.3c.1-1.1.6-.2.6-.2.2.1.5-.5.5-.5h.7v1.4h-.7s-.3-.5-.5-.5c0 .1-.5 1-.6-.2zM997.1 857.2c.1-1.1.6-.2.6-.2.2.1.5-.5.5-.5h.7v1.4h-.7s-.3-.5-.5-.5c0 .1-.5 1-.6-.2z"/><path class="st3" d="M998 856.2c-.1-1.1-.6-.2-.6-.2-.2.1-.5-.5-.5-.5h-.7v1.4h.7s.3-.5.5-.5c0 .1.5 1 .6-.2z"/></g><g><path class="st3" d="M997.1 857.3c.1-1.1.6-.2.6-.2.2.1.5-.5.5-.5h.7v1.4h-.7s-.3-.5-.5-.5c0 0-.5.9-.6-.2zM997.2 859.2c.1-1.1.6-.2.6-.2.2.1.5-.5.5-.5h.7v1.4h-.7s-.3-.5-.5-.5c-.1 0-.6.9-.6-.2z"/><path class="st3" d="M998 858.2c-.1-1.1-.6-.2-.6-.2-.2.1-.5-.5-.5-.5h-.7v1.4h.7s.3-.5.5-.5c0 .1.5 1 .6-.2z"/></g><g><path class="st3" d="M997.2 859.2c.1-1.1.6-.2.6-.2.2.1.5-.5.5-.5h.7v1.4h-.7s-.3-.5-.5-.5c-.1.1-.6 1-.6-.2zM997.2 861.1c.1-1.1.6-.2.6-.2.2.1.5-.5.5-.5h.7v1.4h-.7s-.3-.5-.5-.5c-.1.1-.6 1-.6-.2z"/><path class="st3" d="M998 860.2c-.1-1.1-.6-.2-.6-.2-.2.1-.5-.5-.5-.5h-.7v1.4h.7s.3-.5.5-.5c0 .1.5.9.6-.2z"/></g><g><path class="st3" d="M997.2 861.2c.1-1.1.6-.2.6-.2.2.1.5-.5.5-.5h.7v1.4h-.7s-.3-.5-.5-.5c-.1.1-.6 1-.6-.2zM997.2 863.1c.1-1.1.6-.2.6-.2.2.1.5-.5.5-.5h.7v1.4h-.7s-.3-.5-.5-.5c0 .1-.5 1-.6-.2z"/><path class="st3" d="M998 862.1c-.1-1.1-.6-.2-.6-.2-.2.1-.5-.5-.5-.5h-.7v1.4h.7s.3-.5.5-.5c0 .1.6 1 .6-.2z"/></g><g><path class="st3" d="M997.2 863.2c.1-1.1.6-.2.6-.2.2.1.5-.5.5-.5h.7v1.4h-.7s-.3-.5-.5-.5c0 0-.5.9-.6-.2zM997.2 865.1c.1-1.1.6-.2.6-.2.2.1.5-.5.5-.5h.7v1.4h-.7s-.3-.5-.5-.5c0 0-.5.9-.6-.2z"/><path class="st3" d="M998 864.1c-.1-1.1-.6-.2-.6-.2-.2.1-.5-.5-.5-.5h-.7v1.4h.7s.3-.5.5-.5c.1.1.6 1 .6-.2z"/></g><g><path class="st3" d="M997.2 865.1c.1-1.1.6-.2.6-.2.2.1.5-.5.5-.5h.7v1.4h-.7s-.3-.5-.5-.5c0 .1-.5 1-.6-.2zM997.2 867c.1-1.1.6-.2.6-.2.2.1.5-.5.5-.5h.7v1.4h-.7s-.3-.5-.5-.5c0 .1-.5 1-.6-.2z"/><path class="st3" d="M998 866.1c-.1-1.1-.6-.2-.6-.2-.2.1-.5-.5-.5-.5h-.7v1.4h.7s.3-.5.5-.5c.1.1.6.9.6-.2z"/></g><g><path class="st3" d="M997.2 867.1c.1-1.1.6-.2.6-.2.2.1.5-.5.5-.5h.7v1.4h-.7s-.3-.5-.5-.5c0 .1-.5 1-.6-.2zM997.2 869c.1-1.1.6-.2.6-.2.2.1.5-.5.5-.5h.7v1.4h-.7s-.3-.5-.5-.5c0 .1-.5 1-.6-.2z"/><path class="st3" d="M998 868c-.1-1.1-.6-.2-.6-.2-.2.1-.5-.5-.5-.5h-.7v1.4h.7s.3-.5.5-.5c.1.1.6 1 .6-.2z"/></g><g><path class="st3" d="M997.2 869.1c.1-1.1.6-.2.6-.2.2.1.5-.5.5-.5h.7v1.4h-.7s-.3-.5-.5-.5c0 0-.5.9-.6-.2zM997.2 871c.1-1.1.6-.2.6-.2.2.1.5-.5.5-.5h.7v1.4h-.7s-.3-.5-.5-.5c0 0-.5.9-.6-.2z"/><path class="st3" d="M998.1 870c-.1-1.1-.6-.2-.6-.2-.2.1-.5-.5-.5-.5h-.7v1.4h.7s.3-.5.5-.5c0 .1.5 1 .6-.2z"/></g><g><path class="st3" d="M997.2 871c.1-1.1.6-.2.6-.2.2.1.5-.5.5-.5h.7v1.4h-.7s-.3-.5-.5-.5c0 .1-.5 1-.6-.2zM997.2 872.9c.1-1.1.6-.2.6-.2.2.1.5-.5.5-.5h.7v1.4h-.7s-.3-.5-.5-.5c0 .1-.5 1-.6-.2z"/><path class="st3" d="M998.1 872c-.1-1.1-.6-.2-.6-.2-.2.1-.5-.5-.5-.5h-.7v1.4h.7s.3-.5.5-.5c0 .1.5.9.6-.2z"/></g><g><path class="st3" d="M997.2 873c.1-1.1.6-.2.6-.2.2.1.5-.5.5-.5h.7v1.4h-.7s-.3-.5-.5-.5c0 .1-.5 1-.6-.2zM997.3 874.9c.1-1.1.6-.2.6-.2.2.1.5-.5.5-.5h.7v1.4h-.7s-.3-.5-.5-.5c-.1.1-.6 1-.6-.2z"/><path class="st3" d="M998.1 873.9c-.1-1.1-.6-.2-.6-.2-.2.1-.5-.5-.5-.5h-.7v1.4h.7s.3-.5.5-.5c0 .1.5 1 .6-.2z"/></g><g><path class="st3" d="M997.3 875c.1-1.1.6-.2.6-.2.2.1.5-.5.5-.5h.7v1.4h-.7s-.3-.5-.5-.5c-.1 0-.6.9-.6-.2zM997.3 876.9c.1-1.1.6-.2.6-.2.2.1.5-.5.5-.5h.7v1.4h-.7s-.3-.5-.5-.5c-.1 0-.6.9-.6-.2z"/><path class="st3" d="M998.1 875.9c-.1-1.1-.6-.2-.6-.2-.2.1-.5-.5-.5-.5h-.7v1.4h.7s.3-.5.5-.5c0 .1.5 1 .6-.2z"/></g><g><path class="st3" d="M997.3 876.9c.1-1.1.6-.2.6-.2.2.1.5-.5.5-.5h.7v1.4h-.7s-.3-.5-.5-.5c-.1.1-.6 1-.6-.2zM997.3 878.8c.1-1.1.6-.2.6-.2.2.1.5-.5.5-.5h.7v1.4h-.7s-.3-.5-.5-.5c0 .1-.5 1-.6-.2z"/><path class="st3" d="M998.1 877.9c-.1-1.1-.6-.2-.6-.2-.2.1-.5-.5-.5-.5h-.7v1.4h.7s.3-.5.5-.5c0 .1.5.9.6-.2z"/></g><g><path class="st3" d="M997.3 878.9c.1-1.1.6-.2.6-.2.2.1.5-.5.5-.5h.7v1.4h-.7s-.3-.5-.5-.5c0 .1-.5 1-.6-.2zM997.3 880.8c.1-1.1.6-.2.6-.2.2.1.5-.5.5-.5h.7v1.4h-.7s-.3-.5-.5-.5c0 .1-.5 1-.6-.2z"/><path class="st3" d="M998.1 879.8c-.1-1.1-.6-.2-.6-.2-.2.1-.5-.5-.5-.5h-.7v1.4h.7s.3-.5.5-.5c0 .1.6 1 .6-.2z"/></g><g><path class="st3" d="M997.3 880.9c.1-1.1.6-.2.6-.2.2.1.5-.5.5-.5h.7v1.4h-.7s-.3-.5-.5-.5c0 0-.5.9-.6-.2zM997.3 882.8c.1-1.1.6-.2.6-.2.2.1.5-.5.5-.5h.7v1.4h-.7s-.3-.5-.5-.5c0 0-.5.9-.6-.2z"/><path class="st3" d="M998.1 881.8c-.1-1.1-.6-.2-.6-.2-.2.1-.5-.5-.5-.5h-.7v1.4h.7s.3-.5.5-.5c.1.1.6 1 .6-.2z"/></g><g><path class="st3" d="M997.3 882.8c.1-1.1.6-.2.6-.2.2.1.5-.5.5-.5h.7v1.4h-.7s-.3-.5-.5-.5c0 .1-.5 1-.6-.2zM997.3 884.7c.1-1.1.6-.2.6-.2.2.1.5-.5.5-.5h.7v1.4h-.7s-.3-.5-.5-.5c0 .1-.5 1-.6-.2z"/><path class="st3" d="M998.1 883.8c-.1-1.1-.6-.2-.6-.2-.2.1-.5-.5-.5-.5h-.7v1.4h.7s.3-.5.5-.5c.1.1.6.9.6-.2z"/></g><g><path class="st3" d="M997.3 884.8c.1-1.1.6-.2.6-.2.2.1.5-.5.5-.5h.7v1.4h-.7s-.3-.5-.5-.5c0 .1-.5 1-.6-.2zM997.3 886.7c.1-1.1.6-.2.6-.2.2.1.5-.5.5-.5h.7v1.4h-.7s-.3-.5-.5-.5c0 .1-.5 1-.6-.2z"/><path class="st3" d="M998.2 885.7c-.1-1.1-.6-.2-.6-.2-.2.1-.5-.5-.5-.5h-.7v1.4h.7s.3-.5.5-.5c0 .1.5 1 .6-.2z"/></g><g><path class="st3" d="M997.3 886.8c.1-1.1.6-.2.6-.2.2.1.5-.5.5-.5h.7v1.4h-.7s-.3-.5-.5-.5c0 0-.5.9-.6-.2zM997.3 888.7c.1-1.1.6-.2.6-.2.2.1.5-.5.5-.5h.7v1.4h-.7s-.3-.5-.5-.5c0 0-.5.9-.6-.2z"/><path class="st3" d="M998.2 887.7c-.1-1.1-.6-.2-.6-.2-.2.1-.5-.5-.5-.5h-.7v1.4h.7s.3-.5.5-.5c0 .1.5 1 .6-.2z"/></g><g><path class="st3" d="M997.3 888.7c.1-1.1.6-.2.6-.2.2.1.5-.5.5-.5h.7v1.4h-.7s-.3-.5-.5-.5c0 .1-.5 1-.6-.2zM997.3 890.6c.1-1.1.6-.2.6-.2.2.1.5-.5.5-.5h.7v1.4h-.7s-.3-.5-.5-.5c0 .1-.5 1-.6-.2z"/><path class="st3" d="M998.2 889.7c-.1-1.1-.6-.2-.6-.2-.2.1-.5-.5-.5-.5h-.7v1.4h.7s.3-.5.5-.5c0 .1.5.9.6-.2z"/></g><g><path class="st3" d="M997.3 890.7c.1-1.1.6-.2.6-.2.2.1.5-.5.5-.5h.7v1.4h-.7s-.3-.5-.5-.5c0 .1-.5 1-.6-.2zM997.4 892.6c.1-1.1.6-.2.6-.2.2.1.5-.5.5-.5h.7v1.4h-.7s-.3-.5-.5-.5c-.1.1-.6 1-.6-.2z"/><path class="st3" d="M998.2 891.6c-.1-1.1-.6-.2-.6-.2-.2.1-.5-.5-.5-.5h-.7v1.4h.7s.3-.5.5-.5c0 .1.5 1 .6-.2z"/></g><g><path class="st3" d="M997.4 892.7c.1-1.1.6-.2.6-.2.2.1.5-.5.5-.5h.7v1.4h-.7s-.3-.5-.5-.5c-.1 0-.6.9-.6-.2zM997.4 894.6c.1-1.1.6-.2.6-.2.2.1.5-.5.5-.5h.7v1.4h-.7s-.3-.5-.5-.5c-.1 0-.6.9-.6-.2z"/><path class="st3" d="M998.2 893.6c-.1-1.1-.6-.2-.6-.2-.2.1-.5-.5-.5-.5h-.7v1.4h.7s.3-.5.5-.5c0 .1.5 1 .6-.2z"/></g><g><path class="st3" d="M997.4 894.6c.1-1.1.6-.2.6-.2.2.1.5-.5.5-.5h.7v1.4h-.7s-.3-.5-.5-.5c-.1.1-.6 1-.6-.2zM997.4 896.5c.1-1.1.6-.2.6-.2.2.1.5-.5.5-.5h.7v1.4h-.7s-.3-.5-.5-.5c0 .1-.5 1-.6-.2z"/><path class="st3" d="M998.2 895.6c-.1-1.1-.6-.2-.6-.2-.2.1-.5-.5-.5-.5h-.7v1.4h.7s.3-.5.5-.5c0 .1.6.9.6-.2z"/></g><g><path class="st3" d="M997.4 896.6c.1-1.1.6-.2.6-.2.2.1.5-.5.5-.5h.7v1.4h-.7s-.3-.5-.5-.5c0 .1-.5 1-.6-.2zM997.4 898.5c.1-1.1.6-.2.6-.2.2.1.5-.5.5-.5h.7v1.4h-.7s-.3-.5-.5-.5c0 .1-.5 1-.6-.2z"/><path class="st3" d="M998.2 897.5c-.1-1.1-.6-.2-.6-.2-.2.1-.5-.5-.5-.5h-.7v1.4h.7s.3-.5.5-.5c.1.1.6 1 .6-.2z"/></g><g><path class="st3" d="M997.4 898.6c.1-1.1.6-.2.6-.2.2.1.5-.5.5-.5h.7v1.4h-.7s-.3-.5-.5-.5c0 0-.5.9-.6-.2zM997.4 900.5c.1-1.1.6-.2.6-.2.2.1.5-.5.5-.5h.7v1.4h-.7s-.3-.5-.5-.5c0 0-.5.9-.6-.2z"/><path class="st3" d="M998.2 899.5c-.1-1.1-.6-.2-.6-.2-.2.1-.5-.5-.5-.5h-.7v1.4h.7s.3-.5.5-.5c.1.1.6 1 .6-.2z"/></g><g><path class="st3" d="M997.4 900.5c.1-1.1.6-.2.6-.2.2.1.5-.5.5-.5h.7v1.4h-.7s-.3-.5-.5-.5c0 .1-.5 1-.6-.2zM997.4 902.4c.1-1.1.6-.2.6-.2.2.1.5-.5.5-.5h.7v1.4h-.7s-.3-.5-.5-.5c0 .1-.5 1-.6-.2z"/><path class="st3" d="M998.2 901.5c-.1-1.1-.6-.2-.6-.2-.2.1-.5-.5-.5-.5h-.7v1.4h.7s.3-.5.5-.5c.1.1.6.9.6-.2z"/></g><g><path class="st3" d="M997.4 902.5c.1-1.1.6-.2.6-.2.2.1.5-.5.5-.5h.7v1.4h-.7s-.3-.5-.5-.5c0 .1-.5 1-.6-.2zM997.4 904.4c.1-1.1.6-.2.6-.2.2.1.5-.5.5-.5h.7v1.4h-.7s-.3-.5-.5-.5c0 .1-.5 1-.6-.2z"/><path class="st3" d="M998.3 903.4c-.1-1.1-.6-.2-.6-.2-.2.1-.5-.5-.5-.5h-.7v1.4h.7s.3-.5.5-.5c0 .1.5 1 .6-.2z"/></g><g><path class="st3" d="M997.4 904.5c.1-1.1.6-.2.6-.2.2.1.5-.5.5-.5h.7v1.4h-.7s-.3-.5-.5-.5c0 .1-.5.9-.6-.2zM997.4 906.4c.1-1.1.6-.2.6-.2.2.1.5-.5.5-.5h.7v1.4h-.7s-.3-.5-.5-.5c0 0-.5.9-.6-.2z"/><path class="st3" d="M998.3 905.4c-.1-1.1-.6-.2-.6-.2-.2.1-.5-.5-.5-.5h-.7v1.4h.7s.3-.5.5-.5c0 .1.5 1 .6-.2z"/></g><g><path class="st3" d="M997.4 906.4c.1-1.1.6-.2.6-.2.2.1.5-.5.5-.5h.7v1.4h-.7s-.3-.5-.5-.5c0 .1-.5 1-.6-.2zM997.5 908.3c.1-1.1.6-.2.6-.2.2.1.5-.5.5-.5h.7v1.4h-.7s-.3-.5-.5-.5c-.1.1-.6 1-.6-.2z"/><path class="st3" d="M998.3 907.4c-.1-1.1-.6-.2-.6-.2-.2.1-.5-.5-.5-.5h-.7v1.4h.7s.3-.5.5-.5c0 .1.5.9.6-.2z"/></g><g><path class="st3" d="M997.5 908.4c.1-1.1.6-.2.6-.2.2.1.5-.5.5-.5h.7v1.4h-.7s-.3-.5-.5-.5c-.1.1-.6 1-.6-.2zM997.5 910.3c.1-1.1.6-.2.6-.2.2.1.5-.5.5-.5h.7v1.4h-.7s-.3-.5-.5-.5c-.1.1-.6 1-.6-.2z"/><path class="st3" d="M998.3 909.3c-.1-1.1-.6-.2-.6-.2-.2.1-.5-.5-.5-.5h-.7v1.4h.7s.3-.5.5-.5c0 .1.5 1 .6-.2z"/></g><g><path class="st3" d="M997.5 910.4c.1-1.1.6-.2.6-.2.2.1.5-.5.5-.5h.7v1.4h-.7s-.3-.5-.5-.5c-.1.1-.6.9-.6-.2zM997.5 912.3c.1-1.1.6-.2.6-.2.2.1.5-.5.5-.5h.7v1.4h-.7s-.3-.5-.5-.5c0 0-.5.9-.6-.2z"/><path class="st3" d="M998.3 911.3c-.1-1.1-.6-.2-.6-.2-.2.1-.5-.5-.5-.5h-.7v1.4h.7s.3-.5.5-.5c0 .1.5 1 .6-.2z"/></g><g><path class="st3" d="M997.5 912.3c.1-1.1.6-.2.6-.2.2.1.5-.5.5-.5h.7v1.4h-.7s-.3-.5-.5-.5c0 .1-.5 1-.6-.2zM997.5 914.2c.1-1.1.6-.2.6-.2.2.1.5-.5.5-.5h.7v1.4h-.7s-.3-.5-.5-.5c0 .1-.5 1-.6-.2z"/><path class="st3" d="M998.3 913.3c-.1-1.1-.6-.2-.6-.2-.2.1-.5-.5-.5-.5h-.7v1.4h.7s.3-.5.5-.5c0 .1.6.9.6-.2z"/></g><g><path class="st3" d="M997.5 914.3c.1-1.1.6-.2.6-.2.2.1.5-.5.5-.5h.7v1.4h-.7s-.3-.5-.5-.5c0 .1-.5 1-.6-.2zM997.5 916.2c.1-1.1.6-.2.6-.2.2.1.5-.5.5-.5h.7v1.4h-.7s-.3-.5-.5-.5c0 .1-.5 1-.6-.2z"/><path class="st3" d="M998.3 915.2c-.1-1.1-.6-.2-.6-.2-.2.1-.5-.5-.5-.5h-.7v1.4h.7s.3-.5.5-.5c.1.1.6 1 .6-.2z"/></g><g><path class="st3" d="M997.5 916.3c.1-1.1.6-.2.6-.2.2.1.5-.5.5-.5h.7v1.4h-.7s-.3-.5-.5-.5c0 .1-.5.9-.6-.2zM997.5 918.2c.1-1.1.6-.2.6-.2.2.1.5-.5.5-.5h.7v1.4h-.7s-.3-.5-.5-.5c0 0-.5.9-.6-.2z"/><path class="st3" d="M998.3 917.2c-.1-1.1-.6-.2-.6-.2-.2.1-.5-.5-.5-.5h-.7v1.4h.7s.3-.5.5-.5c.1.1.6 1 .6-.2z"/></g><g><path class="st3" d="M997.5 918.2c.1-1.1.6-.2.6-.2.2.1.5-.5.5-.5h.7v1.4h-.7s-.3-.5-.5-.5c0 .1-.5 1-.6-.2zM997.5 920.1c.1-1.1.6-.2.6-.2.2.1.5-.5.5-.5h.7v1.4h-.7s-.3-.5-.5-.5c0 .1-.5 1-.6-.2z"/><path class="st3" d="M998.4 919.2c-.1-1.1-.6-.2-.6-.2-.2.1-.5-.5-.5-.5h-.7v1.4h.7s.3-.5.5-.5c0 .1.5.9.6-.2z"/></g><g><path class="st3" d="M997.5 920.2c.1-1.1.6-.2.6-.2.2.1.5-.5.5-.5h.7v1.4h-.7s-.3-.5-.5-.5c0 .1-.5 1-.6-.2zM997.5 922.1c.1-1.1.6-.2.6-.2.2.1.5-.5.5-.5h.7v1.4h-.7s-.3-.5-.5-.5c0 .1-.5 1-.6-.2z"/><path class="st3" d="M998.4 921.1c-.1-1.1-.6-.2-.6-.2-.2.1-.5-.5-.5-.5h-.7v1.4h.7s.3-.5.5-.5c0 .1.5 1 .6-.2z"/></g><g><path class="st3" d="M997.5 922.2c.1-1.1.6-.2.6-.2.2.1.5-.5.5-.5h.7v1.4h-.7s-.3-.5-.5-.5c0 .1-.5.9-.6-.2zM997.5 924.1c.1-1.1.6-.2.6-.2.2.1.5-.5.5-.5h.7v1.4h-.7s-.3-.5-.5-.5c0 0-.5.9-.6-.2z"/><path class="st3" d="M998.4 923.1c-.1-1.1-.6-.2-.6-.2-.2.1-.5-.5-.5-.5h-.7v1.4h.7s.3-.5.5-.5c0 .1.5 1 .6-.2z"/></g><g><path class="st3" d="M997.5 924.1c.1-1.1.6-.2.6-.2.2.1.5-.5.5-.5h.7v1.4h-.7s-.3-.5-.5-.5c0 .1-.5 1-.6-.2zM997.6 926c.1-1.1.6-.2.6-.2.2.1.5-.5.5-.5h.7v1.4h-.7s-.3-.5-.5-.5c-.1.1-.6 1-.6-.2z"/><path class="st3" d="M998.4 925.1c-.1-1.1-.6-.2-.6-.2-.2.1-.5-.5-.5-.5h-.7v1.4h.7s.3-.5.5-.5c0 .1.5.9.6-.2z"/></g><g><path class="st3" d="M997.6 926.1c.1-1.1.6-.2.6-.2.2.1.5-.5.5-.5h.7v1.4h-.7s-.3-.5-.5-.5c-.1.1-.6 1-.6-.2zM997.6 928c.1-1.1.6-.2.6-.2.2.1.5-.5.5-.5h.7v1.4h-.7s-.3-.5-.5-.5c-.1.1-.6 1-.6-.2z"/><path class="st3" d="M998.4 927c-.1-1.1-.6-.2-.6-.2-.2.1-.5-.5-.5-.5h-.7v1.4h.7s.3-.5.5-.5c0 .1.5 1 .6-.2z"/></g><g><path class="st3" d="M997.6 928.1c.1-1.1.6-.2.6-.2.2.1.5-.5.5-.5h.7v1.4h-.7s-.3-.5-.5-.5c-.1.1-.6.9-.6-.2zM997.6 930c.1-1.1.6-.2.6-.2.2.1.5-.5.5-.5h.7v1.4h-.7s-.3-.5-.5-.5c0 0-.5.9-.6-.2z"/><path class="st3" d="M998.4 929c-.1-1.1-.6-.2-.6-.2-.2.1-.5-.5-.5-.5h-.7v1.4h.7s.3-.5.5-.5c0 .1.6 1 .6-.2z"/></g><g><path class="st3" d="M997.6 930c.1-1.1.6-.2.6-.2.2.1.5-.5.5-.5h.7v1.4h-.7s-.3-.5-.5-.5c0 .1-.5 1-.6-.2zM997.6 931.9c.1-1.1.6-.2.6-.2.2.1.5-.5.5-.5h.7v1.4h-.7s-.3-.5-.5-.5c0 .1-.5 1-.6-.2z"/><path class="st3" d="M998.4 931c-.1-1.1-.6-.2-.6-.2-.2.1-.5-.5-.5-.5h-.7v1.4h.7s.3-.5.5-.5c.1.1.6.9.6-.2z"/></g><g><path class="st3" d="M997.6 932c.1-1.1.6-.2.6-.2.2.1.5-.5.5-.5h.7v1.4h-.7s-.3-.5-.5-.5c0 .1-.5 1-.6-.2zM997.6 933.9c.1-1.1.6-.2.6-.2.2.1.5-.5.5-.5h.7v1.4h-.7s-.3-.5-.5-.5c0 .1-.5 1-.6-.2z"/><path class="st3" d="M998.4 932.9c-.1-1.1-.6-.2-.6-.2-.2.1-.5-.5-.5-.5h-.7v1.4h.7s.3-.5.5-.5c.1.1.6 1 .6-.2z"/></g><g><path class="st3" d="M997.6 934c.1-1.1.6-.2.6-.2.2.1.5-.5.5-.5h.7v1.4h-.7s-.3-.5-.5-.5c0 .1-.5.9-.6-.2zM997.6 935.9c.1-1.1.6-.2.6-.2.2.1.5-.5.5-.5h.7v1.4h-.7s-.3-.5-.5-.5c0 0-.5.9-.6-.2z"/><path class="st3" d="M998.5 934.9c-.1-1.1-.6-.2-.6-.2-.2.1-.5-.5-.5-.5h-.7v1.4h.7s.3-.5.5-.5c0 .1.5 1 .6-.2z"/></g><g><path class="st3" d="M997.6 935.9c.1-1.1.6-.2.6-.2.2.1.5-.5.5-.5h.7v1.4h-.7s-.3-.5-.5-.5c0 .1-.5 1-.6-.2zM997.6 937.8c.1-1.1.6-.2.6-.2.2.1.5-.5.5-.5h.7v1.4h-.7s-.3-.5-.5-.5c0 .1-.5 1-.6-.2z"/><path class="st3" d="M998.5 936.9c-.1-1.1-.6-.2-.6-.2-.2.1-.5-.5-.5-.5h-.7v1.4h.7s.3-.5.5-.5c0 .1.5.9.6-.2z"/></g><g><path class="st3" d="M997.6 937.9c.1-1.1.6-.2.6-.2.2.1.5-.5.5-.5h.7v1.4h-.7s-.3-.5-.5-.5c0 .1-.5 1-.6-.2zM997.6 939.8c.1-1.1.6-.2.6-.2.2.1.5-.5.5-.5h.7v1.4h-.7s-.3-.5-.5-.5c0 .1-.5 1-.6-.2z"/><path class="st3" d="M998.5 938.8c-.1-1.1-.6-.2-.6-.2-.2.1-.5-.5-.5-.5h-.7v1.4h.7s.3-.5.5-.5c0 .1.5 1 .6-.2z"/></g><g><path class="st3" d="M997.6 939.9c.1-1.1.6-.2.6-.2.2.1.5-.5.5-.5h.7v1.4h-.7s-.3-.5-.5-.5c0 .1-.5.9-.6-.2zM997.7 941.8c.1-1.1.6-.2.6-.2.2.1.5-.5.5-.5h.7v1.4h-.7s-.3-.5-.5-.5c-.1 0-.6.9-.6-.2z"/><path class="st3" d="M998.5 940.8c-.1-1.1-.6-.2-.6-.2-.2.1-.5-.5-.5-.5h-.7v1.4h.7s.3-.5.5-.5c0 .1.5 1 .6-.2z"/></g><g><path class="st3" d="M997.7 941.8c.1-1.1.6-.2.6-.2.2.1.5-.5.5-.5h.7v1.4h-.7s-.3-.5-.5-.5c-.1.1-.6 1-.6-.2zM997.7 943.7c.1-1.1.6-.2.6-.2.2.1.5-.5.5-.5h.7v1.4h-.7s-.3-.5-.5-.5c-.1.1-.6 1-.6-.2z"/><path class="st3" d="M998.5 942.8c-.1-1.1-.6-.2-.6-.2-.2.1-.5-.5-.5-.5h-.7v1.4h.7s.3-.5.5-.5c0 .1.5.9.6-.2z"/></g><g><path class="st3" d="M997.7 943.8c.1-1.1.6-.2.6-.2.2.1.5-.5.5-.5h.7v1.4h-.7s-.3-.5-.5-.5c-.1.1-.6 1-.6-.2zM997.7 945.7c.1-1.1.6-.2.6-.2.2.1.5-.5.5-.5h.7v1.4h-.7s-.3-.5-.5-.5c0 .1-.5 1-.6-.2z"/><path class="st3" d="M998.5 944.7c-.1-1.1-.6-.2-.6-.2-.2.1-.5-.5-.5-.5h-.7v1.4h.7s.3-.5.5-.5c0 .1.5 1 .6-.2z"/></g><g><path class="st3" d="M997.7 945.8c.1-1.1.6-.2.6-.2.2.1.5-.5.5-.5h.7v1.4h-.7s-.3-.5-.5-.5c0 .1-.5.9-.6-.2zM997.7 947.7c.1-1.1.6-.2.6-.2.2.1.5-.5.5-.5h.7v1.4h-.7s-.3-.5-.5-.5c0 0-.5.9-.6-.2z"/><path class="st3" d="M998.5 946.7c-.1-1.1-.6-.2-.6-.2-.2.1-.5-.5-.5-.5h-.7v1.4h.7s.3-.5.5-.5c0 .1.6 1 .6-.2z"/></g><g><path class="st3" d="M997.7 947.7c.1-1.1.6-.2.6-.2.2.1.5-.5.5-.5h.7v1.4h-.7s-.3-.5-.5-.5c0 .1-.5 1-.6-.2zM997.7 949.6c.1-1.1.6-.2.6-.2.2.1.5-.5.5-.5h.7v1.4h-.7s-.3-.5-.5-.5c0 .1-.5 1-.6-.2z"/><path class="st3" d="M998.5 948.7c-.1-1.1-.6-.2-.6-.2-.2.1-.5-.5-.5-.5h-.7v1.4h.7s.3-.5.5-.5c.1.1.6.9.6-.2z"/></g><g><path class="st3" d="M997.7 949.7c.1-1.1.6-.2.6-.2.2.1.5-.5.5-.5h.7v1.4h-.7s-.3-.5-.5-.5c0 .1-.5 1-.6-.2zM997.7 951.6c.1-1.1.6-.2.6-.2.2.1.5-.5.5-.5h.7v1.4h-.7s-.3-.5-.5-.5c0 .1-.5 1-.6-.2z"/><path class="st3" d="M998.5 950.6c-.1-1.1-.6-.2-.6-.2-.2.1-.5-.5-.5-.5h-.7v1.4h.7s.3-.5.5-.5c.1.1.6 1 .6-.2z"/></g><g><path class="st3" d="M997.7 951.7c.1-1.1.6-.2.6-.2.2.1.5-.5.5-.5h.7v1.4h-.7s-.3-.5-.5-.5c0 .1-.5.9-.6-.2zM997.7 953.6c.1-1.1.6-.2.6-.2.2.1.5-.5.5-.5h.7v1.4h-.7s-.3-.5-.5-.5c0 0-.5.9-.6-.2z"/><path class="st3" d="M998.6 952.6c-.1-1.1-.6-.2-.6-.2-.2.1-.5-.5-.5-.5h-.7v1.4h.7s.3-.5.5-.5c0 .1.5 1 .6-.2z"/></g><g><path class="st3" d="M997.7 953.6c.1-1.1.6-.2.6-.2.2.1.5-.5.5-.5h.7v1.4h-.7s-.3-.5-.5-.5c0 .1-.5 1-.6-.2zM997.7 955.5c.1-1.1.6-.2.6-.2.2.1.5-.5.5-.5h.7v1.4h-.7s-.3-.5-.5-.5c0 .1-.5 1-.6-.2z"/><path class="st3" d="M998.6 954.6c-.1-1.1-.6-.2-.6-.2-.2.1-.5-.5-.5-.5h-.7v1.4h.7s.3-.5.5-.5c0 .1.5.9.6-.2z"/></g><g><path class="st3" d="M997.7 955.6c.1-1.1.6-.2.6-.2.2.1.5-.5.5-.5h.7v1.4h-.7s-.3-.5-.5-.5c0 .1-.5 1-.6-.2zM997.7 957.5c.1-1.1.6-.2.6-.2.2.1.5-.5.5-.5h.7v1.4h-.7s-.3-.5-.5-.5c0 .1-.5 1-.6-.2z"/><path class="st3" d="M998.6 956.5c-.1-1.1-.6-.2-.6-.2-.2.1-.5-.5-.5-.5h-.7v1.4h.7s.3-.5.5-.5c0 .1.5 1 .6-.2z"/></g><g><path class="st3" d="M997.7 957.6c.1-1.1.6-.2.6-.2.2.1.5-.5.5-.5h.7v1.4h-.7s-.3-.5-.5-.5c0 .1-.5.9-.6-.2zM997.8 959.5c.1-1.1.6-.2.6-.2.2.1.5-.5.5-.5h.7v1.4h-.7s-.3-.5-.5-.5c-.1 0-.6.9-.6-.2z"/><path class="st3" d="M998.6 958.5c-.1-1.1-.6-.2-.6-.2-.2.1-.5-.5-.5-.5h-.7v1.4h.7s.3-.5.5-.5c0 .1.5 1 .6-.2z"/></g><g><path class="st3" d="M997.8 959.5c.1-1.1.6-.2.6-.2.2.1.5-.5.5-.5h.7v1.4h-.7s-.3-.5-.5-.5c-.1.1-.6 1-.6-.2zM997.8 961.4c.1-1.1.6-.2.6-.2.2.1.5-.5.5-.5h.7v1.4h-.7s-.3-.5-.5-.5c-.1.1-.6 1-.6-.2z"/><path class="st3" d="M998.6 960.5c-.1-1.1-.6-.2-.6-.2-.2.1-.5-.5-.5-.5h-.7v1.4h.7s.3-.5.5-.5c0 .1.5.9.6-.2z"/></g><g><path class="st3" d="M997.8 961.5c.1-1.1.6-.2.6-.2.2.1.5-.5.5-.5h.7v1.4h-.7s-.3-.5-.5-.5c-.1.1-.6 1-.6-.2zM997.8 963.4c.1-1.1.6-.2.6-.2.2.1.5-.5.5-.5h.7v1.4h-.7s-.3-.5-.5-.5c0 .1-.5 1-.6-.2z"/><path class="st3" d="M998.6 962.4c-.1-1.1-.6-.2-.6-.2-.2.1-.5-.5-.5-.5h-.7v1.4h.7s.3-.5.5-.5c0 .1.6 1 .6-.2z"/></g><g><path class="st3" d="M997.8 963.5c.1-1.1.6-.2.6-.2.2.1.5-.5.5-.5h.7v1.4h-.7s-.3-.5-.5-.5c0 .1-.5.9-.6-.2zM997.8 965.4c.1-1.1.6-.2.6-.2.2.1.5-.5.5-.5h.7v1.4h-.7s-.3-.5-.5-.5c0 0-.5.9-.6-.2z"/><path class="st3" d="M998.6 964.4c-.1-1.1-.6-.2-.6-.2-.2.1-.5-.5-.5-.5h-.7v1.4h.7s.3-.5.5-.5c.1.1.6 1 .6-.2z"/></g><g><path class="st3" d="M997.8 965.4c.1-1.1.6-.2.6-.2.2.1.5-.5.5-.5h.7v1.4h-.7s-.3-.5-.5-.5c0 .1-.5 1-.6-.2zM997.8 967.3c.1-1.1.6-.2.6-.2.2.1.5-.5.5-.5h.7v1.4h-.7s-.3-.5-.5-.5c0 .1-.5 1-.6-.2z"/><path class="st3" d="M998.6 966.4c-.1-1.1-.6-.2-.6-.2-.2.1-.5-.5-.5-.5h-.7v1.4h.7s.3-.5.5-.5c.1.1.6.9.6-.2z"/></g><g><path class="st3" d="M997.8 967.4c.1-1.1.6-.2.6-.2.2.1.5-.5.5-.5h.7v1.4h-.7s-.3-.5-.5-.5c0 .1-.5 1-.6-.2zM997.8 969.3c.1-1.1.6-.2.6-.2.2.1.5-.5.5-.5h.7v1.4h-.7s-.3-.5-.5-.5c0 .1-.5 1-.6-.2z"/><path class="st3" d="M998.7 968.3c-.1-1.1-.6-.2-.6-.2-.2.1-.5-.5-.5-.5h-.7v1.4h.7s.3-.5.5-.5c0 .1.5 1 .6-.2z"/></g><g><path class="st3" d="M997.8 969.4c.1-1.1.6-.2.6-.2.2.1.5-.5.5-.5h.7v1.4h-.7s-.3-.5-.5-.5c0 .1-.5.9-.6-.2zM997.8 971.3c.1-1.1.6-.2.6-.2.2.1.5-.5.5-.5h.7v1.4h-.7s-.3-.5-.5-.5c0 0-.5.9-.6-.2z"/><path class="st3" d="M998.7 970.3c-.1-1.1-.6-.2-.6-.2-.2.1-.5-.5-.5-.5h-.7v1.4h.7s.3-.5.5-.5c0 .1.5 1 .6-.2z"/></g><g><path class="st3" d="M997.8 971.3c.1-1.1.6-.2.6-.2.2.1.5-.5.5-.5h.7v1.4h-.7s-.3-.5-.5-.5c0 .1-.5 1-.6-.2zM997.8 973.2c.1-1.1.6-.2.6-.2.2.1.5-.5.5-.5h.7v1.4h-.7s-.3-.5-.5-.5c0 .1-.5 1-.6-.2z"/><path class="st3" d="M998.7 972.3c-.1-1.1-.6-.2-.6-.2-.2.1-.5-.5-.5-.5h-.7v1.4h.7s.3-.5.5-.5c0 .1.5.9.6-.2z"/></g><g><path class="st3" d="M997.8 973.3c.1-1.1.6-.2.6-.2.2.1.5-.5.5-.5h.7v1.4h-.7s-.3-.5-.5-.5c0 .1-.5 1-.6-.2zM997.9 975.2c.1-1.1.6-.2.6-.2.2.1.5-.5.5-.5h.7v1.4h-.7s-.3-.5-.5-.5c-.1.1-.6 1-.6-.2z"/><path class="st3" d="M998.7 974.2c-.1-1.1-.6-.2-.6-.2-.2.1-.5-.5-.5-.5h-.7v1.4h.7s.3-.5.5-.5c0 .1.5 1 .6-.2z"/></g><g><path class="st3" d="M997.9 975.3c.1-1.1.6-.2.6-.2.2.1.5-.5.5-.5h.7v1.4h-.7s-.3-.5-.5-.5c-.1.1-.6.9-.6-.2zM997.9 977.2c.1-1.1.6-.2.6-.2.2.1.5-.5.5-.5h.7v1.4h-.7s-.3-.5-.5-.5c-.1 0-.6.9-.6-.2z"/><path class="st3" d="M998.7 976.2c-.1-1.1-.6-.2-.6-.2-.2.1-.5-.5-.5-.5h-.7v1.4h.7s.3-.5.5-.5c0 .1.5 1 .6-.2z"/></g><path class="st0" d="M1121.6 1053.7H872.7c-26.4 0-48-21.6-48-48v-32h344.9v32c0 26.4-21.6 48-48 48zM846.4 467l-172.7 43.2s-39 34-84.3 112.4c-24 41.4-224.2 396.4-340 623.7-15.9 31.3-24.5 59.9-29.3 80.4-3.3 14.2-6.7 41-6.7 41l120 73.1s41.4-27.3 54.7-45.9c6.7-9.4 20.3-26.4 26-35.8 73.1-121.5 226.6-376.5 243.1-403.9l.2 3.1s.3-1.7.9-4.9c.2-.4.4-.6.4-.6s19.6-88.3 32.4-169.8c11.8-56 24.6-110.2 34.6-136.5C747.5 589.9 846.4 467 846.4 467z"/><path class="st4" d="M246.2 1359.4c-12.3 14.7-8.9 22.8-8.9 22.8s-2.1-16.3 6.7-41M292.1 1373.3l-18.1 31.3M333.4 1414.6c-12.2 8.1-29.7 8.1-29.7 8.1s19.3-5.3 27.5-18.1"/><path class="st5" d="M274 1382.3v23.6l29.7-17"/><path class="st0" d="M321.4 1449.7l-114.5-67.4 6.6-14.6 119.9 73.1z"/><g><path class="st0" d="M1153.6 467l172.7 43.2s39 34 84.3 112.4c24 41.4 224.2 396.4 340 623.7 15.9 31.3 24.5 59.9 29.3 80.4 3.3 14.2 6.7 41 6.7 41l-120 73.1s-41.4-27.3-54.7-45.9c-6.7-9.4-20.3-26.4-26-35.8-73.1-121.5-250.8-404.6-250.8-404.6s-13.4-90-26.2-171.6c-11.8-56-24.6-110.2-34.6-136.5-21.8-56.5-120.7-179.4-120.7-179.4z"/><path class="st4" d="M1753.8 1359.4c12.3 14.7 8.9 22.8 8.9 22.8s2.1-16.3-6.7-41M1707.9 1373.3l18.1 31.3M1666.6 1414.6c12.2 8.1 29.7 8.1 29.7 8.1s-19.3-5.3-27.5-18.1"/><path class="st5" d="M1726 1382.3v23.6l-29.7-17"/><path class="st0" d="M1678.6 1449.7l114.5-67.4-6.6-14.6-119.9 73.1z"/></g></svg>