<svg xmlns="http://www.w3.org/2000/svg" viewBox="0 0 488.8 488.8" width="512" height="512"><path d="M373.4 133.65H46.1c-25.4 0-46.1 20.7-46.1 46.1v199.4c0 25.4 20.7 46.1 46.1 46.1h327.3c25.4 0 46.1-20.7 46.1-46.1v-199.4c0-25.4-20.7-46.1-46.1-46.1zm10.1 245.6c0 5.5-4.5 10.1-10.1 10.1H46.1c-5.6 0-10.1-4.5-10.1-10.1v-145.7h347.5v145.7zm0-181.7H36v-17.8c0-5.6 4.5-10.1 10.1-10.1h327.3c5.6 0 10.1 4.5 10.1 10.1v17.8z" fill="#959595"/><path d="M442.7 63.55H115.4c-9.9 0-18 8.1-18 18s8.1 18 18 18h327.3c5.6 0 10.1 4.5 10.1 10.1v56.2c0 9.9 8.1 18 18 18s18-8.1 18-18v-56.2c0-25.4-20.7-46.1-46.1-46.1zM231.3 265.95h-24.6c-9.9 0-18 8.1-18 18s8.1 18 18 18h24.6c9.9 0 18-8.1 18-18s-8-18-18-18zM148.9 265.95h-67c-9.9 0-18 8.1-18 18s8.1 18 18 18h67c9.9 0 18-8.1 18-18s-8.1-18-18-18zM121.1 325.45H82.5c-9.9 0-18 8.1-18 18s8.1 18 18 18h38.6c9.9 0 18-8.1 18-18s-8.1-18-18-18z" fill="#959595"/></svg>