<svg id="Camada_1" xmlns="http://www.w3.org/2000/svg" viewBox="0 0 2000 2000"><style>.st0,.st1{fill:#fff;stroke:#1e1e1c;stroke-width:.5;stroke-linecap:round;stroke-linejoin:round;stroke-miterlimit:10}.st1{stroke-width:.25;stroke-dasharray:2}</style><path class="st0" d="M1138.1 721.1l-137.3-15.6-131.9 22.3 132.6 154.5z"/><path class="st0" d="M885.1 705.5s50.3-13.1 115.7-13.1c47.5 0 117 16.1 117 16.1l11.5 31.5s-72.8-23.8-127.8-23.8c-68.9 0-126.1 23.8-126.1 23.8l9.7-34.5z"/><path class="st0" d="M1298.1 934.9c0-88 28-172 28-172l-186-47.8s-6.3 33.6-42.9 63.6c-20.2 16.6-46.2 24.2-65.9 27.7h-30.5s-57.7 0-95.1-30.7c-36.6-30.1-42.9-63.6-42.9-63.6l-186 47.8s28 84 28 172c0 62-36 148-36 148v226.7l665.3 3v-226.7s-36-85.9-36-148z"/><path class="st0" d="M1591 915.8s-188.2-109.5-236.2-140.2c-9.3-6-28.7-12.6-28.7-12.6s-28.6 96.6-28 172c.6 79.9 36 148 36 148l128 65.3L1591 915.8zM1117.8 708.6s-15 38-41 54.4c-21 13.3-41.7 18.6-60.7 20.6-3.8-.1-8.7.7-15.3 0-19.5-2.1-47.6-6.6-74.7-23.6-26-16.4-41-54.4-41-54.4l-22.3 6.6s10.3 37.4 42.9 63.6c19.5 15.7 48.2 28 95.1 30.7 13.6.8 24 0 24 0 33.7-5.6 56.3-14.7 72.4-27.7 32.6-26.3 42.9-63.6 42.9-63.6l-22.3-6.6z"/><path class="st1" d="M1572 900.6l-129.6 233.6"/><path class="st0" d="M413.3 911.8s188.2-109.5 236.2-140.2c9.3-6 28.7-12.6 28.7-12.6s28.6 96.6 28 172c-.6 79.9-36 148-36 148l-128 65.3-128.9-232.5z"/><path class="st1" d="M433.3 898.6l129.6 233.6M1334.1 1285.6H668.8"/></svg>