<svg xmlns="http://www.w3.org/2000/svg" viewBox="0 0 2000 2000"><style>.st0{fill:#fff}.st0,.st1,.st2,.st3{stroke:#1d1d1b;stroke-width:.5;stroke-linecap:round;stroke-linejoin:round;stroke-miterlimit:10}.st2,.st3{fill:none;stroke-width:.25;stroke-dasharray:1}.st3{fill:#fff}</style><g id="Camada_1"><path class="st0" d="M1109.9 442.6s-84.5-17.8-112.3-17.9c-28.5-.1-107.1 17.9-107.1 17.9l47.6 140.1 101.4 8 90.1-116.7-19.7-31.4z"/><path class="st0" d="M999.1 579.3s61.4.3 94.4-20.4c42-26.3 39.1-80.2 39.1-80.2l198.6 50s-26.4 147.3-26.8 197c-1.2 134.6 59.2 274.5 59.2 274.5s7.8 196.1 8 261.5c.2 78.4-8 313.6-8 313.6h-359.2l-5.3-996z"/><path class="st0" d="M999.5 579.3s-61.4.3-94.4-20.4c-42-26.3-39.1-80.2-39.1-80.2l-198.6 50s26.4 147.3 26.8 197c1.2 134.6-59.2 274.5-59.2 274.5s-7.8 196.1-8 261.5c-.2 78.4 8 313.6 8 313.6h359.2l5.3-996zM1331.1 528.7s40.5 40.3 57.7 68.3c87.8 142.4 219.1 380.7 302.3 534.8 53.6 99.3 90.8 227.9 90.8 227.9l-137.5 85.6-93.3-133.6-181.3-301.2s-53.9-110.8-66.8-240.8c-5.9-60.4 28.1-241 28.1-241zM1644.4 1445.3l29.5 41.1 129.3-79-21.3-47.7zM1303.9 739.7H998.6M1200.4 1515.3l19.5-775.6M1103.5 739.7l26.2 775.6M1076 808.5l87.5 10.6 87.6-10.6v-68.8H1076zM1355.5 1515.7H994.2"/><circle class="st0" cx="1163.5" cy="791.3" r="14.6"/><circle class="st1" cx="1163.5" cy="791.3" r="4.4"/><path class="st2" d="M1077.1 913.7l90.9 12 83.1-12v-174h-174z"/><path class="st0" d="M668.9 528.8s-40.5 40.3-57.7 68.3c-87.8 142.4-219.1 380.7-302.3 534.8-53.6 99.3-90.8 227.9-90.8 227.9l137.5 85.6 93.3-133.6 181.3-301.2s53.9-110.8 66.8-240.8c5.9-60.4-28.1-241-28.1-241z"/><path class="st0" d="M355.6 1445.4l-29.5 41-129.3-78.9 21.3-47.7zM696.1 739.8h297.3M799.6 1515.4l-19.5-775.6M896.5 739.8l-26.2 775.5M924 808.6l-87.5 10.6-87.6-10.6v-68.8H924zM636.5 1515.8h361.3"/><circle class="st0" cx="836.5" cy="791.4" r="14.6"/><circle class="st1" cx="836.5" cy="791.4" r="4.4"/><path class="st2" d="M922.9 913.8l-90.9 12-83.1-12v-174h174z"/><path class="st0" d="M1026.1 1575.3v-60M974.5 1515.3h390v60h-390z"/><path class="st0" d="M973.6 581.8h56v933.9h-56z"/><circle class="st0" cx="1001.6" cy="621.4" r="14.6"/><circle class="st1" cx="1001.6" cy="621.4" r="4.4"/><circle class="st0" cx="1001.6" cy="1545.3" r="14.6"/><circle class="st1" cx="1001.6" cy="1545.3" r="4.4"/><circle class="st0" cx="1001.6" cy="806.2" r="14.6"/><circle class="st1" cx="1001.6" cy="806.2" r="4.4"/><circle class="st0" cx="1001.6" cy="991" r="14.6"/><circle class="st1" cx="1001.6" cy="991" r="4.4"/><circle class="st0" cx="997.6" cy="1175.7" r="14.6"/><circle class="st1" cx="997.6" cy="1175.7" r="4.4"/><circle class="st0" cx="1001.6" cy="1360.5" r="14.6"/><circle class="st1" cx="1001.6" cy="1360.5" r="4.4"/><path class="st0" d="M999.9 579.6l49.5 70.2s50.9-58.2 70.7-94.7c19-35 34.8-70.7 34.8-70.7l-45-42.7s-25.6 42.4-38.4 61.9c-28.4 43.2-64.9 79.7-71.6 76z"/><path class="st0" d="M1000.5 579.6L951 649.8s-50.9-58.2-70.7-94.7c-19-35-34.8-70.7-34.8-70.7l45-42.7s25.6 42.4 38.4 61.9c28.4 43.2 64.9 79.7 71.6 76z"/><path class="st3" d="M785.7 813l18.4 702.3M794.9 814.1l17.2 701.2M891.2 813l-24.4 702.3M883.4 814.1l-25.3 701.2M1215.2 813l-18.4 702.3M1206 814.1l-17.2 701.2M1109.7 813l24.5 702.3M1117.5 814.1l25.3 701.2M697.6 735.8h276M697.6 727.8h276M1029.6 735.8h276M1029.6 727.8h276M975.5 1518.5h388M974.5 1526.4h388M632.4 1520.7h342.1M631.5 1528.6h342.2M352.5 1449.8l-134.4-84M212.4 1372.5l134.8 84.6M1647.4 1449.5l134.5-84.5M1787.1 1371.3l-135.5 84.1"/><path class="st0" d="M646.1 1215.8h24v207.3h-24zM1329 1215.8h24v207.3h-24z"/><path class="st2" d="M1151.9 484s-29.3 61.8-41.5 81c-13.8 21.8-63.1 81.8-63.1 81.8"/><path class="st2" d="M1149 478.7s-30.8 63.9-43.5 83.8c-13.6 21.1-61.9 79-61.9 79M1006.1 581.8l45.9 65M1010.1 577l46.4 64.5M847.7 484s29.3 61.8 41.5 81c13.8 21.8 63.1 81.8 63.1 81.8"/><path class="st2" d="M850.7 478.7s30.8 63.9 43.5 83.8c13.6 21.1 61.9 79 61.9 79M993.6 581.8l-46 65M989.6 577l-46.5 64.5"/></g></svg>