<svg id="Camada_1" xmlns="http://www.w3.org/2000/svg" viewBox="0 0 828 422" style="margin-left:0;width:110px;height:60px"><style>.st00{fill:#8628b9}.st01{fill:#752994}.st02{fill:#ffd000}.st03{fill:#fbb400}.st04{fill:#fff}.st05{fill:#4a1473}.st06{stroke-width:.5}.st06,.st07{fill:#4a1473;stroke:#4a1473;stroke-miterlimit:10}</style><path class="st00" d="M349.2 207.9c0 5.9-.4 11.8-1.1 17.5-8.4 63.1-62.4 111.8-127.8 111.9-71.4.3-129.3-57.5-129.5-128.8 0-2.9.1-5.7.3-8.6C95.3 132.5 151.2 79.2 219.7 79c71.4-.1 129.3 57.6 129.5 128.9z"/><path class="st01" d="M222.2 206.4l-.3-126 .2-1.4h-2.4c-68.5.1-124.4 53.5-128.7 120.9-.2 2.8-.3 5.7-.3 8.6 0 5.8.4 11.5 1.2 17.1l130.3-19.2z"/><path class="st02" d="M312.6 209.7c.1 52.5-42.4 95.2-95 95.3s-95.2-42.4-95.4-94.9 45.2-93.1 95-95.3c52.5-2.4 95.2 42.3 95.4 94.9z"/><path class="st03" d="M186.9 178.5l78 22.8 46-8.9c-8.2-44.7-47.1-79.7-93.8-77.6-23.7 1-46.4 10.8-63.6 26.4l33.4 37.3z"/><circle class="st04" cx="217.4" cy="209.9" r="50"/><path transform="rotate(80.096 238.558 206.013)" class="st5" d="M236.5 132.4h4.2v147.3h-4.2z"/><path class="st05" d="M265.2 213.2c-1.3 19.3-14.3 36.6-33.9 42.6-25.3 7.7-52.1-6.6-59.8-31.9s6.6-52.1 31.9-59.8c24.7-7.5 50.9 6 59.3 30.2l4-1.3c-9-26.4-37.5-41.1-64.5-33-27.5 8.4-43.1 37.5-34.7 65 8.4 27.5 37.5 43 65 34.7 21.8-6.6 36.1-26.3 36.9-47.9l-4.2 1.4z"/><path class="st04" d="M291.2 145.1c-30.4-34.9-80.3-42.9-119.5-21.9l3.3 3c37.2-19.1 84.4-11.3 113.1 21.6 33.7 38.8 29.6 97.7-9.2 131.4s-97.7 29.6-131.4-9.2c-28-32.2-29.9-78.2-7.5-112.2l-3.2-2.7c-23.6 35.6-21.7 83.9 7.6 117.7 35.2 40.5 96.8 44.8 137.3 9.6s44.7-96.8 9.5-137.3z"/><path class="st06" d="M440.1 245.6c.8-.8 1.6-.8 2.4-.1.8.8.8 1.6.1 2.4-2.3 2.1-4.9 3.8-8 5.1-3.1 1.3-6.3 2-9.7 2-3.6 0-6.9-.7-10-2-3.1-1.3-5.9-3.2-8.2-5.5-2.3-2.3-4.2-5.1-5.6-8.2-1.4-3.1-2-6.5-2-10s.7-6.9 2-10.1c1.3-3.2 3.2-5.9 5.5-8.3 2.3-2.3 5.1-4.2 8.2-5.6 3.1-1.4 6.5-2 10-2s6.8.7 9.9 2c3.1 1.3 5.9 3.2 8.2 5.5 2.3 2.3 4.2 5 5.6 8.1 1.4 3.1 2.1 6.4 2.2 9.9V229.1c-.1 1.1-.7 1.6-1.7 1.6l-46.5.1c.2 2.9 1 5.6 2.2 8.1 1.2 2.5 2.9 4.7 4.9 6.5 2 1.8 4.4 3.3 7 4.4 2.6 1.1 5.4 1.6 8.3 1.6 3 0 5.8-.5 8.3-1.6 2.6-.9 4.9-2.3 6.9-4.2zm-15.3-38.8c-2.9 0-5.7.6-8.3 1.7-2.6 1.1-4.9 2.6-6.9 4.4-2 1.9-3.6 4-4.9 6.6-1.3 2.5-2 5.2-2.2 8l44.7-.1c-.2-2.8-1-5.5-2.3-8-1.3-2.5-2.9-4.7-5-6.5-2-1.8-4.3-3.3-6.9-4.4-2.5-1.2-5.3-1.7-8.2-1.7z"/><path class="st07" d="M532 184.6c-3.4-2.9-7.4-5.6-11.9-7.9-4.6-2.4-9.4-3.5-14.6-3.5-5 0-9.8 1-14.2 2.9-4.4 1.9-8.3 4.5-11.6 7.8-3.3 3.3-5.8 7.2-7.7 11.7-1.9 4.5-2.8 9.2-2.8 14.2s1 9.7 2.9 14.2c1.9 4.4 4.5 8.3 7.8 11.6s7.1 5.8 11.6 7.7c4.5 1.9 9.2 2.8 14.2 2.8 5.3 0 10.2-1 14.8-3.1 4.6-2 8.5-4.9 11.8-8.5.5-.6 1.1-1 1.8-1.3.7-.3 1.4-.4 2.2-.4 1.2 0 2.2.4 2.8 1.3.6.8.9 1.8.9 2.8 0 1.5-.4 2.7-1.3 3.6-4.2 4.6-9.1 8.1-14.7 10.6-5.7 2.5-11.8 3.8-18.3 3.8-6.2 0-12.1-1.2-17.6-3.5-5.5-2.4-10.3-5.6-14.4-9.6-4.1-4.1-7.3-8.8-9.7-14.3-2.4-5.5-3.6-11.4-3.6-17.6 0-6.2 1.2-12.1 3.5-17.6 2.4-5.5 5.6-10.3 9.6-14.4 4.1-4.1 8.8-7.4 14.3-9.8 5.5-2.4 11.4-3.6 17.6-3.6 6.3 0 12.3 1.2 17.8 3.7s10.4 5.8 14.6 10.1c.5.5.9 1.1 1.3 1.8.4.8.6 1.5.6 2.3 0 1.2-.4 2.2-1.3 2.8-.9.7-1.8 1-3 1-1.4-.2-2.5-.6-3.4-1.6zM579 186c4.5 0 8.9.9 13 2.7 4.1 1.8 7.7 4.3 10.9 7.4 3.1 3.1 5.6 6.8 7.5 10.9 1.9 4.2 2.8 8.6 2.8 13.3 0 4.6-.9 9-2.7 13.1-1.8 4.1-4.2 7.7-7.3 10.9-3.1 3.1-6.7 5.6-10.8 7.4-4.2 1.8-8.7 2.7-13.5 2.7-4.7 0-9.2-.8-13.3-2.5-4.1-1.7-7.7-4.1-10.9-7.1-3.1-3-5.6-6.6-7.4-10.8-1.8-4.2-2.7-8.7-2.7-13.6 0-4.7.9-9.2 2.6-13.3 1.7-4.1 4.1-7.7 7.2-10.8s6.7-5.6 10.9-7.4c4.3-1.7 8.8-2.7 13.7-2.9zm-.2 8.9c-3.5 0-6.8.7-9.9 2-3.1 1.3-5.8 3.2-8.1 5.5s-4.1 5-5.5 8.2c-1.3 3.1-2 6.4-2 9.9s.7 6.8 2 9.9c1.3 3.1 3.2 5.8 5.5 8.1s5 4.1 8.1 5.5c3.1 1.3 6.4 2 9.9 2s6.8-.7 9.9-2c3.1-1.3 5.8-3.2 8.2-5.5 2.3-2.3 4.1-5 5.5-8.1 1.3-3.1 2-6.4 2-9.9s-.7-6.8-2-9.9c-1.3-3.1-3.2-5.8-5.5-8.2-2.3-2.3-5-4.1-8.2-5.5-3.1-1.3-6.4-2-9.9-2zM623.6 190c0-1.2.4-2.3 1.3-3.1.8-.9 1.9-1.3 3.1-1.3 1.2 0 2.3.4 3.1 1.3.9.9 1.3 1.9 1.3 3.1v7c3-3.3 6.7-6 10.9-8.2 4.3-2.1 8.9-3.2 13.9-3.2 1.5 0 2.7.4 3.6 1.3.9.9 1.4 1.9 1.4 3.1 0 1.2-.4 2.3-1.3 3.1-.9.9-2.1 1.3-3.6 1.3-3.4 0-6.6.7-9.5 2-2.9 1.3-5.5 3.1-7.7 5.4-2.2 2.3-4 4.9-5.4 7.8-1.4 2.9-2.1 6-2.2 9.2l.1 31.4c0 1.2-.4 2.3-1.3 3.1-.8.9-1.9 1.3-3.1 1.3-1.2 0-2.3-.4-3.1-1.3-.9-.8-1.3-1.9-1.3-3.1l-.2-60.2zM671.6 224.4c.5 3 1.5 5.8 3 8.4 1.5 2.6 3.4 4.8 5.6 6.7 2.2 1.9 4.8 3.4 7.6 4.5s5.8 1.6 9 1.6c3.5 0 6.8-.7 9.8-1.9 3-1.3 5.7-3.1 8.1-5.3.8-.9 1.9-1.3 3.1-1.3s2.3.4 3.1 1.3c.9.9 1.3 1.9 1.3 3.1s-.4 2.3-1.3 3.1c-3.1 3.5-6.6 6-10.6 7.5s-8.4 2.2-13.6 2.2c-4.7 0-9.2-.8-13.3-2.5-4.1-1.7-7.7-4.1-10.9-7.1-3.1-3-5.6-6.6-7.4-10.8-1.8-4.2-2.7-8.7-2.7-13.6 0-4.7.9-9.2 2.6-13.3 1.7-4.1 4.1-7.7 7.2-10.8 3.1-3.1 6.7-5.6 10.9-7.4 4.2-1.9 8.8-2.9 13.7-3.1 4.4 0 8.7.9 12.9 2.7 4.1 1.8 7.7 4.2 10.9 7.4 3.1 3.1 5.6 6.7 7.5 10.8 1.9 4.1 2.9 8.5 2.9 13.3 0 1.4-.5 2.5-1.4 3.3-.9.8-1.9 1.1-3 1.1l-55 .1zm50.2-8.9c-.6-2.9-1.6-5.7-3.1-8.2-1.5-2.6-3.4-4.8-5.6-6.6-2.2-1.8-4.7-3.3-7.5-4.4-2.8-1.1-5.8-1.6-8.9-1.6-3.1 0-6.1.6-8.9 1.7-2.8 1.1-5.3 2.6-7.5 4.4-2.2 1.9-4.1 4.1-5.5 6.6-1.5 2.6-2.5 5.3-3 8.2l50-.1z"/></svg>