<svg xmlns="http://www.w3.org/2000/svg" viewBox="0 0 2000 2000"><style>.st0,.st1,.st2,.st3{fill:#fff;stroke:#1d1d1b;stroke-width:.5;stroke-linecap:round;stroke-linejoin:round;stroke-miterlimit:10}.st1,.st2,.st3{stroke-width:.25}.st2,.st3{fill:none}.st3{fill:#fff;stroke-dasharray:2}</style><g id="Camada_1"><path class="st0" d="M1137.5 663.3l-137.3-15.6-131.9 22.2 132.5 154.5z"/><path class="st0" d="M874.8 645.5s68.9-16.2 134.3-16.2c47.5 0 118.2 17 118.2 17l10.3 30.7s-76.8-19.7-131.8-19.7c-68.9 0-122.1 19.7-122.1 19.7l-8.9-31.5z"/><path class="st0" d="M1297.5 877c0-88 28-172 28-172l-170-47.8s-22.3 41.6-58.9 71.6c-20.2 16.6-52.7 24.2-72.4 27.7h-24s-57.7 0-95.1-30.7c-36.6-30.1-54.9-67.6-54.9-67.6l-174 43.8s28 84 28 172c0 62-43 275.5-43 275.5s-23.6 351.5-15.8 440.3c8 90.8 22.8 114.8 22.8 114.8l669.4-.1s12.7-42.1 13.1-123.6c.5-96-11.8-435.3-11.8-435.3s-41.4-206.5-41.4-268.6z"/><path class="st0" d="M1127.2 646.3s-19.8 44.2-54.4 64.8c-21.4 12.7-38.3 16.5-57.3 18.5-3.8-.1-8.7.7-15.3 0-19.5-2.1-47.6-6.6-74.7-23.6-26-16.4-50.8-60.5-50.8-60.5l-24.6 12.7s22.3 41.4 54.9 67.6c19.5 15.7 48.2 28 95.1 30.7l13.6.8 10.4-.8c33.7-5.6 56.3-14.7 72.4-27.7 32.6-26.3 58.9-71.6 58.9-71.6l-28.2-10.9zM1777.4 1519.7c-4.8-20.5-13.3-49.1-29.3-80.4-115.9-227.3-316.1-582.3-340-623.7-45.3-78.4-84.3-112.4-84.3-112.4s-28.6 96.6-28 172c.6 79.9 43.1 270.6 43.1 270.6s167.2 277.9 244.5 406.3c5.7 9.5 19.2 26.4 26 35.8 13.3 18.7 62.7 41 62.7 41l102.8-62.7c.1.1 5.9-32.3 2.5-46.5zM1775 1566.3l23.9 51.1-97.8 58.7-29-47.1z"/><path class="st1" d="M1751.3 1552.5c12.3 14.7 8.9 22.8 8.9 22.8s2.1-16.3-6.7-41M1705.5 1566.3l18 31.3M1664.1 1607.6c12.2 8.1 29.7 8.1 29.7 8.1s-19.3-5.3-27.5-18.1"/><path class="st2" d="M1723.5 1575.3v23.7l-29.7-17"/><path class="st1" d="M1768.9 1570l26.9 49.3M1789.9 1622.8l-27.1-47.5M1782.3 1627.4l-26.3-49.5M1749 1582l26.9 49.3M1770 1634.8l-27.1-47.5M1762.4 1639.3l-26.3-49.4M1730.3 1594.3l26 47.3M1750.5 1645.1l-26.3-45.5M1742.9 1649.6l-25.6-47.4M1710.4 1606.3l26 47.2M1730.6 1657.1l-26.3-45.5M1723 1661.6l-25.6-47.5M1717 1665.9l-26.4-49.5M1683.6 1620.5l26.9 49.3M1704.6 1673.3l-27.1-47.5"/><path class="st0" d="M222.6 1518.5c4.8-20.5 13.3-49.1 29.3-80.4 115.9-227.3 316.1-582.3 340-623.7C637.2 736 676.2 702 676.2 702s28.6 96.6 28 172c-.6 79.9-43.1 270.6-43.1 270.6s-167.2 277.9-244.5 406.3c-5.7 9.5-19.2 26.4-26 35.8-13.3 18.7-62.7 41-62.7 41L225 1565.1s-5.8-32.3-2.4-46.6zM225 1565.1l-23.9 51.1 97.8 58.7 29-47.1z"/><path class="st1" d="M248.7 1551.3c-12.3 14.7-8.9 22.8-8.9 22.8s-2.1-16.3 6.7-41M294.5 1565.1l-18 31.4M335.9 1606.4c-12.2 8.1-29.7 8.1-29.7 8.1s19.3-5.3 27.5-18.1"/><path class="st2" d="M276.5 1574.1v23.7l29.7-17"/><path class="st1" d="M231.1 1568.8l-26.9 49.3M210.1 1621.6l27.1-47.5M217.7 1626.2l26.3-49.5M251 1580.8l-26.9 49.3M230 1633.6l27.1-47.5M237.6 1638.2l26.3-49.5M269.7 1593.1l-26 47.3M249.5 1643.9l26.3-45.5M257.1 1648.4l25.6-47.4M289.6 1605.1l-26 47.2M269.4 1655.9l26.3-45.5M277 1660.4l25.6-47.4M283 1664.7l26.4-49.5M316.4 1619.3l-26.9 49.3M295.4 1672.1l27.1-47.5"/><g><path class="st0" d="M1328.1 1785.5H672.2l-8-80.8h671.9z"/><path class="st1" d="M675.4 1704.2v81.3M683.4 1704.2v81.3M691.4 1704.2v81.3M699.4 1704.2v81.3M707.4 1704.2v81.3M715.4 1704.2v81.3M722.7 1704.2v81.3M730.7 1704.2v81.3M738.7 1704.2v81.3M746.7 1704.2v81.3M754.7 1704.2v81.3M762.7 1704.2v81.3"/><g><path class="st1" d="M771.4 1704.2v81.3M779.4 1704.2v81.3M787.4 1704.2v81.3M795.4 1704.2v81.3M803.4 1704.2v81.3M811.4 1704.2v81.3M818.7 1704.2v81.3M826.7 1704.2v81.3M834.7 1704.2v81.3M842.7 1704.2v81.3M850.7 1704.2v81.3M858.7 1704.2v81.3"/></g><g><path class="st1" d="M867.4 1704.2v81.3M875.4 1704.2v81.3M883.4 1704.2v81.3M891.4 1704.2v81.3M899.4 1704.2v81.3M907.4 1704.2v81.3M914.7 1704.2v81.3M922.7 1704.2v81.3M930.7 1704.2v81.3M938.7 1704.2v81.3M946.7 1704.2v81.3M954.7 1704.2v81.3"/></g><g><path class="st1" d="M963.4 1704.2v81.3M971.4 1704.2v81.3M979.4 1704.2v81.3M987.4 1704.2v81.3M995.4 1704.2v81.3M1003.4 1704.2v81.3M1010.7 1704.2v81.3M1018.7 1704.2v81.3M1026.7 1704.2v81.3M1034.7 1704.2v81.3M1042.7 1704.2v81.3M1050.7 1704.2v81.3"/></g><g><path class="st1" d="M1059.4 1704.2v81.3M1067.4 1704.2v81.3M1075.4 1704.2v81.3M1083.4 1704.2v81.3M1091.4 1704.2v81.3M1099.4 1704.2v81.3M1106.7 1704.2v81.3M1114.7 1704.2v81.3M1122.7 1704.2v81.3M1130.7 1704.2v81.3M1138.7 1704.2v81.3M1146.7 1704.2v81.3"/></g><g><path class="st1" d="M1155.4 1704.2v81.3M1163.4 1704.2v81.3M1171.4 1704.2v81.3M1179.4 1704.2v81.3M1187.4 1704.2v81.3M1195.4 1704.2v81.3M1202.7 1704.2v81.3M1210.7 1704.2v81.3M1218.7 1704.2v81.3M1226.7 1704.2v81.3M1234.7 1704.2v81.3M1242.7 1704.2v81.3"/></g><g><path class="st1" d="M1251.4 1704.2v81.3M1259.4 1704.2v81.3M1267.4 1704.2v81.3M1275.4 1704.2v81.3M1283.4 1704.2v81.3M1291.4 1704.2v81.3M1298.7 1704.2v81.3M1306.7 1704.2v81.3M1314.7 1704.2v81.3M1322.7 1704.2v81.3M1330.7 1704.2v49.3"/></g></g><path class="st0" d="M1033.8 215c-.4 0-55.9-1.7-67.1.8-48.6 10.9-185.9 128.1-175.3 258.2 8.4 103 58.8 184.3 58.8 184.3s41.2 99.2 150 98.4c1.8 0 4.2-.6 7-1.4 2.8.8 5.3 1.4 7 1.4 108.8.8 150-98.4 150-98.4S1219 577 1223 474c5.1-130.4-136.7-259.3-189.2-259z"/><path class="st0" d="M1007.8 413s-107.1-3.4-144 12c-27 11.3-70.6 25.9-68.3 55.1 7.9 102.8 245.3 272.9 245.3 272.9"/><path class="st0" d="M1003.8 722S1211 603.6 1219 480.1c1.9-29.2-41.3-43.8-68.3-55.1-36.9-15.4-144-12-144-12"/><g><path class="st0" d="M966.8 716.9c-8.5 0-15.4 6.9-15.4 15.4s6.9 15.4 15.4 15.4 15.4-6.9 15.4-15.4-6.9-15.4-15.4-15.4zm0 23.1c-4.2 0-7.7-3.4-7.7-7.7 0-4.2 3.4-7.7 7.7-7.7 4.2 0 7.7 3.4 7.7 7.7 0 4.3-3.5 7.7-7.7 7.7z"/><path class="st0" d="M973.2 1033.4h-11.5c-1.1 0-1.9-.9-1.9-1.9V726.6c0-1.1.9-1.9 1.9-1.9h11.5c1.1 0 1.9.9 1.9 1.9v304.9c.1 1-.8 1.9-1.9 1.9zM963.8 1033.7h7v31.4h-7z"/></g><g><path class="st0" d="M1054.8 716.9c-8.5 0-15.4 6.9-15.4 15.4s6.9 15.4 15.4 15.4 15.4-6.9 15.4-15.4-6.9-15.4-15.4-15.4zm0 23.1c-4.2 0-7.7-3.4-7.7-7.7 0-4.2 3.4-7.7 7.7-7.7s7.7 3.4 7.7 7.7c0 4.3-3.5 7.7-7.7 7.7z"/><path class="st0" d="M1061.2 1033.4h-11.5c-1.1 0-1.9-.9-1.9-1.9V726.6c0-1.1.9-1.9 1.9-1.9h11.5c1.1 0 1.9.9 1.9 1.9v304.9c.1 1-.8 1.9-1.9 1.9zM1051.8 1033.7h7v31.4h-7z"/></g><path class="st0" d="M1246.6 1450.7c-17.1-42.6-32.7-110.7-32.7-110.7H795.4s-15.6 68.1-32.7 110.7c-24 59.8-56.6 80.3-56.6 80.3l12.6 171.7h572l12.6-171.7s-32.7-20.5-56.7-80.3z"/><path class="st3" d="M1214.7 1353.3H795.4M715.4 1523.5l15.3 180.7M1291.4 1523.5l-12 180.7"/><path class="st2" d="M810.7 1340s-22.7 96.7-36.2 124.9c-27.8 58.5-67.2 83.8-67.2 83.8M1199.4 1340s22.7 96.7 36.2 124.9c27.8 58.5 67.2 83.8 67.2 83.8"/></g></svg>