<svg xmlns="http://www.w3.org/2000/svg" viewBox="0 0 2000 2000"><style>.st0,.st1,.st2{fill:#fff;stroke:#1d1d1b;stroke-width:.5;stroke-linecap:round;stroke-linejoin:round;stroke-miterlimit:10}.st1,.st2{stroke-width:.25}.st2{fill:none}</style><g id="Camada_1"><path class="st0" d="M1137.5 455.8l-137.3-15.6-131.9 22.3L1000.8 617z"/><path class="st0" d="M874.8 438.1s68.9-16.2 134.3-16.2c47.5 0 118.2 17 118.2 17l10.3 30.7s-76.8-19.7-131.8-19.7c-68.9 0-122.1 19.7-122.1 19.7l-8.9-31.5z"/><path class="st0" d="M1297.5 669.6c0-88 28-172 28-172l-170-47.8s-22.3 41.6-58.9 71.6c-20.2 16.6-52.7 24.2-72.4 27.7h-24s-57.7 0-95.1-30.7c-36.6-30.1-54.9-67.6-54.9-67.6l-174 43.8s28 84 28 172c0 62-43 275.5-43 275.5s-23.6 351.5-15.8 440.3c8 90.8 22.8 114.8 22.8 114.8l669.4-.1s12.7-42.1 13.1-123.6c.5-96-11.8-435.3-11.8-435.3s-41.4-206.6-41.4-268.6z"/><path class="st0" d="M1127.2 438.9s-19.8 44.2-54.4 64.8c-21.4 12.7-38.3 16.5-57.3 18.5-3.8-.1-8.7.7-15.3 0-19.5-2.1-47.6-6.6-74.7-23.6-26-16.4-50.8-60.5-50.8-60.5l-24.6 12.7s22.3 41.4 54.9 67.6c19.5 15.7 48.2 28 95.1 30.7l13.6.8 10.4-.8c33.7-5.6 56.3-14.7 72.4-27.7 32.6-26.3 58.9-71.6 58.9-71.6l-28.2-10.9zM1777.4 1312.3c-4.8-20.5-13.3-49.1-29.3-80.4-115.9-227.3-316.1-582.3-340-623.7-45.3-78.4-84.3-112.4-84.3-112.4s-28.6 96.6-28 172c.6 79.9 43.1 270.6 43.1 270.6s167.2 277.9 244.5 406.3c5.7 9.5 19.2 26.4 26 35.8 13.3 18.7 62.7 41 62.7 41l102.8-62.7c.1 0 5.9-32.3 2.5-46.5zM1775 1358.8l23.9 51.2-97.8 58.7-29-47.2z"/><path class="st1" d="M1751.3 1345c12.3 14.7 8.9 22.8 8.9 22.8s2.1-16.3-6.7-41M1705.5 1358.8l18 31.4M1664.1 1400.2c12.2 8.1 29.7 8.1 29.7 8.1s-19.3-5.3-27.5-18.1"/><path class="st2" d="M1723.5 1367.8v23.7l-29.7-17"/><path class="st1" d="M1782.3 1419.9l-26.3-49.5M1749 1374.5l26.9 49.3M1770 1427.4l-27.1-47.6M1762.4 1431.9l-26.3-49.5M1730.3 1386.8l26 47.3M1750.5 1437.6l-26.3-45.5M1742.9 1442.2l-25.6-47.5M1710.4 1398.8l26 47.3M1730.6 1449.6l-26.3-45.5M1723 1454.2l-25.6-47.5M1717 1458.4l-26.4-49.5M1683.6 1413l26.9 49.3M1704.6 1465.9l-27.1-47.6"/><path class="st0" d="M222.6 1311.1c4.8-20.5 13.3-49.1 29.3-80.4C367.8 1003.4 568 648.4 591.9 607c45.3-78.4 84.3-112.4 84.3-112.4s28.6 96.6 28 172c-.6 79.9-43.1 270.6-43.1 270.6S493.9 1215 416.6 1343.4c-5.7 9.5-19.2 26.4-26 35.8-13.3 18.7-62.7 41-62.7 41L225 1357.7s-5.8-32.4-2.4-46.6zM225 1357.7l-23.9 51.1 97.8 58.7 29-47.2z"/><path class="st1" d="M248.7 1343.8c-12.3 14.7-8.9 22.8-8.9 22.8s-2.1-16.3 6.7-41M294.5 1357.7l-18 31.3M335.9 1399c-12.2 8.1-29.7 8.1-29.7 8.1s19.3-5.3 27.5-18.1"/><path class="st2" d="M276.5 1366.6v23.7l29.7-17"/><path class="st1" d="M231.1 1361.4l-26.9 49.3M210.1 1414.2l27.1-47.6M217.7 1418.7l26.3-49.5M251 1373.3l-26.9 49.4M230 1426.2l27.1-47.6M237.6 1430.7l26.3-49.5M269.7 1385.6l-26 47.3M249.5 1436.4l26.3-45.5M257.1 1441l25.6-47.5M289.6 1397.6l-26 47.3M269.4 1448.4l26.3-45.5M277 1453l25.6-47.5M283 1457.2l26.4-49.5M316.4 1411.8l-26.9 49.4M295.4 1464.7l27.1-47.6"/><g><path class="st0" d="M1328.1 1578.1H672.2l-8-80.9h671.9z"/><path class="st1" d="M675.4 1496.8v81.3M683.4 1496.8v81.3M691.4 1496.8v81.3M699.4 1496.8v81.3M707.4 1496.8v81.3M715.4 1496.8v81.3M722.7 1496.8v81.3M730.7 1496.8v81.3M738.7 1496.8v81.3M746.7 1496.8v81.3M754.7 1496.8v81.3M762.7 1496.8v81.3"/><g><path class="st1" d="M771.4 1496.8v81.3M779.4 1496.8v81.3M787.4 1496.8v81.3M795.4 1496.8v81.3M803.4 1496.8v81.3M811.4 1496.8v81.3M818.7 1496.8v81.3M826.7 1496.8v81.3M834.7 1496.8v81.3M842.7 1496.8v81.3M850.7 1496.8v81.3M858.7 1496.8v81.3"/></g><g><path class="st1" d="M867.4 1496.8v81.3M875.4 1496.8v81.3M883.4 1496.8v81.3M891.4 1496.8v81.3M899.4 1496.8v81.3M907.4 1496.8v81.3M914.7 1496.8v81.3M922.7 1496.8v81.3M930.7 1496.8v81.3M938.7 1496.8v81.3M946.7 1496.8v81.3M954.7 1496.8v81.3"/></g><g><path class="st1" d="M963.4 1496.8v81.3M971.4 1496.8v81.3M979.4 1496.8v81.3M987.4 1496.8v81.3M995.4 1496.8v81.3M1003.4 1496.8v81.3M1010.7 1496.8v81.3M1018.7 1496.8v81.3M1026.7 1496.8v81.3M1034.7 1496.8v81.3M1042.7 1496.8v81.3M1050.7 1496.8v81.3"/></g><g><path class="st1" d="M1059.4 1496.8v81.3M1067.4 1496.8v81.3M1075.4 1496.8v81.3M1083.4 1496.8v81.3M1091.4 1496.8v81.3M1099.4 1496.8v81.3M1106.7 1496.8v81.3M1114.7 1496.8v81.3M1122.7 1496.8v81.3M1130.7 1496.8v81.3M1138.7 1496.8v81.3M1146.7 1496.8v81.3"/></g><g><path class="st1" d="M1155.4 1496.8v81.3M1163.4 1496.8v81.3M1171.4 1496.8v81.3M1179.4 1496.8v81.3M1187.4 1496.8v81.3M1195.4 1496.8v81.3M1202.7 1496.8v81.3M1210.7 1496.8v81.3M1218.7 1496.8v81.3M1226.7 1496.8v81.3M1234.7 1496.8v81.3M1242.7 1496.8v81.3"/></g><g><path class="st1" d="M1251.4 1496.8v81.3M1259.4 1496.8v81.3M1267.4 1496.8v81.3M1275.4 1496.8v81.3M1283.4 1496.8v81.3M1291.4 1496.8v81.3M1298.7 1496.8v81.3M1306.7 1496.8v81.3M1314.7 1496.8v81.3M1322.7 1496.8v81.3M1330.7 1496.8v49.3"/></g></g></g></svg>