<svg xmlns="http://www.w3.org/2000/svg" viewBox="0 0 2000 2000"><style>.st0,.st1,.st2{fill:#fff;stroke:#1d1d1b;stroke-width:.5;stroke-linecap:round;stroke-linejoin:round;stroke-miterlimit:10}.st1,.st2{fill:none;stroke-dasharray:2}.st2{fill:#fff;stroke-width:.25;stroke-dasharray:1}</style><g id="Camada_1"><path class="st0" d="M855.2 414.1s20.8-24.6 142.5-24.4c139.1.3 147.6 24.4 147.6 24.4l7.3 76.3-104.7 84L889 534.6l-41.2-48.4 7.4-72.1zM220.6 1343.4l-22.7 52.1 129.3 85.6 34.1-42.6z"/><path class="st0" d="M847.9 486.2l-15.1 4.2s-133.3 243.2-141 286.1l-36.9 206.1s-11.8 63.8-13.1 85.1c-1.3 21.3 2.9 85.3 2.9 85.3s-17.8 87.6-18.7 117.3c-.9 29.5 11.6 117.5 11.6 117.5s-15.6 78.9-11.6 105c4.7 31.4 11.5 116.6 11.5 116.6l361.3.9V576.4s-53.9 5.7-103.5-23c-31.5-18.2-47.4-67.2-47.4-67.2z"/><path class="st1" d="M991 745H693.5M637.6 1387.9h362.2M644.6 1153h352.1M661.9 944.6h334.8"/><path class="st0" d="M855.2 414.1l-7.3 72.2s16.2 48.6 47.4 67.2c48.8 29.1 67.3 22.1 67.3 22.1l.8-76.5s4.6 5-34.6-12.1c-50.1-21.9-73.6-72.9-73.6-72.9z"/><path transform="rotate(-77.309 738.518 1336.127)" class="st0" d="M637.2 1322.8h202.7v26.7H637.2z"/><path class="st0" d="M832.8 490.4s-118.4 19.7-154.6 44.8c-25.4 17.7-55 38.1-90.9 92.2-31.3 47.2-66.2 134.4-66.2 134.4s-52 73.4-66.8 101c-14.6 27.3-54.6 118.5-54.6 118.5s-37.2 47.9-47.4 67c-13.6 25.4-52 110.9-52 110.9s-38.3 61.2-62.6 102.8c-24.1 41.4-32.2 58.3-24.1 76.7 3.8 8.5 19.8 18 28.8 23.7 8.9 5.6 31.6 17.1 41.1 24.3 8.7 6.5 23.4 21.8 32.8 27.2 9 5.2 45 24.7 45 24.7s14.2 1.3 19 0c4.4-1.2 20-11.5 27-19.5 13.7-15.7 20.3-28.9 29-40.6 12.7-17.1 51-105 51-105s50.6-56.4 69-90c13.9-25.5 45.6-106.8 45.6-106.8l53-94s25.3-168 43-220.8c24.3-72.7 134.9-271.5 134.9-271.5z"/><path class="st1" d="M297.5 1163.5l189.8 109.9M403.3 981.3l192.6 110.5M521.1 761.8l157.1 84.4"/><path class="st2" d="M230.6 1356.4l-22.1 46.2M242.4 1362.4l-23.8 46.8M253.1 1368.4l-22.5 47.5M267.9 1376.9l-26.1 47.7M279.6 1385.3l-26.9 46.5M289.2 1393.5l-27.5 44.2M301.8 1404.8l-29.5 39.9M312.7 1411.3l-29.2 40.9M327.2 1419.9l-31.6 40.2M342.6 1429.5l-33 39.9M357.3 1436l-35 41.8"/><path class="st1" d="M637.5 1583.4h325.8"/><path class="st0" d="M1152.7 486.2l15.1 4.2s133.3 243.2 141 286.1l36.9 206.1s11.8 63.8 13.1 85.1c1.3 21.3-2.9 85.3-2.9 85.3s17.8 87.6 18.7 117.3c.9 29.5-11.6 117.5-11.6 117.5s15.6 78.9 11.6 105c-4.7 31.4-11.5 116.6-11.5 116.6l-361.3.9V576.4s53.9 5.7 103.5-23c31.4-18.2 47.4-67.2 47.4-67.2z"/><path class="st1" d="M1009.6 745H1307M1362.9 1387.9h-362.2M1355.9 1153h-352M1338.6 944.6h-334.7"/><path class="st0" d="M1145.3 414.1l7.3 72.2s-16.2 48.6-47.4 67.2c-48.8 29.1-67.3 22.1-67.3 22.1l-.8-76.5s-4.6 5 34.6-12.1c50.1-21.9 73.6-72.9 73.6-72.9z"/><path transform="rotate(-12.691 1262.024 1336.219)" class="st0" d="M1248.6 1234.8h26.7v202.7h-26.7z"/><path class="st1" d="M1363 1583.4h-325.8"/><path class="st0" d="M959.3 499h77.4v1110.5h-77.4z"/><path class="st2" d="M214.6 1370.4l131.4 82.3M210.6 1380.9l127.4 80"/><g><path class="st0" d="M1779.4 1343l22.7 52.1-129.3 85.5-34.1-42.5z"/><path class="st0" d="M1167.2 489.9s118.4 19.7 154.6 44.8c25.4 17.7 55 38.1 90.9 92.2 31.3 47.2 66.2 134.4 66.2 134.4s52 73.4 66.8 101c14.6 27.3 54.6 118.5 54.6 118.5s37.2 47.9 47.4 67c13.6 25.4 52 110.9 52 110.9s38.3 61.2 62.6 102.8c24.1 41.4 32.2 58.3 24.1 76.7-3.8 8.5-19.8 18-28.8 23.7-8.9 5.6-31.6 17.1-41.1 24.3-8.7 6.5-23.4 21.8-32.8 27.2-9 5.2-45 24.7-45 24.7s-14.2 1.3-19 0c-4.4-1.2-20-11.5-27-19.5-13.7-15.7-20.3-28.9-29-40.6-12.7-17.1-51-105-51-105s-50.6-56.4-69-90c-13.9-25.5-45.6-106.8-45.6-106.8l-53-94s-25.3-168-43-220.8c-24.3-72.6-134.9-271.5-134.9-271.5z"/><path class="st1" d="M1702.5 1163l-189.8 109.9M1596.7 980.8l-192.6 110.6M1478.9 761.4l-157.1 84.3"/><path class="st2" d="M1769.4 1356l22.1 46.1M1757.6 1361.9l23.8 46.9M1746.9 1368l22.5 47.5M1732.1 1376.5l26.1 47.6M1720.4 1384.8l26.9 46.6M1710.8 1393.1l27.5 44.2M1698.2 1404.4l29.5 39.9M1687.3 1410.9l29.2 40.8M1672.8 1419.5l31.6 40.2M1657.4 1429.1l33 39.9M1642.7 1435.6l35 41.8M1785.4 1369.9l-131.4 82.4M1789.4 1380.5l-127.4 80"/></g></g></svg>