<svg xmlns="http://www.w3.org/2000/svg" viewBox="0 0 2000 2000"><style>.st0,.st1,.st2,.st3{stroke:#1d1d1b;stroke-linecap:round;stroke-linejoin:round}.st0{stroke-miterlimit:10;fill:#fff;stroke-width:.5}.st1,.st2,.st3{fill:none;stroke-width:.25}.st2,.st3{stroke-dasharray:1.0045,1.0045}.st3{stroke-miterlimit:10;stroke-dasharray:1}</style><g id="Camada_1"><path class="st0" d="M1000.7 800.8v340.9l44.1 147.1h306.6s34.6-13.8 53.3-40c24.1-33.8 10.5-101.8 10.5-101.8l-20.9-346.2h-393.6zM999.3 800.8v344.9l-44.1 143.1H648.6s-34.6-13.8-53.3-40c-24.1-33.8-10.5-101.8-10.5-101.8l20.9-346.2h393.6zM606 711.2h788.1v89.5H606z"/><path class="st1" d="M630.2 711.2v.5"/><path class="st2" d="M630.4 712.7l6 43.3-6.1 43.8"/><path class="st1" d="M630.2 800.3v.5M642.4 711.2v.5"/><path class="st2" d="M642.6 712.7l6 43.3-6.1 43.8"/><path class="st1" d="M642.4 800.3v.5M654.6 711.2v.5"/><path class="st2" d="M654.8 712.7l6 43.3-6.1 43.8"/><path class="st1" d="M654.6 800.3v.5M666.8 711.2v.5"/><path class="st2" d="M667 712.7l6 43.3-6.1 43.8"/><path class="st1" d="M666.8 800.3v.5M679 711.2l.1.5"/><path class="st2" d="M679.2 712.7l6 43.3-6.1 43.8"/><path class="st1" d="M679.1 800.3l-.1.5M691.2 711.2l.1.5"/><path class="st2" d="M691.4 712.7l6 43.3-6.1 43.8"/><path class="st1" d="M691.3 800.3l-.1.5M703.4 711.2l.1.5"/><path class="st2" d="M703.6 712.7l6 43.3-6.1 43.8"/><path class="st1" d="M703.5 800.3l-.1.5M715.6 711.2l.1.5"/><path class="st2" d="M715.8 712.7l6 43.3-6.1 43.8"/><path class="st1" d="M715.7 800.3l-.1.5M727.8 711.2l.1.5"/><path class="st2" d="M728 712.7l6 43.3-6.1 43.8"/><path class="st1" d="M727.9 800.3l-.1.5M740 711.2l.1.5"/><path class="st2" d="M740.2 712.7l6.1 43.3-6.2 43.8"/><path class="st1" d="M740.1 800.3l-.1.5M605.8 711.2v.5"/><path class="st2" d="M606 712.7l6 43.3-6.1 43.8"/><path class="st1" d="M605.8 800.3v.5"/><g><path class="st1" d="M618 711.2v.5"/><path class="st2" d="M618.2 712.7l6 43.3-6.1 43.8"/><path class="st1" d="M618 800.3v.5"/></g><g><path class="st1" d="M752.2 711.2l.1.5"/><path class="st2" d="M752.4 712.7l6.1 43.3-6.2 43.8"/><path class="st1" d="M752.3 800.3l-.1.5"/></g><g><path class="st1" d="M764.4 711.2l.1.5"/><path class="st2" d="M764.6 712.7l6.1 43.3-6.1 43.8"/><path class="st1" d="M764.5 800.3l-.1.5"/></g><g><path class="st1" d="M776.6 711.2l.1.5"/><path class="st2" d="M776.8 712.7l6.1 43.3-6.1 43.8"/><path class="st1" d="M776.7 800.3l-.1.5"/></g><g><path class="st1" d="M788.8 711.2l.1.5"/><path class="st2" d="M789 712.7l6.1 43.3-6.1 43.8"/><path class="st1" d="M788.9 800.3l-.1.5"/></g><g><path class="st1" d="M801 711.2l.1.5"/><path class="st2" d="M801.2 712.7l6.1 43.3-6.1 43.8"/><path class="st1" d="M801.1 800.3l-.1.5"/></g><g><path class="st1" d="M813.2 711.2l.1.5"/><path class="st2" d="M813.4 712.7l6.1 43.3-6.1 43.8"/><path class="st1" d="M813.3 800.3l-.1.5"/></g><g><path class="st1" d="M825.4 711.2l.1.5"/><path class="st2" d="M825.6 712.7l6.1 43.3-6.1 43.8"/><path class="st1" d="M825.5 800.3l-.1.5"/></g><g><path class="st1" d="M837.6 711.2l.1.5"/><path class="st2" d="M837.8 712.7l6.1 43.3-6.1 43.8"/><path class="st1" d="M837.7 800.3l-.1.5"/></g><g><path class="st1" d="M849.8 711.2l.1.5"/><path class="st2" d="M850.1 712.7l6 43.3-6.1 43.8"/><path class="st1" d="M849.9 800.3l-.1.5"/></g><g><path class="st1" d="M862.1 711.2v.5"/><path class="st2" d="M862.3 712.7l6 43.3-6.1 43.8"/><path class="st1" d="M862.1 800.3v.5"/></g><g><path class="st1" d="M874.3 711.2v.5"/><path class="st2" d="M874.5 712.7l6 43.3-6.1 43.8"/><path class="st1" d="M874.3 800.3v.5"/></g><g><path class="st1" d="M886.5 711.2v.5"/><path class="st2" d="M886.7 712.7l6 43.3-6.1 43.8"/><path class="st1" d="M886.5 800.3v.5"/></g><g><path class="st1" d="M898.7 711.2v.5"/><path class="st2" d="M898.9 712.7l6 43.3-6.1 43.8"/><path class="st1" d="M898.7 800.3v.5"/></g><g><path class="st1" d="M910.9 711.2v.5"/><path class="st2" d="M911.1 712.7l6 43.3-6.1 43.8"/><path class="st1" d="M910.9 800.3v.5"/></g><g><path class="st1" d="M923.1 711.2v.5"/><path class="st2" d="M923.3 712.7l6 43.3-6.1 43.8"/><path class="st1" d="M923.1 800.3v.5"/></g><g><path class="st1" d="M935.3 711.2v.5"/><path class="st2" d="M935.5 712.7l6 43.3-6.1 43.8"/><path class="st1" d="M935.3 800.3v.5"/></g><g><path class="st1" d="M947.5 711.2l.1.5"/><path class="st2" d="M947.7 712.7l6 43.3-6.1 43.8"/><path class="st1" d="M947.6 800.3l-.1.5"/></g><g><path class="st1" d="M959.7 711.2l.1.5"/><path class="st2" d="M959.9 712.7l6 43.3-6.1 43.8"/><path class="st1" d="M959.8 800.3l-.1.5"/></g><g><path class="st1" d="M971.9 711.2l.1.5"/><path class="st2" d="M972.1 712.7l6 43.3-6.1 43.8"/><path class="st1" d="M972 800.3l-.1.5"/></g><g><path class="st1" d="M984.1 711.2l.1.5"/><path class="st2" d="M984.3 712.7l6 43.3-6.1 43.8"/><path class="st1" d="M984.2 800.3l-.1.5"/></g><g><path class="st1" d="M1363.5 711.2l-.1.5"/><path class="st2" d="M1363.2 712.7l-6 43.3 6.1 43.8"/><path class="st1" d="M1363.4 800.3l.1.5M1351.3 711.2l-.1.5"/><path class="st2" d="M1351 712.7l-6 43.3 6.1 43.8"/><path class="st1" d="M1351.2 800.3l.1.5M1339 711.2v.5"/><path class="st2" d="M1338.8 712.7l-6 43.3 6.1 43.8"/><path class="st1" d="M1339 800.3v.5M1326.8 711.2v.5"/><path class="st2" d="M1326.6 712.7l-6 43.3 6.1 43.8"/><path class="st1" d="M1326.8 800.3v.5M1314.6 711.2v.5"/><path class="st2" d="M1314.4 712.7l-6 43.3 6.1 43.8"/><path class="st1" d="M1314.6 800.3v.5M1302.4 711.2v.5"/><path class="st2" d="M1302.2 712.7l-6 43.3 6.1 43.8"/><path class="st1" d="M1302.4 800.3v.5M1290.2 711.2v.5"/><path class="st2" d="M1290 712.7l-6 43.3 6.1 43.8"/><path class="st1" d="M1290.2 800.3v.5M1278 711.2v.5"/><path class="st2" d="M1277.8 712.7l-6 43.3 6.1 43.8"/><path class="st1" d="M1278 800.3v.5M1265.8 711.2v.5"/><path class="st2" d="M1265.6 712.7l-6 43.3 6.1 43.8"/><path class="st1" d="M1265.8 800.3v.5M1253.6 711.2l-.1.5"/><path class="st2" d="M1253.4 712.7l-6 43.3 6.1 43.8"/><path class="st1" d="M1253.5 800.3l.1.5M1387.9 711.2l-.1.5"/><path class="st2" d="M1387.7 712.7l-6.1 43.3 6.1 43.8"/><path class="st1" d="M1387.8 800.3l.1.5"/><g><path class="st1" d="M1375.7 711.2l-.1.5"/><path class="st2" d="M1375.5 712.7l-6.1 43.3 6.1 43.8"/><path class="st1" d="M1375.6 800.3l.1.5"/></g><g><path class="st1" d="M1241.4 711.2l-.1.5"/><path class="st2" d="M1241.2 712.7l-6 43.3 6.1 43.8"/><path class="st1" d="M1241.3 800.3l.1.5"/></g><g><path class="st1" d="M1229.2 711.2l-.1.5"/><path class="st2" d="M1229 712.7l-6 43.3 6.1 43.8"/><path class="st1" d="M1229.1 800.3l.1.5"/></g><g><path class="st1" d="M1217 711.2l-.1.5"/><path class="st2" d="M1216.8 712.7l-6 43.3 6.1 43.8"/><path class="st1" d="M1216.9 800.3l.1.5"/></g><g><path class="st1" d="M1204.8 711.2l-.1.5"/><path class="st2" d="M1204.6 712.7l-6 43.3 6.1 43.8"/><path class="st1" d="M1204.7 800.3l.1.5"/></g><g><path class="st1" d="M1192.6 711.2l-.1.5"/><path class="st2" d="M1192.4 712.7l-6.1 43.3 6.2 43.8"/><path class="st1" d="M1192.5 800.3l.1.5"/></g><g><path class="st1" d="M1180.4 711.2l-.1.5"/><path class="st2" d="M1180.2 712.7l-6.1 43.3 6.1 43.8"/><path class="st1" d="M1180.3 800.3l.1.5"/></g><g><path class="st1" d="M1168.2 711.2l-.1.5"/><path class="st2" d="M1168 712.7l-6.1 43.3 6.1 43.8"/><path class="st1" d="M1168.1 800.3l.1.5"/></g><g><path class="st1" d="M1156 711.2l-.1.5"/><path class="st2" d="M1155.8 712.7l-6.1 43.3 6.1 43.8"/><path class="st1" d="M1155.9 800.3l.1.5"/></g><g><path class="st1" d="M1143.8 711.2l-.1.5"/><path class="st2" d="M1143.6 712.7l-6.1 43.3 6.1 43.8"/><path class="st1" d="M1143.7 800.3l.1.5"/></g><g><path class="st1" d="M1131.6 711.2l-.1.5"/><path class="st2" d="M1131.4 712.7l-6.1 43.3 6.1 43.8"/><path class="st1" d="M1131.5 800.3l.1.5"/></g><g><path class="st1" d="M1119.4 711.2l-.1.5"/><path class="st2" d="M1119.2 712.7l-6.1 43.3 6.1 43.8"/><path class="st1" d="M1119.3 800.3l.1.5"/></g><g><path class="st1" d="M1107.2 711.2l-.1.5"/><path class="st2" d="M1107 712.7l-6.1 43.3 6.1 43.8"/><path class="st1" d="M1107.1 800.3l.1.5"/></g><g><path class="st1" d="M1095 711.2l-.1.5"/><path class="st2" d="M1094.7 712.7l-6 43.3 6.1 43.8"/><path class="st1" d="M1094.9 800.3l.1.5"/></g><g><path class="st1" d="M1082.8 711.2l-.1.5"/><path class="st2" d="M1082.5 712.7l-6 43.3 6.1 43.8"/><path class="st1" d="M1082.7 800.3l.1.5"/></g><g><path class="st1" d="M1070.5 711.2v.5"/><path class="st2" d="M1070.3 712.7l-6 43.3 6.1 43.8"/><path class="st1" d="M1070.5 800.3v.5"/></g><g><path class="st1" d="M1058.3 800.8v-.5"/><path class="st2" d="M1058.1 799.3l-6-43.3 6.1-43.8"/><path class="st1" d="M1058.3 711.7v-.5"/></g><g><path class="st1" d="M1046.1 711.2v.5"/><path class="st2" d="M1045.9 712.7l-6 43.3 6.1 43.8"/><path class="st1" d="M1046.1 800.3v.5"/></g><g><path class="st1" d="M1033.9 711.2v.5"/><path class="st2" d="M1033.7 712.7l-6 43.3 6.1 43.8"/><path class="st1" d="M1033.9 800.3v.5"/></g><g><path class="st1" d="M1021.7 711.2v.5"/><path class="st2" d="M1021.5 712.7l-6 43.3 6.1 43.8"/><path class="st1" d="M1021.7 800.3v.5"/></g><g><path class="st1" d="M1009.5 711.2v.5"/><path class="st2" d="M1009.3 712.7l-6 43.3 6.1 43.8"/><path class="st1" d="M1009.5 800.3v.5"/></g></g><path class="st3" d="M608.9 733.6h779M605.8 756h788.3M608.9 778.4h785.2"/><path class="st0" d="M1021.7 740.6c-8.5 0-15.4 6.9-15.4 15.4s6.9 15.4 15.4 15.4 15.4-6.9 15.4-15.4-6.9-15.4-15.4-15.4zm0 23.1c-4.2 0-7.7-3.4-7.7-7.7 0-4.2 3.4-7.7 7.7-7.7s7.7 3.4 7.7 7.7c0 4.2-3.4 7.7-7.7 7.7zM975 740.6c-8.5 0-15.4 6.9-15.4 15.4s6.9 15.4 15.4 15.4 15.4-6.9 15.4-15.4-6.9-15.4-15.4-15.4zm0 23.1c-4.2 0-7.7-3.4-7.7-7.7 0-4.2 3.4-7.7 7.7-7.7 4.2 0 7.7 3.4 7.7 7.7 0 4.2-3.4 7.7-7.7 7.7zM1026.1 1142.8h-51.3"/><g><path class="st0" d="M981.5 1057.1H970c-1.1 0-1.9-.9-1.9-1.9v-305c0-1.1.9-1.9 1.9-1.9h11.5c1.1 0 1.9.9 1.9 1.9v304.9c0 1.1-.9 2-1.9 2zM972 1057.4h7v31.4h-7z"/></g><g><path class="st0" d="M1029.5 1057.1H1018c-1.1 0-1.9-.9-1.9-1.9v-305c0-1.1.9-1.9 1.9-1.9h11.5c1.1 0 1.9.9 1.9 1.9v304.9c0 1.1-.9 2-1.9 2zM1020 1057.4h7v31.4h-7z"/></g><path class="st3" d="M996.8 711.2v89.6"/></g></svg>