<svg xmlns="http://www.w3.org/2000/svg" viewBox="0 0 2000 2000"><style>.st0,.st1{stroke:#1d1d1b;stroke-linecap:round;stroke-linejoin:round}.st0{stroke-width:.5;stroke-miterlimit:10;fill:#fff}.st1{fill:none}.st1,.st2,.st3{stroke-width:.25}.st2{fill:none;stroke:#1d1d1b;stroke-linecap:round;stroke-linejoin:round;stroke-dasharray:1.0045,1.0045}.st3{stroke-dasharray:1}.st3,.st4,.st5,.st6{fill:none;stroke:#1d1d1b;stroke-linecap:round;stroke-linejoin:round;stroke-miterlimit:10}.st4{stroke-dasharray:2;stroke-width:.25}.st5,.st6{stroke-width:.5}.st6{stroke-width:.25;stroke-dasharray:1,2}</style><g id="Camada_1"><path class="st0" d="M1000.6 728.8v356.9l-44.2 275.1H580.6l26.4-632zM1000.6 728.8v356.9l44.1 275.1h374.7l-25.3-632zM607.3 639.2h788.1v89.5H607.3z"/><path class="st1" d="M631.4 639.2l.1.5"/><path class="st2" d="M631.6 640.7l6.1 43.3-6.1 43.8"/><path class="st1" d="M631.5 728.3l-.1.5M643.6 639.2l.1.5"/><path class="st2" d="M643.9 640.7l6 43.3-6.1 43.8"/><path class="st1" d="M643.7 728.3l-.1.5M655.8 639.2l.1.5"/><path class="st2" d="M656.1 640.7l6 43.3-6.1 43.8"/><path class="st1" d="M655.9 728.3l-.1.5M668.1 639.2v.5"/><path class="st2" d="M668.3 640.7l6 43.3-6.1 43.8"/><path class="st1" d="M668.1 728.3v.5M680.3 639.2v.5"/><path class="st2" d="M680.5 640.7l6 43.3-6.1 43.8"/><path class="st1" d="M680.3 728.3v.5M692.5 639.2v.5"/><path class="st2" d="M692.7 640.7l6 43.3-6.1 43.8"/><path class="st1" d="M692.5 728.3v.5M704.7 639.2v.5"/><path class="st2" d="M704.9 640.7l6 43.3-6.1 43.8"/><path class="st1" d="M704.7 728.3v.5M716.9 639.2v.5"/><path class="st2" d="M717.1 640.7l6 43.3-6.1 43.8"/><path class="st1" d="M716.9 728.3v.5M729.1 639.2v.5"/><path class="st2" d="M729.3 640.7l6 43.3-6.1 43.8"/><path class="st1" d="M729.1 728.3v.5M741.3 639.2v.5"/><path class="st2" d="M741.5 640.7l6 43.3-6.1 43.8"/><path class="st1" d="M741.3 728.3v.5M607 639.2l.1.5"/><path class="st2" d="M607.2 640.7l6.1 43.3-6.1 43.8"/><path class="st1" d="M607.1 728.3l-.1.5"/><g><path class="st1" d="M619.2 639.2l.1.5"/><path class="st2" d="M619.4 640.7l6.1 43.3-6.1 43.8"/><path class="st1" d="M619.3 728.3l-.1.5"/></g><g><path class="st1" d="M753.5 639.2l.1.5"/><path class="st2" d="M753.7 640.7l6 43.3-6.1 43.8"/><path class="st1" d="M753.6 728.3l-.1.5"/></g><g><path class="st1" d="M765.7 639.2l.1.5"/><path class="st2" d="M765.9 640.7l6 43.3-6.1 43.8"/><path class="st1" d="M765.8 728.3l-.1.5"/></g><g><path class="st1" d="M777.9 639.2l.1.5"/><path class="st2" d="M778.1 640.7l6 43.3-6.1 43.8"/><path class="st1" d="M778 728.3l-.1.5"/></g><g><path class="st1" d="M790.1 639.2l.1.5"/><path class="st2" d="M790.3 640.7l6 43.3-6.1 43.8"/><path class="st1" d="M790.2 728.3l-.1.5"/></g><g><path class="st1" d="M802.3 639.2l.1.5"/><path class="st2" d="M802.5 640.7l6 43.3-6.1 43.8"/><path class="st1" d="M802.4 728.3l-.1.5"/></g><g><path class="st1" d="M814.5 639.2l.1.5"/><path class="st2" d="M814.7 640.7l6.1 43.3-6.2 43.8"/><path class="st1" d="M814.6 728.3l-.1.5"/></g><g><path class="st1" d="M826.7 639.2l.1.5"/><path class="st2" d="M826.9 640.7L833 684l-6.2 43.8"/><path class="st1" d="M826.8 728.3l-.1.5"/></g><g><path class="st1" d="M838.9 639.2l.1.5"/><path class="st2" d="M839.1 640.7l6.1 43.3-6.1 43.8"/><path class="st1" d="M839 728.3l-.1.5"/></g><g><path class="st1" d="M851.1 639.2l.1.5"/><path class="st2" d="M851.3 640.7l6.1 43.3-6.1 43.8"/><path class="st1" d="M851.2 728.3l-.1.5"/></g><g><path class="st1" d="M863.3 639.2l.1.5"/><path class="st2" d="M863.5 640.7l6.1 43.3-6.1 43.8"/><path class="st1" d="M863.4 728.3l-.1.5"/></g><g><path class="st1" d="M875.5 639.2l.1.5"/><path class="st2" d="M875.7 640.7l6.1 43.3-6.1 43.8"/><path class="st1" d="M875.6 728.3l-.1.5"/></g><g><path class="st1" d="M887.7 639.2l.1.5"/><path class="st2" d="M887.9 640.7L894 684l-6.1 43.8"/><path class="st1" d="M887.8 728.3l-.1.5"/></g><g><path class="st1" d="M899.9 639.2l.1.5"/><path class="st2" d="M900.1 640.7l6.1 43.3-6.1 43.8"/><path class="st1" d="M900 728.3l-.1.5"/></g><g><path class="st1" d="M912.1 639.2l.1.5"/><path class="st2" d="M912.3 640.7l6.1 43.3-6.1 43.8"/><path class="st1" d="M912.2 728.3l-.1.5"/></g><g><path class="st1" d="M924.3 639.2l.1.5"/><path class="st2" d="M924.6 640.7l6 43.3-6.1 43.8"/><path class="st1" d="M924.4 728.3l-.1.5"/></g><g><path class="st1" d="M936.6 639.2v.5"/><path class="st2" d="M936.8 640.7l6 43.3-6.1 43.8"/><path class="st1" d="M936.6 728.3v.5"/></g><g><path class="st1" d="M948.8 639.2v.5"/><path class="st2" d="M949 640.7l6 43.3-6.1 43.8"/><path class="st1" d="M948.8 728.3v.5"/></g><g><path class="st1" d="M961 639.2v.5"/><path class="st2" d="M961.2 640.7l6 43.3-6.1 43.8"/><path class="st1" d="M961 728.3v.5"/></g><g><path class="st1" d="M973.2 639.2v.5"/><path class="st2" d="M973.4 640.7l6 43.3-6.1 43.8"/><path class="st1" d="M973.2 728.3v.5"/></g><g><path class="st1" d="M985.4 639.2v.5"/><path class="st2" d="M985.6 640.7l6 43.3-6.1 43.8"/><path class="st1" d="M985.4 728.3v.5"/></g><g><path class="st1" d="M1364.7 639.2v.5"/><path class="st2" d="M1364.5 640.7l-6 43.3 6.1 43.8"/><path class="st1" d="M1364.7 728.3v.5M1352.5 639.2v.5"/><path class="st2" d="M1352.3 640.7l-6 43.3 6.1 43.8"/><path class="st1" d="M1352.5 728.3v.5M1340.3 639.2l-.1.5"/><path class="st2" d="M1340.1 640.7l-6 43.3 6.1 43.8"/><path class="st1" d="M1340.2 728.3l.1.5M1328.1 639.2l-.1.5"/><path class="st2" d="M1327.9 640.7l-6 43.3 6.1 43.8"/><path class="st1" d="M1328 728.3l.1.5M1315.9 639.2l-.1.5"/><path class="st2" d="M1315.7 640.7l-6 43.3 6.1 43.8"/><path class="st1" d="M1315.8 728.3l.1.5M1303.7 639.2l-.1.5"/><path class="st2" d="M1303.5 640.7l-6 43.3 6.1 43.8"/><path class="st1" d="M1303.6 728.3l.1.5M1291.5 639.2l-.1.5"/><path class="st2" d="M1291.3 640.7l-6 43.3 6.1 43.8"/><path class="st1" d="M1291.4 728.3l.1.5M1279.3 639.2l-.1.5"/><path class="st2" d="M1279.1 640.7l-6 43.3 6.1 43.8"/><path class="st1" d="M1279.2 728.3l.1.5M1267.1 639.2l-.1.5"/><path class="st2" d="M1266.9 640.7l-6.1 43.3 6.2 43.8"/><path class="st1" d="M1267 728.3l.1.5M1254.9 639.2l-.1.5"/><path class="st2" d="M1254.7 640.7l-6.1 43.3 6.1 43.8"/><path class="st1" d="M1254.8 728.3l.1.5M1389.1 639.2v.5"/><path class="st2" d="M1388.9 640.7l-6 43.3 6.1 43.8"/><path class="st1" d="M1389.1 728.3v.5"/><g><path class="st1" d="M1376.9 639.2v.5"/><path class="st2" d="M1376.7 640.7l-6 43.3 6.1 43.8"/><path class="st1" d="M1376.9 728.3v.5"/></g><g><path class="st1" d="M1242.7 639.2l-.1.5"/><path class="st2" d="M1242.5 640.7l-6.1 43.3 6.1 43.8"/><path class="st1" d="M1242.6 728.3l.1.5"/></g><g><path class="st1" d="M1230.5 639.2l-.1.5"/><path class="st2" d="M1230.3 640.7l-6.1 43.3 6.1 43.8"/><path class="st1" d="M1230.4 728.3l.1.5"/></g><g><path class="st1" d="M1218.3 639.2l-.1.5"/><path class="st2" d="M1218.1 640.7L1212 684l6.1 43.8"/><path class="st1" d="M1218.2 728.3l.1.5"/></g><g><path class="st1" d="M1206.1 639.2l-.1.5"/><path class="st2" d="M1205.9 640.7l-6.1 43.3 6.1 43.8"/><path class="st1" d="M1206 728.3l.1.5"/></g><g><path class="st1" d="M1193.9 639.2l-.1.5"/><path class="st2" d="M1193.7 640.7l-6.1 43.3 6.1 43.8"/><path class="st1" d="M1193.8 728.3l.1.5"/></g><g><path class="st1" d="M1181.7 639.2l-.1.5"/><path class="st2" d="M1181.5 640.7l-6.1 43.3 6.1 43.8"/><path class="st1" d="M1181.6 728.3l.1.5"/></g><g><path class="st1" d="M1169.5 639.2l-.1.5"/><path class="st2" d="M1169.2 640.7l-6 43.3 6.1 43.8"/><path class="st1" d="M1169.4 728.3l.1.5"/></g><g><path class="st1" d="M1157.3 639.2l-.1.5"/><path class="st2" d="M1157 640.7l-6 43.3 6.1 43.8"/><path class="st1" d="M1157.2 728.3l.1.5"/></g><g><path class="st1" d="M1145 639.2v.5"/><path class="st2" d="M1144.8 640.7l-6 43.3 6.1 43.8"/><path class="st1" d="M1145 728.3v.5"/></g><g><path class="st1" d="M1132.8 639.2v.5"/><path class="st2" d="M1132.6 640.7l-6 43.3 6.1 43.8"/><path class="st1" d="M1132.8 728.3v.5"/></g><g><path class="st1" d="M1120.6 639.2v.5"/><path class="st2" d="M1120.4 640.7l-6 43.3 6.1 43.8"/><path class="st1" d="M1120.6 728.3v.5"/></g><g><path class="st1" d="M1108.4 639.2v.5"/><path class="st2" d="M1108.2 640.7l-6 43.3 6.1 43.8"/><path class="st1" d="M1108.4 728.3v.5"/></g><g><path class="st1" d="M1096.2 639.2v.5"/><path class="st2" d="M1096 640.7l-6 43.3 6.1 43.8"/><path class="st1" d="M1096.2 728.3v.5"/></g><g><path class="st1" d="M1084 639.2v.5"/><path class="st2" d="M1083.8 640.7l-6 43.3 6.1 43.8"/><path class="st1" d="M1084 728.3v.5"/></g><g><path class="st1" d="M1071.8 639.2v.5"/><path class="st2" d="M1071.6 640.7l-6 43.3 6.1 43.8"/><path class="st1" d="M1071.8 728.3v.5"/></g><g><path class="st1" d="M1059.6 728.8l-.1-.5"/><path class="st2" d="M1059.4 727.3l-6-43.3 6.1-43.8"/><path class="st1" d="M1059.5 639.7l.1-.5"/></g><g><path class="st1" d="M1047.4 639.2l-.1.5"/><path class="st2" d="M1047.2 640.7l-6 43.3 6.1 43.8"/><path class="st1" d="M1047.3 728.3l.1.5"/></g><g><path class="st1" d="M1035.2 639.2l-.1.5"/><path class="st2" d="M1035 640.7l-6 43.3 6.1 43.8"/><path class="st1" d="M1035.1 728.3l.1.5"/></g><g><path class="st1" d="M1023 639.2l-.1.5"/><path class="st2" d="M1022.8 640.7l-6 43.3 6.1 43.8"/><path class="st1" d="M1022.9 728.3l.1.5"/></g><g><path class="st1" d="M1010.8 639.2l-.1.5"/><path class="st2" d="M1010.6 640.7l-6 43.3 6.1 43.8"/><path class="st1" d="M1010.7 728.3l.1.5"/></g></g><path class="st3" d="M610.2 661.6h778.9M607 684h788.4M610.2 706.4h785.2"/><path class="st0" d="M1023 668.6c-8.5 0-15.4 6.9-15.4 15.4s6.9 15.4 15.4 15.4 15.4-6.9 15.4-15.4-6.9-15.4-15.4-15.4zm0 23.1c-4.2 0-7.7-3.4-7.7-7.7 0-4.2 3.4-7.7 7.7-7.7s7.7 3.4 7.7 7.7c0 4.2-3.4 7.7-7.7 7.7zM976.3 668.6c-8.5 0-15.4 6.9-15.4 15.4s6.9 15.4 15.4 15.4 15.4-6.9 15.4-15.4-6.9-15.4-15.4-15.4zm0 23.1c-4.2 0-7.7-3.4-7.7-7.7 0-4.2 3.4-7.7 7.7-7.7s7.7 3.4 7.7 7.7c0 4.2-3.5 7.7-7.7 7.7zM1035.4 1090.8h-71.3"/><path class="st4" d="M1059.6 728.8s0 136-3.1 210c-.7 15.6-53.7 32-53.7 32"/><g><path class="st0" d="M982.7 985.1h-11.5c-1.1 0-1.9-.9-1.9-1.9v-305c0-1.1.9-1.9 1.9-1.9h11.5c1.1 0 1.9.9 1.9 1.9v304.9c.1 1.1-.8 2-1.9 2zM973.3 985.4h7v31.4h-7z"/></g><g><path class="st0" d="M1030.7 985.1h-11.5c-1.1 0-1.9-.9-1.9-1.9v-305c0-1.1.9-1.9 1.9-1.9h11.5c1.1 0 1.9.9 1.9 1.9v304.9c.1 1.1-.8 2-1.9 2zM1021.3 985.4h7v31.4h-7z"/></g><g><path class="st5" d="M600 1004.5l20.3.5 6.3-253.6-20.4-.5"/><path class="st6" d="M606.3 745.8l24.4.6-6.5 264.1-24.2-.6"/></g><g><path class="st5" d="M1406.1 1004l-20.3 1-13.6-253.2 20.3-1.1"/><path class="st6" d="M1392.4 745.6l-24.4 1.3 14.1 263.8 24.1-1.3"/></g><path class="st4" d="M587.3 1332.8h373.6M1039.2 1332.8h378.6"/><path class="st3" d="M998.1 639.2v89.6"/></g></svg>