<svg xmlns="http://www.w3.org/2000/svg" xmlns:xlink="http://www.w3.org/1999/xlink" viewBox="0 0 2000 2000"><style>.st0{fill:#fff;stroke:#1d1d1b;stroke-width:.5;stroke-linecap:round;stroke-linejoin:round;stroke-miterlimit:10}.st1{clip-path:url(#SVGID_2_)}</style><g id="Camada_1"><path class="st0" d="M1056.4 906.6c-17.2-123.4 102.9-228.8 102.9-228.8h-50s-54.4 27.4-109.4 32.4c-54.1 5-109.5-32.3-109.5-32.3h-50s124 82.6 103.1 228.7c-17.1 119.8-265 124-265 124l28.6 206.9 245.7-.1h94.4l245.7-.1 28.4-206.9c.1 0-248.2-4-264.9-123.8zM707.2 1237.5h585.4v84.6H707.2z"/><defs><path id="SVGID_1_" d="M707.2 1237.5h585.4v84.6H707.2z"/></defs><clipPath id="SVGID_2_"><use xlink:href="#SVGID_1_" overflow="visible"/></clipPath><g class="st1"><path d="M896.3 1285.5c-.3.1-.8.2-1.3.4-6.7 1.9-12.9 3.4-19.5 4.9-2 .4-4 .6-5.6.7-.3 0-.8-.1-.9-.4 0-.2.1-.6.1-.8.5-1.7 1-3.5 1.6-5.2.1-.4.4-.7.8-.9 1.9-1.1 3.8-2.3 5.8-3.4 1.8-1 3.3-2.4 4.6-3.9.4-.4.7-.9 1-1.3.2-.4.4-.9.5-1.4.2-1.2-.3-2.1-1.3-2.7-1.3-.8-2.8-1.5-4.3-2-1-.3-2-.3-2.8.3-.6.4-1.1.9-1.6 1.4-.5.6-1 1.2-1.4 1.9-1.5 2.3-2.7 4.7-3.7 7.2-.6 1.6-1.8 2.3-3.3 2.8h-.4c.1-.5.3-1 .4-1.4.3-1.4.9-2.8 1.7-4 .5-.8 1-1.7 1.5-2.5.3-.5.5-1 .7-1.6.4-1 .1-1.8-.8-2.4-.8-.5-1.6-1-2.5-1.5l-.6-.3c-.4-.1-.6 0-.7.4-.2 1.2-.8 2.2-1.4 3.2-3 4.8-6.4 9.2-9.9 13.7-.4.5-.9 1-1.3 1.5-.2.2-.3.4-.7.3.2-.6.4-1.2.7-1.8 1.8-4.3 3.8-8.6 5.5-13 .3-.7.2-1.2-.2-1.8-.8-1.1-1.8-2-2.9-2.8-.5-.3-.6-.3-.9.3-.2.3-.4.6-.6.8-1.1.8-2.4 1.2-3.8 1.4-1.6.1-3.1-.3-4.6-1-.9-.5-1.7-1-2.5-1.4-.2-.1-.4-.2-.6-.2-.3-.1-.5.1-.4.4l.3.6c.5.7 1.1 1.3 1.6 1.9.6.7.8 1.4.6 2.2 0 .2-.1.5-.2.7-.9 3.1-2.3 6.1-3.9 8.9-1.2 2.1-2.8 3.9-4.7 5.4-.4.3-.7.5-1.2.7v-.4c.1-1.5.4-3 .8-4.4 1-3.6 2.5-6.9 4.5-10 .2-.3.4-.6.7-.9.3-.4.7-.5 1.2-.4.2.1.5.2.7.2.2 0 .5 0 .6-.2.2-.2 0-.4-.1-.6-.1-.1-.2-.3-.3-.4-1.1-1.2-2.3-2.3-3.7-3.3-.8-.5-1.3-.5-2 0-.2.2-.4.3-.5.5-.3.4-.7.9-1 1.3-.3.4-.7.9-1.1 1.2-1.2 1-2.4 1.9-3.6 2.9-3.6 3-6.9 6.3-9.7 10-.1.2-.3.3-.5.5-1-2.2-1.9-4.4-2.9-6.6l.6-.3c1.1-.5 2.2-1 3.2-1.5 1.4-.6 2.6-1.4 3.8-2.4.4-.4.9-.8 1.2-1.3.8-1.1.8-1.6-.4-2.4-1.3-.9-2.6-1.5-4.1-1.9-1.1-.3-2.2-.5-3.3-.8-.2-.1-.5-.1-.6-.2-.9-.9-2-1.4-3.1-2-.8-.5-1.2-.3-1.4.7 0 .1 0 .2-.1.4-.1.5-.3 1-.5 1.5-.7 1.6-1.3 3.2-2 4.8-.1.1-.2.3-.2.4-.1-1-.7-1.6-1.5-2.1-1-.7-2.1-1.3-3.3-1.6-1.1-.4-2.2-.6-3.3-1-.1-.4-.4-.7-.8-.9-.8-.5-1.6-1-2.4-1.4-.1-.1-.2-.1-.3-.1-.6-.3-.9-.2-1.1.5-.1.3-.1.5-.2.8-.2.7-.3 1.4-.6 2.1-1.6 3.7-3.2 7.5-5.1 11.1l-4.8 8.7c-.4.7-.7 1.4-.8 2.2 0 .4 0 .7.2 1 .6.9 1.5 1.7 2.3 2.5.5.4.8.4 1.2-.1.3-.4.6-.9.8-1.4 1.8-4 3.8-8 5.9-11.9.3-.6.8-1 1.5-1.2.6-.2 1.2-.4 1.7-.5 2.3-.7 4.6-1.6 6.7-2.8 1-.6 2-1.2 2.8-2.1.1-.1.1-.1.3-.2-.1.2-.1.3-.2.4-1.8 3.8-3.7 7.5-5.8 11.1-.6 1-1.1 1.9-1.6 2.9-.4.9-.4 1.7.2 2.5.6.8 1.4 1.4 2.3 1.9.5.3.7.2 1.1-.3.2-.4.4-.8.7-1.2l6-11.7c.1-.2.2-.4.4-.7.2.3.3.5.4.8l3.6 8.1c.5 1.1 1.1 2.1 1.6 3.1.2.3.5.6.8.8.5.4.9.3 1.3-.2.1-.2.3-.3.4-.5 1.2-1.9 2.4-3.7 3.6-5.6 1.8-2.8 4-5.4 6.5-7.7.2-.1.3-.3.6-.4 0 .2-.1.3-.1.4-.4 1.2-.8 2.4-1.1 3.6-.5 1.7-1 3.3-1 5.1 0 1.2.2 2.3 1.3 3 .9.6 1.9 1.2 2.8 1.8 1 .6 2.1.6 3.2.1 1-.4 1.9-.9 2.6-1.6 1.7-1.5 3.1-3.2 4.4-5.2 1.4-2.2 2.6-4.6 3.8-7 .6-1.2 1-2.5 1.1-3.8.1-.5.1-.9-.3-1.4h2.1c.7-.1 1.3-.2 2-.4v.2c-.6 1.6-1.2 3.1-1.7 4.7-1.4 3.8-2.9 7.6-4.1 11.5-.2.8-.2 1.5.3 2.1.9 1.1 1.9 2 3 2.8.8.5 1.6.6 2.5.2.8-.3 1.4-.8 2-1.4l2.7-3c1.4-1.6 2.7-3.2 4.1-4.8.2-.2.4-.4.6-.7l.5.5 1.8 1.8c.5.5 1 .6 1.6.3l.6-.3c.1-.1.2-.1.4-.1-.3 1.1-.6 2.2-.9 3.2-.2.7-.1 1.3.3 1.9.6 1 1.4 1.8 2.3 2.6.5.5 1.2.7 1.9.8 1 .1 2.4-.1 4.1-.3 3.7-.8 5-1.2 8.4-1.9 5-1.2 6.9-1.6 11.3-2.9.8-.3 2-.7 2.8-1.1.7-.4 1-.9 1.1-1.4.3-1 .3-1.2.4-2.4-.4-.3-.6-.5-1-.5zm-23.1-6.8c1-1.7 2-3.4 3.3-4.9l1.5-1.5c.1-.1.3-.2.4-.3.4-.2.7-.1.7.3 0 .3 0 .7-.1 1.1-.3 1-.8 1.8-1.5 2.5-1.2 1.2-2.6 2.2-4.1 3-.1 0-.2.1-.4.1.2-.1.2-.2.2-.3zm-68-4.5c-.1.2-.3.3-.5.4-2 1.4-4.3 2.3-6.6 3h-.2c.7-1.5 1.4-3 2.1-4.6 1.1 0 2.2-.1 3.3-.1.6 0 1.1.1 1.6.4.7.2.7.4.3.9zm8.2 2.4c.1-.3.2-.4.2-.6l1.5-3.3c.2-.5.5-.8 1.2-.8 1 .1 2.1 0 3.1.1.4 0 .8.1 1.1.2.6.3.7.6.2 1.1-.2.2-.5.4-.7.5-1.2.8-2.5 1.3-3.8 1.8-.9.3-1.7.6-2.8 1z"/><path d="M790.9 1278.2c.9-.5 1.6-1.3 2.1-2.2.7-1.4.4-3-.7-4-.4-.4-.9-.7-1.3-.9-1.5-.8-3.1-1.3-4.8-1.5-.6-.1-1.1-.2-1.6-.7-.6-.7-1.3-1.2-2-1.8-.2-.2-.4-.3-.7-.4-.5-.2-.8 0-.9.5 0 .2 0 .4-.1.6-.1.6-.1 1.3-.4 1.9-.9 2.2-1.8 4.3-2.8 6.5-.1.3-.3.4-.6.4-2.1.5-4.1.9-6.2 1.4-.2 0-.4.1-.6.1.1-.4.1-.8.2-1.1l2.4-11.7c.4-1.8.8-3.6 1.3-5.3.3-1.1.5-2.2.8-3.2.1-.4.1-.7-.1-1.1-.6-1.5-1.7-2.6-3.1-3.4-.6-.3-1-.1-1 .5 0 .8-.3 1.4-.7 2-.2.2-.3.4-.4.6-4.4 6.6-8.8 13.1-13.2 19.7-1.3 2-2.7 4-4 6.1-.2.3-.3.4-.7.5-1.9.3-3.7.7-5.6 1-4.6.7-9.3 1.2-13.9 1.6-.5 0-1 .1-1.4.3-.7.2-.9.6-.5 1.2.3.6.8 1.1 1.2 1.6.4.5 1 .7 1.6.7 1.4.1 2.9 0 4.3-.2 3.6-.5 7.2-1.1 10.9-1.6.2 0 .5-.1.8-.1-.2.3-.3.5-.4.6-1.3 2-2.5 4-3.8 6-.5.8-.5 1.5.1 2.2.6.8 1.3 1.6 1.9 2.3.2.2.5.4.8.6.3.2.5.1.7-.1.2-.3.5-.7.7-1.1 2.1-3.6 4.2-7.3 6.4-10.9.2-.4.5-.6.9-.6l6.9-1.5c.2 0 .4-.1.6-.1-.2.8-.4 1.5-.5 2.2-.5 2.4-1 4.7-1.5 7.1-.7 3.2-1.3 6.4-2 9.6-.5 2.5-.9 5-1.4 7.5-.1.3-.1.6-.1.9-.1.5 0 1.1.3 1.5.6 1 1.3 1.9 2 2.8.3.4.7.6 1 .9.4.3.7.1.9-.3.1-.2.1-.4.1-.6.5-3.2 1-6.4 1.7-9.5.7-3.7 1.5-7.4 2.3-11.1l2.4-11.4c.1-.4.3-.6.7-.7 1.6-.4 3.3-.8 4.9-1.2h.4c-.6 1.3-1.2 2.6-1.9 3.8-1 1.9-1.9 3.8-2.9 5.7-.4.9-.4 1.8.2 2.5.6.7 1.3 1.3 2 1.9.3.3.6.3.9-.1.2-.3.4-.5.6-.8l6.3-12.6c.3-.5.6-.7 1.1-.8 2-.4 4.1-.8 6.1-1.2 1.3-.6 2.3-.9 3.3-1.5zm-22-12.9c-.6 2.6-1.3 5.2-2 7.8-.4 1.8-.9 3.5-1.3 5.3-.1.3-.2.4-.4.5-2.1.4-4.2.9-6.4 1.3v-.1-.1c3.4-5.3 6.7-10.6 10.1-15.9 0-.1.1-.1.2-.2h.1c-.1.5-.2 1-.3 1.4zm14.3 11h-.4c.4-1.1.8-2 1.1-3 .1-.3.3-.4.6-.4 1.4-.1 2.8-.1 4.2.2.2 0 .5.1.7.2.5.2.6.4.3.9-.3.3-.6.6-.9.8-.5.3-1 .4-1.5.6-1.4.1-2.7.4-4.1.7zM1122.6 1285.4c-.3.1-.8.2-1.3.4-6.7 1.9-12.9 3.4-19.5 4.9-2 .4-4 .6-5.6.7-.3 0-.8-.1-.9-.4 0-.2.1-.6.1-.8.5-1.7 1-3.5 1.6-5.2.1-.4.4-.7.8-.9 1.9-1.1 3.8-2.3 5.8-3.4 1.8-1 3.3-2.4 4.6-3.9.4-.4.7-.9 1-1.3.2-.4.4-.9.5-1.4.2-1.2-.3-2.1-1.3-2.7-1.3-.8-2.8-1.5-4.3-2-1-.3-2-.3-2.8.3-.6.4-1.1.9-1.6 1.4-.5.6-1 1.2-1.4 1.9-1.5 2.3-2.7 4.7-3.7 7.2-.6 1.6-1.8 2.3-3.3 2.8h-.4c.1-.5.3-1 .4-1.4.3-1.4.9-2.8 1.7-4 .5-.8 1-1.7 1.5-2.5.3-.5.5-1 .7-1.6.4-1 .1-1.8-.8-2.4-.8-.5-1.6-1-2.5-1.5l-.6-.3c-.4-.1-.6 0-.7.4-.2 1.2-.8 2.2-1.4 3.2-3 4.8-6.4 9.2-9.9 13.7-.4.5-.9 1-1.3 1.5-.2.2-.3.4-.7.3.2-.6.4-1.2.7-1.8 1.8-4.3 3.8-8.6 5.5-13 .3-.7.2-1.2-.2-1.8-.8-1.1-1.8-2-2.9-2.8-.5-.3-.6-.3-.9.3-.2.3-.4.6-.6.8-1.1.8-2.4 1.2-3.8 1.4-1.6.1-3.1-.3-4.6-1-.9-.5-1.7-1-2.5-1.4-.2-.1-.4-.2-.6-.2-.3-.1-.5.1-.4.4l.3.6c.5.7 1.1 1.3 1.6 1.9.6.7.8 1.4.6 2.2 0 .2-.1.5-.2.7-.9 3.1-2.3 6.1-3.9 8.9-1.2 2.1-2.8 3.9-4.7 5.4-.4.3-.7.5-1.2.7v-.4c.1-1.5.4-3 .8-4.4 1-3.6 2.5-6.9 4.5-10 .2-.3.4-.6.7-.9.3-.4.7-.5 1.2-.4.2.1.5.2.7.2.2 0 .5 0 .6-.2.2-.2 0-.4-.1-.6-.1-.1-.2-.3-.3-.4-1.1-1.2-2.3-2.3-3.7-3.3-.8-.5-1.3-.5-2 0-.2.2-.4.3-.5.5-.3.4-.7.9-1 1.3-.3.4-.7.9-1.1 1.2-1.2 1-2.4 1.9-3.6 2.9-3.6 3-6.9 6.3-9.7 10-.1.2-.3.3-.5.5-1-2.2-1.9-4.4-2.9-6.6l.6-.3c1.1-.5 2.2-1 3.2-1.5 1.4-.6 2.6-1.4 3.8-2.4.4-.4.9-.8 1.2-1.3.8-1.1.8-1.6-.4-2.4-1.3-.9-2.6-1.5-4.1-1.9-1.1-.3-2.2-.5-3.3-.8-.2-.1-.5-.1-.6-.2-.9-.9-2-1.4-3.1-2-.8-.5-1.2-.3-1.4.7 0 .1 0 .2-.1.4-.1.5-.3 1-.5 1.5-.7 1.6-1.3 3.2-2 4.8-.1.1-.2.3-.2.4-.1-1-.7-1.6-1.5-2.1-1-.7-2.1-1.3-3.3-1.6-1.1-.4-2.2-.6-3.3-1-.1-.4-.4-.7-.8-.9-.8-.5-1.6-1-2.4-1.4-.1-.1-.2-.1-.3-.1-.6-.3-.9-.2-1.1.5-.1.3-.1.5-.2.8-.2.7-.3 1.4-.6 2.1-1.6 3.7-3.2 7.5-5.1 11.1l-4.8 8.7c-.4.7-.7 1.4-.8 2.2 0 .4 0 .7.2 1 .6.9 1.5 1.7 2.3 2.5.5.4.8.4 1.2-.1.3-.4.6-.9.8-1.4 1.8-4 3.8-8 5.9-11.9.3-.6.8-1 1.5-1.2.6-.2 1.2-.4 1.7-.5 2.3-.7 4.6-1.6 6.7-2.8 1-.6 2-1.2 2.8-2.1.1-.1.1-.1.3-.2-.1.2-.1.3-.2.4-1.8 3.8-3.7 7.5-5.8 11.1-.6 1-1.1 1.9-1.6 2.9-.4.9-.4 1.7.2 2.5.6.8 1.4 1.4 2.3 1.9.5.3.7.2 1.1-.3.2-.4.4-.8.7-1.2l6-11.7c.1-.2.2-.4.4-.7.2.3.3.5.4.8l3.6 8.1c.5 1.1 1.1 2.1 1.6 3.1.2.3.5.6.8.8.5.4.9.3 1.3-.2.1-.2.3-.3.4-.5 1.2-1.9 2.4-3.7 3.6-5.6 1.8-2.8 4-5.4 6.5-7.7.2-.1.3-.3.6-.4 0 .2-.1.3-.1.4-.4 1.2-.8 2.4-1.1 3.6-.5 1.7-1 3.3-1 5.1 0 1.2.2 2.3 1.3 3 .9.6 1.9 1.2 2.8 1.8 1 .6 2.1.6 3.2.1 1-.4 1.9-.9 2.6-1.6 1.7-1.5 3.1-3.2 4.4-5.2 1.4-2.2 2.6-4.6 3.8-7 .6-1.2 1-2.5 1.1-3.8.1-.5.1-.9-.3-1.4h2.1c.7-.1 1.3-.2 2-.4v.2c-.6 1.6-1.2 3.1-1.7 4.7-1.4 3.8-2.9 7.6-4.1 11.5-.2.8-.2 1.5.3 2.1.9 1.1 1.9 2 3 2.8.8.5 1.6.6 2.5.2.8-.3 1.4-.8 2-1.4l2.7-3c1.4-1.6 2.7-3.2 4.1-4.8.2-.2.4-.4.6-.7l.5.5 1.8 1.8c.5.5 1 .6 1.6.3l.6-.3c.1-.1.2-.1.4-.1-.3 1.1-.6 2.2-.9 3.2-.2.7-.1 1.3.3 1.9.6 1 1.4 1.8 2.3 2.6.5.5 1.2.7 1.9.8 1 .1 2.4-.1 4.1-.3 3.7-.8 5-1.2 8.4-1.9 5-1.2 6.9-1.6 11.3-2.9.8-.3 2-.7 2.8-1.1.7-.4 1-.9 1.1-1.4.3-1 .3-1.2.4-2.4-.3-.3-.5-.5-1-.5zm-23-6.7c1-1.7 2-3.4 3.3-4.9l1.5-1.5c.1-.1.3-.2.4-.3.4-.2.7-.1.7.3 0 .3 0 .7-.1 1.1-.3 1-.8 1.8-1.5 2.5-1.2 1.2-2.6 2.2-4.1 3-.1 0-.2.1-.4.1.1-.2.2-.3.2-.3zm-68-4.6c-.1.2-.3.3-.5.4-2 1.4-4.3 2.3-6.6 3h-.2c.7-1.5 1.4-3 2.1-4.6 1.1 0 2.2-.1 3.3-.1.6 0 1.1.1 1.6.4.6.2.7.5.3.9zm8.2 2.4c.1-.3.2-.4.2-.6l1.5-3.3c.2-.5.5-.8 1.2-.8 1 .1 2.1 0 3.1.1.4 0 .8.1 1.1.2.6.3.7.6.2 1.1-.2.2-.5.4-.7.5-1.2.8-2.5 1.3-3.8 1.8-.9.4-1.8.6-2.8 1z"/><path d="M1017.3 1278.1c.9-.5 1.6-1.3 2.1-2.2.7-1.4.4-3-.7-4-.4-.4-.9-.7-1.3-.9-1.5-.8-3.1-1.3-4.8-1.5-.6-.1-1.1-.2-1.6-.7-.6-.7-1.3-1.2-2-1.8-.2-.2-.4-.3-.7-.4-.5-.2-.8 0-.9.5 0 .2 0 .4-.1.6-.1.6-.1 1.3-.4 1.9-.9 2.2-1.8 4.3-2.8 6.5-.1.3-.3.4-.6.4-2.1.5-4.1.9-6.2 1.4-.2 0-.4.1-.6.1.1-.4.1-.8.2-1.1l2.4-11.7c.4-1.8.8-3.6 1.3-5.3.3-1.1.5-2.2.8-3.2.1-.4.1-.7-.1-1.1-.6-1.5-1.7-2.6-3.1-3.4-.6-.3-1-.1-1 .5 0 .8-.3 1.4-.7 2-.2.2-.3.4-.4.6-4.4 6.6-8.8 13.1-13.2 19.7-1.3 2-2.7 4-4 6.1-.2.3-.3.4-.7.5-1.9.3-3.7.7-5.6 1-4.6.7-9.3 1.2-13.9 1.6-.5 0-1 .1-1.4.3-.7.2-.9.6-.5 1.2.3.6.8 1.1 1.2 1.6.4.5 1 .7 1.6.7 1.4.1 2.9 0 4.3-.2 3.6-.5 7.2-1.1 10.9-1.6.2 0 .5-.1.8-.1-.2.3-.3.5-.4.6-1.3 2-2.5 4-3.8 6-.5.8-.5 1.5.1 2.2.6.8 1.3 1.6 1.9 2.3.2.2.5.4.8.6.3.2.5.1.7-.1.2-.3.5-.7.7-1.1 2.1-3.6 4.2-7.3 6.4-10.9.2-.4.5-.6.9-.6l6.9-1.5c.2 0 .4-.1.6-.1-.2.8-.4 1.5-.5 2.2-.5 2.4-1 4.7-1.5 7.1-.7 3.2-1.3 6.4-2 9.6-.5 2.5-.9 5-1.4 7.5-.1.3-.1.6-.1.9-.1.5 0 1.1.3 1.5.6 1 1.3 1.9 2 2.8.3.4.7.6 1 .9.4.3.7.1.9-.3.1-.2.1-.4.1-.6.5-3.2 1-6.4 1.7-9.5.7-3.7 1.5-7.4 2.3-11.1l2.4-11.4c.1-.4.3-.6.7-.7 1.6-.4 3.3-.8 4.9-1.2h.4c-.6 1.3-1.2 2.6-1.9 3.8-1 1.9-1.9 3.8-2.9 5.7-.4.9-.4 1.8.2 2.5.6.7 1.3 1.3 2 1.9.3.3.6.3.9-.1.2-.3.4-.5.6-.8l6.3-12.6c.3-.5.6-.7 1.1-.8 2-.4 4.1-.8 6.1-1.2 1.3-.5 2.3-.9 3.3-1.5zm-22.1-12.9c-.6 2.6-1.3 5.2-2 7.8-.4 1.8-.9 3.5-1.3 5.3-.1.3-.2.4-.4.5-2.1.4-4.2.9-6.4 1.3v-.1-.1c3.4-5.3 6.7-10.6 10.1-15.9 0-.1.1-.1.2-.2h.1c-.1.5-.2 1-.3 1.4zm14.4 11h-.4c.4-1.1.8-2 1.1-3 .1-.3.3-.4.6-.4 1.4-.1 2.8-.1 4.2.2.2 0 .5.1.7.2.5.2.6.4.3.9-.3.3-.6.6-.9.8-.5.3-1 .4-1.5.6-1.4.1-2.8.4-4.1.7z"/><g><path d="M1349 1285.3c-.3.1-.8.2-1.3.4-6.7 1.9-12.9 3.4-19.5 4.9-2 .4-4 .6-5.6.7-.3 0-.8-.1-.9-.4 0-.2.1-.6.1-.8.5-1.7 1-3.5 1.6-5.2.1-.4.4-.7.8-.9 1.9-1.1 3.8-2.3 5.8-3.4 1.8-1 3.3-2.4 4.6-3.9.4-.4.7-.9 1-1.3.2-.4.4-.9.5-1.4.2-1.2-.3-2.1-1.3-2.7-1.3-.8-2.8-1.5-4.3-2-1-.3-2-.3-2.8.3-.6.4-1.1.9-1.6 1.4-.5.6-1 1.2-1.4 1.9-1.5 2.3-2.7 4.7-3.7 7.2-.6 1.6-1.8 2.3-3.3 2.8h-.4c.1-.5.3-1 .4-1.4.3-1.4.9-2.8 1.7-4 .5-.8 1-1.7 1.5-2.5.3-.5.5-1 .7-1.6.4-1 .1-1.8-.8-2.4-.8-.5-1.6-1-2.5-1.5l-.6-.3c-.4-.1-.6 0-.7.4-.2 1.2-.8 2.2-1.4 3.2-3 4.8-6.4 9.2-9.9 13.7-.4.5-.9 1-1.3 1.5-.2.2-.3.4-.7.3.2-.6.4-1.2.7-1.8 1.8-4.3 3.8-8.6 5.5-13 .3-.7.2-1.2-.2-1.8-.8-1.1-1.8-2-2.9-2.8-.5-.3-.6-.3-.9.3-.2.3-.4.6-.6.8-1.1.8-2.4 1.2-3.8 1.4-1.6.1-3.1-.3-4.6-1-.9-.5-1.7-1-2.5-1.4-.2-.1-.4-.2-.6-.2-.3-.1-.5.1-.4.4l.3.6c.5.7 1.1 1.3 1.6 1.9.6.7.8 1.4.6 2.2 0 .2-.1.5-.2.7-.9 3.1-2.3 6.1-3.9 8.9-1.2 2.1-2.8 3.9-4.7 5.4-.4.3-.7.5-1.2.7v-.4c.1-1.5.4-3 .8-4.4 1-3.6 2.5-6.9 4.5-10 .2-.3.4-.6.7-.9.3-.4.7-.5 1.2-.4.2.1.5.2.7.2.2 0 .5 0 .6-.2.2-.2 0-.4-.1-.6-.1-.1-.2-.3-.3-.4-1.1-1.2-2.3-2.3-3.7-3.3-.8-.5-1.3-.5-2 0-.2.2-.4.3-.5.5-.3.4-.7.9-1 1.3-.3.4-.7.9-1.1 1.2-1.2 1-2.4 1.9-3.6 2.9-3.6 3-6.9 6.3-9.7 10-.1.2-.3.3-.5.5-1-2.2-1.9-4.4-2.9-6.6l.6-.3c1.1-.5 2.2-1 3.2-1.5 1.4-.6 2.6-1.4 3.8-2.4.4-.4.9-.8 1.2-1.3.8-1.1.8-1.6-.4-2.4-1.3-.9-2.6-1.5-4.1-1.9-1.1-.3-2.2-.5-3.3-.8-.2-.1-.5-.1-.6-.2-.9-.9-2-1.4-3.1-2-.8-.5-1.2-.3-1.4.7 0 .1 0 .2-.1.4-.1.5-.3 1-.5 1.5-.7 1.6-1.3 3.2-2 4.8-.1.1-.2.3-.2.4-.1-1-.7-1.6-1.5-2.1-1-.7-2.1-1.3-3.3-1.6-1.1-.4-2.2-.6-3.3-1-.1-.4-.4-.7-.8-.9-.8-.5-1.6-1-2.4-1.4-.1-.1-.2-.1-.3-.1-.6-.3-.9-.2-1.1.5-.1.3-.1.5-.2.8-.2.7-.3 1.4-.6 2.1-1.6 3.7-3.2 7.5-5.1 11.1l-4.8 8.7c-.4.7-.7 1.4-.8 2.2 0 .4 0 .7.2 1 .6.9 1.5 1.7 2.3 2.5.5.4.8.4 1.2-.1.3-.4.6-.9.8-1.4 1.8-4 3.8-8 5.9-11.9.3-.6.8-1 1.5-1.2.6-.2 1.2-.4 1.7-.5 2.3-.7 4.6-1.6 6.7-2.8 1-.6 2-1.2 2.8-2.1.1-.1.1-.1.3-.2-.1.2-.1.3-.2.4-1.8 3.8-3.7 7.5-5.8 11.1-.6 1-1.1 1.9-1.6 2.9-.4.9-.4 1.7.2 2.5.6.8 1.4 1.4 2.3 1.9.5.3.7.2 1.1-.3.2-.4.4-.8.7-1.2l6-11.7c.1-.2.2-.4.4-.7.2.3.3.5.4.8l3.6 8.1c.5 1.1 1.1 2.1 1.6 3.1.2.3.5.6.8.8.5.4.9.3 1.3-.2.1-.2.3-.3.4-.5 1.2-1.9 2.4-3.7 3.6-5.6 1.8-2.8 4-5.4 6.5-7.7.2-.1.3-.3.6-.4 0 .2-.1.3-.1.4-.4 1.2-.8 2.4-1.1 3.6-.5 1.7-1 3.3-1 5.1 0 1.2.2 2.3 1.3 3 .9.6 1.9 1.2 2.8 1.8 1 .6 2.1.6 3.2.1 1-.4 1.9-.9 2.6-1.6 1.7-1.5 3.1-3.2 4.4-5.2 1.4-2.2 2.6-4.6 3.8-7 .6-1.2 1-2.5 1.1-3.8.1-.5.1-.9-.3-1.4h2.1c.7-.1 1.3-.2 2-.4v.2c-.6 1.6-1.2 3.1-1.7 4.7-1.4 3.8-2.9 7.6-4.1 11.5-.2.8-.2 1.5.3 2.1.9 1.1 1.9 2 3 2.8.8.5 1.6.6 2.5.2.8-.3 1.4-.8 2-1.4l2.7-3c1.4-1.6 2.7-3.2 4.1-4.8.2-.2.4-.4.6-.7l.5.5 1.8 1.8c.5.5 1 .6 1.6.3l.6-.3c.1-.1.2-.1.4-.1-.3 1.1-.6 2.2-.9 3.2-.2.7-.1 1.3.3 1.9.6 1 1.4 1.8 2.3 2.6.5.5 1.2.7 1.9.8 1 .1 2.4-.1 4.1-.3 3.7-.8 5-1.2 8.4-1.9 5-1.2 6.9-1.6 11.3-2.9.8-.3 2-.7 2.8-1.1.7-.4 1-.9 1.1-1.4.3-1 .3-1.2.4-2.4-.4-.3-.6-.5-1-.5zm-23-6.7c1-1.7 2-3.4 3.3-4.9l1.5-1.5c.1-.1.3-.2.4-.3.4-.2.7-.1.7.3 0 .3 0 .7-.1 1.1-.3 1-.8 1.8-1.5 2.5-1.2 1.2-2.6 2.2-4.1 3-.1 0-.2.1-.4.1.1-.1.1-.2.2-.3zm-68.1-4.6c-.1.2-.3.3-.5.4-2 1.4-4.3 2.3-6.6 3h-.2c.7-1.5 1.4-3 2.1-4.6 1.1 0 2.2-.1 3.3-.1.6 0 1.1.1 1.6.4.7.2.7.5.3.9zm8.3 2.4c.1-.3.2-.4.2-.6l1.5-3.3c.2-.5.5-.8 1.2-.8 1 .1 2.1 0 3.1.1.4 0 .8.1 1.1.2.6.3.7.6.2 1.1-.2.2-.5.4-.7.5-1.2.8-2.5 1.3-3.8 1.8-1 .4-1.8.7-2.8 1z"/><path d="M1243.6 1278c.9-.5 1.6-1.3 2.1-2.2.7-1.4.4-3-.7-4-.4-.4-.9-.7-1.3-.9-1.5-.8-3.1-1.3-4.8-1.5-.6-.1-1.1-.2-1.6-.7-.6-.7-1.3-1.2-2-1.8-.2-.2-.4-.3-.7-.4-.5-.2-.8 0-.9.5 0 .2 0 .4-.1.6-.1.6-.1 1.3-.4 1.9-.9 2.2-1.8 4.3-2.8 6.5-.1.3-.3.4-.6.4-2.1.5-4.1.9-6.2 1.4-.2 0-.4.1-.6.1.1-.4.1-.8.2-1.1l2.4-11.7c.4-1.8.8-3.6 1.3-5.3.3-1.1.5-2.2.8-3.2.1-.4.1-.7-.1-1.1-.6-1.5-1.7-2.6-3.1-3.4-.6-.3-1-.1-1 .5 0 .8-.3 1.4-.7 2-.2.2-.3.4-.4.6-4.4 6.6-8.8 13.1-13.2 19.7-1.3 2-2.7 4-4 6.1-.2.3-.3.4-.7.5-1.9.3-3.7.7-5.6 1-4.6.7-9.3 1.2-13.9 1.6-.5 0-1 .1-1.4.3-.7.2-.9.6-.5 1.2.3.6.8 1.1 1.2 1.6.4.5 1 .7 1.6.7 1.4.1 2.9 0 4.3-.2 3.6-.5 7.2-1.1 10.9-1.6.2 0 .5-.1.8-.1-.2.3-.3.5-.4.6-1.3 2-2.5 4-3.8 6-.5.8-.5 1.5.1 2.2.6.8 1.3 1.6 1.9 2.3.2.2.5.4.8.6.3.2.5.1.7-.1.2-.3.5-.7.7-1.1 2.1-3.6 4.2-7.3 6.4-10.9.2-.4.5-.6.9-.6l6.9-1.5c.2 0 .4-.1.6-.1-.2.8-.4 1.5-.5 2.2-.5 2.4-1 4.7-1.5 7.1-.7 3.2-1.3 6.4-2 9.6-.5 2.5-.9 5-1.4 7.5-.1.3-.1.6-.1.9-.1.5 0 1.1.3 1.5.6 1 1.3 1.9 2 2.8.3.4.7.6 1 .9.4.3.7.1.9-.3.1-.2.1-.4.1-.6.5-3.2 1-6.4 1.7-9.5.7-3.7 1.5-7.4 2.3-11.1l2.4-11.4c.1-.4.3-.6.7-.7 1.6-.4 3.3-.8 4.9-1.2h.4c-.6 1.3-1.2 2.6-1.9 3.8-1 1.9-1.9 3.8-2.9 5.7-.4.9-.4 1.8.2 2.5.6.7 1.3 1.3 2 1.9.3.3.6.3.9-.1.2-.3.4-.5.6-.8l6.3-12.6c.3-.5.6-.7 1.1-.8 2-.4 4.1-.8 6.1-1.2 1.3-.5 2.4-.9 3.3-1.5zm-22-12.9c-.6 2.6-1.3 5.2-2 7.8-.4 1.8-.9 3.5-1.3 5.3-.1.3-.2.4-.4.5-2.1.4-4.2.9-6.4 1.3v-.1-.1c3.4-5.3 6.7-10.6 10.1-15.9 0-.1.1-.1.2-.2h.1c-.1.5-.2 1-.3 1.4zm14.3 11h-.4c.4-1.1.8-2 1.1-3 .1-.3.3-.4.6-.4 1.4-.1 2.8-.1 4.2.2.2 0 .5.1.7.2.5.2.6.4.3.9-.3.3-.6.6-.9.8-.5.3-1 .4-1.5.6-1.4.1-2.7.4-4.1.7z"/></g></g><g><path class="st0" d="M1191.4 892.5c-17.2-48.9-32.1-214.6-32.1-214.6h-50s3.4 142-10.6 186.5c-11.4 36.2-39.7 42-59.4 46.2-19.3 4.1-59.5 3.5-78.9 0-19.8-3.6-48-10-59.4-46.1C887 820 890.3 678 890.3 678h-50s-14.7 165.8-31.9 214.7c-38 108-129.9 138-129.9 138l28.6 206.9 264.4-.1h57.1l264.4-.1 28.4-206.9c0-.1-92-30-130-138z"/></g></g></svg>